<?xml version="1.0" encoding="utf-8"?>
<!-- Generator: Adobe Illustrator 16.0.4, SVG Export Plug-In . SVG Version: 6.00 Build 0)  -->
<!DOCTYPE svg PUBLIC "-//W3C//DTD SVG 1.1//EN" "http://www.w3.org/Graphics/SVG/1.1/DTD/svg11.dtd">
<svg version="1.1" id="圖層_1" xmlns="http://www.w3.org/2000/svg" xmlns:xlink="http://www.w3.org/1999/xlink" x="0px" y="0px"
	 width="20px" height="24.525px" viewBox="0 0 20 24.525" enable-background="new 0 0 20 24.525" xml:space="preserve">
<g>
	<path d="M5.9,0C4.91,0,4.09,0.806,4.072,1.798L4.069,1.891v14.641H1.826c-0.49,0-0.949,0.189-1.294,0.535
		c-0.7,0.7-0.71,1.851-0.021,2.564l0.071,0.074l3.857,4.298c0.342,0.336,0.797,0.521,1.281,0.521c0.021,0,0.08-0.002,0.102-0.002
		c0.001,0,0.079,0.004,0.079,0.004l0.029-0.001c0.051,0,0.102-0.002,0.151-0.007l0.181-0.026c0.017-0.004,0.032-0.008,0.061-0.016
		c0,0,0.091-0.021,0.109-0.026c0.013-0.005,0.088-0.032,0.088-0.032s0.064-0.022,0.082-0.029l0.108-0.051
		c0.019-0.009,0.038-0.018,0.053-0.026c0.018-0.01,0.14-0.083,0.154-0.092c0,0,0.134-0.099,0.146-0.108
		c0.027-0.021,0.053-0.047,0.082-0.073l0.077-0.068l0.017-0.011c0.015-0.01,0.373-0.244,0.439-1.003
		c0.036-0.417,0.05-1.381,0.05-1.388L7.729,1.878L7.73,1.83C7.73,0.821,6.909,0,5.9,0z"/>
	<path d="M19.925,10.033L19.88,9.901c-0.039-0.087-0.069-0.172-0.094-0.254c-0.024-0.083-0.052-0.167-0.08-0.255l-1.179-3.605
		l-0.596-1.891c-0.039-0.126-0.067-0.228-0.088-0.305c-0.02-0.078-0.039-0.156-0.058-0.233c-0.021-0.078-0.034-0.14-0.043-0.188
		c-0.079-0.312-0.177-0.635-0.292-0.975c-0.116-0.34-0.232-0.669-0.35-0.988c-0.067-0.175-0.119-0.334-0.151-0.48
		c-0.034-0.145-0.087-0.272-0.16-0.385c-0.072-0.111-0.183-0.196-0.327-0.254C16.318,0.028,16.105,0,15.825,0
		c-0.33,0-0.587,0.01-0.772,0.027c-0.184,0.021-0.324,0.06-0.421,0.117c-0.097,0.06-0.167,0.144-0.211,0.254
		c-0.044,0.111-0.09,0.261-0.138,0.443c-0.106,0.33-0.194,0.661-0.262,0.996c-0.067,0.334-0.15,0.662-0.248,0.98l-0.159,0.407
		l-0.247,0.669c-0.039,0.194-0.085,0.389-0.139,0.582c-0.054,0.194-0.119,0.389-0.196,0.582l-0.931,2.908
		c-0.021,0.175-0.062,0.381-0.131,0.618c-0.068,0.236-0.117,0.467-0.146,0.689c-0.06,0.146-0.104,0.261-0.138,0.343
		c-0.035,0.083-0.057,0.145-0.066,0.188c-0.01,0.043-0.018,0.08-0.021,0.109c-0.004,0.027-0.006,0.062-0.006,0.102
		c-0.02,0.049-0.029,0.116-0.029,0.204c0,0.136,0.052,0.252,0.152,0.349c0.102,0.098,0.227,0.151,0.371,0.16
		c0.125,0,0.266,0.014,0.421,0.036c0.155,0.024,0.31,0.037,0.466,0.037c0.224,0,0.44-0.039,0.654-0.116
		c0.212-0.077,0.357-0.208,0.436-0.393l0.582-2.021l0.074-0.248c0.184,0,0.365,0.016,0.543,0.044
		c0.18,0.029,0.381,0.043,0.604,0.043c0.106,0,0.225-0.007,0.354-0.021c0.131-0.015,0.334-0.046,0.604-0.095
		c0.039,0.252,0.089,0.536,0.153,0.851c0.062,0.315,0.117,0.599,0.166,0.851l0.088,0.523c0,0.058,0.002,0.121,0.008,0.189
		c0.005,0.067,0.031,0.11,0.08,0.13c0.048,0.049,0.126,0.085,0.232,0.108c0.106,0.024,0.223,0.044,0.35,0.059
		c0.125,0.016,0.255,0.021,0.386,0.021c0.13,0,0.245,0,0.341,0c0.165,0,0.34-0.007,0.523-0.021s0.316-0.041,0.393-0.08
		c0.165-0.048,0.281-0.092,0.35-0.13c0.066-0.039,0.102-0.103,0.102-0.189C19.997,10.222,19.973,10.13,19.925,10.033z M15.184,5.831
		l0.379-2.429c0.078,0.146,0.149,0.327,0.217,0.546c0.068,0.218,0.13,0.44,0.183,0.669c0.054,0.228,0.101,0.447,0.138,0.66
		c0.039,0.214,0.067,0.398,0.088,0.554H15.184z"/>
	<path d="M19.241,13.869c-0.083-0.16-0.22-0.254-0.414-0.284h-0.029c-0.028-0.009-0.082-0.015-0.159-0.015c-0.078,0-0.131,0-0.16,0
		c-0.465-0.01-0.931-0.015-1.396-0.015c-0.465,0-0.936,0-1.411,0h-1.729c-0.437,0-0.783,0.002-1.039,0.007
		c-0.258,0.005-0.451,0.031-0.582,0.08s-0.219,0.136-0.264,0.262c-0.043,0.127-0.074,0.306-0.094,0.538v0.117
		c0,0.049-0.002,0.101-0.008,0.153c-0.004,0.053-0.007,0.104-0.007,0.152c0,0.164,0.012,0.337,0.036,0.517
		c0.023,0.179,0.09,0.354,0.197,0.531c0.135,0.019,0.275,0.033,0.42,0.043c0.146,0.009,0.291,0.015,0.437,0.015
		s0.286-0.005,0.422-0.015c0.136-0.011,0.267-0.024,0.394-0.043h-0.029c0.107,0,0.197-0.011,0.277-0.03
		c0.076-0.018,0.153-0.029,0.231-0.029c0.291,0.012,0.571,0.021,0.843,0.029c0.271,0.01,0.543,0.025,0.814,0.045
		c-0.01,0.009-0.014,0.024-0.014,0.043l-0.045,0.189c-0.185,0.465-0.429,0.91-0.733,1.337c-0.306,0.427-0.613,0.857-0.925,1.294
		l-0.465,0.669l-0.857,1.234c-0.204,0.35-0.46,0.697-0.771,1.048c-0.166,0.165-0.267,0.351-0.306,0.559
		c-0.039,0.209-0.058,0.411-0.058,0.604c0,0.233,0,0.438,0,0.611s0.017,0.32,0.051,0.437c0.033,0.116,0.095,0.204,0.182,0.263
		c0.088,0.057,0.219,0.086,0.393,0.086c0.64,0,1.271,0.024,1.891,0.074c0.621,0.048,1.266,0.071,1.934,0.071
		c0.379,0,0.764-0.01,1.156-0.028c0.393-0.02,0.788-0.029,1.186-0.029c0.203,0,0.355-0.037,0.459-0.109
		c0.102-0.071,0.168-0.169,0.203-0.29s0.051-0.267,0.051-0.438c0-0.169,0-0.351,0-0.545c0-0.126-0.004-0.257-0.014-0.392
		c-0.011-0.137-0.025-0.264-0.045-0.379l-0.232-0.175c-0.639-0.058-1.291-0.084-1.955-0.08c-0.665,0.005-1.326-0.007-1.985-0.036
		c0.058-0.116,0.119-0.232,0.183-0.35c0.062-0.116,0.141-0.252,0.231-0.407c0.093-0.154,0.211-0.337,0.356-0.546
		c0.146-0.208,0.33-0.462,0.553-0.763l0.219-0.305c0.135-0.204,0.276-0.414,0.421-0.633c0.146-0.219,0.296-0.434,0.451-0.646
		l0.247-0.335c0.223-0.3,0.432-0.594,0.625-0.879c0.193-0.286,0.413-0.564,0.654-0.836c0-0.011,0.017-0.039,0.051-0.087
		c0.034-0.049,0.072-0.104,0.115-0.167c0.044-0.063,0.084-0.132,0.125-0.204c0.039-0.073,0.058-0.144,0.058-0.21
		c0-0.137,0.007-0.312,0.022-0.524c0.015-0.213,0.012-0.423-0.008-0.632C19.374,14.213,19.323,14.029,19.241,13.869z"/>
</g>
</svg>
