<?xml version="1.0" encoding="utf-8"?>
<!-- Generator: Adobe Illustrator 16.0.4, SVG Export Plug-In . SVG Version: 6.00 Build 0)  -->
<!DOCTYPE svg PUBLIC "-//W3C//DTD SVG 1.1//EN" "http://www.w3.org/Graphics/SVG/1.1/DTD/svg11.dtd">
<svg version="1.1" id="圖層_1" xmlns="http://www.w3.org/2000/svg" xmlns:xlink="http://www.w3.org/1999/xlink" x="0px" y="0px"
	 width="21px" height="28px" viewBox="0 0 21 28" enable-background="new 0 0 21 28" xml:space="preserve">
<g id="nr7nfj_1_">
	<g>
		<path d="M9.8,0.105c0.471,0,0.94,0,1.411,0c0.061,0.015,0.121,0.038,0.182,0.042C13.488,0.321,15.385,1.03,17,2.37
			c3.07,2.547,4.342,5.827,3.773,9.782c-0.27,1.872-1.01,3.592-1.889,5.252c-1.92,3.632-4.447,6.819-7.24,9.809
			c-0.268,0.286-0.545,0.549-0.922,0.683c-0.145,0-0.29,0-0.435,0c-0.378-0.132-0.654-0.396-0.922-0.682
			c-1.522-1.612-2.949-3.304-4.259-5.096c-1.647-2.252-3.123-4.604-4.119-7.229c-0.756-1.992-1.113-4.026-0.751-6.164
			c0.68-4.013,3.742-7.342,7.699-8.295C8.548,0.283,9.178,0.212,9.8,0.105z M15.131,10.54c0.008-2.541-2.047-4.623-4.58-4.639
			C7.967,5.884,5.89,7.94,5.879,10.525c-0.01,2.542,2.067,4.622,4.618,4.626C13.049,15.155,15.123,13.09,15.131,10.54z"/>
	</g>
</g>
</svg>
