<?xml version="1.0" encoding="utf-8"?>
<!-- Generator: Adobe Illustrator 16.0.4, SVG Export Plug-In . SVG Version: 6.00 Build 0)  -->
<!DOCTYPE svg PUBLIC "-//W3C//DTD SVG 1.1//EN" "http://www.w3.org/Graphics/SVG/1.1/DTD/svg11.dtd">
<svg version="1.1" id="Layer_1" xmlns="http://www.w3.org/2000/svg" xmlns:xlink="http://www.w3.org/1999/xlink" x="0px" y="0px"
	 width="15px" height="12px" viewBox="242.5 244 15 12" enable-background="new 242.5 244 15 12" xml:space="preserve">
<path d="M257.07,247.432l-2.963-2.963c-0.546-0.545-1.43-0.545-1.977,0l-2.13,2.132l-2.133-2.132c-0.546-0.545-1.43-0.545-1.977,0
	l-2.962,2.963c-0.546,0.546-0.546,1.431,0,1.976l2.842,2.841c0.062,0.115,0.14,0.223,0.237,0.319l2.962,2.963
	c0.284,0.283,0.658,0.418,1.03,0.407c0.37,0.011,0.743-0.124,1.027-0.407l2.962-2.963c0.098-0.097,0.176-0.204,0.237-0.319
	l2.843-2.841C257.616,248.863,257.616,247.979,257.07,247.432z"/>
</svg>
