<?xml version="1.0" encoding="utf-8"?>
<!-- Generator: Adobe Illustrator 16.0.4, SVG Export Plug-In . SVG Version: 6.00 Build 0)  -->
<!DOCTYPE svg PUBLIC "-//W3C//DTD SVG 1.1//EN" "http://www.w3.org/Graphics/SVG/1.1/DTD/svg11.dtd">
<svg version="1.1" id="圖層_1" xmlns="http://www.w3.org/2000/svg" xmlns:xlink="http://www.w3.org/1999/xlink" x="0px" y="0px"
	 width="74.401px" height="76.7px" viewBox="0 0 74.401 76.7" enable-background="new 0 0 74.401 76.7" xml:space="preserve">
<g>
	<path fill="#E7DB97" d="M59.324,9.594c-0.014-0.011-0.027-0.022-0.041-0.033c-0.08-0.06-0.165-0.112-0.246-0.171
		c-0.432-0.314-0.869-0.62-1.314-0.916c-0.121-0.08-0.244-0.157-0.366-0.235c-0.439-0.284-0.884-0.56-1.336-0.825
		c-0.048-0.028-0.093-0.059-0.14-0.086c-0.055-0.031-0.111-0.058-0.166-0.089c-0.607-0.35-1.225-0.683-1.854-0.999
		c-0.09-0.045-0.175-0.099-0.266-0.143c-0.037-0.019-0.078-0.034-0.115-0.053c-0.648-0.315-1.307-0.612-1.975-0.891
		c-0.083-0.035-0.168-0.065-0.252-0.1c-0.61-0.249-1.229-0.48-1.854-0.698c-0.059-0.021-0.115-0.045-0.174-0.065
		c-0.096-0.032-0.191-0.059-0.287-0.09c-0.391-0.13-0.782-0.254-1.179-0.372c-0.181-0.053-0.362-0.104-0.543-0.154
		c-0.386-0.107-0.772-0.211-1.162-0.306c-0.07-0.018-0.14-0.039-0.21-0.056c-0.936-0.223-1.875-0.485-2.83-0.571
		c-0.036-0.003-0.073-0.004-0.109-0.007c-1.86-0.286-3.766-0.436-5.705-0.436c-2.861,0-5.643,0.334-8.318,0.945
		c-0.907,0.163-1.814,0.419-2.699,0.714C20.244,5.797,14.945,9.087,10.69,13.41c0.003-0.014,0.004-0.029,0.007-0.044
		c-1.567,1.598-2.987,3.34-4.248,5.199c-0.062,0.091-0.124,0.183-0.186,0.275c-0.131,0.197-0.271,0.389-0.398,0.589l0,0
		c-0.003,0-0.007,0-0.01-0.001c0.003,0.001,0.007,0.001,0.01,0.002l0,0c0.005,0.001,0.013,0.001,0.018,0.003
		C2.166,25.223,0,32.106,0,39.5c0,20.545,16.655,37.2,37.201,37.2c20.545,0,37.2-16.655,37.2-37.2
		C74.401,27.242,68.471,16.372,59.324,9.594z"/>
	<path opacity="0.15" fill="#1D1D1B" d="M26.539,58.412c1.637,1.221,2.783,2.639,3.094,3.693c0.834-0.662,1.813-1.038,3.012-1.04
		C25.577,57.018,19.71,51.152,15.7,44.107c-0.212,0.976-0.645,1.807-1.235,2.359c0.889,0.346,0.889,0.346,2.272,1.389
		c-2.307-0.645-1.828-0.724-3.757-0.674c-1.856,0.205-3.601-1.79-3.896-4.457c-0.296-2.667,0.969-4.996,2.826-5.202
		c0.001,0,0.002,0,0.003,0l-0.004-0.009c0.25-0.059,0.457-0.111,0.65-0.164c-1.75-4.787-2.708-9.95-2.708-15.334
		c0-0.948,0.041-1.887,0.101-2.82c-1.257,1.041-2.434,1.354-3.59,1.23c0.136,1.19-0.339,3.253-1.334,5.435
		c-0.992,2.174-2.233,3.882-3.219,4.564c0.863,0.804,1.402,1.917,1.424,3.588c-0.595-1.378-1.486-2.469-2.29-3.134
		c0,0.001,0.054,0.044,0.054,0.045c-0.15,0.652-0.29,1.349-0.407,2.013c-0.005,0.033-0.012,0.066-0.018,0.099
		c-0.105,0.611-0.202,1.248-0.277,1.87c-0.011,0.089-0.024,0.177-0.034,0.266c-0.065,0.567-0.137,1.098-0.175,1.672
		c-0.009,0.131-0.023,0.26-0.03,0.391C0.019,37.913,0,38.652,0,39.34c0,0.006,0,0.154,0,0.16c0,0.59-0.005,0.979,0.022,1.562
		c0.01,0.214,0.027,0.426,0.042,0.641c0.023,0.359,0.062,0.69,0.095,1.047c0.025,0.271,0.056,0.542,0.087,0.812
		c0.033,0.283,0.038,0.578,0.077,0.859c0.044,0.312,0.1,0.721,0.151,1.031c0.035,0.209,0.082,0.492,0.119,0.699
		c0.067,0.367,0.109,0.582,0.187,0.945c0.009,0.041,0.02,0.08,0.028,0.121c0.321,1.472,0.725,3.012,1.214,4.412
		c0,0.002,0.122-0.086,0.123-0.084c0.464-0.463,0.901-1.182,1.161-2.133c0.129,1.026-0.103,1.746-0.557,2.301
		c0.654,0.343,1.551,1.299,2.337,2.561c0.783,1.258,1.246,2.48,1.268,3.219c0.697-0.16,1.444-0.051,2.307,0.517
		c-1.02-0.196-1.903-0.106-2.531,0.132c-0.25,0.156-1.044-0.355-1.536-0.758l0.121,0.256c2.796,4.844,5.265,7.812,10.836,12.114
		l0.024-0.288l0,0c0.042-0.686-0.036-1.483-0.306-2.352c0.832,1.003,1.074,1.926,0.969,2.822l0,0l0,0
		c0.003,0.003,0.006,0.006,0.01,0.008l0,0l0,0c0.93-0.076,2.53,0.334,4.218,1.143c1.688,0.809,3.011,1.799,3.536,2.572
		c0.633-0.646,1.505-1.035,2.809-1.016c-1.027,0.406-1.797,0.963-2.323,1.535c0.025,0.009-0.225,0.209-0.2,0.219
		c0.479,0.173,1.229,0.434,1.718,0.588c0.247,0.078,0.557,0.171,0.805,0.244c0.302,0.088,0.575,0.163,0.879,0.243
		c0.257,0.068,0.509,0.131,0.769,0.193c0.303,0.073,0.633,0.147,0.939,0.214c0.259,0.055,0.567,0.117,0.828,0.167
		c0.316,0.061,0.621,0.113,0.939,0.165c0.254,0.043,0.636,0.098,0.893,0.135c0.338,0.049,0.579,0.076,0.921,0.115
		c0.239,0.027,0.4,0.045,0.642,0.067c0.385,0.036,0.705,0.063,1.094,0.088c0.201,0.013,0.547,0.032,0.75,0.042
		c0.588,0.027,1.016,0.039,1.609,0.039c0.006,0,0.305,0,0.311,0c0.744,0,0.941-0.041,1.674-0.087c0.049-0.003,0.669,0.003,0.718,0
		c0.709-0.047,1.991-0.233,2.69-0.317c-0.695-0.24-1.746-0.597-1.824-0.938v-0.001l-0.014,0.005
		c-0.498-1.112-1.516-2.36-3.074-3.416c1.836,0.379,2.937,1.199,3.623,2.303c0.971-0.921,3.137-1.9,5.764-2.51
		c2.617-0.607,4.988-0.684,6.268-0.288c0.132-1.29,0.76-2.509,2.238-3.656c-0.936,1.635-1.299,3.203-1.257,4.421
		c-0.034,0.406-0.036,0.394-0.034,0.406c2.923-1.516,5.855-3.512,8.586-6.076c-2.203,0.324-5,0.571-7.295,0.571
		c-8.206,0-15.898-2.155-22.551-5.908c-1.418,0.506-2.576,1.245-3.353,2.011c-0.679,0.91-3.125,0.235-5.464-1.508
		c-2.338-1.744-3.684-3.896-3.004-4.807l0.001-0.002l-0.01-0.004c0.557-1.045,0.971-2.5,0.999-4.166
		c0.578,1.39,0.505,2.613,0.04,3.77"/>
	<path opacity="0.15" fill="#1D1D1B" d="M9.954,19.164c0.127-1.968,0.365-3.861,0.736-5.754c-1.81,1.845-3.429,3.828-4.824,6.019
		l0,0C6.93,19.686,8.364,19.658,9.954,19.164z"/>
	<g>
		<path fill="#C5BA80" d="M70.883,42.352c0.162,1.634,0.775,2.668,1.672,3.367c-0.891,0.767-1.939,2.562-2.709,4.789
			c-0.771,2.234-1.055,4.301-0.822,5.451c-1.141-0.006-2.263,0.429-3.4,1.615c1.512-0.665,2.912-0.838,3.971-0.69l0.002-0.013
			l0.002,0.002c0.066,0.022,0.137,0.03,0.209,0.029c0.982-0.023,2.5-2.228,3.524-5.19c1.04-3.011,1.194-5.72,0.395-6.286
			c-0.046-0.032-0.093-0.061-0.146-0.079C72.656,44.811,71.661,43.809,70.883,42.352z"/>
		<path fill="#C5BA80" d="M56.861,45.449c-0.449,2.438-0.449,2.438-0.324,3.799c-1.815-0.675-4.346-0.305-6.604,1.154
			c-2.264,1.465-3.643,3.629-3.764,5.566c-0.666-0.38-0.572-0.541-2.984-1.135c1.908,1.645,2.311,1.955,3.524,3.417l0.009-0.012
			c0.001,0.001,0.002,0.003,0.003,0.005c1.451,2.244,5.243,2.375,8.469,0.289s4.664-5.596,3.212-7.842
			C57.105,48.253,57.513,48.816,56.861,45.449z"/>
		<g>
			<path fill="#C5BA80" d="M29.574,3.381c1.275,0.743,3.839,1.251,6.799,1.251c2.971,0,5.541-0.512,6.812-1.259
				c0.461,1.356,1.438,2.51,3.315,3.375c-1.203-1.298-1.944-2.646-2.298-3.833c-0.062-0.205-0.115-0.406-0.152-0.6l-0.016,0.002
				c0-0.001,0-0.001,0-0.001c0-0.738-1.143-1.394-2.916-1.817c-0.375-0.089-0.775-0.169-1.201-0.236
				c-0.543-0.086-1.126-0.151-1.737-0.196C37.601,0.025,36.997,0,36.373,0c-4.23,0-7.662,1.037-7.662,2.316
				c-0.06,0.307-0.15,0.629-0.27,0.961c-0.389,1.095-1.098,2.303-2.18,3.471C28.135,5.886,29.111,4.734,29.574,3.381z"/>
			<path fill="#C5BA80" d="M67.328,22.016c0.795,0.658,1.526,0.85,2.236,0.766c-0.059,0.736,0.267,2.003,0.908,3.339
				c0.643,1.34,1.43,2.389,2.042,2.801c-0.513,0.501-0.821,1.192-0.806,2.226c0.309-0.78,0.727-1.376,1.16-1.791
				c0.104-0.099,0.207-0.197,0.31-0.274l-0.005-0.006h0.002c0.577-0.277,0.303-2.049-0.613-3.958
				c-0.844-1.758-1.93-3.002-2.549-2.975c-0.053,0.002-0.109-0.002-0.154,0.02C69.209,22.33,68.32,22.323,67.328,22.016z"/>
			<path fill="#C5BA80" d="M50.879,9.184c-0.725,0.937-1.882,1.911-3.389,2.62c1.502-0.042,2.586-0.609,3.449-1.504
				c0.447,1.004,1.773,2.257,3.557,3.248c1.79,0.995,3.559,1.458,4.647,1.304c-0.307,1.207-0.216,2.43,0.542,3.73
				c-0.193-1.654,0.023-3.152,0.436-4.261l-0.01-0.003v-0.001c0.553-0.994-1.067-2.947-3.617-4.364
				C53.945,8.535,51.43,8.191,50.879,9.184z"/>
			<path fill="#C5BA80" d="M30.717,15.062l-0.012,0.013c-0.001-0.002-0.002-0.004-0.002-0.006c-1.453-2.789-5.879-3.357-9.886-1.269
				c-4.007,2.087-6.077,6.041-4.624,8.83c1.252,3,0.837,2.295,1.23,6.309c0.793-2.806,0.793-2.806,0.796-4.413
				c2.052,0.99,5.057,0.834,7.86-0.626c2.812-1.466,4.665-3.85,5.02-6.105c0.737,0.519,0.611,0.698,3.371,1.657
				C32.416,17.316,31.979,16.908,30.717,15.062z"/>
			<path fill="#C5BA80" d="M60.205,27.711c-1.967-2.459-4.947-3.344-6.66-1.976c-1.883,1.259-1.457,0.88-4.148,1.688
				c2.025,0.166,2.025,0.166,3.125-0.048c-0.402,1.536,0.108,3.57,1.483,5.291c1.38,1.727,3.259,2.673,4.849,2.613
				c-0.256,0.574-0.395,0.512-0.68,2.528c1.184-1.691,1.404-2.045,2.497-3.156l-0.011-0.006c0.002-0.001,0.002-0.002,0.004-0.002
				C62.376,33.274,62.17,30.171,60.205,27.711z"/>
			<path fill="#C5BA80" d="M14.551,42.045c0.371,0.746,0.738,1.342,1.149,2.062c0.143-0.656,0.188-1.377,0.105-2.128
				c-0.208-1.872-1.13-3.41-2.303-4.091c0.446-0.297,0.518-0.188,1.642-1.511c-1.31,0.548-1.777,0.754-2.585,0.972
				c0.246,0.671,0.507,1.334,0.784,1.99C13.917,39.884,14.389,40.949,14.551,42.045z"/>
			<path fill="#C5BA80" d="M27.516,40.728c1.559,4.376,6.791,6.511,11.688,4.767s7.602-6.705,6.043-11.082s-6.791-6.51-11.688-4.767
				S25.957,36.351,27.516,40.728z"/>
			<path fill="#ACA471" d="M54.192,72.252L54.192,72.252c-0.002-0.013,0.001-0.025-0.002-0.037
				c-0.042-1.218,0.321-2.786,1.257-4.421c-1.479,1.147-2.106,2.366-2.238,3.656c-1.279-0.396-3.65-0.319-6.268,0.288
				c-2.627,0.609-4.793,1.589-5.764,2.51c-0.687-1.104-1.787-1.924-3.623-2.303c1.559,1.056,2.576,2.304,3.074,3.416l0.014-0.006
				v0.002c0.078,0.341,0.432,0.596,0.982,0.766l0,0c0.159,0.049,0.336,0.091,0.527,0.125c0.004,0.001,0.008,0.002,0.011,0.002
				c0.179,0.031,0.372,0.057,0.575,0.074c0.023,0.003,0.047,0.006,0.071,0.008c0.419,0.035,0.886,0.042,1.39,0.023
				c0.047-0.002,0.096-0.005,0.143-0.008c0.217-0.01,0.439-0.025,0.668-0.045c0.041-0.004,0.082-0.007,0.124-0.011
				c0.263-0.025,0.532-0.058,0.808-0.096c0.056-0.007,0.112-0.017,0.168-0.025c0.224-0.032,0.451-0.07,0.681-0.112
				c0.078-0.014,0.155-0.027,0.234-0.043c0.286-0.055,0.574-0.113,0.867-0.182c0.232-0.054,0.462-0.111,0.687-0.17
				c0.068-0.018,0.134-0.038,0.201-0.057c0.155-0.043,0.311-0.085,0.461-0.13c0.093-0.027,0.181-0.057,0.271-0.085
				c0.121-0.038,0.243-0.074,0.36-0.113c0.12-0.041,0.233-0.082,0.351-0.123c0.083-0.029,0.17-0.059,0.251-0.088
				c0.136-0.051,0.266-0.104,0.396-0.154c0.057-0.023,0.115-0.045,0.17-0.066c0.141-0.059,0.275-0.117,0.408-0.177
				c0.041-0.019,0.084-0.035,0.123-0.054c0.147-0.066,0.289-0.135,0.426-0.204c0.021-0.01,0.043-0.021,0.062-0.03
				c0.148-0.075,0.29-0.151,0.426-0.229c0.006-0.004,0.014-0.008,0.021-0.012C53.641,73.496,54.291,72.816,54.192,72.252z"/>
			<path fill="#ACA471" d="M3.232,34.013c-0.022-1.672-0.562-2.784-1.424-3.588c0.986-0.682,2.228-2.39,3.219-4.564
				c0.995-2.182,1.47-4.245,1.334-5.435c1.156,0.125,2.333-0.189,3.59-1.23c0-0.011,0.001-0.021,0.002-0.032
				c-1.59,0.495-3.024,0.522-4.088,0.266c-0.003-0.001-0.007-0.001-0.01-0.002l-0.003,0.012l-0.001-0.001
				C4.888,19,2.958,21.163,1.541,24.271c-0.089,0.194-0.173,0.388-0.253,0.58c-0.161,0.384-0.305,0.762-0.432,1.129
				c-0.126,0.368-0.236,0.726-0.328,1.069c-0.229,0.858-0.348,1.627-0.346,2.238c0.001,0.734,0.175,1.241,0.536,1.406
				c0.104,0.074,0.209,0.176,0.313,0.263l0,0l0,0C1.835,31.621,2.637,32.635,3.232,34.013z"/>
			<path fill="#ACA471" d="M24.203,74.502c0.081-0.107,0.187-0.215,0.285-0.322h0c0.525-0.572,1.296-1.129,2.323-1.535
				c-1.304-0.02-2.176,0.37-2.809,1.016c-0.524-0.773-1.847-1.764-3.536-2.572c-1.688-0.809-3.288-1.219-4.218-1.143
				c-0.003,0-0.007,0-0.01,0c0-0.002,0-0.005,0-0.008c0.105-0.896-0.137-1.819-0.969-2.822c0.27,0.868,0.348,1.666,0.306,2.352
				c-0.019,0.305-0.054,0.593-0.119,0.846l0.009,0.002l-0.001,0.002c-0.043,0.091-0.056,0.194-0.039,0.309
				c0.034,0.228,0.184,0.496,0.431,0.787c0.123,0.146,0.271,0.297,0.439,0.451c0.507,0.463,1.208,0.957,2.037,1.418
				c0.276,0.154,0.566,0.305,0.868,0.449c0.604,0.289,1.196,0.527,1.75,0.711C22.616,74.992,23.941,75.05,24.203,74.502z"/>
			<path fill="#ACA471" d="M6.13,58.143c0.628-0.238,1.511-0.328,2.531-0.132c-0.862-0.567-1.61-0.677-2.307-0.517
				c-0.022-0.738-0.484-1.961-1.268-3.219c-0.786-1.262-1.684-2.218-2.337-2.561c0.454-0.555,0.686-1.274,0.557-2.301
				c-0.259,0.951-0.697,1.67-1.161,2.133c-0.025,0.024-0.049,0.058-0.074,0.081l0.005,0.006l0,0l0,0l-0.001,0.001
				c-0.136,0.084-0.208,0.256-0.224,0.494c0,0.006,0.001,0.014,0.001,0.02c-0.011,0.21,0.027,0.475,0.1,0.771
				c0.019,0.077,0.041,0.156,0.065,0.237c0.094,0.316,0.221,0.661,0.39,1.03c0.193,0.421,0.432,0.866,0.712,1.315
				c0.148,0.236,0.299,0.461,0.453,0.674c0.025,0.036,0.051,0.066,0.077,0.102c0.132,0.179,0.264,0.352,0.396,0.51
				c0.013,0.016,0.026,0.029,0.039,0.045c0.303,0.357,0.603,0.66,0.881,0.887l0,0l0,0C5.456,58.121,5.88,58.299,6.13,58.143z"/>
			<path fill="#ACA471" d="M29.633,62.105c-0.311-1.055-1.457-2.473-3.094-3.693c-1.641-1.224-3.333-1.918-4.433-1.91
				c0.465-1.156,0.538-2.38-0.04-3.77c-0.028,1.666-0.442,3.121-0.999,4.166l0.01,0.004l-0.001,0.002
				c-0.679,0.91,0.666,3.062,3.004,4.807c2.338,1.743,4.785,2.418,5.464,1.508c0.776-0.766,1.935-1.505,3.353-2.011
				c-0.084-0.048-0.168-0.095-0.252-0.143C31.446,61.067,30.467,61.443,29.633,62.105z"/>
			<path fill="#ACA471" d="M14.203,40.687c-0.385-0.985-1.25-1.714-0.86-1.347c-0.276-0.655-0.538-1.318-0.784-1.99
				c-0.193,0.052-0.401,0.105-0.65,0.164l0.004,0.009c-0.001,0-0.002,0-0.003,0c-1.856,0.206-3.122,2.535-2.826,5.202
				c0.295,2.667,2.04,4.662,3.896,4.457c1.929-0.05,1.45,0.029,3.757,0.674c-1.383-1.043-1.383-1.043-2.272-1.389
				c0.591-0.553,1.023-1.384,1.235-2.359c-0.411-0.721-0.435-0.707-0.806-1.453c0.01,0.07-0.101-0.193-0.343-0.609"/>
		</g>
	</g>
	<g>
		<ellipse fill="#9C9364" cx="36.373" cy="2.316" rx="5.079" ry="1.323"/>
		
			<ellipse transform="matrix(0.3266 -0.9452 0.9452 0.3266 -0.0982 102.0819)" fill="#9C9364" cx="71.588" cy="51.11" rx="4.041" ry="1.053"/>
		
			<ellipse transform="matrix(-0.4325 -0.9016 0.9016 -0.4325 79.3508 101.1805)" fill="#9C9364" cx="71.517" cy="25.618" rx="2.541" ry="0.662"/>
		
			<ellipse transform="matrix(-0.8741 -0.4858 0.4858 -0.8741 98.2941 48.979)" fill="#9C9364" cx="55.495" cy="11.75" rx="3.5" ry="1.175"/>
		
			<ellipse transform="matrix(0.4621 0.8868 -0.8868 0.4621 29.3292 -10.6549)" fill="#9C9364" cx="23.448" cy="18.85" rx="3.582" ry="5.974"/>
		
			<ellipse transform="matrix(-0.6242 -0.7812 0.7812 -0.6242 69.1671 93.6449)" fill="#9C9364" cx="57.104" cy="30.188" rx="4.163" ry="2.496"/>
		
			<ellipse transform="matrix(-0.543 -0.8397 0.8397 -0.543 35.3641 128.1816)" fill="#9C9364" cx="52.562" cy="54.468" rx="3.046" ry="5.079"/>
		
			<ellipse transform="matrix(-0.942 0.3356 -0.3356 -0.942 83.2593 60.7544)" fill="#9C9364" cx="36.381" cy="37.57" rx="6.752" ry="6.035"/>
		
			<ellipse transform="matrix(0.9741 -0.2261 0.2261 0.9741 -15.4535 12.63)" fill="#9C9364" cx="47.417" cy="73.786" rx="4.609" ry="1.2"/>
		
			<ellipse transform="matrix(0.9099 0.4149 -0.4149 0.9099 10.6952 0.8966)" fill="#9C9364" cx="3.284" cy="25.066" rx="1.094" ry="4.099"/>
		
			<ellipse transform="matrix(0.4317 -0.902 0.902 0.4317 -54.0423 59.0367)" fill="#9C9364" cx="19.833" cy="72.409" rx="0.837" ry="3.211"/>
		
			<ellipse transform="matrix(0.5288 0.8487 -0.8487 0.5288 48.5192 22.3805)" fill="#9C9364" cx="4.103" cy="54.888" rx="2.541" ry="0.662"/>
		
			<ellipse transform="matrix(0.5977 -0.8017 0.8017 0.5977 -37.9707 44.4561)" fill="#9C9364" cx="25.31" cy="60.061" rx="1.175" ry="3.5"/>
		<path fill="#9C9364" d="M12.054,38.826c-1.168,0.129-1.94,1.813-1.724,3.76c0.216,1.948,1.337,3.422,2.505,3.293
			c1.168-0.13,1.939-1.814,1.724-3.762c-0.008-0.072-0.026-0.139-0.036-0.209c-0.419-0.842-0.814-1.697-1.181-2.568
			C12.953,38.973,12.507,38.775,12.054,38.826z"/>
		<path fill="#9C9364" d="M14.523,41.908c-0.162-1.098-0.605-2.024-1.181-2.568C13.709,40.211,14.104,41.066,14.523,41.908z"/>
	</g>
</g>
</svg>
