<?xml version="1.0" encoding="utf-8"?>
<!-- Generator: Adobe Illustrator 16.0.4, SVG Export Plug-In . SVG Version: 6.00 Build 0)  -->
<!DOCTYPE svg PUBLIC "-//W3C//DTD SVG 1.1//EN" "http://www.w3.org/Graphics/SVG/1.1/DTD/svg11.dtd">
<svg version="1.1" id="圖層_1" xmlns="http://www.w3.org/2000/svg" xmlns:xlink="http://www.w3.org/1999/xlink" x="0px" y="0px"
	 width="73.543px" height="73.58px" viewBox="0 0 73.543 73.58" enable-background="new 0 0 73.543 73.58" xml:space="preserve">
<g>
	<path fill="#EED266" d="M73.471,36.613c0-17.951-12.925-32.873-29.976-36c-0.048-0.009-0.095-0.017-0.142-0.025
		c-0.594-0.106-1.195-0.199-1.801-0.277c-0.135-0.018-0.269-0.034-0.403-0.051c-0.484-0.057-0.97-0.102-1.46-0.14
		c-0.15-0.012-0.303-0.033-0.454-0.043c-0.001,0-0.002,0-0.003,0c-0.111-0.008-0.222-0.011-0.334-0.018
		c-0.113-0.007-0.228-0.013-0.342-0.017c-0.205-0.009-0.411-0.023-0.614-0.03c-0.005,0-0.01,0-0.014,0
		c-0.241-0.008-0.48-0.005-0.719-0.008c-0.104,0-0.209-0.001-0.312-0.002c-0.018,0-0.033-0.001-0.051-0.001
		c-0.006,0-0.012,0-0.019,0c-0.016,0-0.031,0-0.046,0c-0.336,0-0.67,0.018-1.007,0.026c-0.051,0.001-0.101,0.003-0.152,0.004
		C35.396,0.04,35.167,0.039,34.94,0.05c-0.054,0.002-0.109,0.001-0.165,0.005c-0.105,0.006-0.209,0.016-0.314,0.023
		c-0.235,0.015-0.47,0.042-0.704,0.062c-0.295,0.024-0.592,0.047-0.885,0.079c-0.055,0.006-0.109,0.009-0.163,0.014
		c-0.082,0.01-0.165,0.013-0.247,0.022c-0.016,0.002-0.03,0.004-0.048,0.006c-0.14,0.018-0.282,0.034-0.423,0.052
		c-0.005,0-0.008,0.001-0.013,0.001c-0.203,0.028-0.405,0.062-0.607,0.094c-0.072,0.011-0.143,0.022-0.216,0.033
		c-0.186,0.03-0.374,0.055-0.558,0.086c-0.052,0.009-0.101,0.018-0.153,0.027c-0.072,0.012-0.142,0.023-0.213,0.037
		c-0.003,0-0.004,0.001-0.006,0.001c-0.23,0.042-0.46,0.09-0.689,0.138c-0.04,0.007-0.08,0.015-0.12,0.024
		c-0.104,0.021-0.213,0.041-0.319,0.063c-0.027,0.005-0.055,0.013-0.083,0.019c-0.24,0.052-0.477,0.112-0.715,0.17
		c-0.131,0.031-0.262,0.06-0.393,0.093c-0.017,0.003-0.033,0.009-0.05,0.014c-0.733,0.185-1.457,0.394-2.17,0.623
		c-0.001,0-0.001,0-0.001,0h-0.001c-0.567,0.18-1.126,0.375-1.68,0.581c-0.047,0.018-0.096,0.033-0.141,0.049
		c-0.043,0.017-0.085,0.033-0.127,0.049c-0.035,0.016-0.073,0.03-0.111,0.045c-0.08,0.031-0.159,0.06-0.239,0.091
		c-0.191,0.076-0.38,0.157-0.569,0.237c-0.118,0.049-0.235,0.097-0.352,0.146c-0.059,0.026-0.122,0.05-0.18,0.075
		c-0.121,0.053-0.24,0.104-0.359,0.158c-0.056,0.024-0.111,0.047-0.167,0.073c-0.001,0-0.002,0-0.003,0
		c-0.292,0.132-0.583,0.268-0.872,0.407c-0.122,0.059-0.24,0.12-0.36,0.179c-0.349,0.174-0.697,0.348-1.041,0.533
		c-0.037,0.02-0.074,0.041-0.11,0.061c-0.176,0.096-0.345,0.207-0.521,0.306c-0.417,0.236-0.832,0.477-1.241,0.729
		c-0.135,0.083-0.277,0.157-0.411,0.242c-0.092,0.059-0.186,0.114-0.279,0.173c-0.276,0.178-0.548,0.366-0.819,0.552
		c-0.175,0.119-0.352,0.239-0.524,0.361c-0.25,0.177-0.496,0.359-0.741,0.543c-0.19,0.143-0.378,0.287-0.566,0.433
		c-0.231,0.18-0.46,0.361-0.687,0.546c-0.171,0.14-0.338,0.284-0.504,0.427h-0.001c-0.001,0-0.001,0.001-0.001,0.001
		c-0.031,0.026-0.063,0.053-0.095,0.079c-0.208,0.177-0.415,0.353-0.619,0.534c-0.131,0.117-0.256,0.239-0.384,0.356
		c-0.051,0.048-0.099,0.102-0.15,0.151c-0.233,0.217-0.45,0.451-0.679,0.674c-0.121,0.12-0.243,0.24-0.363,0.362
		c-0.259,0.26-0.529,0.507-0.779,0.775c-0.064,0.068-0.123,0.14-0.186,0.21c-0.529,0.576-1.04,1.173-1.533,1.787
		c-0.062,0.076-0.13,0.146-0.19,0.223c-0.097,0.122-0.188,0.25-0.283,0.375c-0.109,0.142-0.218,0.287-0.327,0.432
		c-0.131,0.175-0.267,0.346-0.396,0.524c-0.002,0.002-0.004,0.006-0.006,0.009c-0.325,0.453-0.641,0.914-0.948,1.384l0,0
		c-0.079,0.122-0.149,0.255-0.227,0.378c-0.105,0.166-0.202,0.339-0.304,0.507c-0.067,0.107-0.131,0.216-0.196,0.325
		c-0.152,0.252-0.31,0.5-0.456,0.756c-0.059,0.106-0.125,0.206-0.184,0.312c-0.238,0.432-0.45,0.884-0.672,1.328
		c-0.097,0.191-0.197,0.378-0.291,0.57c-0.068,0.142-0.147,0.277-0.213,0.421c-0.034,0.074-0.067,0.149-0.102,0.224
		c-0.077,0.167-0.156,0.334-0.229,0.504c-0.08,0.184-0.159,0.366-0.237,0.552c-0.085,0.206-0.164,0.416-0.246,0.623
		c-0.069,0.176-0.14,0.349-0.207,0.526v0.001v0.002v-0.001c-0.06,0.157-0.122,0.313-0.18,0.472
		c-0.198,0.548-0.387,1.103-0.562,1.666c-0.049,0.156-0.086,0.314-0.132,0.47c-0.312,1.055-0.583,2.111-0.795,3.169
		c0.008,0.005,0.017,0.01,0.024,0.017c-0.459,2.32-0.707,4.718-0.707,7.174c0,2.417,0.242,4.777,0.688,7.064
		c-0.007-0.005-0.015-0.009-0.023-0.014c-0.003-0.002-0.007-0.004-0.011-0.006c0.154,0.776,0.336,1.545,0.539,2.306
		c0.021,0.083,0.046,0.166,0.068,0.247c0.109,0.398,0.235,0.793,0.356,1.188c0.016,0.05,0.03,0.098,0.044,0.147
		c0.048,0.15,0.087,0.302,0.136,0.452c0.029,0.089,0.058,0.177,0.087,0.265c0.08,0.239,0.175,0.471,0.259,0.707
		c0.056,0.155,0.113,0.312,0.171,0.467c0.094,0.253,0.178,0.507,0.277,0.757l0,0c0.009,0.005,0.018,0.01,0.028,0.016l0,0
		c-0.01-0.006-0.019-0.009-0.028-0.016c2.902,7.249,8.101,13.521,14.986,17.697c0.029,0.019,0.059,0.036,0.087,0.055
		c0.112,0.066,0.222,0.14,0.335,0.207c0.196,0.114,0.402,0.219,0.601,0.331c0.299,0.17,0.6,0.337,0.905,0.499
		c0.238,0.126,0.48,0.249,0.723,0.37c0.373,0.187,0.748,0.367,1.126,0.54c0.211,0.097,0.421,0.194,0.634,0.288
		c0.456,0.197,0.918,0.385,1.383,0.565c0.149,0.06,0.296,0.121,0.446,0.177c1.235,0.459,2.498,0.858,3.789,1.185
		c0.001,0,0.002,0.001,0.002,0.001c0.024,0.006,0.047,0.012,0.072,0.017c0.569,0.143,1.144,0.272,1.722,0.389
		c0.02,0.004,0.042,0.009,0.062,0.015c0.153,0.03,0.305,0.053,0.459,0.079c0.037,0.009,0.075,0.015,0.112,0.021
		c0.13,0.022,0.261,0.045,0.392,0.068c0.254,0.043,0.505,0.09,0.761,0.128c0.046,0.008,0.091,0.018,0.137,0.023
		c0.192,0.028,0.386,0.048,0.58,0.073c0.046,0.005,0.092,0.01,0.138,0.017c0.142,0.018,0.287,0.037,0.428,0.053
		c0.058,0.008,0.114,0.014,0.171,0.021c0.108,0.012,0.217,0.025,0.328,0.037c0.072,0.007,0.145,0.018,0.217,0.024
		c0.183,0.017,0.367,0.023,0.549,0.04c0.203,0.016,0.407,0.03,0.61,0.045c0.042,0.001,0.083,0.005,0.126,0.009
		c0.08,0.005,0.159,0.009,0.238,0.013c0.014,0.001,0.029,0.002,0.043,0.003c0.099,0.006,0.198,0.013,0.297,0.018
		c0.167,0.006,0.334,0.006,0.5,0.012c0.231,0.008,0.46,0.007,0.691,0.01c0.127,0.001,0.252,0.011,0.378,0.011
		c0.035,0,0.07-0.004,0.104-0.004c0.062,0,0.125,0.004,0.186,0.004c0.147-0.002,0.295-0.01,0.445-0.013
		c0.168-0.004,0.336-0.014,0.505-0.021c0.28-0.01,0.562-0.017,0.84-0.031c0.021-0.001,0.042-0.001,0.062-0.003
		c0.131-0.007,0.259-0.02,0.389-0.028c0.092-0.006,0.183-0.017,0.271-0.023C58.567,71.674,73.471,55.889,73.471,36.613z"/>
	<g>
		<path opacity="0.15" fill="#1D1D1B" enable-background="new    " d="M7.49,14.696c4.25,2.736,8.621,5.211,13.093,7.438
			c0.095-0.341,0.182-0.684,0.289-1.024c0.71-2.294,1.629-4.467,2.723-6.506c-3.577-1.787-7.086-3.74-10.515-5.868h-0.001
			c-0.427,0.362-0.841,0.741-1.249,1.123c-0.626,0.582-1.235,1.185-1.82,1.812c-0.064,0.068-0.123,0.14-0.186,0.21
			c-0.529,0.576-1.04,1.173-1.533,1.787c-0.16,0.198-0.318,0.396-0.474,0.598C7.707,14.406,7.599,14.551,7.49,14.696z"/>
		<path opacity="0.15" fill="#1D1D1B" enable-background="new    " d="M4.958,18.582c-0.059,0.106-0.125,0.206-0.184,0.312
			c-0.417,0.754-0.81,1.527-1.176,2.319l0,0c-0.034,0.074-0.067,0.149-0.102,0.224c-0.251,0.551-0.487,1.111-0.712,1.679
			c-0.069,0.176-0.14,0.349-0.207,0.526c0,0.001,0,0.002-0.001,0.003c-0.266,0.7-0.517,1.411-0.742,2.136
			c-0.048,0.156-0.086,0.314-0.132,0.47c5.725,3.671,11.655,6.896,17.75,9.694c-0.398-3.607-0.267-7.317,0.461-11.023
			c-4.787-2.358-9.465-4.993-14.002-7.928C5.583,17.514,5.262,18.043,4.958,18.582z"/>
		<path opacity="0.15" fill="#1D1D1B" enable-background="new    " d="M37.911,0.029c-0.234-0.006-0.469-0.022-0.703-0.024
			C37.066,0.004,36.924,0,36.782,0c-0.67,0-1.34,0.017-2.006,0.054c-0.105,0.006-0.21,0.016-0.314,0.023
			c-0.586,0.038-1.17,0.091-1.752,0.156c-0.142,0.016-0.285,0.031-0.426,0.048c-0.654,0.082-1.304,0.18-1.951,0.296
			c-0.116,0.021-0.23,0.045-0.346,0.068c-0.566,0.108-1.128,0.229-1.688,0.363c-0.131,0.031-0.262,0.06-0.393,0.092
			c-0.638,0.161-1.271,0.338-1.898,0.533c-0.108,0.034-0.215,0.071-0.323,0.105c-0.564,0.18-1.125,0.374-1.679,0.581
			c-0.101,0.038-0.204,0.074-0.303,0.113c-0.628,0.241-1.249,0.498-1.862,0.773c-0.028,0.012-0.055,0.026-0.083,0.039
			c2.443,1.281,4.918,2.485,7.416,3.621C31.739,4.145,34.688,1.842,37.911,0.029z"/>
		<path opacity="0.15" fill="#1D1D1B" enable-background="new    " d="M1.483,46.209c0.164,0.601,0.344,1.196,0.537,1.787
			c0.029,0.09,0.058,0.178,0.087,0.265c0.219,0.65,0.454,1.294,0.708,1.931v0.001c0.881,0.474,1.75,0.977,2.638,1.434
			c1.632,0.841,3.52,0.192,4.196-1.404c0.301-0.712,0.308-1.482,0.098-2.196c-3.112-1.418-6.069-2.878-8.859-4.361
			c0.153,0.772,0.326,1.541,0.528,2.3C1.438,46.046,1.462,46.128,1.483,46.209z"/>
		<path opacity="0.15" fill="#1D1D1B" enable-background="new    " d="M23.664,59.576c4.782,1.733,9.648,3.216,14.578,4.47
			c-4.223-2.311-7.861-5.393-10.794-9.002c-2.889-0.991-5.701-2.03-8.435-3.104C18.547,55.107,20.393,58.393,23.664,59.576z"/>
	</g>
	<g>
		<path opacity="0.4" fill="#EE9B2D" enable-background="new    " d="M20.583,22.134c0.972,0.483,1.944,0.97,2.926,1.429
			c1.835,0.858,3.999-0.189,4.81-2.279c0.811-2.092,0.035-4.401-1.712-5.219c-1.009-0.473-2.012-0.963-3.013-1.462
			c-1.094,2.039-2.013,4.212-2.723,6.506C20.765,21.45,20.678,21.793,20.583,22.134z"/>
		<path opacity="0.4" fill="#EE9B2D" enable-background="new    " d="M71.234,49.077c0.195-0.54,0.382-1.087,0.554-1.643
			c0-0.002,0.002-0.002,0.002-0.006c0.231-0.746,0.431-1.494,0.61-2.244c0.022-0.093,0.041-0.184,0.062-0.277
			c0.141-0.615,0.263-1.229,0.374-1.844c0.02-0.113,0.036-0.229,0.057-0.343c-6.456-0.312-12.836-1.047-19.108-2.227
			c-2.042-0.384-4.125,1.019-4.671,3.196c-0.544,2.174,0.732,4.319,2.87,4.72c6.122,1.152,12.345,1.895,18.634,2.25
			c0.001-0.002,0.002-0.003,0.002-0.004C70.834,50.137,71.039,49.61,71.234,49.077z"/>
		<path opacity="0.4" fill="#EE9B2D" enable-background="new    " d="M42.104,19.447c-0.689,2.135,0.254,4.361,2.125,4.911
			c9.219,2.71,18.75,4.374,28.473,4.985c-0.137-0.664-0.294-1.323-0.464-1.978c-0.042-0.157-0.088-0.312-0.13-0.468
			c-0.141-0.506-0.292-1.009-0.453-1.509c-0.056-0.176-0.113-0.353-0.174-0.528c-0.174-0.512-0.359-1.02-0.556-1.522
			c-0.052-0.132-0.098-0.265-0.15-0.396c-0.26-0.642-0.533-1.277-0.827-1.902l0,0c-7.969-0.748-15.792-2.237-23.391-4.471
			C44.781,16.046,42.796,17.309,42.104,19.447z"/>
		<path opacity="0.4" fill="#EE9B2D" enable-background="new    " d="M19.453,35.946c4.967,2.28,10.039,4.284,15.214,5.971
			c2.562,0.837,5.302-0.76,6.087-3.461c0.786-2.704-0.56-5.455-2.977-6.245c-6.106-1.991-12.068-4.434-17.863-7.289
			C19.185,28.628,19.055,32.338,19.453,35.946z"/>
		<path opacity="0.4" fill="#EE9B2D" enable-background="new    " d="M29.175,6.866c4.765,2.166,9.627,4.069,14.582,5.685
			c2.562,0.836,5.302-0.76,6.088-3.46c0.786-2.705-0.562-5.456-2.978-6.245c-2.572-0.838-5.113-1.774-7.633-2.767
			c-0.001,0-0.002,0-0.003,0c-0.44-0.03-0.88-0.035-1.32-0.048C34.688,1.842,31.739,4.145,29.175,6.866z"/>
		<path opacity="0.4" fill="#EE9B2D" enable-background="new    " d="M38.241,64.046c5.954,1.514,12.005,2.69,18.136,3.498
			c1.866-1.18,3.629-2.528,5.263-4.035c-9.503-1.365-20.149-3.851-31.181-7.455c-1.012-0.33-2.015-0.666-3.011-1.01
			C30.38,58.655,34.018,61.735,38.241,64.046z"/>
	</g>
	<g>
		<path opacity="0.15" fill="#1D1D1B" enable-background="new    " d="M19.453,35.946c-0.398-3.608-0.267-7.318,0.461-11.024
			c0.182-0.931,0.411-1.86,0.669-2.789c0.095-0.341,0.182-0.684,0.289-1.024c0.71-2.294,1.629-4.467,2.723-6.506
			c1.533-2.856,3.418-5.444,5.58-7.736c2.564-2.721,5.513-5.024,8.737-6.836c-0.234-0.006-0.469-0.022-0.703-0.025
			c-0.142,0-0.285-0.004-0.426-0.004c-0.67,0-1.34,0.017-2.006,0.054c-0.105,0.006-0.21,0.016-0.314,0.023
			c-0.586,0.037-1.17,0.09-1.752,0.156c-0.142,0.016-0.285,0.031-0.426,0.048c-0.654,0.082-1.304,0.179-1.95,0.296
			c-0.116,0.021-0.23,0.045-0.347,0.068C29.421,0.755,28.859,0.876,28.3,1.01c-0.131,0.031-0.262,0.06-0.393,0.092
			c-0.638,0.161-1.271,0.338-1.898,0.533c-0.108,0.034-0.215,0.071-0.323,0.105c-0.563,0.18-1.125,0.375-1.679,0.581
			c-0.101,0.038-0.204,0.074-0.303,0.113c-0.628,0.241-1.249,0.498-1.862,0.773c-0.028,0.013-0.055,0.026-0.083,0.039
			c-0.293,0.133-0.586,0.265-0.876,0.406c-0.122,0.059-0.24,0.12-0.36,0.18c-0.349,0.173-0.696,0.348-1.041,0.532
			c-0.037,0.021-0.073,0.042-0.11,0.062c-0.739,0.4-1.461,0.826-2.171,1.277c-0.092,0.059-0.187,0.114-0.279,0.173
			c-0.276,0.178-0.548,0.366-0.819,0.552c-0.175,0.119-0.352,0.239-0.524,0.361c-0.25,0.177-0.496,0.359-0.741,0.543
			c-0.19,0.143-0.378,0.287-0.566,0.434c-0.231,0.179-0.459,0.36-0.687,0.545c-0.171,0.14-0.338,0.284-0.504,0.427h-0.001
			C12.652,9.1,12.238,9.478,11.83,9.86c-0.626,0.582-1.235,1.185-1.82,1.812c-0.064,0.068-0.123,0.14-0.186,0.21
			c-0.529,0.576-1.04,1.173-1.533,1.787c-0.16,0.197-0.318,0.396-0.474,0.598c-0.11,0.142-0.218,0.286-0.327,0.432
			c-0.131,0.175-0.267,0.346-0.396,0.524c-0.002,0.003-0.004,0.007-0.006,0.01c-0.325,0.454-0.641,0.914-0.948,1.384l0,0
			c-0.079,0.122-0.149,0.255-0.227,0.378c-0.33,0.52-0.649,1.049-0.955,1.588C4.9,18.69,4.833,18.79,4.775,18.896
			c-0.417,0.755-0.81,1.527-1.176,2.319c-0.034,0.074-0.067,0.148-0.102,0.224C3.247,21.99,3.01,22.55,2.785,23.118
			c-0.069,0.176-0.141,0.35-0.207,0.526c0,0.001,0,0.002-0.001,0.003c-0.266,0.7-0.517,1.41-0.742,2.136
			c-0.049,0.156-0.086,0.314-0.132,0.471c-0.312,1.054-0.583,2.111-0.795,3.169c4.307,2.878,10.938,6.193,18.989,9.455
			C19.708,37.908,19.562,36.932,19.453,35.946z"/>
		<path opacity="0.15" fill="#1D1D1B" enable-background="new    " d="M45.021,66.913c-2.396-0.74-4.662-1.708-6.78-2.866
			c-4.223-2.312-7.861-5.392-10.794-9.002c-2.889-0.991-5.701-2.029-8.435-3.103c-3.209-1.262-6.307-2.569-9.265-3.917
			c-3.112-1.418-6.069-2.878-8.859-4.361c0.153,0.772,0.326,1.541,0.528,2.3c0.021,0.084,0.045,0.166,0.067,0.247
			c0.164,0.601,0.344,1.196,0.537,1.786c0.029,0.09,0.058,0.178,0.087,0.266c0.219,0.649,0.454,1.293,0.708,1.93v0.001
			c0.881,0.474,1.75,0.977,2.638,1.435c-0.889-0.457-1.757-0.961-2.638-1.435c2.962,7.4,8.311,13.783,15.409,17.958
			c2.397,1.41,4.987,2.575,7.759,3.435c0.033,0.01,0.065,0.018,0.099,0.027c0.012,0.004,0.022,0.006,0.036,0.01
			c0.658,0.201,1.319,0.379,1.98,0.542c0.075,0.019,0.15,0.034,0.225,0.053c0.095,0.021,0.188,0.041,0.283,0.062
			c0.515,0.118,1.03,0.229,1.544,0.325c0.037,0.008,0.075,0.014,0.112,0.021c0.163,0.028,0.326,0.056,0.488,0.084
			c0.497,0.083,0.994,0.158,1.491,0.221c0.194,0.023,0.387,0.048,0.579,0.068c0.514,0.057,1.027,0.101,1.54,0.136
			c0.167,0.012,0.334,0.024,0.5,0.033c0.569,0.03,1.137,0.047,1.704,0.051c0.108,0.001,0.215,0.004,0.322,0.004
			c2.077-0.004,4.134-0.188,6.15-0.537c0.02-0.004,0.037-0.008,0.057-0.012c0.462-0.079,0.925-0.165,1.382-0.264
			c0.066-0.015,0.134-0.029,0.201-0.045c0.534-0.119,1.062-0.246,1.589-0.388c0.05-0.013,0.097-0.026,0.146-0.04
			c0.543-0.147,1.084-0.308,1.619-0.481c0.03-0.011,0.062-0.02,0.092-0.029c0.553-0.181,1.101-0.374,1.642-0.579
			c0.017-0.005,0.031-0.012,0.048-0.018c0.556-0.213,1.106-0.438,1.651-0.676c0.003-0.002,0.006-0.004,0.011-0.004
			c1.108-0.486,2.192-1.026,3.247-1.616C51.501,68.433,48.245,67.911,45.021,66.913z"/>
	</g>
</g>
</svg>
