<?xml version="1.0" encoding="utf-8"?>
<!-- Generator: Adobe Illustrator 16.0.4, SVG Export Plug-In . SVG Version: 6.00 Build 0)  -->
<!DOCTYPE svg PUBLIC "-//W3C//DTD SVG 1.1//EN" "http://www.w3.org/Graphics/SVG/1.1/DTD/svg11.dtd">
<svg version="1.1" id="圖層_1" xmlns="http://www.w3.org/2000/svg" xmlns:xlink="http://www.w3.org/1999/xlink" x="0px" y="0px"
	 width="73.543px" height="73.58px" viewBox="0 0 73.543 73.58" enable-background="new 0 0 73.543 73.58" xml:space="preserve">
<g>
	<g>
		<path fill="#D2877D" d="M73.466,36.808c0-9.771-3.827-18.642-10.051-25.218c-0.117-0.123-0.232-0.245-0.352-0.366
			c-0.539-0.556-1.093-1.099-1.667-1.619c-0.019-0.018-0.038-0.038-0.058-0.055c-0.311-0.281-0.633-0.548-0.951-0.817
			c-0.101-0.086-0.196-0.174-0.298-0.258c-0.395-0.325-0.798-0.638-1.205-0.945c-0.059-0.045-0.116-0.093-0.177-0.137
			c-0.437-0.326-0.879-0.64-1.328-0.945c-0.034-0.024-0.069-0.05-0.104-0.073c-0.481-0.326-0.971-0.639-1.468-0.941
			c-0.002-0.002-0.007-0.005-0.012-0.007C49.619,1.667,42.338-0.273,34.824,0.13c-2.294,0.123-4.609,0.458-6.922,1.033
			c-0.008,0.002-0.015,0.003-0.023,0.005c-3.468,0.866-6.688,2.207-9.625,3.923V5.09c-0.002,0.001-0.003,0.001-0.005,0.002
			c-0.52,0.305-1.026,0.624-1.524,0.955c-0.478,0.312-0.943,0.638-1.401,0.97c-0.003-0.004-0.004-0.01-0.007-0.015
			c-0.1,0.072-0.192,0.151-0.29,0.226c-0.495,0.366-0.977,0.745-1.45,1.131c0.207-0.16,0.412-0.321,0.619-0.482
			c0.18-0.141,0.363-0.274,0.543-0.414c-0.836,0.629-1.643,1.297-2.423,1.994c0.292-0.27,0.584-0.539,0.888-0.795
			c-0.66,0.556-1.306,1.125-1.924,1.726c-0.018,0.017-0.035,0.034-0.053,0.05c-0.665,0.647-1.303,1.319-1.914,2.012
			c0.09-0.103,0.19-0.196,0.282-0.297c-0.258,0.284-0.505,0.579-0.755,0.871c0.16-0.188,0.309-0.387,0.473-0.573
			c-0.006,0.007-0.014,0.013-0.02,0.02c-0.166,0.188-0.319,0.387-0.478,0.583c-0.268,0.314-0.528,0.633-0.783,0.956
			c-0.141,0.169-0.285,0.333-0.418,0.508l-0.002,0.001c-0.029,0.039-0.054,0.08-0.084,0.118c-0.027,0.036-0.052,0.075-0.077,0.111
			c-0.533,0.707-1.034,1.436-1.515,2.182c-0.001,0-0.001,0-0.001,0c-0.03,0.045-0.065,0.089-0.094,0.135
			c-0.041,0.062-0.08,0.125-0.121,0.188c-0.027,0.043-0.05,0.088-0.077,0.131C2.12,23.018,0.077,29.673,0.077,36.808
			c0,20.265,16.428,36.694,36.694,36.694C57.037,73.502,73.466,57.073,73.466,36.808z M15.324,7.02
			c0.003,0.006,0.004,0.013,0.007,0.018c-0.158,0.114-0.318,0.221-0.474,0.337C15.013,7.256,15.166,7.134,15.324,7.02z
			 M11.202,10.464c0.219-0.214,0.457-0.41,0.683-0.62c0.032-0.03,0.067-0.06,0.101-0.09c-0.497,0.455-0.977,0.927-1.449,1.408
			C10.761,10.932,10.971,10.688,11.202,10.464z M7.54,14.624c0.085-0.114,0.181-0.221,0.271-0.332
			c-0.111,0.143-0.227,0.282-0.336,0.427C7.498,14.688,7.517,14.653,7.54,14.624z"/>
		<path fill="#D2877D" d="M13.296,8.58c-0.031,0.026-0.062,0.056-0.093,0.083c0.123-0.104,0.25-0.201,0.374-0.303
			C13.484,8.435,13.387,8.503,13.296,8.58z"/>
	</g>
	<g>
		<path fill="#CE5744" d="M39.682,58.801c-0.084-0.842-0.261-1.683-0.495-2.466c-0.501-1.661-1.164-3.28-2.072-4.758
			c-1.071-1.74-2.485-3.271-4.135-4.478c-1.641-1.2-3.913-1.989-5.803-1.645c-1.076,0.197-2.025-0.712-1.892-1.798l0.014-0.112
			c0.038-0.313-0.184-0.576-0.49-0.647c-2.012-0.473-3.555-2.613-3.24-4.679l6.97-5.387l2.28-0.526
			c1.239-1.451,2.51-2.958,3.073-4.782s0.233-4.065-1.288-5.217c-0.817-0.617-2.347-0.615-2.651-1.612
			c-2.199-7.215-12.472-3.535-14.893,1.961c-0.629,1.428-0.983,3.078-1.672,4.45c0.173,1.786,0.479,3.581,0.927,5.376
			C17.588,45.604,27.564,55.282,39.682,58.801z"/>
		<path fill="#CE5744" d="M59.893,39.814c-1.083-0.823-1.977-2.197-1.807-3.473c0.057-0.42,0.331-0.77,0.677-1.015
			c2.385-1.696,3.316-5.228,1.979-7.854c-1.181-2.32-3.976-3.625-6.525-3.255c-0.77,0.111-1.48-0.437-1.676-1.188
			c-0.885-3.385-4.643-5.969-8.125-5.177c-0.981-2.424-4.896-2.852-6.376-0.696c-1.248,0.82-1.432,2.616-1.029,4.053
			c0.401,1.438,1.239,2.727,1.611,4.172c0.637,2.475-0.165,5.046-1.071,7.463c-0.149,0.406-0.481,0.707-0.885,0.868
			c-2.957,1.179-5.291,3.82-6.141,6.883c-0.216,0.771,0.221,1.58,0.98,1.838l3.045,1.029c1.064,0.359,2.199-0.536,1.986-1.642
			c-0.357-1.85,0.047-3.87,1.126-5.405c0.466-0.664,1.359-0.724,2.049-0.293c0.938,0.586,2.587,0.376,3.454-0.524
			c1.213-1.26,1.554-3.123,2.542-4.568c0.419-0.613,1.089-1.118,1.802-1.386c1.16-0.438,2.287,0.754,1.879,1.927
			c-0.531,1.523-0.455,3.251,0.696,4.309c0.883,0.811,2.148,1.009,3.317,1.268c1.172,0.26,2.435,0.706,3.01,1.757
			c0.129,0.236,0.19,0.505,0.196,0.778c0.018,0.892,0.723,1.609,1.612,1.545l0.049-0.004c0.901-0.065,1.646,0.671,1.611,1.573
			c-0.033,0.93,0.053,1.847,0.453,2.677c0.645,1.335,2.437,2.226,3.667,1.395c1.348-0.912,1.006-3.099-0.104-4.285
			C62.786,41.394,61.187,40.801,59.893,39.814z"/>
		<path fill="#CE5744" d="M37.383,4.815c-3.002,0.769-6.194-0.971-9.196-0.202c-2.644,0.679-5.097,3.866-7.742,4.544
			c-1.341,0.344-2.798,0.766-3.588,1.9c-0.792,1.137-0.277,3.158,1.104,3.221c1.413,0.063,2.081-1.713,3.229-2.541
			c1.841-1.327,4.317,0.031,6.483,0.709c3.574,1.123,4.96,1.992,9.802,1.348c2.267-0.856,2.626-2.169,3.981-2.11
			c1.354,0.06,2.739-0.188,4.057,0.137c1.317,0.325,2.59,1.511,2.354,2.848c0.789,1.026,2.559-0.095,2.678-1.384
			c0.119-1.289-0.617-2.49-0.866-3.761s1.253-1.622,1.704-2.895C51.394,5.464,49.949,4.749,48.808,5
			c-1.141,0.25-2.029,1.109-2.929,1.853c-0.9,0.744-2.005,1.435-3.159,1.249c0.979-1.033,0.16-2.893-1.152-3.439
			C40.256,4.114,38.762,4.462,37.383,4.815z"/>
		<path fill="#CE5744" d="M60.509,21.25c0.378,1.175,1.623,1.801,2.752,2.302c0.738,0.329,1.478,0.657,2.218,0.985
			c0.386,0.172,0.776,0.344,1.191,0.425c1.543,0.297,3.198-0.97,3.314-2.537c0.114-1.565-1.339-3.062-2.907-2.994l-0.101-2.608
			c-0.301-1.267-1.23-2.336-2.396-2.906c-0.713-0.348-1.619,0.077-1.693,0.867c-0.082,0.897-0.595,1.824-1.123,2.598
			C60.971,18.544,60.077,19.911,60.509,21.25z"/>
		<path fill="#CE5744" d="M72.24,33.934c0.053-0.781,0.29-1.564,0.155-2.334c-0.136-0.771-0.857-1.532-1.611-1.32
			c-1.519-1.306-3.579-1.962-5.572-1.773c-0.857,0.672-1.343,1.793-1.246,2.878c0.098,1.085,0.772,2.103,1.737,2.613
			c-0.244,1.202-0.004,2.495,0.652,3.531c0.673,1.061,1.735,1.825,2.431,2.871c1.715,2.58,0.783,6.016-0.202,8.954
			c0.826-0.095,1.654-0.188,2.482-0.281c-1.3-2.403-0.352-5.719,1.955-7.151l0,0c0.002-0.002,0.002-0.002,0.002-0.002
			c0.104-0.715,0.182-1.432,0.241-2.153c0.006-0.07,0.012-0.142,0.018-0.213c0.057-0.727,0.095-1.456,0.106-2.189
			C72.612,36.399,72.154,35.172,72.24,33.934z"/>
	</g>
	<path fill="#CE5744" d="M1.17,45.432c0.013,0.053,0.02,0.105,0.033,0.158c0.177,0.708,0.377,1.401,0.594,2.09v0.002l0,0
		c0.532-0.137,1.06-0.288,1.567-0.444l8.309,12.871c1.379-1.315,2.834-2.676,4.665-3.206c1.83-0.532,4.139,0.064,4.914,1.808
		c-1.95,1.52-2.967,4.236-2.252,6.603c0.713,2.366,3.258,4.106,5.693,3.684c2.435-0.421,4.276-3.148,3.551-5.511
		c-0.454-1.484-1.71-2.59-2.326-4.015c-0.618-1.425-0.075-3.613,1.476-3.652c0.947,3.069,1.996,6.307,4.85,8.115
		c1.592,1.006,3.641,1.247,5.263,0.294c1.96-1.149,2.391-3.284,2.175-5.427c-12.116-3.519-22.092-13.197-25.366-26.32
		c-0.447-1.795-0.755-3.59-0.927-5.376c-0.404,0.804-0.922,1.514-1.681,2.024c2.026-2.209,0.853-5.674,0.389-8.636
		c-0.702-4.462,0.63-9.203,3.552-12.646c-0.07-0.297-0.188-0.568-0.323-0.828c-0.384,0.277-0.757,0.567-1.128,0.858
		c-0.3,0.234-0.607,0.458-0.899,0.702c-0.487,0.407-0.949,0.836-1.412,1.266c-0.226,0.208-0.464,0.406-0.683,0.62
		c-0.663,0.645-1.298,1.314-1.909,2.005c-0.212,0.243-0.406,0.5-0.612,0.749c-0.391,0.468-0.785,0.934-1.152,1.418
		c-0.238,0.318-0.457,0.65-0.687,0.974c-0.308,0.436-0.618,0.87-0.906,1.319c-0.229,0.353-0.436,0.718-0.649,1.08
		c-0.262,0.438-0.523,0.876-0.767,1.326c-0.205,0.377-0.393,0.765-0.584,1.15c-0.223,0.45-0.443,0.9-0.648,1.359
		c-0.176,0.396-0.339,0.798-0.502,1.202c-0.188,0.464-0.37,0.929-0.539,1.401c-0.146,0.409-0.281,0.825-0.413,1.24
		c-0.152,0.479-0.296,0.96-0.428,1.445c-0.115,0.42-0.223,0.842-0.322,1.268c-0.115,0.494-0.218,0.992-0.313,1.492
		c-0.081,0.426-0.159,0.852-0.227,1.281c-0.079,0.512-0.14,1.027-0.196,1.543C0.3,33.143,0.25,33.569,0.22,33.999
		c-0.041,0.532-0.057,1.067-0.073,1.604c-0.013,0.419-0.032,0.839-0.03,1.261c0.003,0.563,0.033,1.128,0.062,1.696
		c0.021,0.399,0.028,0.799,0.062,1.201c0.054,0.623,0.141,1.251,0.228,1.879c0.038,0.284,0.063,0.567,0.11,0.854
		c0.009,0.062,0.014,0.119,0.024,0.18C0.755,43.592,0.943,44.512,1.17,45.432z"/>
	<path opacity="0.2" fill="#1D1D1B" enable-background="new    " d="M58.735,59.157c-6.51,1.624-13.044,1.388-19.056-0.356
		c-12.116-3.519-22.092-13.197-25.366-26.32c-0.447-1.795-0.755-3.59-0.927-5.376c-0.761-7.851,1.06-15.515,4.868-22.013
		c-0.002,0.001-0.003,0.001-0.005,0.002c-1.015,0.593-1.983,1.246-2.926,1.926c-0.384,0.277-0.757,0.567-1.128,0.858
		c-0.3,0.234-0.607,0.458-0.899,0.702c-0.487,0.407-0.949,0.836-1.412,1.266c-0.226,0.208-0.464,0.406-0.683,0.62
		c-0.663,0.645-1.298,1.314-1.909,2.005c-0.212,0.243-0.406,0.5-0.612,0.749c-0.391,0.468-0.785,0.934-1.152,1.418
		c-0.238,0.318-0.457,0.65-0.687,0.974c-0.309,0.436-0.618,0.87-0.906,1.319c-0.229,0.353-0.436,0.718-0.65,1.08
		c-0.261,0.438-0.523,0.876-0.766,1.326c-0.205,0.377-0.393,0.765-0.584,1.15c-0.223,0.45-0.443,0.9-0.648,1.359
		c-0.176,0.396-0.339,0.798-0.502,1.202c-0.188,0.464-0.37,0.929-0.539,1.401c-0.146,0.409-0.281,0.825-0.414,1.24
		c-0.151,0.479-0.296,0.96-0.428,1.445c-0.115,0.42-0.223,0.842-0.322,1.268c-0.115,0.494-0.218,0.992-0.313,1.492
		c-0.081,0.426-0.159,0.852-0.227,1.281c-0.079,0.512-0.14,1.027-0.196,1.543c-0.048,0.427-0.097,0.853-0.128,1.283
		c-0.041,0.532-0.057,1.067-0.073,1.604c-0.013,0.419-0.032,0.839-0.03,1.262c0.003,0.563,0.033,1.128,0.062,1.695
		c0.021,0.399,0.028,0.799,0.062,1.201c0.054,0.623,0.021,0.907,0.107,1.535c0.038,0.284,0.137,0.992,0.183,1.278
		c0.01,0.061,0.014,0.12,0.024,0.182c0.151,0.92,0.327,1.765,0.552,2.683c0.014,0.054,0.021,0.106,0.034,0.159
		c0.177,0.708,0.394,1.44,0.608,2.128l0,0C6.561,63.127,20.83,73.391,36.452,73.504c3.021,0.021,6.133-0.315,9.203-1.082
		c0.619-0.154,1.235-0.34,1.839-0.524c0.127-0.037,0.249-0.083,0.376-0.124c0.475-0.15,0.945-0.313,1.411-0.48
		c0.146-0.054,0.288-0.115,0.434-0.171c0.439-0.164,0.883-0.311,1.311-0.491c0.137-0.059,0.27-0.122,0.402-0.181
		c0.435-0.188,0.852-0.375,1.272-0.579c0.12-0.058,0.235-0.121,0.355-0.182c0.434-0.214,0.927-0.478,1.348-0.707
		c0.097-0.052,0.188-0.107,0.28-0.16c0.439-0.245,0.855-0.491,1.284-0.753c0.073-0.044,0.143-0.093,0.213-0.138
		c0.446-0.276,0.846-0.527,1.277-0.822c0.054-0.035,0.104-0.074,0.155-0.111c0.446-0.31,0.846-0.601,1.276-0.928
		c0.029-0.023,0.06-0.048,0.09-0.07c0.45-0.345,1-0.764,1.434-1.128c0.015-0.012,0.026-0.023,0.04-0.035
		c3.2-2.704,5.257-5.108,8.277-9.989C65.797,56.562,62.202,58.292,58.735,59.157z"/>
</g>
</svg>
