<?xml version="1.0" encoding="utf-8"?>
<!-- Generator: Adobe Illustrator 16.0.4, SVG Export Plug-In . SVG Version: 6.00 Build 0)  -->
<!DOCTYPE svg PUBLIC "-//W3C//DTD SVG 1.1//EN" "http://www.w3.org/Graphics/SVG/1.1/DTD/svg11.dtd">
<svg version="1.1" id="圖層_1" xmlns="http://www.w3.org/2000/svg" xmlns:xlink="http://www.w3.org/1999/xlink" x="0px" y="0px"
	 width="73.543px" height="73.58px" viewBox="0 0 73.543 73.58" enable-background="new 0 0 73.543 73.58" xml:space="preserve">
<g>
	<g>
		<path fill="#D2877D" d="M73.543,36.808c0-9.791-3.835-18.681-10.073-25.271c-0.116-0.123-0.232-0.246-0.351-0.367
			c-0.541-0.557-1.096-1.101-1.671-1.622c-0.019-0.018-0.038-0.038-0.057-0.055c-0.312-0.281-0.634-0.549-0.953-0.819
			c-0.101-0.086-0.198-0.175-0.3-0.259c-0.395-0.325-0.799-0.639-1.206-0.947c-0.06-0.045-0.118-0.093-0.178-0.138
			c-0.437-0.326-0.881-0.641-1.331-0.947c-0.035-0.024-0.069-0.05-0.104-0.073c-0.483-0.326-0.974-0.64-1.472-0.943
			c-0.002-0.002-0.006-0.005-0.011-0.007c-6.19-3.766-13.487-5.711-21.016-5.307c-2.299,0.124-4.619,0.459-6.937,1.036
			c-0.008,0.002-0.015,0.003-0.023,0.005c-3.475,0.867-6.703,2.211-9.646,3.931V5.023c-0.002,0.001-0.003,0.002-0.005,0.003
			c-0.521,0.305-1.028,0.625-1.527,0.957c-0.479,0.312-0.945,0.639-1.404,0.972c-0.003-0.004-0.004-0.01-0.007-0.015
			c-0.1,0.072-0.193,0.151-0.291,0.226c-0.496,0.366-0.979,0.746-1.453,1.134c0.207-0.161,0.413-0.322,0.62-0.484
			c0.18-0.141,0.364-0.275,0.544-0.414c-0.838,0.63-1.646,1.299-2.428,1.998c0.293-0.27,0.585-0.54,0.89-0.797
			c-0.662,0.557-1.309,1.128-1.929,1.729c-0.018,0.017-0.035,0.034-0.053,0.051c-0.666,0.648-1.306,1.321-1.918,2.016
			c0.09-0.103,0.191-0.197,0.282-0.298c-0.258,0.285-0.506,0.58-0.756,0.873c0.16-0.189,0.309-0.388,0.474-0.574
			c-0.006,0.007-0.014,0.013-0.02,0.02c-0.166,0.189-0.32,0.388-0.479,0.584c-0.269,0.315-0.53,0.634-0.785,0.958
			c-0.141,0.17-0.286,0.334-0.419,0.509l-0.002,0.001c-0.029,0.039-0.054,0.08-0.084,0.119c-0.027,0.036-0.052,0.075-0.077,0.111
			c-0.534,0.708-1.036,1.439-1.518,2.186c-0.001,0-0.001,0-0.001,0c-0.03,0.046-0.065,0.09-0.094,0.136
			c-0.041,0.062-0.08,0.126-0.121,0.189c-0.027,0.043-0.05,0.088-0.077,0.131C2.047,22.989,0,29.658,0,36.808
			c0,20.308,16.463,36.771,36.771,36.771C57.08,73.579,73.543,57.116,73.543,36.808z M15.279,6.957
			c0.003,0.006,0.004,0.013,0.007,0.018c-0.158,0.114-0.319,0.222-0.475,0.338C14.967,7.194,15.12,7.072,15.279,6.957z
			 M11.148,10.409c0.219-0.214,0.458-0.411,0.684-0.621c0.032-0.03,0.067-0.06,0.101-0.09c-0.498,0.456-0.979,0.929-1.452,1.411
			C10.706,10.878,10.917,10.634,11.148,10.409z M7.478,14.577c0.086-0.114,0.181-0.221,0.271-0.333
			c-0.111,0.143-0.227,0.283-0.337,0.428C7.436,14.641,7.455,14.607,7.478,14.577z"/>
		<path fill="#D2877D" d="M13.247,8.521c-0.031,0.026-0.062,0.056-0.093,0.083c0.123-0.104,0.25-0.201,0.374-0.303
			C13.435,8.375,13.338,8.444,13.247,8.521z"/>
	</g>
	<g>
		<path fill="#CE5744" d="M39.687,58.847c-0.084-0.843-0.26-1.686-0.496-2.471c-0.502-1.664-1.165-3.287-2.076-4.768
			c-1.073-1.744-2.49-3.277-4.143-4.487c-1.644-1.202-3.921-1.993-5.815-1.647c-1.078,0.197-2.029-0.714-1.896-1.802l0.014-0.113
			c0.038-0.314-0.184-0.578-0.492-0.649c-2.016-0.473-3.562-2.618-3.246-4.689l6.985-5.398l2.284-0.527
			c1.242-1.454,2.516-2.964,3.08-4.792s0.234-4.074-1.291-5.228c-0.818-0.619-2.352-0.617-2.656-1.616
			c-2.204-7.23-12.498-3.543-14.924,1.965c-0.63,1.431-0.985,3.084-1.676,4.459c0.173,1.79,0.48,3.589,0.929,5.387
			C17.548,45.622,27.545,55.321,39.687,58.847z"/>
		<path fill="#CE5744" d="M59.941,39.822c-1.086-0.826-1.98-2.203-1.81-3.481c0.057-0.421,0.332-0.771,0.677-1.017
			c2.39-1.7,3.324-5.239,1.985-7.87c-1.183-2.325-3.984-3.632-6.539-3.262c-0.771,0.111-1.484-0.438-1.68-1.191
			c-0.886-3.392-4.652-5.982-8.143-5.188c-0.983-2.429-4.905-2.858-6.388-0.698c-1.251,0.822-1.435,2.622-1.032,4.062
			c0.402,1.441,1.242,2.732,1.615,4.181c0.638,2.48-0.165,5.057-1.073,7.479c-0.151,0.407-0.483,0.708-0.887,0.87
			c-2.963,1.181-5.302,3.828-6.154,6.897c-0.216,0.774,0.222,1.585,0.982,1.843l3.052,1.03c1.067,0.361,2.204-0.536,1.99-1.644
			c-0.358-1.854,0.047-3.879,1.129-5.417c0.467-0.665,1.363-0.725,2.053-0.294c0.94,0.588,2.592,0.377,3.461-0.525
			c1.216-1.263,1.558-3.129,2.547-4.578c0.42-0.614,1.093-1.12,1.806-1.389c1.163-0.439,2.292,0.756,1.883,1.931
			c-0.532,1.526-0.456,3.258,0.698,4.318c0.885,0.813,2.152,1.011,3.325,1.271s2.439,0.706,3.015,1.761
			c0.13,0.236,0.192,0.506,0.197,0.779c0.018,0.894,0.724,1.613,1.615,1.549l0.05-0.004c0.903-0.066,1.649,0.672,1.615,1.576
			c-0.034,0.932,0.053,1.851,0.454,2.683c0.646,1.338,2.441,2.23,3.674,1.398c1.351-0.914,1.008-3.106-0.105-4.296
			C62.841,41.403,61.239,40.81,59.941,39.822z"/>
		<path fill="#CE5744" d="M37.384,4.748c-3.008,0.771-6.207-0.973-9.215-0.202C25.52,5.226,23.061,8.42,20.411,9.1
			c-1.344,0.345-2.804,0.767-3.596,1.904c-0.793,1.139-0.278,3.165,1.106,3.228c1.416,0.063,2.085-1.717,3.236-2.546
			c1.845-1.33,4.326,0.031,6.497,0.711c3.581,1.125,4.97,1.996,9.822,1.351c2.271-0.858,2.631-2.174,3.99-2.114
			c1.357,0.06,2.745-0.188,4.065,0.137c1.321,0.325,2.595,1.514,2.36,2.854c0.791,1.028,2.563-0.095,2.683-1.387
			c0.12-1.292-0.619-2.496-0.868-3.769c-0.25-1.274,1.255-1.625,1.707-2.901c0.011-1.17-1.437-1.887-2.58-1.635
			c-1.143,0.251-2.033,1.112-2.935,1.857c-0.902,0.745-2.009,1.438-3.165,1.251c0.981-1.035,0.159-2.899-1.156-3.446
			C40.263,4.045,38.765,4.394,37.384,4.748z"/>
		<path fill="#CE5744" d="M60.559,21.217c0.379,1.177,1.627,1.805,2.758,2.307c0.739,0.329,1.48,0.658,2.222,0.987
			c0.387,0.172,0.778,0.345,1.194,0.426c1.546,0.298,3.205-0.972,3.321-2.542c0.115-1.569-1.341-3.069-2.913-3l-0.101-2.614
			c-0.302-1.269-1.234-2.341-2.401-2.912c-0.715-0.349-1.624,0.077-1.697,0.869c-0.083,0.899-0.596,1.828-1.126,2.603
			C61.021,18.506,60.126,19.875,60.559,21.217z"/>
		<path fill="#CE5744" d="M72.314,33.928c0.053-0.783,0.291-1.567,0.156-2.339c-0.136-0.773-0.858-1.536-1.614-1.323
			c-1.522-1.309-3.587-1.966-5.585-1.777c-0.859,0.674-1.345,1.797-1.248,2.885c0.098,1.087,0.774,2.107,1.74,2.618
			c-0.244,1.205-0.003,2.5,0.655,3.539c0.674,1.063,1.738,1.829,2.435,2.877c1.719,2.585,0.785,6.029-0.203,8.973
			c0.829-0.095,1.658-0.188,2.488-0.283c-1.302-2.408-0.352-5.73,1.96-7.166l0,0C73.1,41.93,73.1,41.93,73.1,41.93
			c0.103-0.715,0.181-1.434,0.242-2.157c0.006-0.071,0.012-0.142,0.018-0.213c0.056-0.729,0.094-1.46,0.106-2.195
			C72.687,36.398,72.229,35.169,72.314,33.928z"/>
	</g>
	<path fill="#CE5744" d="M1.095,45.45c0.013,0.053,0.02,0.106,0.033,0.159c0.177,0.709,0.378,1.404,0.595,2.093v0.002l0,0
		c0.534-0.137,1.062-0.288,1.571-0.445l8.326,12.898c1.382-1.318,2.84-2.681,4.675-3.213c1.834-0.533,4.148,0.065,4.924,1.812
		c-1.954,1.522-2.974,4.245-2.257,6.616c0.715,2.371,3.265,4.115,5.705,3.692s4.285-3.155,3.558-5.523
		c-0.455-1.487-1.714-2.595-2.331-4.022c-0.619-1.428-0.075-3.621,1.479-3.66c0.949,3.076,2,6.32,4.86,8.131
		c1.595,1.009,3.648,1.25,5.274,0.295c1.963-1.151,2.395-3.291,2.179-5.438c-12.142-3.525-22.139-13.225-25.42-26.376
		c-0.448-1.798-0.756-3.597-0.929-5.387c-0.405,0.806-0.924,1.517-1.684,2.029c2.03-2.214,0.855-5.686,0.39-8.654
		c-0.703-4.471,0.631-9.222,3.559-12.673c-0.07-0.297-0.188-0.569-0.323-0.829c-0.385,0.278-0.759,0.568-1.131,0.86
		c-0.301,0.235-0.609,0.459-0.901,0.704c-0.488,0.407-0.951,0.838-1.415,1.268c-0.226,0.209-0.465,0.407-0.684,0.621
		c-0.664,0.646-1.301,1.317-1.913,2.009c-0.213,0.243-0.407,0.501-0.614,0.75c-0.392,0.469-0.786,0.936-1.154,1.422
		c-0.239,0.318-0.458,0.651-0.688,0.976c-0.309,0.437-0.62,0.872-0.908,1.321c-0.229,0.354-0.437,0.72-0.651,1.082
		c-0.262,0.439-0.524,0.878-0.768,1.329c-0.205,0.378-0.394,0.766-0.585,1.152c-0.223,0.451-0.444,0.902-0.649,1.362
		c-0.177,0.397-0.34,0.8-0.503,1.204c-0.188,0.465-0.371,0.931-0.54,1.404c-0.146,0.41-0.282,0.826-0.414,1.242
		c-0.152,0.48-0.297,0.962-0.429,1.448c-0.115,0.421-0.223,0.844-0.323,1.271c-0.115,0.495-0.219,0.994-0.314,1.495
		c-0.081,0.427-0.16,0.854-0.227,1.284c-0.079,0.513-0.141,1.029-0.197,1.546c-0.048,0.428-0.097,0.855-0.128,1.286
		c-0.041,0.533-0.057,1.07-0.073,1.607c-0.013,0.42-0.032,0.841-0.03,1.264c0.003,0.564,0.033,1.131,0.062,1.699
		c0.021,0.401,0.029,0.801,0.062,1.203c0.054,0.626,0.141,1.254,0.228,1.883c0.038,0.285,0.063,0.57,0.11,0.857
		c0.009,0.061,0.014,0.12,0.024,0.181C0.679,43.606,0.868,44.528,1.095,45.45z"/>
	<path opacity="0.2" fill="#1D1D1B" d="M58.781,59.204c-6.523,1.628-13.071,1.391-19.095-0.357
		c-12.142-3.525-22.139-13.225-25.42-26.376c-0.448-1.798-0.756-3.597-0.929-5.387c-0.763-7.867,1.062-15.548,4.878-22.059
		c-0.002,0.001-0.003,0.001-0.005,0.002c-1.017,0.594-1.987,1.248-2.932,1.93c-0.385,0.278-0.759,0.568-1.131,0.86
		c-0.301,0.235-0.609,0.459-0.901,0.704c-0.488,0.407-0.951,0.838-1.415,1.268c-0.226,0.209-0.465,0.407-0.684,0.621
		c-0.664,0.646-1.301,1.317-1.913,2.009c-0.213,0.243-0.407,0.501-0.614,0.75c-0.392,0.469-0.786,0.936-1.154,1.422
		c-0.239,0.318-0.458,0.651-0.688,0.976c-0.309,0.437-0.62,0.872-0.908,1.321c-0.229,0.354-0.437,0.72-0.651,1.082
		c-0.262,0.439-0.524,0.878-0.768,1.329c-0.205,0.378-0.394,0.766-0.585,1.152c-0.223,0.451-0.444,0.902-0.649,1.362
		c-0.177,0.397-0.34,0.8-0.503,1.204c-0.188,0.465-0.371,0.931-0.54,1.404c-0.146,0.41-0.282,0.826-0.414,1.242
		c-0.152,0.48-0.297,0.962-0.429,1.448c-0.115,0.421-0.223,0.844-0.323,1.271c-0.115,0.495-0.219,0.994-0.314,1.495
		c-0.081,0.427-0.16,0.854-0.227,1.284c-0.079,0.513-0.141,1.029-0.197,1.546c-0.048,0.428-0.097,0.855-0.128,1.286
		c-0.041,0.533-0.057,1.07-0.073,1.607c-0.013,0.42-0.032,0.841-0.03,1.264c0.003,0.564,0.033,1.131,0.062,1.699
		c0.021,0.401,0.029,0.801,0.062,1.203c0.054,0.626,0.021,0.91,0.107,1.539c0.038,0.285,0.137,0.995,0.183,1.281
		c0.01,0.061,0.014,0.121,0.024,0.182c0.152,0.922,0.327,1.769,0.553,2.689c0.014,0.054,0.021,0.106,0.034,0.159
		c0.177,0.709,0.394,1.443,0.609,2.133l0,0c4.824,15.434,19.123,25.719,34.778,25.832c3.027,0.022,6.146-0.316,9.222-1.084
		c0.62-0.155,1.238-0.341,1.843-0.525c0.127-0.038,0.25-0.084,0.376-0.125c0.476-0.15,0.948-0.314,1.415-0.482
		c0.146-0.053,0.288-0.115,0.434-0.17c0.44-0.165,0.885-0.312,1.314-0.493c0.137-0.058,0.269-0.122,0.403-0.181
		c0.434-0.189,0.853-0.376,1.275-0.58c0.121-0.058,0.236-0.122,0.356-0.182c0.434-0.215,0.928-0.479,1.351-0.709
		c0.096-0.052,0.187-0.108,0.28-0.16c0.441-0.246,0.857-0.492,1.287-0.755c0.073-0.044,0.143-0.093,0.214-0.138
		c0.447-0.277,0.848-0.528,1.28-0.824c0.053-0.036,0.104-0.074,0.155-0.111c0.448-0.311,0.848-0.602,1.28-0.93
		c0.029-0.023,0.059-0.048,0.09-0.07c0.451-0.346,1.002-0.766,1.436-1.131c0.014-0.012,0.027-0.024,0.04-0.036
		c3.207-2.709,5.267-5.118,8.295-10.009C65.858,56.604,62.256,58.337,58.781,59.204z"/>
</g>
</svg>
