<?xml version="1.0" encoding="utf-8"?>
<!-- Generator: Adobe Illustrator 16.0.4, SVG Export Plug-In . SVG Version: 6.00 Build 0)  -->
<!DOCTYPE svg PUBLIC "-//W3C//DTD SVG 1.1//EN" "http://www.w3.org/Graphics/SVG/1.1/DTD/svg11.dtd">
<svg version="1.1" id="圖層_1" xmlns="http://www.w3.org/2000/svg" xmlns:xlink="http://www.w3.org/1999/xlink" x="0px" y="0px"
	 width="74.473px" height="74.533px" viewBox="0 0 74.473 74.533" enable-background="new 0 0 74.473 74.533" xml:space="preserve">
<g>
	<g>
		<g>
			<path fill="#F0C995" d="M73.952,39.855C72.522,60.134,54.923,75.41,34.648,73.98C14.37,72.551-0.909,54.955,0.521,34.677
				C1.951,14.399,19.546-0.877,39.827,0.553C60.1,1.982,75.382,19.578,73.952,39.855z"/>
		</g>
	</g>
	<g>
		<g>
			<g>
				<path fill="#FBDAAF" d="M38.56,39.746C39.39,40.916,38.235,39.287,38.56,39.746L38.56,39.746z"/>
			</g>
		</g>
		<g>
			<g>
				<path fill="#FBDAAF" d="M3.266,36.619c-0.193,1.24,0.177,3.631,2.247,4.905c4.396,2.701,5.379,0.925,7.864,1.325
					c3.412,0.549,2.488,1.499,8.109,0.229c2.652-0.597,2.544,3.122,7.961,4.882c12.603,4.092,12.396-3.582,9.112-8.213
					c-0.681-0.96-2.808-1.896-3.955-2.139c-3.712-0.776,0.792-2.214-0.358-5.686C31.952,25,20.149,26.545,17.431,31.24
					c-3.349-6.974-7.281,0.195-8.92-2.78c-1.618-2.939-4.255-3.715-6.261-2.636c-0.918,2.809-1.512,5.772-1.729,8.854
					c-0.055,0.776-0.076,1.548-0.083,2.315C1.202,37.085,2.126,37.002,3.266,36.619z"/>
			</g>
		</g>
		<g>
			<g>
				<path fill="#FBDAAF" d="M40.223,61.607c4.803-0.406,18.546-2.321,26.762-2.676c0.87-1.19,1.668-2.434,2.394-3.729
					c-7.451-1.391-16.091-0.855-20.694-0.41C40.549,55.58,31.88,55.632,23.737,54.8c-13.359-1.364-18.513-4.097-21.518-6.196
					c0.936,2.886,2.218,5.623,3.804,8.157C16.314,61.963,30.052,62.471,40.223,61.607z"/>
			</g>
		</g>
	</g>
	<g>
		<g>
			<path fill="#FBDAAF" d="M70.571,35.466c-7.589-2.046,2.71-12.965-9.974-9.005c-2.713,0.848-0.623,5.131-5.715,4.209
				c-2.972-0.537-7.757,2.521-7.563,5.915c0.187,3.323,4.889,4.497,7.818,5.171c-1.148,8.106,6.26,8.22,8.916,7.661
				c3.244-0.68,9.813-3.457,8.832-10.791C72.727,37.452,72.739,36.05,70.571,35.466z"/>
		</g>
	</g>
	<g>
		<g>
			<path fill="#E3B882" d="M49.854,36.124c-2.385-0.558-1.236-0.806-1.271-2.594c-0.025-1.613-1.493-2.655-2.894-3.09
				c-1.256-0.391-10.557-3.678-11.994,0.659c-1.453,4.388-6.12,1.939-6.714,2.659c-1.48,1.795,2.464,2.91,6.854,3.965
				c4.109,0.986,4.973,5.58,5.144,6.439c0.226,1.136-0.372,2.162,0.14,3.237c1.434,3.015,5.51,3.709,8.188,2.042
				c1.092-0.681,1.266-1.742,2.457-1.057c1.24,0.712,2.827,1.042,4.234,0.767c2.441-0.479,3.688-3.603,2.893-6.384
				C56.647,41.91,56.469,37.666,49.854,36.124z"/>
		</g>
	</g>
	<g>
		<g>
			<g>
				<path fill="#E3B882" d="M34.157,16.196c10.91,0.307,21.836-0.477,32.757-0.687c-1.539-2.095-3.293-4.024-5.239-5.755
					c-6.477,0.12-13.245,1.184-18.77,1.311c-5.964,0.138-11.949,0.032-17.859-0.826c-4.213-0.613-6.822-1.012-9.532-2.676
					c-1.223,0.897-2.391,1.864-3.495,2.901C16.773,15.817,28.305,16.028,34.157,16.196z"/>
			</g>
		</g>
		<g>
			<g>
				<path fill="#E3B882" d="M31.726,26.668c7.354,0.269,14.514-0.39,21.763-1.537c6.378-1.012,12.216-1.201,18.201-0.814
					c-0.719-1.9-1.579-3.732-2.59-5.475c-11.053-0.732-23.011,1.443-33.287,0.836c-14.756-0.873-22.933-2.969-27.864-4.695
					c-1.184,1.553-2.243,3.201-3.174,4.938C11.327,23.157,21.329,26.288,31.726,26.668z"/>
			</g>
		</g>
		<g>
			<g>
				<path fill="#E3B882" d="M64.899,61.54c-8.19-0.257-16.57,1.38-24.822,2.448c-8.572,1.109-24.395-1.594-31.84-4.06
					c1.126,1.439,2.356,2.794,3.683,4.055c12.287,4.361,34.944,3.972,41.913,3.208c1.958-0.215,3.758-0.369,5.468-0.477
					C61.335,65.187,63.214,63.455,64.899,61.54z"/>
			</g>
		</g>
		<g>
			<g>
				<path fill="#E3B882" d="M72.645,27.193c-0.702-0.087-5.876,0.146-6.307,2.555c-0.201,1.127,0.375,2.409,0.29,5.763
					c-0.048,1.912-2.371,2.529-2.532,2.607c-4.414,2.124,2.947,4.677,6.181,4.552c1.224-0.05,2.402-0.357,3.486-0.867
					c0.077-0.644,0.144-1.291,0.19-1.947C74.262,35.463,73.782,31.198,72.645,27.193z"/>
			</g>
		</g>
		<g>
			<g>
				<path fill="#E3B882" d="M4.414,45.249c2.631,4.235,7.499,0.354,10.171,3.308c1.168,1.292,2.816,4.591,7.813,1.947
					c1.825-0.963,14.068,2.133,14.662-0.457c0.627-2.742-6.173-2.137-6.133-3.589c0.209-7.446-5.358-2.53-7.589-6.713
					c-1.994-3.739-9.299-0.827-12.37,1.964c-2.296,0.33-2.115-1.578-3.84-3.026c-1.689-1.419-3.887-1.986-6.062-1.905
					c-0.205,0.01-0.417,0.023-0.628,0.045c-0.032,2.375,0.164,4.705,0.569,6.97C2.305,43.752,3.513,43.802,4.414,45.249z"/>
			</g>
		</g>
	</g>
	<path opacity="0.2" fill="#1D1D1B" d="M59.17,59.695c-6.523,1.629-13.071,1.393-19.095-0.357
		c-12.142-3.525-22.139-13.225-25.42-26.375c-0.448-1.798-0.756-3.598-0.929-5.387c-0.763-7.867,1.062-15.549,4.878-22.06
		C18.603,5.518,18.602,5.518,18.6,5.52c-1.017,0.594-1.987,1.248-2.932,1.93c-0.385,0.278-0.759,0.568-1.131,0.86
		c-0.301,0.235-0.609,0.459-0.901,0.704c-0.488,0.407-0.951,0.838-1.415,1.269c-0.226,0.209-0.465,0.406-0.684,0.62
		c-0.664,0.646-1.301,1.317-1.913,2.009c-0.213,0.243-0.407,0.502-0.614,0.75c-0.392,0.469-0.786,0.936-1.154,1.422
		c-0.239,0.318-0.458,0.65-0.688,0.976c-0.309,0.437-0.62,0.872-0.908,1.321c-0.229,0.354-0.437,0.72-0.651,1.082
		c-0.262,0.439-0.524,0.877-0.768,1.328c-0.205,0.379-0.394,0.766-0.585,1.152c-0.223,0.45-0.444,0.902-0.649,1.361
		c-0.177,0.397-0.34,0.801-0.503,1.204c-0.188,0.465-0.371,0.931-0.54,1.403c-0.146,0.41-0.282,0.826-0.414,1.242
		c-0.152,0.48-0.297,0.963-0.429,1.448c-0.115,0.421-0.223,0.845-0.323,1.271c-0.115,0.494-0.219,0.994-0.314,1.494
		c-0.081,0.428-0.16,0.854-0.227,1.284c-0.079,0.513-0.141,1.029-0.197,1.546c-0.048,0.429-0.097,0.855-0.128,1.287
		c-0.041,0.533-0.057,1.07-0.073,1.607c-0.013,0.42-0.032,0.84-0.03,1.264c0.003,0.564,0.033,1.131,0.062,1.699
		c0.021,0.4,0.029,0.801,0.062,1.203c0.054,0.626,0.021,0.91,0.107,1.539c0.038,0.285,0.137,0.995,0.183,1.281
		c0.01,0.061,0.014,0.121,0.024,0.182c0.152,0.922,0.327,1.768,0.553,2.689c0.014,0.054,0.021,0.107,0.034,0.16
		c0.177,0.709,0.394,1.442,0.609,2.131v0.002c4.824,15.433,19.123,25.719,34.778,25.832c3.027,0.021,6.146-0.318,9.222-1.085
		c0.62-0.155,1.224-0.294,1.828-0.478c0.127-0.039,0.25-0.085,0.376-0.125c0.476-0.15,0.943-0.303,1.41-0.472
		c0.146-0.053,0.288-0.114,0.434-0.169c0.44-0.166,0.901-0.326,1.331-0.507c0.137-0.058,0.269-0.122,0.403-0.181
		c0.434-0.189,0.908-0.412,1.331-0.615c0.121-0.059,0.236-0.123,0.356-0.182c0.434-0.215,0.89-0.44,1.312-0.672
		c0.096-0.051,0.187-0.107,0.28-0.16c0.441-0.246,0.884-0.498,1.313-0.762c0.073-0.045,0.143-0.092,0.214-0.137
		c0.447-0.279,0.823-0.51,1.256-0.807c0.053-0.035,0.104-0.074,0.155-0.109c0.448-0.311,0.88-0.635,1.312-0.963
		c0.029-0.023,0.059-0.048,0.09-0.07c0.451-0.346,0.968-0.747,1.401-1.112c0.014-0.013,0.027-0.024,0.04-0.036
		c3.207-2.709,6-5.844,8.369-10.051C66.336,57.102,62.645,58.828,59.17,59.695z"/>
</g>
</svg>
