<?xml version="1.0" encoding="utf-8"?>
<!-- Generator: Adobe Illustrator 16.0.4, SVG Export Plug-In . SVG Version: 6.00 Build 0)  -->
<!DOCTYPE svg PUBLIC "-//W3C//DTD SVG 1.1//EN" "http://www.w3.org/Graphics/SVG/1.1/DTD/svg11.dtd">
<svg version="1.1" id="圖層_1" xmlns="http://www.w3.org/2000/svg" xmlns:xlink="http://www.w3.org/1999/xlink" x="0px" y="0px"
	 width="74.473px" height="74.533px" viewBox="0 0 74.473 74.533" enable-background="new 0 0 74.473 74.533" xml:space="preserve">
<g>
	<g>
		<g>
			<circle fill="#988E95" cx="37.237" cy="37.266" r="36.775"/>
		</g>
	</g>
	<g>
		<g>
			<path fill="#A89CA4" d="M42.864,25.822c-0.084-2.457,1.211-4.211,3.229-5.491c1.23-0.78,2.918-0.985,4.127-1.849
				c0.547-0.814,0.974-1.699,1.209-2.604c0.736-2.818,0.156-5.84-1.325-8.314c-0.333-0.558-0.723-1.058-1.13-1.529
				C46.953,5.335,45,4.259,43.928,3.583c-4.019-2.521-5.551-1.015-9.014,1.164c-1.726,1.086-3.311,1.762-5.223,0.77
				c-0.188-0.096-0.39-0.229-0.576-0.388c-0.943,0.095-1.875,0.222-2.756,0.52c-0.565,0.194-1.163,0.534-1.732,0.964
				c-0.165,1.962-1.278,3.883-2.506,5.43c-0.561,0.707-1.168,1.388-1.748,2.084c-0.051,1.506,0.5,3.292,1.554,4.327
				c0.222,0.219,0.569,0.476,0.954,0.753c4.088-0.125,8.035,5.143,8.807,9.129c0.02,0.012,0.033,0.027,0.053,0.041
				c1.514,0.902,3.096,1.211,4.664,1.129c2.29,1.104,5.613,0.656,7.16-1.266C43.151,27.457,42.893,26.634,42.864,25.822z"/>
		</g>
	</g>
	<g>
		<g>
			<path fill="#A89CA4" d="M26.7,32.953c-0.094-0.09-0.195-0.18-0.328-0.26c-2.15-1.279-3.909-2.817-3.769-4.982
				c-0.731-0.182-1.472-0.411-2.065-0.501c-1.35-0.204-2.732-0.467-3.98-1.039c-1.368-0.628-2.707-2.065-2.68-3.663
				c0.005-0.28,0.05-0.545,0.108-0.803c-0.67-0.828-1.603-1.447-2.659-1.646c-1.432-0.27-3.385,0.508-3.604,2.149
				c-0.148,0.646-0.227,1.252-0.268,1.841c-0.064,0.488-0.113,0.98-0.125,1.469c-3.932,3.33-5.394,10.403-0.967,13.678
				c1.053,0.781,2.184,1.197,3.344,1.359c2.313-2.277,6.738-1.739,9.379-0.432c0.372,0.186,0.77,0.438,1.168,0.73
				c0.24-0.033,0.477-0.062,0.721-0.115c0.557-0.701,1.16-1.369,1.809-2.016c0.832-0.832,3.75-2.89,4.223-4.52
				C26.948,33.75,26.844,33.333,26.7,32.953z"/>
		</g>
	</g>
	<g>
		<g>
			<path fill="#A89CA4" d="M59.672,40.863c-2.214-0.793-4.438-3.881-3.43-6.247c-2.65-1.941-7.553-1.872-8.445,1.468
				c-0.674,2.515-2.771,3.076-5.134,3.285c-4.919-3.03-10.47-0.986-13.548,4.111c-1.834,3.033,1.344,6.08,4.256,6.285
				c2.284,0.164,4.193,4.348,5.719,5.908c1.957,2.004,4.672,3.029,7.434,3.277c2.938,1.879,6.688,2.15,10.263,0.021
				c2.53-1.506,5.158-3.857,4.677-7.127c-0.173-1.193-1.039-1.936-0.539-3.088c0.87-1.992,1.793-3.688,2.238-5.852
				c0.133-0.646,0.109-1.219-0.025-1.727C61.968,41.271,60.793,41.268,59.672,40.863z"/>
		</g>
	</g>
	<g>
		<g>
			<g>
				<path fill="#A89CA4" d="M61.162,65.182c-1.072,0.137-2.112,0.24-3.013,0.334c-2.299,0.236-5.118,0.484-6.84-1.186
					c-1.602,0.041-3.069,0.422-4.619,1.232c-0.006,0.002-0.01,0.006-0.014,0.008c0.875,2.182-1.318,4.934-3.086,6.17
					c-0.997,0.695-2.338,1.248-3.211,2.158C48.286,73.229,55.476,70.059,61.162,65.182z"/>
			</g>
		</g>
		<g>
			<g>
				<path fill="#A89CA4" d="M61.996,10.076c-1.481-0.307-3.18-0.083-4.292,0.854c0.711,1.307,0.633,2.685-0.286,4.229
					c-1.628,2.738-8.76,6.859-3.565,9.861c2.921,1.69,6.275,3.44,7.996,6.062c0.314,0.041,0.627,0.059,0.939,0.077
					c0.968-0.571,2.445-0.655,3.356-0.619c1.669,0.066,3.291,0.636,4.716,1.498c0.598,0.361,1.173,0.812,1.722,1.312
					c0.398-0.099,0.789-0.236,1.168-0.408C72.691,23.917,68.375,15.888,61.996,10.076z"/>
			</g>
		</g>
		<g>
			<g>
				<path fill="#A89CA4" d="M31.255,59.082c-1.618-0.445-5.442-2.262-5.103-4.482c-1.887-1.197-4.355-2.264-6.722-2.406
					c-0.769,1.133-1.755,2.09-2.774,2.648c-1.484,0.816-3.34,1.105-5.012,0.803c-0.668-0.121-1.328-0.375-1.979-0.58
					c-1.078,0.875-1.789,2.043-1.719,3.385c0.023,0.445,0.096,0.877,0.197,1.301c5.866,7.58,14.625,12.801,24.627,14.012
					c0.014-0.084,0-0.174,0.031-0.26c0.362-1.07,1.041-2.1,0.929-3.271c-0.104-1.102-0.151-2.15-0.056-3.256
					c0.118-1.395,0.82-2.633,1.121-3.979c0.298-1.322-0.174-2.24-0.442-3.441C33.309,59.455,32.258,59.357,31.255,59.082z"/>
			</g>
		</g>
	</g>
	<g>
		<g>
			<path fill="#999096" d="M30.909,15.267c-0.283-0.268-0.545-0.522-0.765-0.75c-0.805-0.83-1.599-1.877-1.669-3.084
				c-0.008-0.154,0.006-0.308,0.035-0.46c-0.502-0.265-1.07-0.36-1.683-0.144c-0.3,0.107-0.54,0.281-0.743,0.484
				c0.051,0.227,0.088,0.457,0.094,0.689c0.045,1.451-0.816,2.385-2.115,2.895c-0.251,0.1-0.512,0.096-0.761,0.022
				c-0.048,0.354-0.043,0.722,0.021,1.078c0.154-0.009,0.305-0.006,0.433,0.006c0.919,0.09,1.765,0.601,2.407,1.242
				c0.426,0.423,0.839,0.987,1.066,1.583c0.264,0.053,0.527,0.102,0.779,0.148c0.281,0.047,0.545,0.061,0.804,0.025
				c0.247-0.585,0.556-1.141,0.968-1.614c0.35-0.403,0.742-0.774,1.158-1.11c0-0.043,0.014-0.083,0.014-0.128
				C30.965,15.869,30.94,15.569,30.909,15.267z"/>
		</g>
	</g>
	<g>
		<g>
			<path fill="#999096" d="M43.983,8.07c-0.157-0.051-0.324-0.084-0.496-0.105c-0.611,0.518-1.242,0.934-1.729,1.186
				c-0.477,0.244-1.328,0.526-2.182,0.637c-0.048,0.248-0.075,0.504-0.061,0.768c-0.036,0.066-0.073,0.125-0.11,0.195
				c-0.122,0.243-0.087,0.637,0.062,0.858c0.269,0.397,0.495,0.628,0.712,0.777c0.082,0.107,0.17,0.208,0.268,0.304
				c0.334,0.322,0.709,0.602,1.09,0.873c1.016-0.604,2.365-0.642,3.569-0.238c0.015-0.025,0.032-0.041,0.045-0.062
				c0.206-0.382,0.308-0.854,0.321-1.344c0.02-0.043,0.029-0.086,0.049-0.129c-0.072-0.097-0.148-0.196-0.217-0.289
				C44.602,10.517,43.93,9.322,43.983,8.07z"/>
		</g>
	</g>
	<g>
		<g>
			<path fill="#999096" d="M33.75,45.498c-0.1-0.033-0.203-0.053-0.311-0.066c-0.385,0.324-0.781,0.586-1.088,0.744
				c-0.299,0.154-0.834,0.33-1.369,0.398c-0.031,0.158-0.049,0.32-0.041,0.484c-0.021,0.043-0.045,0.08-0.066,0.123
				c-0.075,0.154-0.055,0.398,0.039,0.539c0.168,0.248,0.31,0.395,0.447,0.488c0.052,0.068,0.105,0.133,0.168,0.191
				c0.211,0.203,0.446,0.379,0.686,0.549c0.639-0.377,1.486-0.402,2.243-0.15c0.01-0.014,0.019-0.023,0.026-0.039
				c0.129-0.238,0.195-0.539,0.203-0.846c0.014-0.023,0.018-0.051,0.031-0.078c-0.049-0.062-0.092-0.123-0.135-0.186
				C34.141,47.035,33.717,46.285,33.75,45.498z"/>
		</g>
	</g>
	<g>
		<g>
			<path fill="#8A8288" d="M51.711,27.457c-0.111-0.145-0.232-0.288-0.368-0.434c-0.513-0.547-1.048-1.054-1.477-1.674
				c-0.095-0.135-0.224-0.324-0.35-0.533c-0.688,0.455-1.414,0.828-2.022,1.074c-0.34,0.137-0.82,0.259-1.335,0.318
				c-0.018,0.078-0.038,0.154-0.046,0.234c-0.01,0.107-0.021,0.213-0.031,0.318c-0.008,0.049-0.004,0.096-0.008,0.146
				c0.643,0.38,1.176,0.951,1.33,1.707c0.062,0.299,0.098,0.618,0.099,0.934c0.08,0.037,0.157,0.081,0.245,0.11
				c0.004,0.002,0.01,0.004,0.014,0.004c0.539-0.365,1.096-0.658,1.53-0.86c0.685-0.319,1.595-0.639,2.459-0.73
				C51.76,27.866,51.75,27.658,51.711,27.457z"/>
		</g>
	</g>
	<g>
		<g>
			<path fill="#999096" d="M12.17,25.083c-0.145-0.146-0.304-0.272-0.473-0.392c-0.243-0.104-0.465-0.222-0.672-0.351
				c-0.18-0.064-0.366-0.116-0.561-0.144c-0.182-0.024-0.357-0.022-0.525-0.005C9.694,25.3,9.042,26.38,8.302,27.25
				c-0.087,0.105-0.188,0.178-0.298,0.235c0.068,0.271,0.155,0.541,0.271,0.797c0.108-0.18,0.258-0.342,0.479-0.477
				c0.816-0.497,1.954-0.24,2.779,0.086c0.556,0.219,1.101,0.509,1.624,0.844c-0.009-0.418,0.027-0.832,0.11-1.207
				c0.084-0.364,0.205-0.822,0.371-1.287C13.265,25.716,12.763,25.292,12.17,25.083z"/>
		</g>
	</g>
	<g>
		<g>
			<g>
				<path fill="#8A8288" d="M15.251,47.316c-0.604-0.322-1.181-0.744-1.467-1.391c-0.032-0.074-0.066-0.158-0.095-0.246
					c-0.199-0.047-0.397-0.076-0.602-0.066c-0.127,0.24-0.277,0.463-0.438,0.656c-0.333,0.395-0.73,0.756-1.234,0.92
					c-0.214,0.07-0.431,0.088-0.654,0.104c-0.08,0.008-0.153-0.01-0.216-0.035C9.478,47.775,9.135,49,9.644,50.104
					c0.013,0.033,0.034,0.059,0.05,0.09c0.423-0.029,0.859,0.053,1.234,0.219c0.73,0.32,1.311,0.848,1.712,1.492
					c0.117-0.014,0.229-0.023,0.333-0.064c0.027-0.01,0.059-0.016,0.088-0.029c0.025-0.012,0.062-0.025,0.091-0.037
					c-0.001-0.338,0.059-0.674,0.191-0.967c0.472-1.035,1.243-2.201,2.378-2.584c-0.012-0.256-0.069-0.504-0.148-0.744
					C15.459,47.424,15.348,47.367,15.251,47.316z"/>
			</g>
		</g>
	</g>
	<g>
		<g>
			<g>
				<path fill="#999096" d="M43.868,48.133c-0.044-0.211-0.124-0.41-0.203-0.607c-0.146-0.035-0.295-0.072-0.42-0.111
					c-0.805-0.258-1.721-0.951-1.93-1.822c-0.055-0.23-0.085-0.463-0.063-0.689c-0.19-0.17-0.37-0.35-0.581-0.49
					c-0.072-0.041-0.148-0.07-0.221-0.105c-0.688,0.857-1.861,1.43-2.961,1.439c-0.049,0.178-0.091,0.357-0.105,0.543
					c-0.006,0.068-0.002,0.129-0.004,0.197c0.42,0.371,0.744,0.857,0.923,1.393c0.171,0.516,0.323,1.395,0.313,2.264
					c0.044,0.039,0.074,0.092,0.122,0.131c0.243,0.213,0.509,0.393,0.795,0.539c0.241,0.127,0.501,0.23,0.769,0.307
					c0.551-0.629,1.293-1.143,1.893-1.441c0.529-0.26,1.111-0.475,1.688-0.561c0.057-0.318,0.061-0.646-0.008-0.967
					C43.87,48.145,43.87,48.139,43.868,48.133z"/>
			</g>
		</g>
	</g>
	<g>
		<g>
			<path fill="#999096" d="M62.829,16.167c-1.502,0.488-3.154,0.574-4.436,0.09c0.02,1.071-0.518,2.29-1.24,3.338
				c0.086,0.286,0.198,0.553,0.346,0.781c0.135,0.211,0.232,0.393,0.338,0.614c0.873,0.257,1.565,0.952,1.945,1.792
				c0.381,0.125,0.778,0.177,1.162,0.113c0.107-0.018,0.197-0.068,0.299-0.103c-0.162-1.038,0.4-2.017,1.386-2.751
				c0.427-0.314,0.88-0.59,1.37-0.784c0.037-0.226,0.057-0.46,0.041-0.707C63.987,17.714,63.532,16.743,62.829,16.167z"/>
		</g>
	</g>
	<g>
		<g>
			<path fill="#8A8288" d="M63.075,46.789c0.774-0.717,2.07-1,3.079-0.842c0.112-0.146,0.215-0.301,0.308-0.473
				c-0.043,0.082-0.031,0.062,0.012-0.018c0.002-0.004,0.004-0.008,0.008-0.012c0.006-0.014,0.012-0.025,0.02-0.039
				c0.039-0.074,0.1-0.186,0.174-0.326c-0.337-0.648-0.552-1.342-0.587-1.994c-0.044-0.828,0.221-1.65,0.7-2.252
				c-0.172-0.365-0.385-0.707-0.672-0.961c-0.68,0.424-1.402,0.732-1.911,0.846c-0.774,0.172-1.528,0.119-2.198-0.203
				c-0.024,0.029-0.058,0.049-0.081,0.078c-0.017,0.02-0.021,0.037-0.038,0.061c0.512,0.713,0.582,1.732,0.199,2.508
				c-0.214,0.439-0.516,0.959-0.872,1.469c0.286,0.787,0.808,1.508,1.435,1.934C62.792,46.658,62.934,46.727,63.075,46.789z"/>
		</g>
	</g>
	<g>
		<g>
			<path fill="#8A8288" d="M41.661,64.76c-0.491-0.035-0.961-0.123-1.32-0.256c-0.664-0.246-1.416-0.721-1.729-1.383
				c-0.049-0.104-0.086-0.201-0.127-0.301c-0.459-0.047-0.918,0.008-1.33,0.258c-0.686,0.412-1.143,0.947-1.301,1.756
				c-0.086,0.424-0.053,0.904,0.088,1.34c0.396-0.098,0.824-0.025,1.201,0.107c0.846,0.293,1.457,1.078,1.735,1.902
				c0.044,0.125,0.052,0.268,0.083,0.398c0.586,0.252,1.188,0.26,1.711,0.053c-0.061-0.799,0.186-1.67,0.626-2.24
				c0.21-0.268,0.44-0.488,0.709-0.641C41.94,65.408,41.834,65.068,41.661,64.76z"/>
		</g>
	</g>
	<g>
		<g>
			<path fill="#8A8288" d="M25.911,30.513c0.844,0.121,1.599,0.437,2.233,0.907c0.347-0.186,0.642-0.469,0.876-0.803
				c-0.432-1.19-0.543-2.476-0.156-3.374c-0.275-0.011-0.536-0.027-0.761-0.058c-0.512-0.069-1.022-0.226-1.476-0.482
				c-0.34,0.345-0.559,0.792-0.646,1.266c-0.037,0.091-0.08,0.196-0.138,0.339c-0.201,0.496-0.312,0.982-0.368,1.51
				c-0.027,0.251,0.002,0.478,0.055,0.691C25.655,30.496,25.782,30.495,25.911,30.513z"/>
		</g>
	</g>
	<g>
		<g>
			<path fill="#8A8288" d="M59.698,58.785c0.846,0.121,1.602,0.436,2.235,0.908c0.347-0.186,0.641-0.469,0.874-0.807
				c-0.432-1.188-0.539-2.475-0.158-3.373c-0.273-0.006-0.535-0.025-0.759-0.057c-0.512-0.07-1.022-0.229-1.474-0.48
				c-0.34,0.344-0.558,0.791-0.648,1.266c-0.037,0.09-0.082,0.195-0.139,0.338c-0.198,0.496-0.309,0.98-0.365,1.512
				c-0.028,0.25,0,0.477,0.053,0.689C59.444,58.768,59.571,58.768,59.698,58.785z"/>
		</g>
	</g>
	<g>
		<g>
			<path fill="#999096" d="M10.133,35.728c0-0.002-0.002-0.002-0.002-0.004c-0.123-0.14-0.244-0.281-0.35-0.44
				c-0.347-0.529-0.637-1.213-0.604-1.859c0.002-0.021,0.004-0.05,0.004-0.073c-0.308-0.309-0.736-0.477-1.232-0.391
				c-0.477,0.082-0.899,0.372-1.197,0.749l-0.28,0.453c-0.155,0.318-0.231,0.65-0.231,1.005c0.691,0.88,1.387,1.762,2.079,2.641
				C8.69,37.03,9.311,36.124,10.133,35.728z"/>
		</g>
	</g>
	<g>
		<g>
			<path fill="#8A8288" d="M48.174,63.684c0.09-0.057,0.186-0.102,0.283-0.148c0.306-0.762,0.446-1.906-0.104-2.531
				c-0.918,0.223-1.918,0.164-2.712-0.227c-0.366,0.242-0.632,0.494-0.907,0.895c0.551,0.621,0.802,1.516,0.444,2.33
				c-0.064,0.146-0.143,0.293-0.225,0.438c0.627,0.594,1.528,0.727,2.263,0.402C47.436,64.369,47.764,63.949,48.174,63.684z"/>
		</g>
	</g>
	<g>
		<g>
			<path fill="#8A8288" d="M17.19,16.939c0.592-0.382,1.303-0.617,1.955-0.611c0.041-0.066,0.082-0.132,0.113-0.201
				c0.157-0.34,0.235-0.68,0.306-1.049c0.057-0.287-0.133-1.176-0.544-1.205c-0.932-0.062-1.467-0.129-1.983,0.602
				c-0.194,0.272-0.323,0.607-0.358,0.941C16.622,15.985,16.694,16.603,17.19,16.939z"/>
		</g>
	</g>
	<g>
		<g>
			<path fill="#999096" d="M19.01,64.502c1.076-0.693,2.363-1.119,3.543-1.105c0.077-0.123,0.151-0.242,0.209-0.369
				c0.285-0.613,0.426-1.23,0.556-1.896c0.099-0.521-0.244-2.135-0.987-2.186c-1.691-0.113-2.662-0.234-3.595,1.09
				c-0.354,0.496-0.587,1.102-0.649,1.705C17.981,62.771,18.112,63.891,19.01,64.502z"/>
		</g>
	</g>
	<path opacity="0.1" fill="#1D1D1B" d="M59.254,59.596c-6.523,1.629-13.07,1.393-19.094-0.357
		c-12.143-3.525-22.14-13.225-25.421-26.375c-0.448-1.797-0.756-3.597-0.929-5.387c-0.763-7.867,1.062-15.548,4.878-22.059
		c-0.002,0-0.003,0-0.005,0.002c-1.017,0.594-1.987,1.248-2.932,1.93c-0.385,0.279-0.759,0.568-1.131,0.86
		c-0.301,0.235-0.609,0.46-0.901,0.704c-0.488,0.406-0.951,0.838-1.415,1.268c-0.226,0.209-0.465,0.406-0.684,0.621
		c-0.664,0.646-1.301,1.316-1.913,2.009c-0.213,0.243-0.407,0.501-0.614,0.749c-0.392,0.469-0.786,0.936-1.154,1.422
		c-0.239,0.318-0.458,0.651-0.688,0.977c-0.309,0.437-0.62,0.871-0.908,1.32C6.116,17.633,5.908,18,5.693,18.361
		c-0.262,0.439-0.524,0.878-0.768,1.328c-0.205,0.379-0.394,0.767-0.585,1.152c-0.223,0.451-0.444,0.902-0.649,1.362
		c-0.177,0.397-0.34,0.8-0.503,1.203C3,23.872,2.817,24.338,2.648,24.811c-0.146,0.41-0.282,0.826-0.414,1.242
		c-0.152,0.479-0.297,0.962-0.429,1.447c-0.115,0.422-0.223,0.845-0.323,1.271c-0.115,0.494-0.219,0.993-0.314,1.494
		c-0.081,0.427-0.16,0.854-0.227,1.284C0.862,32.062,0.8,32.58,0.744,33.096c-0.048,0.429-0.097,0.854-0.128,1.286
		c-0.041,0.533-0.057,1.07-0.073,1.607c-0.013,0.42-0.032,0.841-0.03,1.264c0.003,0.564,0.033,1.132,0.062,1.699
		c0.021,0.401,0.029,0.801,0.062,1.204c0.054,0.627,0.021,0.91,0.107,1.539c0.038,0.285,0.137,0.996,0.183,1.281
		c0.01,0.061,0.014,0.121,0.024,0.182c0.152,0.922,0.327,1.768,0.553,2.689c0.014,0.055,0.021,0.107,0.034,0.16
		c0.177,0.709,0.394,1.443,0.609,2.131v0.002c4.824,15.434,19.123,25.719,34.778,25.832c3.027,0.021,6.146-0.316,9.223-1.084
		c0.619-0.156,1.238-0.342,1.842-0.525c0.127-0.039,0.25-0.084,0.377-0.125c0.475-0.15,0.947-0.314,1.414-0.484
		c0.146-0.053,0.289-0.113,0.434-0.168c0.441-0.166,0.885-0.312,1.314-0.494c0.137-0.057,0.27-0.123,0.404-0.18
		c0.434-0.189,0.852-0.377,1.275-0.58c0.121-0.059,0.236-0.123,0.355-0.182c0.434-0.215,0.928-0.479,1.352-0.711
		c0.096-0.051,0.186-0.107,0.279-0.16c0.441-0.246,0.857-0.49,1.287-0.754c0.074-0.045,0.143-0.092,0.215-0.137
		c0.447-0.279,0.848-0.529,1.279-0.826c0.053-0.035,0.104-0.074,0.156-0.109c0.447-0.311,0.848-0.602,1.279-0.93
		c0.029-0.023,0.059-0.049,0.09-0.07c0.451-0.346,1.002-0.766,1.436-1.131c0.014-0.014,0.027-0.025,0.041-0.037
		c3.207-2.709,5.266-5.119,8.295-10.008C66.333,56.996,62.729,58.729,59.254,59.596z"/>
</g>
</svg>
