<?xml version="1.0" encoding="utf-8"?>
<!-- Generator: Adobe Illustrator 16.0.4, SVG Export Plug-In . SVG Version: 6.00 Build 0)  -->
<!DOCTYPE svg PUBLIC "-//W3C//DTD SVG 1.1//EN" "http://www.w3.org/Graphics/SVG/1.1/DTD/svg11.dtd">
<svg version="1.1" id="圖層_1" xmlns="http://www.w3.org/2000/svg" xmlns:xlink="http://www.w3.org/1999/xlink" x="0px" y="0px"
	 width="74.473px" height="74.533px" viewBox="0 0 74.473 74.533" enable-background="new 0 0 74.473 74.533" xml:space="preserve">
<g>
	<g>
		<g>
			<circle fill="#4D78BC" cx="37.236" cy="37.267" r="36.823"/>
		</g>
	</g>
	<g>
		<g>
			<path fill="#446EB5" d="M51.967,43.832c-1.503-0.822-0.796-2.454-5.129-2.895c-1.534-0.155-3.044,1.518-4.582,1.468
				c-0.977-0.032-6.387-2.056-6.772-1.356c-0.098,0.082-2.642,1.086-2.914,1.859c-1.598,4.553,4.059,5.805,6.54,6.32
				c2,0.418,3.938,0.319,5.958,0.283c2.031-0.037,4.015-0.252,5.377-1.383c1.7-0.31,2.979-1.652,4.377-2.633
				c0.113-0.08,0.186-0.177,0.238-0.28C53.631,45.062,53.301,44.562,51.967,43.832z"/>
		</g>
	</g>
	<g>
		<g>
			<path fill="#5783C3" d="M24.936,30.627c-4.359-1.323-10.297-0.625-14.795-0.803c-1.952-0.078-5.704-0.552-8.299,0.193
				c-0.223-0.072-0.457-0.099-0.695-0.094C0.9,31.145,0.715,32.39,0.591,33.65c0.591,0.212,1.259,0.158,1.716-0.381
				c0.719-0.85,3.596-0.6,4.609-0.647c2.604-0.122,5.215-0.397,7.82-0.384c2.865,0.016,7.375,0.96,10.032-0.395
				C25.146,31.65,25.568,30.818,24.936,30.627z"/>
		</g>
	</g>
	<g>
		<g>
			<path fill="#5783C3" d="M68.446,44.064c-1.489-0.501-3.13,0.074-4.643,0.287c-1.128,0.158-2.228,0.299-3.328,0.469
				c-1.436-0.76-2.65-1.152-4.479-0.77c-2.591,0.545-3.127,3.117-7.742,3.769c-0.649,0.093-1.286,0.196-1.947,0.224
				c-1.74,0.451-3.628,0.528-5.089,0.408c-2.524-0.21-4.445,0.164-9.135-3.049c-0.174,1.129-0.262,2.865,2.865,4.168
				c3.27,0.818,6.353,2.586,9.605,2.029c3.523-0.602,5.986-2.289,9.114-3.752c3.287-1.539,5.633-2.051,8.747-1.016
				c0.453-0.025,0.909-0.062,1.378-0.104c1.655-0.151,3.313-0.298,4.656-1.343C68.86,45.066,69.104,44.285,68.446,44.064z"/>
		</g>
	</g>
	<g>
		<g>
			<path fill="#5783C3" d="M69.489,32.738c-1.475-0.999-4.14-0.627-5.782-0.3c-0.052,0.011-0.085,0.036-0.131,0.05
				c-0.296-0.053-0.584-0.121-0.893-0.154c-1.659-0.188-3.438-0.199-5.211-0.101c-0.369-0.046-0.717-0.039-0.993,0.081
				c-1.321,0.105-2.632,0.252-3.865,0.451c-0.584,0.095-0.371,1.09,0.149,1.139c1.912,0.181,3.851,0.042,5.788-0.058
				c0.275,0.034,0.551,0.063,0.817,0.103c0.282,0.041,0.571,0.1,0.86,0.146c0.72,0.528,1.667,0.796,2.495,0.991
				c1.17,0.272,2.191,0.209,3.267,0.043c0.015,0.082,0.03,0.164,0.074,0.244C67.359,37.704,71.83,34.322,69.489,32.738z"/>
		</g>
	</g>
	<g>
		<g>
			<path fill="#5783C3" d="M24.042,49.029c-1.318,0.057-3.732-0.178-4.604,1.102c-0.08,0.119-0.09,0.279,0.022,0.376
				c0.972,0.838,2.971,0.089,4.108,0.019c1.626-0.1,3.034,0.152,4.595,0.614c0.274,0.082,0.572-0.21,0.54-0.533
				C28.507,48.658,25.22,48.98,24.042,49.029z"/>
		</g>
	</g>
	<g>
		<g>
			<path fill="#446EB5" d="M68.645,51.662c-4.883,4.826-7.194,3.217-12.638,2.017c-2.417-0.532-3.896,0.912-5.359,2.145
				c-2.651-1.12-6.137-1.021-8.66,0.278c-3.816-0.919-7.934-1.76-11.418-1.412c-1.828,0.181-3.772,1.012-5.709,1.748
				c-0.415-0.021-0.83-0.049-1.25-0.101c-1.318-0.163-2.61-0.517-3.927-0.7c-1.178-0.166-2.208-0.103-3.089,0.217
				c-0.744,0.019-1.503,0.111-2.209,0.125c-1.331,0.027-2.605-0.441-3.884-0.757c-1.683-0.418-3.559-0.638-4.654,0.139H5.823
				c-0.231,0.006-0.417,0.047-0.605,0.083c2.209,3.883,5.098,7.33,8.515,10.168c0.432,0.042,0.874,0.072,1.339,0.069
				c0.595-0.003,1.259-0.046,1.946-0.123c0.194,0.031,0.39,0.043,0.584,0.064c1.346,0.999,3.149,0.782,4.785,0.034
				c3.558,0.129,6.795-2.646,10.61-1.996c1.858,0.316,3.985,0.738,5.774,0.292c2.743,0.343,5.706-0.101,8.366,0.233
				c1.882,1.251,4.139,1.834,6.293,1.645c0.564,0.043,1.153,0.04,1.781-0.006c1.897-0.139,4.36-1.086,5.932-2.473
				c0.497,0.178,0.996,0.381,1.503,0.549c3.839-3.66,6.883-8.141,8.858-13.162C70.416,50.688,69.367,50.947,68.645,51.662z"/>
		</g>
	</g>
	<g>
		<g>
			<g>
				<path fill="#446EB5" d="M68.144,20.718c0.636,0.191,1.345,0.215,2.035,0.1c-0.292-0.583-0.599-1.154-0.92-1.719
					c-0.019-0.031-0.036-0.062-0.053-0.093c-0.308-0.54-0.63-1.071-0.964-1.592c-0.023-0.036-0.046-0.07-0.068-0.106
					c-0.342-0.528-0.697-1.049-1.063-1.559c-0.014-0.017-0.025-0.034-0.037-0.05c-1.933-2.67-4.214-5.07-6.78-7.135
					c-0.002-0.001-0.005-0.004-0.006-0.005c-1.813-0.19-3.718,0.153-4.949,1.286c-0.685,0.628-1.2,1.213-1.686,1.892
					c-0.172-0.016-0.358-0.005-0.533-0.012c-3.145-0.829-6.685-1.211-9.425-0.889c-2.452,0.288-5.028,1.808-7.236,2.639
					c-0.366,0.138-0.754,0.259-1.154,0.371c-0.822,0.046-1.634,0.122-2.398,0.184c-0.412,0.033-0.812,0.092-1.203,0.171
					c-1.903-1.164-4.109-1.53-6.01-0.974c-3.107-1.696-6.422-3.188-9.677-4.255c-0.544-0.177-1.14-0.348-1.749-0.477
					c-1.781,1.423-3.426,3.009-4.914,4.732c0.011,0.014,0.018,0.026,0.027,0.037c-0.352,0.411-0.701,0.823-1.036,1.249
					c-0.02,0.003-0.038,0.006-0.058,0.011c-2.016,2.562-3.705,5.391-4.99,8.436c5.448,2.117,10.945-0.96,16.735,0.135
					c4.812,0.906,10.371,1.725,15.157,0.074c0.621,0.143,3.073,0.033,3.455-0.021c0.621-0.087,1.228-0.279,1.823-0.464
					c0.313-0.098,0.652-0.206,0.999-0.333c2.145,0.08,4.289,0.105,6.468,0.468c1.782,0.296,3.545,0.408,5.344,0.427
					c0.938,0.009,1.987-0.057,3.065-0.217c0.366,0.098,0.734,0.183,1.048,0.271c1.886,0.519,3.75,0.639,5.682,0.375
					C65.286,23.374,67.084,22.314,68.144,20.718z"/>
			</g>
		</g>
		<g>
			<g>
				<path fill="#446EB5" d="M26.695,8.403c2.758,1.274,6.092,1.409,9.278,1.045c2.224-0.253,4.207-0.951,6.252-1.423
					c1.941,0.025,4.007,0.005,6.019-0.237c1.076,0.148,2.145,0.302,3.244,0.337c2.228,0.069,4.425-0.569,6.009-1.603
					c-5.813-3.839-12.772-6.079-20.261-6.079c-6.547,0-12.689,1.717-18.017,4.712c0.288,0.429,0.635,0.806,1.044,1.086
					C22.181,7.557,24.378,8.162,26.695,8.403z"/>
			</g>
		</g>
	</g>
	<path opacity="0.2" fill="#1D1D1B" d="M59.333,59.713c-6.523,1.628-13.071,1.391-19.095-0.357
		C28.097,55.83,18.1,46.131,14.819,32.979c-0.448-1.798-0.756-3.598-0.929-5.388c-0.763-7.866,1.062-15.548,4.878-22.059
		c-0.002,0.001-0.003,0.001-0.005,0.002c-1.017,0.595-1.987,1.248-2.932,1.931c-0.385,0.278-0.759,0.568-1.131,0.859
		c-0.301,0.235-0.609,0.46-0.901,0.704c-0.488,0.407-0.951,0.838-1.415,1.268c-0.226,0.21-0.465,0.407-0.684,0.621
		c-0.664,0.646-1.301,1.316-1.913,2.009c-0.213,0.243-0.407,0.502-0.614,0.75c-0.392,0.469-0.786,0.936-1.154,1.422
		c-0.239,0.318-0.458,0.65-0.688,0.976c-0.309,0.437-0.62,0.871-0.908,1.321c-0.229,0.354-0.437,0.72-0.651,1.081
		c-0.262,0.439-0.524,0.878-0.768,1.329c-0.205,0.378-0.394,0.766-0.585,1.151c-0.223,0.451-0.444,0.902-0.649,1.362
		c-0.177,0.397-0.34,0.8-0.503,1.204c-0.188,0.465-0.371,0.931-0.54,1.403c-0.146,0.41-0.282,0.826-0.414,1.242
		c-0.152,0.479-0.297,0.962-0.429,1.448c-0.115,0.421-0.223,0.844-0.323,1.271c-0.115,0.494-0.219,0.993-0.314,1.495
		c-0.081,0.426-0.16,0.854-0.227,1.283c-0.079,0.513-0.141,1.029-0.197,1.547c-0.048,0.428-0.097,0.854-0.128,1.285
		c-0.041,0.533-0.057,1.07-0.073,1.607c-0.013,0.421-0.032,0.842-0.03,1.265c0.003,0.563,0.033,1.132,0.062,1.699
		c0.021,0.401,0.029,0.801,0.062,1.203c0.054,0.626,0.021,0.911,0.107,1.538c0.038,0.287,0.137,0.996,0.183,1.282
		c0.01,0.061,0.014,0.121,0.024,0.182c0.152,0.922,0.327,1.769,0.553,2.689c0.014,0.054,0.021,0.106,0.034,0.159
		c0.177,0.709,0.394,1.443,0.609,2.133l0,0C7.051,63.689,21.35,73.975,37.005,74.088c3.027,0.022,6.146-0.316,9.222-1.084
		c0.62-0.155,1.238-0.341,1.843-0.525c0.127-0.038,0.25-0.084,0.376-0.125c0.476-0.15,0.948-0.314,1.415-0.482
		c0.146-0.053,0.288-0.115,0.434-0.17c0.44-0.165,0.885-0.312,1.314-0.493c0.137-0.058,0.269-0.122,0.403-0.181
		c0.434-0.189,0.853-0.376,1.275-0.58c0.121-0.058,0.236-0.122,0.356-0.182c0.434-0.215,0.928-0.479,1.351-0.709
		c0.096-0.052,0.187-0.108,0.28-0.16c0.441-0.246,0.857-0.492,1.287-0.755c0.073-0.044,0.143-0.093,0.214-0.138
		c0.447-0.277,0.848-0.528,1.28-0.824c0.053-0.036,0.104-0.074,0.155-0.111c0.448-0.311,0.848-0.602,1.28-0.93
		c0.029-0.023,0.059-0.048,0.09-0.07c0.451-0.346,1.002-0.766,1.436-1.131c0.014-0.012,0.027-0.024,0.04-0.036
		c3.207-2.709,5.267-5.118,8.295-10.009C66.411,57.112,62.808,58.846,59.333,59.713z"/>
</g>
</svg>
