<?xml version="1.0" encoding="utf-8"?>
<!-- Generator: Adobe Illustrator 16.0.4, SVG Export Plug-In . SVG Version: 6.00 Build 0)  -->
<!DOCTYPE svg PUBLIC "-//W3C//DTD SVG 1.1//EN" "http://www.w3.org/Graphics/SVG/1.1/DTD/svg11.dtd">
<svg version="1.1" id="圖層_1" xmlns="http://www.w3.org/2000/svg" xmlns:xlink="http://www.w3.org/1999/xlink" x="0px" y="0px"
	 width="74.473px" height="74.533px" viewBox="0 0 74.473 74.533" enable-background="new 0 0 74.473 74.533" xml:space="preserve">
<g>
	<circle fill="#EFBBBB" cx="37.236" cy="37.246" r="36.804"/>
	<path fill="#E4AFAF" d="M57.272,6.371c-15.876,2.621-30.571,9.227-36.762,12.276c-2.575,1.268-4.962,2.891-7.065,4.845
		c-13.448,12.492,20.262,4.527,27.938,2.731c6.526-1.528,23.867,5.796,32.472,7.309C72.714,22.15,66.387,12.298,57.272,6.371z"/>
	<path fill="#E4AFAF" d="M3.777,52.592c2.303,5.013,5.698,9.418,9.881,12.912c6.178-1.38,12.321-1.977,14.36-6.123
		c2.439-4.963,31.384-1.913,29.26-10.472C56.135,44.299,9.109,45.586,3.777,52.592z"/>
	<g>
		<path fill="none" d="M57.316,68.082c-2.641-0.158-5.286-0.225-7.929-0.389c-1.935-0.119-4.19,0.102-5.396-1.676
			c-0.99-1.457-0.407-2.769,0.955-3.784c2.618-1.951,8.476-1.653,11.693-1.606c2.995,0.042,5.992,0.041,8.989,0.037"/>
		<path fill="none" d="M0.44,36.953c12.095-0.384,24.132-2.085,36.156-2.548c2.714-0.105,6.67-0.259,8.946,1.257
			c2.357,1.57,1.391,3.606-1.146,3.864c-5.705,0.58-11.456-0.135-17.136,1.195c-5.993,1.403-12.176,1.92-18.138,3.41
			c-2.527,0.631-5.058,1.376-7.613,1.965"/>
		<path fill="#E4AFAF" d="M27.262,40.721c5.68-1.33,11.431-0.615,17.136-1.195c2.536-0.258,3.503-2.293,1.146-3.864
			c-2.276-1.516-6.232-1.362-8.946-1.257c-12.024,0.463-24.062,2.164-36.156,2.548c-0.001,0.098-0.008,0.194-0.008,0.293
			c0,3.051,0.378,6.014,1.078,8.85c2.556-0.589,5.086-1.334,7.613-1.965C15.086,42.641,21.269,42.124,27.262,40.721z"/>
		<path fill="#E4AFAF" d="M65.629,60.664c-2.997,0.004-5.994,0.005-8.989-0.037c-3.218-0.047-9.075-0.345-11.693,1.606
			c-1.362,1.016-1.945,2.327-0.955,3.784c1.206,1.777,3.462,1.557,5.396,1.676c2.643,0.164,5.288,0.23,7.929,0.389
			C60.449,66.038,63.256,63.538,65.629,60.664z"/>
	</g>
	<path opacity="0.1" fill="#1D1D1B" d="M59.183,59.715c-6.523,1.628-13.071,1.391-19.095-0.357
		c-12.142-3.525-22.139-13.225-25.42-26.375c-0.448-1.798-0.756-3.597-0.929-5.387c-0.763-7.867,1.062-15.548,4.878-22.059
		c-0.002,0.001-0.003,0.001-0.005,0.002c-1.017,0.594-1.987,1.248-2.932,1.93c-0.385,0.278-0.759,0.568-1.131,0.86
		c-0.301,0.235-0.609,0.459-0.901,0.704C13.16,9.439,12.697,9.87,12.233,10.3c-0.226,0.209-0.465,0.407-0.684,0.621
		c-0.664,0.646-1.301,1.317-1.913,2.009c-0.213,0.243-0.407,0.501-0.614,0.75c-0.392,0.469-0.786,0.936-1.154,1.422
		c-0.239,0.318-0.458,0.651-0.688,0.976c-0.309,0.437-0.62,0.872-0.908,1.321c-0.229,0.354-0.437,0.72-0.651,1.082
		c-0.262,0.439-0.524,0.878-0.768,1.329c-0.205,0.378-0.394,0.766-0.585,1.152c-0.223,0.451-0.444,0.902-0.649,1.362
		c-0.177,0.397-0.34,0.8-0.503,1.204c-0.188,0.465-0.371,0.931-0.54,1.404c-0.146,0.41-0.282,0.826-0.414,1.242
		c-0.152,0.48-0.297,0.962-0.429,1.448c-0.115,0.421-0.223,0.844-0.323,1.271c-0.115,0.495-0.219,0.993-0.314,1.495
		c-0.081,0.426-0.16,0.854-0.227,1.283c-0.079,0.513-0.141,1.029-0.197,1.547C0.624,33.643,0.575,34.07,0.544,34.5
		c-0.041,0.533-0.057,1.07-0.073,1.607c-0.013,0.421-0.032,0.842-0.03,1.265c0.003,0.563,0.033,1.132,0.062,1.699
		c0.021,0.401,0.029,0.801,0.062,1.203c0.054,0.626,0.021,0.911,0.107,1.538c0.038,0.287,0.137,0.996,0.183,1.282
		c0.01,0.061,0.014,0.121,0.024,0.182c0.152,0.922,0.327,1.769,0.553,2.689c0.014,0.054,0.021,0.106,0.034,0.159
		c0.177,0.709,0.394,1.443,0.609,2.133l0,0C6.9,63.691,21.199,73.977,36.854,74.09c3.027,0.022,6.146-0.316,9.222-1.084
		c0.62-0.155,1.238-0.341,1.843-0.525c0.127-0.038,0.25-0.084,0.376-0.125c0.476-0.15,0.948-0.314,1.415-0.482
		c0.146-0.053,0.288-0.115,0.434-0.17c0.44-0.165,0.885-0.312,1.314-0.493c0.137-0.058,0.269-0.122,0.403-0.181
		c0.434-0.189,0.853-0.376,1.275-0.58c0.121-0.058,0.236-0.122,0.356-0.182c0.434-0.215,0.928-0.479,1.351-0.709
		c0.096-0.052,0.187-0.108,0.28-0.16c0.441-0.246,0.857-0.492,1.287-0.755c0.073-0.044,0.143-0.093,0.214-0.138
		c0.447-0.277,0.848-0.528,1.28-0.824c0.053-0.036,0.104-0.074,0.155-0.111c0.448-0.311,0.848-0.602,1.28-0.93
		c0.029-0.023,0.059-0.048,0.09-0.07c0.451-0.346,1.002-0.766,1.436-1.131c0.014-0.012,0.027-0.024,0.04-0.036
		c3.207-2.709,5.267-5.118,8.295-10.009C66.26,57.114,62.657,58.848,59.183,59.715z"/>
</g>
</svg>
