<?xml version="1.0" encoding="utf-8"?>
<!-- Generator: Adobe Illustrator 16.0.4, SVG Export Plug-In . SVG Version: 6.00 Build 0)  -->
<!DOCTYPE svg PUBLIC "-//W3C//DTD SVG 1.1//EN" "http://www.w3.org/Graphics/SVG/1.1/DTD/svg11.dtd">
<svg version="1.1" id="圖層_1" xmlns="http://www.w3.org/2000/svg" xmlns:xlink="http://www.w3.org/1999/xlink" x="0px" y="0px"
	 width="74.473px" height="74.533px" viewBox="0 0 74.473 74.533" enable-background="new 0 0 74.473 74.533" xml:space="preserve">
<g>
	<circle fill="#EFBBBB" cx="37.236" cy="37.246" r="36.804"/>
	<path fill="#E4AFAF" d="M57.272,6.371c-15.876,2.621-30.57,9.227-36.762,12.276c-2.575,1.268-4.962,2.891-7.065,4.845
		c-13.447,12.492,20.263,4.527,27.938,2.731c6.526-1.528,23.867,5.796,32.472,7.309C72.714,22.15,66.387,12.298,57.272,6.371z"/>
	<path fill="#E4AFAF" d="M3.777,52.592c2.304,5.013,5.698,9.418,9.882,12.912c6.178-1.38,12.32-1.978,14.359-6.123
		c2.439-4.963,31.384-1.913,29.26-10.472C56.135,44.299,9.109,45.586,3.777,52.592z"/>
	<g>
		<path fill="none" d="M57.316,68.082c-2.641-0.158-5.286-0.226-7.929-0.39c-1.935-0.118-4.19,0.103-5.396-1.676
			c-0.99-1.457-0.407-2.769,0.954-3.783c2.618-1.951,8.477-1.653,11.693-1.606c2.995,0.042,5.992,0.041,8.989,0.037"/>
		<path fill="none" d="M0.44,36.953c12.096-0.384,24.132-2.085,36.156-2.548c2.714-0.105,6.67-0.259,8.946,1.257
			c2.356,1.57,1.391,3.606-1.146,3.864c-5.705,0.58-11.456-0.135-17.136,1.195c-5.993,1.402-12.176,1.92-18.138,3.409
			c-2.527,0.632-5.059,1.376-7.613,1.966"/>
		<path fill="#E4AFAF" d="M27.262,40.722c5.68-1.33,11.431-0.615,17.136-1.195c2.536-0.258,3.503-2.293,1.146-3.864
			c-2.276-1.516-6.232-1.362-8.946-1.257c-12.023,0.463-24.062,2.164-36.156,2.548c-0.001,0.098-0.008,0.194-0.008,0.293
			c0,3.051,0.378,6.014,1.078,8.851c2.556-0.59,5.086-1.334,7.613-1.966C15.086,42.642,21.269,42.124,27.262,40.722z"/>
		<path fill="#E4AFAF" d="M65.629,60.664c-2.997,0.004-5.994,0.005-8.989-0.037c-3.218-0.047-9.075-0.345-11.693,1.606
			c-1.361,1.016-1.944,2.326-0.954,3.783c1.206,1.777,3.462,1.558,5.396,1.676c2.644,0.164,5.288,0.23,7.929,0.39
			C60.449,66.038,63.256,63.538,65.629,60.664z"/>
	</g>
	<path opacity="0.1" fill="#1D1D1B" enable-background="new    " d="M59.183,59.715c-6.522,1.628-13.071,1.392-19.095-0.356
		c-12.143-3.525-22.139-13.226-25.42-26.375c-0.448-1.798-0.756-3.597-0.93-5.387c-0.763-7.867,1.062-15.548,4.879-22.059
		c-0.002,0.001-0.004,0.001-0.006,0.002c-1.017,0.594-1.986,1.248-2.932,1.93c-0.385,0.278-0.759,0.568-1.131,0.86
		c-0.301,0.235-0.609,0.459-0.901,0.704C13.16,9.439,12.697,9.87,12.233,10.3c-0.226,0.209-0.465,0.407-0.684,0.621
		c-0.664,0.646-1.301,1.317-1.913,2.009c-0.213,0.243-0.407,0.501-0.614,0.75c-0.392,0.469-0.786,0.936-1.153,1.422
		C7.629,15.42,7.41,15.753,7.18,16.078c-0.309,0.437-0.62,0.872-0.908,1.321c-0.229,0.354-0.437,0.72-0.65,1.082
		c-0.263,0.439-0.524,0.878-0.769,1.329c-0.205,0.378-0.394,0.766-0.585,1.152c-0.223,0.451-0.443,0.902-0.648,1.362
		c-0.178,0.397-0.341,0.8-0.503,1.204c-0.188,0.465-0.371,0.931-0.54,1.404c-0.146,0.41-0.282,0.826-0.414,1.242
		c-0.152,0.48-0.297,0.962-0.43,1.448c-0.114,0.421-0.223,0.844-0.322,1.271c-0.115,0.495-0.22,0.993-0.314,1.495
		c-0.081,0.426-0.16,0.854-0.227,1.283C0.79,32.184,0.728,32.7,0.672,33.218C0.624,33.643,0.575,34.07,0.544,34.5
		c-0.041,0.533-0.058,1.07-0.073,1.607c-0.013,0.421-0.032,0.842-0.03,1.265c0.003,0.562,0.033,1.132,0.062,1.699
		c0.021,0.4,0.029,0.801,0.062,1.203c0.055,0.625,0.021,0.91,0.107,1.537c0.038,0.287,0.137,0.996,0.183,1.282
		c0.011,0.062,0.015,0.121,0.024,0.183c0.152,0.922,0.327,1.769,0.553,2.688c0.014,0.054,0.021,0.106,0.034,0.159
		c0.177,0.709,0.394,1.443,0.609,2.133l0,0C6.9,63.69,21.199,73.978,36.854,74.09c3.027,0.022,6.146-0.315,9.223-1.084
		c0.619-0.155,1.237-0.341,1.843-0.524c0.127-0.039,0.25-0.084,0.376-0.125c0.476-0.15,0.948-0.314,1.415-0.482
		c0.146-0.053,0.288-0.115,0.434-0.17c0.44-0.165,0.885-0.312,1.314-0.493c0.137-0.058,0.269-0.122,0.402-0.181
		c0.435-0.189,0.854-0.377,1.275-0.58c0.121-0.059,0.236-0.122,0.356-0.182c0.434-0.215,0.928-0.479,1.351-0.709
		c0.096-0.053,0.187-0.108,0.28-0.16c0.44-0.246,0.856-0.492,1.287-0.756c0.072-0.043,0.143-0.093,0.214-0.138
		c0.446-0.276,0.848-0.528,1.279-0.823c0.054-0.037,0.104-0.074,0.155-0.111c0.448-0.312,0.849-0.603,1.28-0.93
		c0.029-0.023,0.059-0.049,0.09-0.07c0.451-0.346,1.002-0.766,1.437-1.131c0.014-0.012,0.026-0.024,0.039-0.037
		c3.207-2.709,5.268-5.117,8.296-10.008C66.26,57.114,62.657,58.849,59.183,59.715z"/>
</g>
<g>
	<path fill="none" d="M37.236,0.442c-2.283,0-4.514,0.218-6.682,0.616c4.642,0.355,9.25,0.861,13.837,1.667
		c1.302,0.229,4.069,0.487,2.849,2.378c-0.949,1.472-3.446,0.556-4.774,0.497c-6.071-0.271-12.928,2.277-18.877,0.295
		c-0.958-0.319-1.946-0.938-2.038-1.947C9.071,9.838,0.432,22.531,0.432,37.246c0,20.326,16.478,36.804,36.804,36.804
		c20.327,0,36.805-16.478,36.805-36.804S57.563,0.442,37.236,0.442z"/>
	<path fill="#E4AFAF" d="M23.588,5.896c5.949,1.981,12.806-0.567,18.877-0.295c1.328,0.06,3.825,0.976,4.774-0.497
		c1.221-1.891-1.547-2.149-2.849-2.378c-4.587-0.806-9.195-1.312-13.837-1.667c-3.161,0.58-6.181,1.559-9.004,2.891
		C21.642,4.958,22.63,5.577,23.588,5.896z"/>
</g>
</svg>
