<?xml version="1.0" encoding="utf-8"?>
<!-- Generator: Adobe Illustrator 16.0.4, SVG Export Plug-In . SVG Version: 6.00 Build 0)  -->
<!DOCTYPE svg PUBLIC "-//W3C//DTD SVG 1.1//EN" "http://www.w3.org/Graphics/SVG/1.1/DTD/svg11.dtd">
<svg version="1.1" id="圖層_1" xmlns="http://www.w3.org/2000/svg" xmlns:xlink="http://www.w3.org/1999/xlink" x="0px" y="0px"
	 width="74.473px" height="74.533px" viewBox="0 0 74.473 74.533" enable-background="new 0 0 74.473 74.533" xml:space="preserve">
<g>
	<circle fill="#F4D1BE" cx="37.236" cy="37.241" r="36.8"/>
	<g>
		<path fill="#E0B283" d="M2.067,48.102c1.188,3.854,2.993,7.436,5.299,10.634c31.278,0.111,48.488,1.149,57.91,2.333
			c3.104-3.648,5.508-7.91,7.005-12.577C52.717,53.289,16.584,49.805,2.067,48.102z"/>
		<path fill="#E0B283" d="M72.489,26.663c-1.191-3.98-3.04-7.677-5.419-10.965L17.862,5.952c-3.062,1.9-5.824,4.237-8.201,6.924
			C17.841,18.119,36.188,26.11,72.489,26.663z"/>
		<path fill="#E0B283" d="M74.036,37.241c0-1.5-0.093-2.979-0.268-4.433C36.741,31.891,15.457,22.797,6.152,17.537
			c-3.618,5.697-5.716,12.456-5.716,19.704c0,0.123,0.004,0.243,0.005,0.365c21.356,9.496,55.07,6.542,72.728,7.591
			C73.735,42.635,74.036,39.973,74.036,37.241z"/>
		<path fill="#CD8F70" d="M5.837,56.438c1.472,2.402,3.211,4.621,5.177,6.617c17.185-2.576,39.886-1.416,52.825-0.389
			c2.587-2.705,4.763-5.807,6.434-9.201C46.098,57.511,17.53,56.915,5.837,56.438z"/>
		<path fill="#CD8F70" d="M15.574,7.493c27.68,10.255,43.349,10.903,52.077,9.03c-2.27-3.324-5.068-6.256-8.275-8.677
			C45.586,10.2,32.503,6.772,23.405,3.133C20.607,4.269,17.979,5.739,15.574,7.493z"/>
		<path fill="#E0B283" d="M37.236,74.04c5.148,0,10.049-1.059,14.498-2.968c-15.973-3.799-25.495-2.73-30.915-0.892
			C25.762,72.649,31.336,74.04,37.236,74.04z"/>
		<path fill="#CD8F70" d="M73.895,40.463c0.046-0.524,0.08-1.053,0.104-1.583c0-0.01,0.001-0.018,0.001-0.026
			c0.011-0.246,0.019-0.493,0.024-0.741c0.001-0.045,0.002-0.09,0.003-0.135c0.005-0.244,0.009-0.49,0.009-0.736
			c0-1.5-0.093-2.979-0.268-4.433C36.741,31.891,15.457,22.797,6.152,17.537C3.16,22.248,1.21,27.686,0.624,33.526
			C8.477,36.889,24.802,40.463,73.895,40.463z"/>
	</g>
	<path opacity="0.2" fill="#1D1D1B" d="M59.241,59.715c-6.523,1.628-13.071,1.391-19.095-0.357
		c-12.142-3.525-22.139-13.225-25.42-26.375c-0.448-1.798-0.756-3.597-0.929-5.387c-0.763-7.867,1.062-15.548,4.878-22.059
		c-0.002,0.001-0.003,0.001-0.005,0.002c-1.017,0.594-1.987,1.248-2.932,1.93c-0.385,0.278-0.759,0.568-1.131,0.86
		c-0.301,0.235-0.609,0.459-0.901,0.704c-0.488,0.407-0.951,0.838-1.415,1.268c-0.226,0.209-0.465,0.407-0.684,0.621
		c-0.664,0.646-1.301,1.317-1.913,2.009c-0.213,0.243-0.407,0.501-0.614,0.75c-0.392,0.469-0.786,0.936-1.154,1.422
		c-0.239,0.318-0.458,0.651-0.688,0.976c-0.309,0.437-0.62,0.872-0.908,1.321c-0.229,0.354-0.437,0.72-0.651,1.082
		c-0.262,0.439-0.524,0.878-0.768,1.329c-0.205,0.378-0.394,0.766-0.585,1.152c-0.223,0.451-0.444,0.902-0.649,1.362
		c-0.177,0.397-0.34,0.8-0.503,1.204c-0.188,0.465-0.371,0.931-0.54,1.404c-0.146,0.41-0.282,0.826-0.414,1.242
		c-0.152,0.48-0.297,0.962-0.429,1.448c-0.115,0.421-0.223,0.844-0.323,1.271c-0.115,0.495-0.219,0.993-0.314,1.495
		c-0.081,0.426-0.16,0.854-0.227,1.283c-0.079,0.513-0.141,1.029-0.197,1.547C0.683,33.643,0.634,34.07,0.603,34.5
		c-0.041,0.533-0.057,1.07-0.073,1.607c-0.013,0.421-0.032,0.842-0.03,1.265c0.003,0.563,0.033,1.132,0.062,1.699
		c0.021,0.401,0.029,0.801,0.062,1.203c0.054,0.626,0.021,0.911,0.107,1.538c0.038,0.287,0.137,0.996,0.183,1.282
		c0.01,0.061,0.014,0.121,0.024,0.182c0.152,0.922,0.327,1.769,0.553,2.689c0.014,0.054,0.021,0.106,0.034,0.159
		c0.177,0.709,0.394,1.443,0.609,2.133l0,0C6.959,63.691,21.258,73.977,36.913,74.09c3.027,0.022,6.146-0.316,9.222-1.084
		c0.62-0.155,1.238-0.341,1.843-0.525c0.127-0.038,0.25-0.084,0.376-0.125c0.476-0.15,0.948-0.314,1.415-0.482
		c0.146-0.053,0.288-0.115,0.434-0.17c0.44-0.165,0.885-0.312,1.314-0.493c0.137-0.058,0.269-0.122,0.403-0.181
		c0.434-0.189,0.853-0.376,1.275-0.58c0.121-0.058,0.236-0.122,0.356-0.182c0.434-0.215,0.928-0.479,1.351-0.709
		c0.096-0.052,0.187-0.108,0.28-0.16c0.441-0.246,0.857-0.492,1.287-0.755c0.073-0.044,0.143-0.093,0.214-0.138
		c0.447-0.277,0.848-0.528,1.28-0.824c0.053-0.036,0.104-0.074,0.155-0.111c0.448-0.311,0.848-0.602,1.28-0.93
		c0.029-0.023,0.059-0.048,0.09-0.07c0.451-0.346,1.002-0.766,1.436-1.131c0.014-0.012,0.027-0.024,0.04-0.036
		c3.207-2.709,5.267-5.118,8.295-10.009C66.318,57.114,62.716,58.848,59.241,59.715z"/>
</g>
</svg>
