<?xml version="1.0" encoding="utf-8"?>
<!-- Generator: Adobe Illustrator 16.0.4, SVG Export Plug-In . SVG Version: 6.00 Build 0)  -->
<!DOCTYPE svg PUBLIC "-//W3C//DTD SVG 1.1//EN" "http://www.w3.org/Graphics/SVG/1.1/DTD/svg11.dtd">
<svg version="1.1" id="圖層_1" xmlns="http://www.w3.org/2000/svg" xmlns:xlink="http://www.w3.org/1999/xlink" x="0px" y="0px"
	 width="74.473px" height="74.533px" viewBox="0 0 74.473 74.533" enable-background="new 0 0 74.473 74.533" xml:space="preserve">
<g>
	<g>
		<g>
			<circle fill="#C5491C" cx="37.236" cy="37.266" r="36.739"/>
		</g>
	</g>
	<g>
		<g>
			<path fill="#E45C2A" d="M47.701,52.615h-0.002C47.396,53.418,47.06,54.309,47.701,52.615z"/>
		</g>
	</g>
	<g>
		<g>
			<path fill="#E45C2A" d="M57.722,25.02c-2.228,1.143-2.711,6.146-5.025,5.307c-1.249-0.453,0.988-5.339,0.722-6.539
				c-0.547-2.471-2.11-4.369-4.661-4.791c-4.667-0.77-5.527,8.738-9.036,9.701c-1.78,0.491-2.742-0.084-3.98-1.08
				c0.406-1.409,0.602-2.719-0.381-3.961c-0.747-0.943-2.028-1.072-2.561-2.184c-0.479-0.993-0.6-2.122-0.807-3.189
				c-0.546-2.776-3.423-5.104-6.283-4.953c-3.993,0.209-4.029,3.945-7.362,4.763c-3.754,0.919-4.103-4.304-6.827-3.536
				c-2.647,0.744-4.446,4.664-5.759,6.85c-0.779,1.298-1.729,2.74-1.422,4.332c0.275,1.412-0.482,2.759,0.305,4.156
				c-0.702,3.039,5.042,4.389,4.359,7.302c-1.344,5.733,0.313,7.403,3.761,8.477c1.917,0.6,3.993,0.439,5.744-0.566
				c0.578-0.479,3.5-2.15,4.144-0.77c1.225,2.629,1.653,4.875,4.34,4.85c1.323-0.012,2.635-0.523,3.533-1.512
				c1.091-1.199,3.962-1.043,4.401,0.568c0.829,3.027-4.251,6.91-0.753,9.287c2.908,1.977,4.163-2.354,6.299-2.818
				c2.635-0.572,4.551,1.07,6.389-0.791c2.182-2.207,2.214-8.287,4.932-9.723c3.354-1.77,5.965-0.35,6.663-3.811
				c0.819-3.195,2.168-6.249,2.857-9.475C61.777,28.735,61.581,23.042,57.722,25.02C55.521,26.147,60.09,23.805,57.722,25.02z
				 M12.145,32.842c-0.18,0.009-0.358,0.006-0.539-0.01c-1.139-0.127-4.332-3.416-1.276-4.363
				C12.695,27.735,14.448,32.566,12.145,32.842C11.959,32.866,13.389,32.694,12.145,32.842z M21.274,24.424
				c-0.31,1.167-0.882,3.243-2.293,3.6c-1.715,0.434-4.201-0.389-3.669-2.635c0.274-1.081,1.171-2.361,2.399-3.142
				C19.255,21.264,21.737,22.667,21.274,24.424C21.143,24.922,21.644,23.028,21.274,24.424z"/>
		</g>
	</g>
	<g>
		<g>
			<path fill="#E45C2A" d="M19.604,49.346c-1.489-3.904-7.953,0.291-5.516,4.078c0.99,1.539,2.836,2.486,4.621,1.641
				C20.971,53.998,20.296,51.158,19.604,49.346C19.229,48.359,20.094,50.629,19.604,49.346z"/>
		</g>
	</g>
	<g>
		<g>
			<g>
				<path fill="#E45C2A" d="M42.801,9.779C42.847,9.696,42.857,9.663,42.801,9.779L42.801,9.779z"/>
			</g>
		</g>
		<g>
			<g>
				<path fill="#E45C2A" d="M46.6,7.07c-1.736-0.817-3.5-0.302-4.356,1.375c0.158-0.31-1.227,1.591-1.683,2.085
					c-1.623,1.65,0.312,4.354,1.897,5.123C47.141,17.926,51.751,9.494,46.6,7.07C45.796,6.692,48.261,7.851,46.6,7.07z"/>
			</g>
		</g>
	</g>
	<g>
		<g>
			<g>
				<path fill="#E45C2A" d="M38.694,5.726c0.407-0.238,3.192,3.726,7.246-2.424c0.301-0.457,0.604-0.967,0.883-1.502
					c-3.057-0.825-6.269-1.272-9.587-1.272c-9.385,0-17.941,3.523-24.436,9.312c0.112,1.203,0.927,2.208,2.573,2.824
					c6.236,2.335,8.228-3.963,9.165-4.101c0.49-0.072,3.211,1.564,4.19,2.166c0.996,0.671,2.29,0.752,3.441,0.625
					C34.359,11.114,37.815,6.239,38.694,5.726z"/>
			</g>
		</g>
		<g>
			<g>
				<path fill="#E45C2A" d="M71.684,50.059c-0.759-1.08-1.669-2.027-2.487-2.424c-1.427-0.688-2.037,1.764-4.117,2.688
					c-1.618-0.246-2.929-0.924-4.273,0c-2.043,1.4-3.999,3.42-4.737,5.777c-0.428,1.365-1.571,2.83-0.646,4.043
					c2.379,3.121,0.415,3.35-0.279,4.506c-1.092,1.82-0.959,3.273,0.34,4.502C62.889,64.902,68.675,58.158,71.684,50.059z"/>
			</g>
		</g>
	</g>
	<g>
		<g>
			<path fill="#E45C2A" d="M72.038,41.242c-0.882-3.345-5.729-0.873-4.479,2.068C69.058,46.834,73.148,44.814,72.038,41.242
				C71.891,40.689,72.15,41.607,72.038,41.242z"/>
		</g>
	</g>
	<path opacity="0.1" fill="#1D1D1B" d="M59.239,59.629c-6.523,1.629-13.07,1.393-19.094-0.357
		c-12.142-3.525-22.139-13.225-25.42-26.375c-0.448-1.797-0.756-3.597-0.929-5.387c-0.763-7.867,1.062-15.548,4.878-22.059
		c-0.002,0.001-0.003,0.001-0.005,0.002c-1.017,0.594-1.987,1.248-2.932,1.93c-0.385,0.278-0.759,0.568-1.131,0.86
		c-0.301,0.235-0.609,0.459-0.901,0.704c-0.488,0.407-0.951,0.838-1.415,1.268c-0.226,0.209-0.465,0.407-0.684,0.621
		c-0.664,0.646-1.301,1.317-1.913,2.009c-0.213,0.243-0.407,0.501-0.614,0.75c-0.392,0.469-0.786,0.936-1.154,1.422
		c-0.239,0.318-0.458,0.651-0.688,0.976c-0.309,0.437-0.62,0.872-0.908,1.321c-0.229,0.354-0.437,0.72-0.651,1.082
		c-0.262,0.439-0.524,0.878-0.768,1.329c-0.205,0.378-0.394,0.766-0.585,1.152c-0.223,0.451-0.444,0.902-0.649,1.362
		c-0.177,0.397-0.34,0.8-0.503,1.204c-0.188,0.465-0.371,0.931-0.54,1.404c-0.146,0.41-0.282,0.826-0.414,1.242
		c-0.152,0.48-0.297,0.962-0.429,1.448c-0.115,0.421-0.223,0.844-0.323,1.271c-0.115,0.495-0.219,0.994-0.314,1.495
		c-0.081,0.427-0.16,0.854-0.227,1.284c-0.079,0.512-0.141,1.029-0.197,1.546c-0.048,0.429-0.097,0.854-0.128,1.286
		c-0.041,0.533-0.057,1.07-0.073,1.607c-0.013,0.42-0.032,0.841-0.03,1.264C0.5,37.851,0.53,38.418,0.56,38.986
		c0.021,0.401,0.029,0.801,0.062,1.204c0.054,0.627,0.021,0.91,0.107,1.539c0.038,0.285,0.137,0.996,0.183,1.281
		c0.01,0.061,0.014,0.121,0.024,0.182c0.152,0.922,0.327,1.768,0.553,2.689c0.014,0.055,0.021,0.107,0.034,0.16
		c0.177,0.709,0.394,1.443,0.609,2.131v0.002c4.824,15.434,19.123,25.719,34.778,25.832c3.027,0.021,6.146-0.316,9.223-1.084
		c0.619-0.156,1.238-0.342,1.842-0.525c0.127-0.039,0.25-0.084,0.377-0.125c0.475-0.15,0.947-0.314,1.414-0.484
		c0.146-0.053,0.289-0.113,0.434-0.168c0.441-0.166,0.885-0.312,1.314-0.494c0.137-0.057,0.27-0.123,0.404-0.18
		c0.434-0.189,0.852-0.377,1.275-0.58c0.121-0.059,0.236-0.123,0.355-0.182c0.434-0.215,0.928-0.479,1.352-0.711
		c0.096-0.051,0.186-0.107,0.279-0.16c0.441-0.246,0.857-0.49,1.287-0.754c0.074-0.045,0.143-0.092,0.215-0.137
		c0.447-0.279,0.848-0.529,1.279-0.826c0.053-0.035,0.104-0.074,0.156-0.109c0.447-0.311,0.848-0.602,1.279-0.93
		c0.029-0.023,0.059-0.049,0.09-0.07c0.451-0.346,1.002-0.766,1.436-1.131c0.014-0.014,0.027-0.025,0.041-0.037
		c3.207-2.709,5.266-5.119,8.295-10.008C66.317,57.029,62.713,58.762,59.239,59.629z"/>
</g>
</svg>
