<?xml version="1.0" encoding="utf-8"?>
<!-- Generator: Adobe Illustrator 16.0.4, SVG Export Plug-In . SVG Version: 6.00 Build 0)  -->
<!DOCTYPE svg PUBLIC "-//W3C//DTD SVG 1.1//EN" "http://www.w3.org/Graphics/SVG/1.1/DTD/svg11.dtd">
<svg version="1.1" id="圖層_1" xmlns="http://www.w3.org/2000/svg" xmlns:xlink="http://www.w3.org/1999/xlink" x="0px" y="0px"
	 width="74.473px" height="74.533px" viewBox="0 0 74.473 74.533" enable-background="new 0 0 74.473 74.533" xml:space="preserve">
<g>
	<circle fill="#BC8F72" cx="37.237" cy="37.267" r="36.611"/>
	<g>
		<ellipse fill="#A2775D" cx="19.965" cy="26.248" rx="5.746" ry="4.109"/>
		<ellipse fill="#A2775D" cx="59.227" cy="28.689" rx="7.943" ry="6.328"/>
		<ellipse fill="#A2775D" cx="51.301" cy="36.066" rx="8.77" ry="6.27"/>
		<path fill="#A2775D" d="M31.457,44.975c0,2.195-1.968,3.975-4.394,3.975c-2.428,0-4.394-1.779-4.394-3.975
			s1.966-3.521,4.394-3.521C29.489,41.453,31.457,42.779,31.457,44.975z"/>
		<ellipse fill="#A2775D" cx="33.445" cy="19.038" rx="2.89" ry="2.872"/>
		<ellipse fill="#A2775D" cx="50.806" cy="56.666" rx="3.971" ry="4.225"/>
		<circle fill="#A2775D" cx="24.866" cy="61.059" r="2.197"/>
		<path fill="#A2775D" d="M2.728,37.267c-0.748,0-1.457,0.163-2.097,0.454c0.041,3.337,0.527,6.57,1.404,9.636
			c0.227,0.031,0.457,0.049,0.692,0.049c2.8,0,5.07-2.27,5.07-5.07C7.798,39.537,5.528,37.267,2.728,37.267z"/>
		<path fill="#A2775D" d="M32.051,1.023c-0.383,0.502-0.595,1.05-0.595,1.624c0,2.426,3.757,4.392,8.391,4.392
			c4.633,0,8.39-1.966,8.39-4.392c0-0.107-0.01-0.212-0.023-0.316c-3.466-1.087-7.151-1.675-10.976-1.675
			C35.475,0.656,33.745,0.783,32.051,1.023z"/>
		<path fill="#A2775D" d="M66.908,45.562c-3.313,0-5.998,3.961-5.998,8.848c0,3.359,1.27,6.283,3.141,7.779
			c3.412-3.668,6.079-8.037,7.762-12.867C70.728,47.051,68.936,45.562,66.908,45.562z"/>
	</g>
	<path opacity="0.1" fill="#1D1D1B" d="M59.374,59.465c-6.523,1.623-13.07,1.387-19.094-0.357
		C28.137,55.59,18.14,45.912,14.859,32.792c-0.448-1.793-0.756-3.589-0.929-5.374c-0.763-7.849,1.062-15.513,4.878-22.01
		c-0.002,0.002-0.003,0.002-0.005,0.003c-1.017,0.594-1.987,1.245-2.932,1.926c-0.385,0.277-0.759,0.567-1.131,0.857
		c-0.301,0.235-0.609,0.458-0.901,0.702c-0.488,0.407-0.951,0.836-1.415,1.266c-0.226,0.209-0.465,0.406-0.684,0.618
		c-0.664,0.646-1.301,1.314-1.913,2.006c-0.213,0.241-0.407,0.501-0.614,0.748c-0.392,0.468-0.786,0.934-1.154,1.419
		c-0.239,0.317-0.458,0.648-0.688,0.972c-0.309,0.437-0.62,0.87-0.908,1.319c-0.229,0.353-0.437,0.718-0.651,1.079
		c-0.262,0.438-0.524,0.876-0.768,1.326c-0.205,0.377-0.394,0.764-0.585,1.148c-0.223,0.449-0.444,0.9-0.649,1.359
		c-0.177,0.396-0.34,0.798-0.503,1.2c-0.188,0.464-0.371,0.93-0.54,1.401c-0.146,0.409-0.282,0.824-0.414,1.239
		c-0.152,0.479-0.297,0.96-0.429,1.443c-0.115,0.421-0.223,0.843-0.323,1.269c-0.115,0.493-0.219,0.991-0.314,1.491
		c-0.081,0.426-0.16,0.852-0.227,1.281c-0.079,0.511-0.141,1.027-0.197,1.542c-0.048,0.428-0.097,0.853-0.128,1.283
		c-0.041,0.532-0.057,1.068-0.073,1.604c-0.013,0.419-0.032,0.839-0.03,1.261c0.003,0.562,0.033,1.129,0.062,1.695
		c0.021,0.4,0.029,0.798,0.062,1.201c0.054,0.625,0.021,0.908,0.107,1.535C0.902,41.889,1,42.598,1.046,42.881
		c0.01,0.061,0.014,0.121,0.024,0.182c0.152,0.92,0.327,1.766,0.553,2.684c0.014,0.055,0.021,0.107,0.034,0.16
		c0.177,0.707,0.394,1.439,0.609,2.127l0,0c4.824,15.398,19.123,25.66,34.778,25.773c3.027,0.021,6.146-0.314,9.223-1.082
		c0.619-0.154,1.238-0.34,1.842-0.523c0.127-0.039,0.25-0.084,0.377-0.125c0.475-0.15,0.947-0.312,1.414-0.482
		c0.146-0.053,0.289-0.113,0.434-0.168c0.441-0.166,0.885-0.312,1.314-0.492c0.137-0.057,0.27-0.123,0.404-0.18
		c0.434-0.189,0.852-0.377,1.275-0.58c0.121-0.057,0.236-0.121,0.355-0.18c0.434-0.215,0.928-0.479,1.352-0.709
		c0.096-0.051,0.186-0.107,0.279-0.16c0.441-0.246,0.857-0.49,1.287-0.752c0.074-0.045,0.143-0.092,0.215-0.137
		c0.447-0.277,0.848-0.529,1.279-0.824c0.053-0.035,0.104-0.074,0.156-0.109c0.447-0.311,0.848-0.6,1.279-0.928
		c0.029-0.023,0.059-0.049,0.09-0.07c0.451-0.346,1.002-0.764,1.436-1.129c0.014-0.012,0.027-0.025,0.041-0.037
		c3.207-2.701,5.266-5.105,8.295-9.984C66.452,56.869,62.848,58.6,59.374,59.465z"/>
</g>
</svg>
