<?xml version="1.0" encoding="utf-8"?>
<!-- Generator: Adobe Illustrator 16.0.4, SVG Export Plug-In . SVG Version: 6.00 Build 0)  -->
<!DOCTYPE svg PUBLIC "-//W3C//DTD SVG 1.1//EN" "http://www.w3.org/Graphics/SVG/1.1/DTD/svg11.dtd">
<svg version="1.1" id="圖層_1" xmlns="http://www.w3.org/2000/svg" xmlns:xlink="http://www.w3.org/1999/xlink" x="0px" y="0px"
	 width="74.473px" height="74.533px" viewBox="0 0 74.473 74.533" enable-background="new 0 0 74.473 74.533" xml:space="preserve">
<g>
	<g>
		<g>
			<circle fill="#F5C920" cx="37.236" cy="37.266" r="36.7"/>
		</g>
	</g>
	<g>
		<g>
			<path fill="#F4DC3C" d="M61.89,31.815c-0.833-3.418-1.48-6.693-4.131-9.28c-0.983-0.96-2.476-1.113-3.934-1.289
				c-2.738-2.836-6.193-4.968-10.079-6.11c-1.124-0.788-2.351-1.446-3.817-1.827c-1.976-0.511-3.565-0.245-4.869,0.49
				c-0.832,0.169-1.614,0.456-2.357,0.848c-6.593,1.314-12.166,5.438-15.43,11.068c-3.615,0.083-4.669,5.61-4.719,8.596
				c-0.071,4.369,1.936,8.502,2.837,12.703c0.211,0.977,0.902,1.455,1.736,1.557c2.529,4.49,6.517,8.047,11.323,10.027
				c0.453,0.521,1.04,0.982,1.749,1.333c1.835,1.447,4.952,1.596,7.739,0.833c0.406-0.113,0.848-0.302,1.299-0.521
				c4.372-0.374,8.398-1.965,11.732-4.442c2.54-0.306,4.664-2.078,6.212-4.506c0.784-0.169,1.559-0.535,2.3-1.173
				c1.396-1.203,3.013-3.73,2.538-5.812c1.034-1.63,1.726-3.529,1.99-5.206C64.473,36.16,62.554,34.53,61.89,31.815z"/>
		</g>
	</g>
	<g>
		<g>
			<path fill="#F5BE1D" d="M37.498,7.121c-2.351-0.513-4.194-0.438-6.191,1.061c-1.709,1.283-2.548,4.008-4.907,4.008
				c-2,0-4.697-1.983-5.694-1.539c-6.799,3.024-2.001,5.612-6.085,6.435c-5.256,1.057,1.549,11.731,6.615,9.565
				c2.746-1.173,2.001-4.355,5.427-5.023c2.425-0.476,7.085,0.382,8.231-2.268c1.12-2.592,0.428-6.012,3.928-6.122
				c2.581-0.086,3.528-3.6,1.21-4.105C38.938,8.893,39.846,7.634,37.498,7.121z"/>
		</g>
	</g>
	<g>
		<g>
			<path fill="#F5B11A" d="M29.021,54.656c-0.174-3.67-3.659-2.958-3.776-4.347c-0.768-9.022-4.185-4.347-7.075-5.07
				c-6.361-1.594-4.877-4.388-6.729-7.117c-3.838-5.652-4.146,4.624-3.659,6.907c0.979,4.608,2.959,12.282,6.995,14.87
				c1.397,0.896,3.408,0.7,6.867,1.498c1.687,0.392,2.048,2.537,3.78,3.037c4.047,1.166-0.133-3.938,2.316-5.718
				C28.759,57.978,30.879,58.839,29.021,54.656z"/>
		</g>
	</g>
	<g>
		<g>
			<path fill="#F5BE1D" d="M42.021,30.845c0.168-2.551-2.938-3.37-5.383-2.391c-0.698,0.34-0.878,2.5-2.373,2.959
				c-3.201,0.98-3.154-1.745-5.002-1.545c-1.327,0.125-2.457,0.655-3.395,1.592c-1.546,1.614-2.634,1.296-4.381,2.559
				c-2.384,1.724-0.483,5.105,1.564,6.109c3.306,1.618,3.346-0.753,5.559,3.28c1.955,3.572,6.05,5.691,10.123,4.439
				c6.278-1.928,3.054-4.323,3.396-6.908c0.317-2.396,4.108-2.938,3.562-5.509C45.034,32.351,41.967,31.635,42.021,30.845z"/>
		</g>
	</g>
	<g>
		<g>
			<path fill="#F5B11A" d="M44.052,57.717c-1.413,5.467-8.484-3.829-9.513,1.796c-0.92,4.823,6.005,9.189,10.008,9.231
				c2.841,0.033,8.854-2.728,7.707-8.531c0.971-3.992-3.666-8.956-4.794-4.594C46.609,58.907,45.069,53.774,44.052,57.717z"/>
		</g>
	</g>
	<g>
		<g>
			<path fill="#F5B11A" d="M67.559,25.203c-2.124-4.946-2.44-9.724-8.891-11.365c-2.969-0.754-13.908,3.545-8.811,6.963
				c2.534,1.697,5.047-0.475,7.412,1.289c2.291,1.709,1.751,4.686,3.64,6.516C64.894,32.47,70.687,32.493,67.559,25.203
				C67.315,24.638,68.205,26.711,67.559,25.203z"/>
		</g>
	</g>
	<g>
		<g>
			<path fill="#F5B11A" d="M49.196,5.143c-0.926-0.246-1.887-0.407-2.857-0.518c-1.086-0.249-2.199-0.351-3.33-0.201
				c-2.179,0.289-1.253,3.656,0.685,3.646c0.581-0.003,1.165,0.019,1.745,0.054c0.25,0.031,0.498,0.072,0.741,0.124
				c0.973,0.449,1.866,1.064,2.664,1.771c0.201,0.175,0.427,0.263,0.656,0.303c0.391,0.352,0.835,0.492,1.568,0.486
				c0.452-0.005,0.936-0.357,1.145-0.741C53.477,7.744,51.306,5.705,49.196,5.143z"/>
		</g>
	</g>
	<g>
		<g>
			<path fill="#F5BE1D" d="M66.274,46.385c-0.347-4.351-1.978-5.388-4.714-8.319c-1.643-1.759-1.651-5.551-4.396-6.115
				c-3.017-0.619,0.446,6.312,0.885,7.014c2.335,3.752,3.713,7.188,0.526,11.334c-0.596,1.212-0.327,2.198,0.805,2.951
				c1.423,0.954,0,2.286-0.812,3.323c-1.099,1.409-1.992,5.007,1.175,4.748C64.35,60.946,66.514,49.406,66.274,46.385
				C66.06,43.683,66.444,48.518,66.274,46.385z"/>
		</g>
	</g>
	<g>
		<g>
			<path fill="#F4DC3C" d="M12.304,27.605c0.36-0.849,0.513-1.638,0.528-2.559c0.021-1.183-0.499-4.617-2.229-4.585
				c-0.569,0.011-1.019,0.49-1.178,1.003c-0.252,0.809-1.182-0.012-1.119,0.996c0.031,0.51,0.084,1.016,0.138,1.525
				c0.109,1.062-0.553,1.913-0.892,2.876c-0.352,1.006-0.421,1.806-0.188,2.847c0.536,2.383,4.706,2.486,4.17-0.336l0.041,0.016
				C11.61,28.77,12.068,28.162,12.304,27.605z"/>
		</g>
	</g>
	<g>
		<g>
			<path fill="#F4DC3C" d="M51.185,11.795c-0.652-0.307-1.271-0.461-2.02-0.538c-0.817-0.082-1.511-0.371-2.259-0.711
				c-0.628-0.285-1.453,0.227-1.48,0.917c-0.103,2.773,3.281,3.146,5.364,2.883c0.469-0.059,0.9-0.451,0.964-0.928
				c0.021-0.158,0.044-0.317,0.064-0.475C51.882,12.477,51.604,11.989,51.185,11.795z"/>
		</g>
	</g>
	<g>
		<g>
			<path fill="#F4DC3C" d="M41.2,69.789c-3.749-0.546-7.04-2.636-10.796-2.98c-0.534-0.049-1.258,0.233-1.782,0.681
				c-0.11-0.006-0.229-0.008-0.366,0c-0.392-0.136-0.795-0.214-1.206-0.237c-0.405-0.041-0.625,0.176-0.93,0.39
				c-0.281,0.198-0.554,0.535-0.39,0.9c0.851,1.886,3.539,3.076,5.467,2.525c0.114-0.03,0.204-0.095,0.306-0.144
				c1.401,0.529,2.78,1.179,4.236,1.29c2.127,0.157,3.629-0.082,5.507-0.967C41.873,70.951,42.008,69.906,41.2,69.789z"/>
		</g>
	</g>
	<path opacity="0.1" fill="#1D1D1B" d="M59.277,59.717c-6.523,1.628-13.07,1.392-19.094-0.357
		c-12.142-3.525-22.139-13.225-25.42-26.376c-0.448-1.797-0.756-3.597-0.929-5.387c-0.763-7.866,1.062-15.548,4.878-22.06
		c-0.002,0.001-0.003,0.001-0.005,0.003c-1.017,0.594-1.987,1.248-2.932,1.93c-0.385,0.278-0.759,0.568-1.131,0.86
		c-0.301,0.235-0.609,0.459-0.901,0.703c-0.488,0.407-0.951,0.838-1.415,1.269c-0.226,0.209-0.465,0.406-0.684,0.62
		c-0.664,0.646-1.301,1.317-1.913,2.01c-0.213,0.242-0.407,0.501-0.614,0.749c-0.392,0.469-0.786,0.936-1.154,1.422
		c-0.239,0.318-0.458,0.651-0.688,0.976c-0.309,0.438-0.62,0.872-0.908,1.322c-0.229,0.354-0.437,0.719-0.651,1.081
		c-0.262,0.439-0.524,0.878-0.768,1.329c-0.205,0.378-0.394,0.766-0.585,1.151c-0.223,0.45-0.444,0.902-0.649,1.362
		c-0.177,0.396-0.34,0.8-0.503,1.203c-0.188,0.465-0.371,0.932-0.54,1.404c-0.146,0.41-0.282,0.826-0.414,1.242
		c-0.152,0.479-0.297,0.962-0.429,1.447c-0.115,0.422-0.223,0.845-0.323,1.271c-0.115,0.494-0.219,0.993-0.314,1.494
		c-0.081,0.427-0.16,0.854-0.227,1.284c-0.079,0.512-0.141,1.029-0.197,1.546c-0.048,0.429-0.097,0.854-0.128,1.286
		c-0.041,0.533-0.057,1.07-0.073,1.607c-0.013,0.42-0.032,0.841-0.03,1.264c0.003,0.564,0.033,1.132,0.062,1.699
		c0.021,0.401,0.029,0.801,0.062,1.203c0.054,0.627,0.021,0.911,0.107,1.539c0.038,0.286,0.137,0.996,0.183,1.281
		c0.01,0.061,0.014,0.121,0.024,0.182c0.152,0.922,0.327,1.769,0.553,2.689c0.014,0.055,0.021,0.107,0.034,0.16
		c0.177,0.709,0.394,1.443,0.609,2.132v0.001c4.824,15.434,19.146,25.534,34.8,25.647c3.027,0.021,6.049-0.264,9.125-1.031
		c0.619-0.156,1.27-0.372,1.873-0.556c0.127-0.039,0.25-0.084,0.377-0.125c0.475-0.15,1.037-0.294,1.504-0.463
		c0.146-0.053,0.289-0.114,0.434-0.169c0.441-0.166,0.854-0.326,1.283-0.508c0.137-0.057,0.27-0.122,0.404-0.18
		c0.434-0.189,0.846-0.396,1.27-0.6c0.121-0.059,0.236-0.123,0.355-0.182c0.434-0.215,0.922-0.483,1.346-0.715
		c0.096-0.052,0.186-0.108,0.279-0.16c0.441-0.246,0.855-0.475,1.285-0.738c0.074-0.044,0.143-0.092,0.215-0.137
		c0.447-0.278,0.818-0.469,1.25-0.765c0.053-0.036,0.104-0.074,0.156-0.11c0.447-0.311,0.822-0.664,1.254-0.992
		c0.029-0.023,0.059-0.049,0.09-0.07c0.451-0.346,0.994-0.723,1.428-1.088c0.014-0.013,0.027-0.025,0.041-0.037
		c3.207-2.709,5.11-4.87,8.14-9.76C66.139,57.242,62.752,58.85,59.277,59.717z"/>
</g>
</svg>
