<?xml version="1.0" encoding="utf-8"?>
<!-- Generator: Adobe Illustrator 16.0.4, SVG Export Plug-In . SVG Version: 6.00 Build 0)  -->
<!DOCTYPE svg PUBLIC "-//W3C//DTD SVG 1.1//EN" "http://www.w3.org/Graphics/SVG/1.1/DTD/svg11.dtd">
<svg version="1.1" id="圖層_1" xmlns="http://www.w3.org/2000/svg" xmlns:xlink="http://www.w3.org/1999/xlink" x="0px" y="0px"
	 width="74.473px" height="74.533px" viewBox="0 0 74.473 74.533" enable-background="new 0 0 74.473 74.533" xml:space="preserve">
<g>
	<circle fill="#D8E6ED" cx="37.256" cy="37.267" r="36.689"/>
	<g>
		<ellipse fill="#BFCDD1" cx="25.047" cy="20.837" rx="9.822" ry="2.762"/>
		<ellipse fill="#BFCDD1" cx="51.842" cy="14.109" rx="7.917" ry="2.226"/>
		<path fill="#BFCDD1" d="M71.426,23.886c-0.356-0.91-0.75-1.802-1.175-2.675c-1.684-0.254-3.819-0.406-6.146-0.406
			c-5.426,0-9.821,0.828-9.821,1.849s4.396,1.849,9.821,1.849C67.014,24.502,69.628,24.265,71.426,23.886z"/>
		<path fill="#BFCDD1" d="M8.453,56.25c-0.887,0-1.743,0.026-2.561,0.067c0.771,1.265,1.613,2.511,2.524,3.64
			c0.012,0,0.022,0,0.035,0c5.425,0,9.821-0.832,9.821-1.854C18.274,57.081,13.877,56.25,8.453,56.25z"/>
		<ellipse fill="#BFCDD1" cx="34.909" cy="41.674" rx="11.668" ry="2.197"/>
		<ellipse fill="#BFCDD1" cx="31.25" cy="56.069" rx="3.992" ry="1.082"/>
		<ellipse fill="#BFCDD1" cx="27.239" cy="9.657" rx="3.992" ry="1.082"/>
		<ellipse fill="#BFCDD1" cx="50.601" cy="31.964" rx="5.62" ry="2.198"/>
		<path fill="#BFCDD1" d="M27.239,1.963c0.659,0.926,2.833,1.607,5.412,1.607c3.104,0,5.62-0.985,5.62-2.198
			c0-0.277-0.133-0.542-0.371-0.786c-0.215-0.004-0.43-0.008-0.645-0.008C33.783,0.579,30.422,1.061,27.239,1.963z"/>
		<ellipse fill="#BFCDD1" cx="49.529" cy="63.766" rx="7.437" ry="1.4"/>
		<ellipse fill="#C7D9E0" cx="62.273" cy="50.308" rx="5.077" ry="0.955"/>
		<path fill="#BFCDD1" d="M2.456,31.977c4.104,0,7.435-0.626,7.435-1.399s-3.33-1.4-7.435-1.4c-0.339,0-0.67,0.005-0.994,0.013
			c-0.204,0.907-0.374,1.828-0.51,2.759C1.438,31.967,1.94,31.977,2.456,31.977z"/>
	</g>
	<path opacity="0.1" fill="#1D1D1B" enable-background="new    " d="M59.27,59.629c-6.522,1.623-13.069,1.388-19.094-0.354
		c-12.142-3.515-22.139-13.176-25.42-26.28c-0.448-1.792-0.756-3.584-0.929-5.368c-0.764-7.838,1.062-15.491,4.878-21.979
		c-0.002,0.001-0.003,0.001-0.005,0.002c-1.018,0.592-1.987,1.243-2.933,1.923c-0.384,0.278-0.758,0.567-1.13,0.858
		c-0.301,0.234-0.609,0.458-0.901,0.701c-0.487,0.406-0.95,0.835-1.415,1.264c-0.226,0.209-0.465,0.405-0.684,0.618
		c-0.664,0.644-1.301,1.312-1.913,2.002c-0.213,0.242-0.407,0.5-0.614,0.747c-0.392,0.467-0.785,0.932-1.153,1.417
		c-0.239,0.317-0.458,0.648-0.688,0.972c-0.309,0.435-0.62,0.868-0.908,1.316c-0.229,0.353-0.437,0.718-0.65,1.078
		c-0.262,0.438-0.524,0.875-0.769,1.324c-0.205,0.376-0.394,0.763-0.585,1.147c-0.223,0.449-0.443,0.899-0.648,1.357
		c-0.177,0.396-0.34,0.796-0.503,1.199c-0.188,0.463-0.371,0.927-0.54,1.398c-0.146,0.409-0.282,0.823-0.414,1.237
		c-0.152,0.478-0.297,0.958-0.43,1.443c-0.114,0.42-0.223,0.841-0.322,1.266c-0.115,0.493-0.22,0.99-0.314,1.489
		c-0.081,0.425-0.16,0.85-0.227,1.279c-0.079,0.51-0.142,1.025-0.197,1.54c-0.048,0.427-0.097,0.852-0.128,1.282
		c-0.041,0.531-0.057,1.065-0.073,1.601c-0.013,0.418-0.032,0.838-0.03,1.26c0.004,0.562,0.033,1.127,0.062,1.692
		c0.021,0.4,0.029,0.799,0.062,1.199c0.055,0.625,0.021,0.908,0.107,1.533c0.038,0.285,0.137,0.992,0.183,1.277
		c0.011,0.059,0.015,0.119,0.024,0.18c0.152,0.92,0.327,1.762,0.553,2.68c0.015,0.055,0.021,0.107,0.034,0.16
		c0.177,0.705,0.395,1.438,0.609,2.125l0,0C6.989,63.592,21.288,73.84,36.942,73.953c3.027,0.021,6.146-0.315,9.224-1.082
		c0.619-0.154,1.237-0.34,1.842-0.521c0.127-0.039,0.25-0.084,0.377-0.125c0.475-0.15,0.947-0.312,1.414-0.482
		c0.146-0.051,0.289-0.113,0.434-0.168c0.441-0.166,0.886-0.311,1.314-0.492c0.137-0.057,0.27-0.121,0.404-0.18
		c0.434-0.188,0.852-0.375,1.274-0.578c0.121-0.057,0.236-0.121,0.355-0.18c0.434-0.215,0.928-0.478,1.352-0.709
		c0.096-0.052,0.187-0.107,0.279-0.158c0.44-0.246,0.856-0.49,1.287-0.754c0.073-0.043,0.143-0.09,0.215-0.135
		c0.447-0.277,0.848-0.527,1.279-0.822c0.053-0.037,0.104-0.074,0.155-0.111c0.447-0.309,0.849-0.598,1.279-0.924
		c0.029-0.025,0.059-0.051,0.09-0.072c0.451-0.344,1.002-0.762,1.437-1.125c0.014-0.014,0.026-0.025,0.041-0.037
		c3.207-2.699,5.266-5.1,8.295-9.973C66.348,57.037,62.745,58.765,59.27,59.629z"/>
</g>
</svg>
