<?xml version="1.0" encoding="utf-8"?>
<!-- Generator: Adobe Illustrator 16.0.4, SVG Export Plug-In . SVG Version: 6.00 Build 0)  -->
<!DOCTYPE svg PUBLIC "-//W3C//DTD SVG 1.1//EN" "http://www.w3.org/Graphics/SVG/1.1/DTD/svg11.dtd">
<svg version="1.1" id="圖層_1" xmlns="http://www.w3.org/2000/svg" xmlns:xlink="http://www.w3.org/1999/xlink" x="0px" y="0px"
	 width="74.473px" height="74.533px" viewBox="0 0 74.473 74.533" enable-background="new 0 0 74.473 74.533" xml:space="preserve">
<g>
	<circle fill="#6AA1D7" cx="37.237" cy="37.266" r="36.709"/>
	<path fill="#7EB4E2" d="M59.186,22.96h-43.9c-2.334,0-4.228-1.892-4.228-4.227l0,0c0-2.335,1.894-4.227,4.228-4.227h43.9
		c2.335,0,4.228,1.892,4.228,4.227l0,0C63.414,21.068,61.521,22.96,59.186,22.96z"/>
	<path fill="#7EB4E2" d="M53.313,62.953H27.258c-2.335,0-4.228-1.893-4.228-4.228l0,0c0-2.334,1.893-4.228,4.228-4.228h26.055
		c2.334,0,4.228,1.894,4.228,4.228l0,0C57.541,61.061,55.647,62.953,53.313,62.953z"/>
	<path fill="#7EB4E2" d="M39.511,46.996H7.549c-1.54,0-2.789-1.249-2.789-2.79l0,0c0-1.54,1.249-2.79,2.789-2.79h31.962
		c1.541,0,2.79,1.25,2.79,2.79l0,0C42.301,45.747,41.052,46.996,39.511,46.996z"/>
	<path opacity="0.1" fill="#1D1D1B" d="M59.056,59.632c-6.5,1.624-13.023,1.388-19.024-0.357
		C27.934,55.758,17.973,46.08,14.704,32.959c-0.447-1.793-0.753-3.589-0.925-5.374c-0.76-7.849,1.058-15.513,4.86-22.01
		c-0.002,0.002-0.003,0.002-0.005,0.003c-1.013,0.594-1.98,1.245-2.921,1.926c-0.384,0.277-0.756,0.567-1.127,0.857
		c-0.3,0.235-0.607,0.458-0.898,0.702c-0.487,0.407-0.948,0.836-1.41,1.266c-0.225,0.209-0.463,0.406-0.681,0.618
		c-0.662,0.646-1.296,1.314-1.906,2.006c-0.212,0.241-0.406,0.501-0.612,0.748c-0.39,0.468-0.783,0.934-1.15,1.419
		c-0.239,0.317-0.457,0.648-0.685,0.972c-0.308,0.437-0.618,0.87-0.905,1.319c-0.228,0.353-0.435,0.718-0.649,1.079
		c-0.261,0.438-0.522,0.876-0.765,1.326c-0.204,0.377-0.392,0.764-0.583,1.148c-0.222,0.449-0.442,0.9-0.647,1.359
		c-0.176,0.396-0.338,0.798-0.501,1.2c-0.187,0.464-0.37,0.93-0.538,1.401c-0.146,0.409-0.281,0.824-0.413,1.239
		c-0.152,0.479-0.296,0.96-0.427,1.443c-0.115,0.421-0.222,0.843-0.322,1.269c-0.115,0.493-0.218,0.991-0.313,1.491
		c-0.081,0.426-0.16,0.852-0.226,1.281c-0.079,0.511-0.14,1.027-0.197,1.542c-0.047,0.428-0.096,0.853-0.127,1.283
		c-0.041,0.532-0.056,1.068-0.073,1.604c-0.013,0.419-0.032,0.839-0.03,1.261c0.003,0.562,0.033,1.129,0.062,1.695
		c0.02,0.4,0.029,0.799,0.062,1.2c0.054,0.625,0.021,0.909,0.107,1.535c0.038,0.286,0.136,0.994,0.182,1.278
		c0.01,0.061,0.014,0.121,0.024,0.182c0.152,0.92,0.326,1.765,0.551,2.684c0.014,0.054,0.02,0.106,0.034,0.159
		c0.176,0.708,0.392,1.44,0.607,2.127v0.001C6.964,63.6,21.211,73.861,36.809,73.975c3.016,0.021,6.124-0.315,9.189-1.082
		c0.617-0.155,1.234-0.341,1.835-0.523c0.127-0.039,0.25-0.084,0.376-0.125c0.473-0.15,0.944-0.313,1.409-0.482
		c0.146-0.053,0.288-0.114,0.432-0.169c0.44-0.165,0.881-0.312,1.31-0.492c0.136-0.057,0.269-0.122,0.403-0.18
		c0.432-0.188,0.849-0.376,1.271-0.579c0.121-0.058,0.235-0.122,0.354-0.181c0.432-0.215,0.924-0.478,1.347-0.709
		c0.095-0.051,0.185-0.107,0.278-0.159c0.44-0.246,0.854-0.49,1.282-0.753c0.074-0.044,0.142-0.092,0.214-0.137
		c0.445-0.277,0.844-0.528,1.274-0.823c0.053-0.036,0.103-0.074,0.156-0.11c0.446-0.31,0.845-0.6,1.274-0.928
		c0.029-0.023,0.059-0.049,0.09-0.07c0.449-0.345,0.998-0.764,1.43-1.128c0.014-0.013,0.027-0.025,0.041-0.037
		c3.195-2.702,5.247-5.106,8.265-9.984C66.108,57.037,62.518,58.767,59.056,59.632z"/>
</g>
</svg>
