<?xml version="1.0" encoding="utf-8"?>
<!-- Generator: Adobe Illustrator 16.0.4, SVG Export Plug-In . SVG Version: 6.00 Build 0)  -->
<!DOCTYPE svg PUBLIC "-//W3C//DTD SVG 1.1//EN" "http://www.w3.org/Graphics/SVG/1.1/DTD/svg11.dtd">
<svg version="1.1" id="圖層_1" xmlns="http://www.w3.org/2000/svg" xmlns:xlink="http://www.w3.org/1999/xlink" x="0px" y="0px"
	 width="74.473px" height="74.533px" viewBox="0 0 74.473 74.533" enable-background="new 0 0 74.473 74.533" xml:space="preserve">
<g>
	<circle fill="#6AA1D7" cx="37.237" cy="37.266" r="36.709"/>
	<path fill="#7EB4E2" d="M59.186,22.96H15.286c-2.334,0-4.229-1.892-4.229-4.227l0,0c0-2.335,1.895-4.227,4.229-4.227h43.899
		c2.335,0,4.229,1.892,4.229,4.227l0,0C63.414,21.068,61.521,22.96,59.186,22.96z"/>
	<path fill="#7EB4E2" d="M53.313,62.953H27.258c-2.335,0-4.229-1.894-4.229-4.228l0,0c0-2.334,1.894-4.229,4.229-4.229h26.055
		c2.334,0,4.229,1.895,4.229,4.229l0,0C57.541,61.062,55.647,62.953,53.313,62.953z"/>
	<path fill="#7EB4E2" d="M39.511,46.996H7.549c-1.54,0-2.789-1.249-2.789-2.79l0,0c0-1.54,1.249-2.79,2.789-2.79h31.962
		c1.541,0,2.79,1.25,2.79,2.79l0,0C42.301,45.747,41.052,46.996,39.511,46.996z"/>
	<path opacity="0.1" fill="#1D1D1B" enable-background="new    " d="M59.056,59.632c-6.5,1.624-13.022,1.389-19.023-0.357
		c-12.099-3.517-22.06-13.194-25.328-26.315c-0.447-1.793-0.753-3.589-0.926-5.374c-0.76-7.849,1.059-15.513,4.86-22.01
		c-0.002,0.002-0.003,0.002-0.005,0.003c-1.013,0.594-1.98,1.245-2.921,1.926c-0.384,0.277-0.756,0.567-1.127,0.857
		c-0.3,0.235-0.607,0.458-0.898,0.702c-0.486,0.407-0.947,0.836-1.41,1.266c-0.225,0.209-0.463,0.406-0.681,0.618
		c-0.662,0.646-1.296,1.314-1.906,2.006c-0.212,0.241-0.405,0.501-0.611,0.748c-0.391,0.468-0.783,0.934-1.15,1.419
		c-0.239,0.317-0.457,0.648-0.685,0.972c-0.309,0.437-0.618,0.87-0.905,1.319c-0.229,0.353-0.436,0.718-0.649,1.079
		c-0.261,0.438-0.521,0.876-0.765,1.326c-0.204,0.377-0.392,0.764-0.583,1.148c-0.222,0.449-0.442,0.9-0.647,1.359
		c-0.176,0.396-0.338,0.798-0.501,1.2c-0.187,0.464-0.369,0.93-0.537,1.401c-0.146,0.409-0.281,0.824-0.413,1.239
		c-0.152,0.479-0.297,0.96-0.428,1.443c-0.114,0.421-0.222,0.843-0.321,1.269c-0.115,0.493-0.219,0.991-0.313,1.491
		c-0.081,0.426-0.16,0.852-0.226,1.281c-0.079,0.511-0.141,1.027-0.197,1.542c-0.047,0.428-0.096,0.853-0.127,1.283
		c-0.041,0.532-0.056,1.068-0.073,1.604c-0.013,0.419-0.032,0.839-0.03,1.261c0.004,0.562,0.033,1.129,0.062,1.695
		c0.02,0.4,0.029,0.799,0.062,1.199c0.055,0.625,0.021,0.91,0.107,1.535c0.038,0.287,0.136,0.994,0.182,1.278
		c0.011,0.062,0.015,0.121,0.024,0.183c0.152,0.92,0.326,1.765,0.551,2.684c0.014,0.054,0.021,0.105,0.034,0.158
		c0.176,0.709,0.392,1.44,0.607,2.127v0.002C6.964,63.601,21.211,73.86,36.809,73.976c3.017,0.021,6.124-0.315,9.189-1.082
		c0.617-0.156,1.233-0.342,1.835-0.523c0.127-0.039,0.25-0.084,0.376-0.125c0.473-0.15,0.943-0.312,1.409-0.482
		c0.146-0.053,0.287-0.113,0.432-0.169c0.44-0.165,0.881-0.312,1.31-0.491c0.137-0.058,0.27-0.123,0.403-0.181
		c0.432-0.188,0.849-0.376,1.271-0.579c0.12-0.058,0.234-0.121,0.354-0.181c0.432-0.216,0.924-0.478,1.347-0.709
		c0.096-0.052,0.186-0.106,0.278-0.159c0.44-0.246,0.854-0.49,1.282-0.753c0.074-0.044,0.142-0.092,0.214-0.138
		c0.445-0.276,0.844-0.527,1.274-0.822c0.053-0.036,0.103-0.074,0.155-0.109c0.446-0.311,0.846-0.601,1.274-0.929
		c0.029-0.022,0.059-0.049,0.09-0.069c0.449-0.346,0.998-0.765,1.43-1.129c0.015-0.013,0.027-0.025,0.041-0.037
		c3.195-2.701,5.247-5.105,8.266-9.983C66.108,57.037,62.518,58.767,59.056,59.632z"/>
	<g>
		<path fill="none" d="M61.807,9.996H36.049c-1.54,0-2.789-1.249-2.789-2.79c0-1.54,1.249-2.79,2.789-2.79h17.569
			c-4.933-2.464-10.493-3.859-16.382-3.859c-20.273,0-36.709,16.435-36.709,36.709s16.436,36.709,36.709,36.709
			c20.274,0,36.709-16.436,36.709-36.709C73.946,26.442,69.259,16.715,61.807,9.996z"/>
		<path fill="#7EB4E2" d="M33.26,7.206c0,1.541,1.249,2.79,2.789,2.79h25.758c-2.452-2.21-5.206-4.09-8.188-5.58H36.049
			C34.509,4.416,33.26,5.666,33.26,7.206z"/>
	</g>
</g>
</svg>
