<?xml version="1.0" encoding="utf-8"?>
<!-- Generator: Adobe Illustrator 16.0.4, SVG Export Plug-In . SVG Version: 6.00 Build 0)  -->
<!DOCTYPE svg PUBLIC "-//W3C//DTD SVG 1.1//EN" "http://www.w3.org/Graphics/SVG/1.1/DTD/svg11.dtd">
<svg version="1.1" id="圖層_1" xmlns="http://www.w3.org/2000/svg" xmlns:xlink="http://www.w3.org/1999/xlink" x="0px" y="0px"
	 width="74.473px" height="74.533px" viewBox="0 0 74.473 74.533" enable-background="new 0 0 74.473 74.533" xml:space="preserve">
<g>
	<circle fill="#B778C2" cx="37.237" cy="37.267" r="36.739"/>
	<g>
		<path fill="#A66AB8" d="M9.785,20.712c8.703,2.509,17.939,3.78,27.451,3.78c9.513,0,18.749-1.271,27.452-3.78
			c1.557-0.448,3.081-0.934,4.576-1.453c-2.113-3.75-4.865-7.092-8.107-9.878c-7.208,2.436-15.328,3.807-23.921,3.807
			c-8.591,0-16.711-1.371-23.92-3.807c-3.243,2.786-5.995,6.128-8.107,9.878C6.704,19.779,8.229,20.264,9.785,20.712z"/>
		<path fill="#A66AB8" d="M37.237,46.082c-8.627,0-17.005,1.36-24.902,4.047c-2.807,0.955-5.506,2.062-8.09,3.312
			c2.501,5.095,6.147,9.521,10.604,12.953c6.584-3.069,14.232-4.828,22.39-4.828c8.158,0,15.807,1.759,22.391,4.828
			c4.456-3.432,8.102-7.858,10.604-12.953c-2.585-1.252-5.285-2.356-8.09-3.312C54.242,47.442,45.864,46.082,37.237,46.082z"/>
		<path fill="#A66AB8" d="M17.68,31.06L1.304,29.585c-0.526,2.479-0.806,5.047-0.806,7.682c0,0.352,0.006,0.702,0.016,1.05
			l17.167-1.687c2.498,0,4.522-1.246,4.522-2.785l0,0C22.202,32.308,20.178,31.06,17.68,31.06z"/>
		<path fill="#A66AB8" d="M46.649,37.624L46.649,37.624c0,1.328,1.077,2.406,2.406,2.406l24.532,2.59
			c0.255-1.746,0.389-3.533,0.389-5.352c0-1.132-0.054-2.251-0.154-3.357l-24.767,1.308C47.726,35.217,46.649,36.295,46.649,37.624z
			"/>
	</g>
	<path opacity="0.1" fill="#1D1D1B" enable-background="new    " d="M59.239,59.662c-6.522,1.623-13.069,1.387-19.094-0.356
		c-12.142-3.519-22.139-13.195-25.42-26.316c-0.448-1.793-0.756-3.589-0.929-5.374c-0.763-7.849,1.062-15.513,4.878-22.01
		c-0.002,0.002-0.003,0.002-0.005,0.003c-1.018,0.594-1.987,1.245-2.933,1.926c-0.385,0.277-0.759,0.567-1.131,0.857
		c-0.301,0.235-0.608,0.458-0.9,0.702c-0.488,0.407-0.951,0.836-1.415,1.266c-0.227,0.209-0.465,0.406-0.685,0.618
		c-0.664,0.646-1.301,1.314-1.913,2.006c-0.213,0.241-0.406,0.501-0.613,0.748c-0.393,0.468-0.786,0.934-1.154,1.419
		c-0.239,0.317-0.458,0.648-0.688,0.972c-0.309,0.437-0.619,0.87-0.907,1.319C6.1,17.794,5.892,18.159,5.678,18.52
		c-0.262,0.438-0.524,0.876-0.768,1.326c-0.205,0.377-0.395,0.764-0.585,1.148c-0.224,0.449-0.444,0.9-0.649,1.359
		c-0.177,0.396-0.34,0.798-0.503,1.2c-0.188,0.464-0.371,0.93-0.54,1.401c-0.146,0.409-0.282,0.824-0.414,1.239
		c-0.152,0.479-0.297,0.96-0.429,1.443c-0.115,0.421-0.224,0.843-0.323,1.269c-0.115,0.493-0.219,0.991-0.314,1.491
		c-0.081,0.426-0.159,0.852-0.227,1.281c-0.079,0.511-0.141,1.027-0.197,1.542c-0.048,0.428-0.097,0.853-0.128,1.283
		c-0.041,0.532-0.057,1.068-0.073,1.604c-0.013,0.419-0.031,0.839-0.029,1.261c0.003,0.562,0.032,1.129,0.062,1.694
		c0.021,0.4,0.029,0.799,0.062,1.201c0.054,0.625,0.021,0.908,0.106,1.535c0.038,0.285,0.138,0.994,0.184,1.277
		c0.01,0.061,0.014,0.121,0.023,0.182c0.152,0.92,0.327,1.766,0.553,2.684c0.015,0.056,0.021,0.107,0.034,0.16
		c0.178,0.707,0.395,1.439,0.609,2.127l0,0c4.824,15.398,19.123,25.66,34.778,25.773c3.026,0.021,6.146-0.314,9.223-1.082
		c0.619-0.154,1.238-0.34,1.842-0.523c0.127-0.039,0.25-0.084,0.377-0.125c0.476-0.149,0.947-0.312,1.414-0.481
		c0.146-0.054,0.289-0.113,0.435-0.168c0.44-0.166,0.885-0.312,1.313-0.492c0.137-0.058,0.271-0.123,0.404-0.18
		c0.434-0.189,0.852-0.378,1.274-0.58c0.121-0.058,0.236-0.121,0.355-0.181c0.434-0.215,0.928-0.479,1.352-0.709
		c0.097-0.051,0.187-0.106,0.279-0.16c0.441-0.245,0.857-0.489,1.287-0.752c0.074-0.045,0.143-0.092,0.215-0.137
		c0.447-0.277,0.848-0.529,1.279-0.824c0.053-0.035,0.104-0.073,0.156-0.108c0.446-0.312,0.848-0.601,1.278-0.929
		c0.029-0.022,0.06-0.049,0.09-0.069c0.451-0.347,1.002-0.765,1.437-1.129c0.014-0.013,0.027-0.024,0.041-0.037
		c3.207-2.701,5.266-5.104,8.295-9.983C66.317,57.065,62.714,58.797,59.239,59.662z"/>
</g>
</svg>
