<?xml version="1.0" encoding="utf-8"?>
<!-- Generator: Adobe Illustrator 16.0.4, SVG Export Plug-In . SVG Version: 6.00 Build 0)  -->
<!DOCTYPE svg PUBLIC "-//W3C//DTD SVG 1.1//EN" "http://www.w3.org/Graphics/SVG/1.1/DTD/svg11.dtd">
<svg version="1.1" id="圖層_1" xmlns="http://www.w3.org/2000/svg" xmlns:xlink="http://www.w3.org/1999/xlink" x="0px" y="0px"
	 width="74.473px" height="74.533px" viewBox="0 0 74.473 74.533" enable-background="new 0 0 74.473 74.533" xml:space="preserve">
<g>
	<circle fill="#DADFE0" cx="37.236" cy="37.267" r="36.645"/>
	<g>
		<path fill="#BCC3C5" d="M63.372,11.584c-6.483,0.472-11.596,5.88-11.596,12.483c0,6.913,5.604,12.517,12.518,12.517
			c3.677,0,6.985-1.587,9.275-4.112C72.513,24.382,68.815,17.123,63.372,11.584z"/>
		<path fill="#BCC3C5" d="M6.114,46.054c-1.499,0-2.936,0.262-4.268,0.746c2.185,8.131,7.098,15.146,13.697,20.001
			c1.922-2.2,3.086-5.08,3.086-8.231C18.63,51.656,13.026,46.054,6.114,46.054z"/>
		<circle fill="#BCC3C5" cx="46.478" cy="59.583" r="5.312"/>
		<circle fill="#BCC3C5" cx="18.628" cy="28.013" r="2.586"/>
		<circle fill="#BCC3C5" cx="64.292" cy="50.901" r="2.585"/>
		<circle fill="#BCC3C5" cx="34.526" cy="41.656" r="8.449"/>
		<circle fill="#BCC3C5" cx="32.498" cy="14.145" r="4.738"/>
	</g>
	<path opacity="0.1" fill="#1D1D1B" d="M59.334,59.567c-6.523,1.624-13.07,1.388-19.094-0.357
		c-12.143-3.517-22.14-13.194-25.421-26.315c-0.448-1.793-0.756-3.589-0.929-5.374c-0.763-7.849,1.062-15.513,4.878-22.01
		c-0.002,0.002-0.003,0.002-0.005,0.003c-1.017,0.594-1.987,1.245-2.932,1.926c-0.385,0.277-0.759,0.567-1.131,0.857
		C14.4,8.532,14.092,8.755,13.8,8.999c-0.488,0.407-0.951,0.836-1.415,1.266c-0.226,0.209-0.465,0.406-0.684,0.618
		c-0.664,0.646-1.301,1.314-1.913,2.006c-0.213,0.241-0.407,0.501-0.614,0.748c-0.392,0.468-0.786,0.934-1.154,1.419
		c-0.239,0.317-0.458,0.648-0.688,0.972c-0.309,0.437-0.62,0.87-0.908,1.319c-0.229,0.353-0.437,0.718-0.651,1.079
		c-0.262,0.438-0.524,0.876-0.768,1.326C4.8,20.129,4.611,20.516,4.42,20.9c-0.223,0.449-0.444,0.9-0.649,1.359
		c-0.177,0.396-0.34,0.798-0.503,1.2c-0.188,0.464-0.371,0.93-0.54,1.401c-0.146,0.409-0.282,0.824-0.414,1.239
		c-0.152,0.479-0.297,0.96-0.429,1.443c-0.115,0.421-0.223,0.843-0.323,1.269c-0.115,0.493-0.219,0.991-0.314,1.491
		c-0.081,0.426-0.16,0.852-0.227,1.281c-0.079,0.511-0.141,1.027-0.197,1.542c-0.048,0.428-0.097,0.853-0.128,1.283
		c-0.041,0.532-0.057,1.068-0.073,1.604c-0.013,0.419-0.032,0.839-0.03,1.261c0.003,0.562,0.033,1.129,0.062,1.695
		c0.021,0.4,0.029,0.799,0.062,1.2c0.054,0.625,0.021,0.909,0.107,1.535c0.038,0.286,0.137,0.994,0.183,1.278
		c0.01,0.061,0.014,0.121,0.024,0.182c0.152,0.92,0.327,1.765,0.553,2.684c0.014,0.054,0.021,0.106,0.034,0.159
		c0.177,0.708,0.394,1.44,0.609,2.127v0.001c4.824,15.398,19.123,25.66,34.778,25.773c3.027,0.021,6.146-0.315,9.223-1.082
		c0.619-0.155,1.238-0.341,1.842-0.523c0.127-0.039,0.25-0.084,0.377-0.125c0.475-0.15,0.947-0.313,1.414-0.482
		c0.146-0.053,0.289-0.114,0.434-0.169c0.441-0.165,0.885-0.312,1.314-0.492c0.137-0.057,0.27-0.122,0.404-0.18
		c0.434-0.188,0.852-0.376,1.275-0.579c0.121-0.058,0.236-0.122,0.355-0.181c0.434-0.215,0.928-0.478,1.352-0.709
		c0.096-0.051,0.186-0.107,0.279-0.159c0.441-0.246,0.857-0.49,1.287-0.753c0.074-0.044,0.143-0.092,0.215-0.137
		c0.447-0.277,0.848-0.528,1.279-0.823c0.053-0.036,0.104-0.074,0.156-0.11c0.447-0.31,0.848-0.6,1.279-0.928
		c0.029-0.023,0.059-0.049,0.09-0.07c0.451-0.345,1.002-0.764,1.436-1.128c0.014-0.013,0.027-0.025,0.041-0.037
		c3.207-2.702,5.266-5.106,8.295-9.984C66.412,56.973,62.809,58.702,59.334,59.567z"/>
</g>
</svg>
