<?xml version="1.0" encoding="utf-8"?>
<!-- Generator: Adobe Illustrator 16.0.4, SVG Export Plug-In . SVG Version: 6.00 Build 0)  -->
<!DOCTYPE svg PUBLIC "-//W3C//DTD SVG 1.1//EN" "http://www.w3.org/Graphics/SVG/1.1/DTD/svg11.dtd">
<svg version="1.1" id="圖層_1" xmlns="http://www.w3.org/2000/svg" xmlns:xlink="http://www.w3.org/1999/xlink" x="0px" y="0px"
	 width="74.473px" height="74.533px" viewBox="0 0 74.473 74.533" enable-background="new 0 0 74.473 74.533" xml:space="preserve">
<g>
	<g>
		<g>
			<circle fill="#81CCD7" cx="37.237" cy="37.241" r="36.771"/>
		</g>
	</g>
	<g>
		<g>
			<g>
				<path fill="#78C3CC" d="M46.542,29.568c8.664-1.103,17.723-0.067,26.466-0.827c-0.176-0.748-0.371-1.491-0.593-2.222
					c-8.688,0.466-17.456,1.054-25.985,2.206C45.83,28.807,45.897,29.649,46.542,29.568z"/>
			</g>
		</g>
		<g>
			<g>
				<path fill="#78C3CC" d="M60.334,57.985c-7.338,1.031-14.094,1.66-21.544,1.609c-5.047-0.037-10.082,0.361-15.124,0.539
					c-4.967,0.178-10.261-0.83-15.141,0.068c6.737,8.414,17.091,13.81,28.71,13.81c12.605,0,23.726-6.345,30.351-16.015
					C65.231,57.751,62.878,57.628,60.334,57.985z"/>
			</g>
		</g>
		<g>
			<g>
				<path fill="#78C3CC" d="M65.036,46.273c-8.379,0.388-16.862,2.362-25.276,2.866c-6.164,0.37-12.281,0.631-18.447,1.127
					c-6.237,0.498-12.478-1.445-18.683-0.58c0.418,1.162,0.892,2.3,1.421,3.406c5.856,0.575,11.794,0.906,17.658,0.727
					c7.65-0.234,15.14-2.013,22.774-2.469c5.608-0.332,11.151,0.284,16.818-0.457c3.533-0.463,6.824-0.322,10.098-0.051
					c0.545-1.373,1.019-2.785,1.399-4.233C70.229,46.304,67.644,46.153,65.036,46.273z"/>
			</g>
		</g>
		<g>
			<g>
				<path fill="#78C3CC" d="M17.298,46.742c7.663-0.026,15.593-2.822,23.147-3.941c10.854-1.61,21.923,0.497,32.932,1.191
					c0.155-0.839,0.285-1.683,0.382-2.539c-2.25,0.106-4.497,0.202-6.721,0.176c-7.979-0.097-15.94-0.723-23.923-0.511
					c-8.005,0.209-15.651,2.236-23.556,3.235c-6.29,0.796-12.341-1.682-18.581-1.009c0.128,0.771,0.282,1.53,0.458,2.282
					C6.734,45.405,11.965,46.762,17.298,46.742z"/>
			</g>
		</g>
		<g>
			<g>
				<path fill="#78C3CC" d="M37.236,0.469c-12.126,0-22.877,5.871-29.574,14.924c1.62-0.246,3.243-0.491,4.895-0.713
					c6.175,2.139,14.677,1.127,20.068,0.763c0.604-0.041,1.205-0.085,1.81-0.128c1.636,0.219,3.275,0.412,4.917,0.554
					c3.13,0.269,6.239-0.417,9.329-1.323c1.165-0.019,2.328-0.043,3.505-0.02c4.552,0.088,9.067,0.105,13.548-0.52
					C58.99,5.746,48.731,0.469,37.236,0.469z"/>
			</g>
		</g>
		<g>
			<g>
				<path fill="#78C3CC" d="M43.912,21.115c-13.211,0.806-26.645-1.118-39.783,0.108c-0.284,0.588-0.554,1.185-0.809,1.79
					c13.498-0.393,26.87,0.88,40.396,0.085c7.146-0.422,14.292-0.854,21.441-1.2c1.797-0.089,3.612-0.112,5.43-0.144
					c-0.313-0.676-0.641-1.342-0.993-1.994C61.036,20.253,52.46,20.593,43.912,21.115z"/>
			</g>
		</g>
		<g>
			<g>
				<path fill="#78C3CC" d="M26.665,29.61c0.601-0.001,0.788-0.91,0.097-0.926C18.538,28.496,9.688,26.981,1.5,28.581
					c-0.104,0.431-0.208,0.861-0.297,1.3C9.74,29.237,18.098,29.627,26.665,29.61z"/>
			</g>
		</g>
	</g>
	<path opacity="0.1" fill="#1D1D1B" d="M59.208,59.687c-6.523,1.629-13.071,1.393-19.095-0.357
		c-12.142-3.525-22.139-13.225-25.42-26.375c-0.448-1.798-0.756-3.598-0.929-5.387c-0.763-7.867,1.062-15.549,4.878-22.06
		c-0.002,0.001-0.003,0.001-0.005,0.003c-1.017,0.594-1.987,1.248-2.932,1.93c-0.385,0.278-0.759,0.568-1.131,0.859
		c-0.301,0.236-0.609,0.46-0.901,0.704c-0.488,0.407-0.951,0.838-1.415,1.269c-0.226,0.209-0.465,0.406-0.684,0.62
		c-0.664,0.646-1.301,1.317-1.913,2.009c-0.213,0.243-0.407,0.502-0.614,0.75c-0.392,0.469-0.786,0.936-1.154,1.422
		c-0.239,0.318-0.458,0.65-0.688,0.976c-0.309,0.437-0.62,0.872-0.908,1.321c-0.229,0.354-0.437,0.72-0.651,1.082
		c-0.262,0.439-0.524,0.877-0.768,1.328c-0.205,0.379-0.394,0.766-0.585,1.152c-0.223,0.45-0.444,0.902-0.649,1.361
		c-0.177,0.397-0.34,0.801-0.503,1.204c-0.188,0.465-0.371,0.931-0.54,1.403c-0.146,0.41-0.282,0.826-0.414,1.242
		c-0.152,0.48-0.297,0.963-0.429,1.448c-0.115,0.421-0.223,0.845-0.323,1.271c-0.115,0.494-0.219,0.994-0.314,1.494
		c-0.081,0.428-0.16,0.854-0.227,1.284c-0.079,0.513-0.141,1.029-0.197,1.546c-0.048,0.429-0.097,0.855-0.128,1.287
		c-0.041,0.533-0.057,1.07-0.073,1.607c-0.013,0.42-0.032,0.84-0.03,1.264c0.003,0.564,0.033,1.131,0.062,1.7
		c0.021,0.4,0.029,0.801,0.062,1.203c0.054,0.626,0.021,0.91,0.107,1.539c0.038,0.285,0.137,0.995,0.183,1.281
		c0.01,0.061,0.014,0.121,0.024,0.182c0.152,0.922,0.327,1.768,0.553,2.689c0.014,0.054,0.021,0.107,0.034,0.16
		c0.177,0.709,0.394,1.442,0.609,2.131v0.002C6.925,63.664,21.224,73.95,36.879,74.063c3.027,0.021,6.146-0.318,9.222-1.085
		c0.62-0.155,1.238-0.341,1.843-0.525c0.127-0.038,0.25-0.085,0.376-0.124c0.476-0.15,0.948-0.315,1.415-0.484
		c0.146-0.053,0.288-0.113,0.434-0.168c0.44-0.166,0.885-0.313,1.314-0.494c0.137-0.058,0.269-0.123,0.403-0.181
		c0.434-0.188,0.853-0.376,1.275-0.58c0.121-0.058,0.236-0.122,0.356-0.181c0.434-0.215,0.928-0.479,1.351-0.711
		c0.096-0.051,0.187-0.107,0.28-0.16c0.441-0.246,0.857-0.49,1.287-0.754c0.073-0.045,0.143-0.092,0.214-0.137
		c0.447-0.279,0.848-0.529,1.28-0.826c0.053-0.035,0.104-0.074,0.155-0.109c0.448-0.311,0.848-0.602,1.28-0.931
		c0.029-0.023,0.059-0.048,0.09-0.07c0.451-0.346,1.002-0.766,1.436-1.131c0.014-0.013,0.027-0.024,0.04-0.036
		c3.207-2.709,5.267-5.119,8.295-10.009C66.285,57.087,62.682,58.819,59.208,59.687z"/>
</g>
</svg>
