<?xml version="1.0" encoding="utf-8"?>
<!-- Generator: Adobe Illustrator 16.0.4, SVG Export Plug-In . SVG Version: 6.00 Build 0)  -->
<!DOCTYPE svg PUBLIC "-//W3C//DTD SVG 1.1//EN" "http://www.w3.org/Graphics/SVG/1.1/DTD/svg11.dtd">
<svg version="1.1" id="圖層_1" xmlns="http://www.w3.org/2000/svg" xmlns:xlink="http://www.w3.org/1999/xlink" x="0px" y="0px"
	 width="74.473px" height="74.533px" viewBox="0 0 74.473 74.533" enable-background="new 0 0 74.473 74.533" xml:space="preserve">
<g>
	<g>
		<g>
			<circle fill="#81CCD7" cx="37.236" cy="37.187" r="37.185"/>
		</g>
	</g>
	<g>
		<g>
			<g>
				<path fill="#78C3CC" d="M46.648,29.427c8.761-1.115,17.922-0.067,26.764-0.836c-0.178-0.756-0.375-1.508-0.6-2.247
					c-8.786,0.471-17.652,1.066-26.278,2.231C45.927,28.658,45.994,29.509,46.648,29.427z"/>
			</g>
		</g>
		<g>
			<g>
				<path fill="#78C3CC" d="M60.595,58.165c-7.421,1.042-14.253,1.679-21.787,1.626c-5.104-0.036-10.196,0.365-15.295,0.545
					c-5.022,0.181-10.377-0.838-15.312,0.069c6.813,8.509,17.284,13.965,29.033,13.965c12.749,0,23.995-6.416,30.694-16.194
					C65.546,57.928,63.167,57.803,60.595,58.165z"/>
			</g>
		</g>
		<g>
			<g>
				<path fill="#78C3CC" d="M65.35,46.319c-8.474,0.394-17.053,2.39-25.562,2.899c-6.234,0.374-12.42,0.639-18.655,1.14
					c-6.307,0.504-12.618-1.461-18.893-0.586c0.423,1.175,0.902,2.324,1.437,3.443c5.922,0.582,11.927,0.917,17.857,0.735
					c7.736-0.236,15.31-2.036,23.031-2.496c5.671-0.336,11.276,0.286,17.008-0.462c3.573-0.469,6.901-0.326,10.211-0.053
					c0.552-1.389,1.031-2.815,1.415-4.281C70.601,46.352,67.987,46.199,65.35,46.319z"/>
			</g>
		</g>
		<g>
			<g>
				<path fill="#78C3CC" d="M17.073,46.795c7.75-0.026,15.769-2.854,23.408-3.986c10.977-1.628,22.171,0.503,33.304,1.205
					c0.157-0.849,0.288-1.701,0.387-2.567c-2.275,0.107-4.548,0.204-6.797,0.178c-8.069-0.098-16.12-0.731-24.192-0.517
					c-8.097,0.211-15.828,2.262-23.822,3.271c-6.361,0.806-12.48-1.7-18.791-1.02c0.129,0.78,0.285,1.547,0.463,2.308
					C6.39,45.442,11.68,46.815,17.073,46.795z"/>
			</g>
		</g>
		<g>
			<g>
				<path fill="#78C3CC" d="M38.612,1.002c2.015,0.003,5.217,0.444,7.892,0.182C43.539,0.42,40.438,0,37.235,0
					c-2.343,0-4.632,0.224-6.853,0.64C33.146,0.995,36.047,0.998,38.612,1.002z"/>
				<path fill="#78C3CC" d="M52.133,3.134c-0.09,0.098-0.192,0.192-0.31,0.278c-3.082,2.258-7.944,1.41-11.526,1.404
					c-5.096-0.009-11.145,0.216-15.942-1.711c-0.308-0.124-0.55-0.302-0.742-0.511c-2.856,1.129-5.542,2.597-8.003,4.361
					c3.306,0.71,7.378-0.15,10.483-0.147c4.496,0.005,8.996,0.127,13.491,0.028c5.381-0.119,10.804-1.251,16.203-1.867
					C54.611,4.288,53.386,3.684,52.133,3.134z"/>
				<path fill="#78C3CC" d="M60.887,8.51c-3.909,0.267-7.726,1.187-11.684,1.582c-5.121,0.511-10.251,0.614-15.396,0.573
					c-4.705-0.037-9.389-0.086-14.087,0.181c-2.71,0.154-5.25,0.132-7.609-1.05c-1.755,1.611-3.363,3.378-4.783,5.297
					c1.638-0.249,3.279-0.497,4.95-0.721c6.244,2.163,14.842,1.14,20.294,0.771c0.61-0.041,1.219-0.085,1.83-0.129
					c1.654,0.222,3.312,0.417,4.973,0.56c3.165,0.272,6.31-0.421,9.434-1.338c1.179-0.02,2.354-0.043,3.545-0.021
					c4.603,0.089,9.169,0.106,13.7-0.526C64.509,11.796,62.772,10.067,60.887,8.51z"/>
			</g>
		</g>
		<g>
			<g>
				<path fill="#78C3CC" d="M43.988,20.879c-13.36,0.815-26.946-1.13-40.231,0.109c-0.288,0.594-0.56,1.198-0.819,1.81
					c13.65-0.397,27.173,0.89,40.852,0.086c7.226-0.427,14.453-0.864,21.683-1.214c1.817-0.09,3.652-0.113,5.491-0.146
					c-0.317-0.683-0.648-1.357-1.005-2.017C61.305,20.007,52.632,20.351,43.988,20.879z"/>
			</g>
		</g>
		<g>
			<g>
				<path fill="#78C3CC" d="M26.546,29.469c0.607-0.001,0.797-0.92,0.098-0.936c-8.316-0.19-17.267-1.722-25.546-0.104
					c-0.106,0.436-0.21,0.87-0.3,1.314C9.43,29.092,17.882,29.487,26.546,29.469z"/>
			</g>
		</g>
	</g>
	<path opacity="0.1" fill="#1D1D1B" enable-background="new    " d="M59.456,59.885c-6.598,1.647-13.219,1.409-19.312-0.36
		C27.866,55.96,17.757,46.149,14.438,32.853c-0.452-1.818-0.764-3.639-0.939-5.448c-0.771-7.955,1.074-15.724,4.933-22.309
		c-0.002,0.001-0.003,0.001-0.005,0.003c-1.028,0.601-2.01,1.262-2.964,1.952c-0.39,0.281-0.769,0.574-1.144,0.869
		c-0.305,0.239-0.617,0.465-0.912,0.712c-0.494,0.412-0.962,0.847-1.431,1.283c-0.228,0.211-0.47,0.411-0.691,0.627
		c-0.671,0.653-1.316,1.332-1.935,2.031c-0.215,0.246-0.412,0.507-0.621,0.758c-0.397,0.475-0.795,0.947-1.167,1.438
		c-0.242,0.321-0.463,0.657-0.695,0.986c-0.313,0.442-0.627,0.882-0.918,1.336c-0.232,0.358-0.443,0.728-0.659,1.094
		c-0.265,0.444-0.53,0.887-0.776,1.343c-0.208,0.383-0.399,0.774-0.592,1.165c-0.226,0.455-0.449,0.912-0.657,1.376
		c-0.179,0.401-0.344,0.81-0.508,1.217c-0.19,0.47-0.375,0.942-0.546,1.419c-0.147,0.415-0.285,0.835-0.418,1.256
		c-0.153,0.485-0.3,0.974-0.434,1.464c-0.117,0.426-0.225,0.854-0.327,1.285c-0.116,0.5-0.221,1.005-0.317,1.511
		c-0.082,0.433-0.162,0.863-0.23,1.298c-0.08,0.519-0.142,1.041-0.2,1.563c-0.048,0.434-0.098,0.865-0.129,1.302
		c-0.042,0.539-0.057,1.082-0.073,1.625c-0.014,0.424-0.033,0.849-0.031,1.278c0.003,0.571,0.034,1.144,0.062,1.719
		c0.022,0.405,0.03,0.81,0.063,1.217c0.054,0.633,0.021,0.92,0.107,1.557c0.039,0.288,0.139,1.006,0.186,1.295
		c0.01,0.062,0.014,0.123,0.023,0.185c0.154,0.932,0.331,1.787,0.56,2.72c0.014,0.054,0.021,0.107,0.035,0.161
		c0.179,0.718,0.398,1.458,0.615,2.155v0.002C6.583,63.907,21.043,74.31,36.875,74.424c3.062,0.021,6.215-0.322,9.326-1.099
		c0.628-0.155,1.253-0.343,1.864-0.53c0.128-0.038,0.253-0.086,0.38-0.125c0.482-0.152,0.959-0.318,1.431-0.49
		c0.148-0.053,0.292-0.114,0.439-0.17c0.444-0.167,0.896-0.315,1.329-0.499c0.139-0.059,0.272-0.125,0.407-0.183
		c0.438-0.191,0.862-0.381,1.29-0.587c0.122-0.059,0.238-0.123,0.359-0.183c0.439-0.218,0.938-0.484,1.367-0.719
		c0.097-0.052,0.188-0.109,0.282-0.162c0.446-0.249,0.867-0.496,1.302-0.763c0.073-0.045,0.145-0.093,0.216-0.138
		c0.452-0.283,0.858-0.536,1.295-0.836c0.053-0.035,0.105-0.075,0.157-0.11c0.453-0.314,0.856-0.608,1.293-0.942
		c0.03-0.022,0.061-0.048,0.092-0.07c0.456-0.351,1.014-0.775,1.452-1.144c0.014-0.013,0.027-0.024,0.041-0.036
		c3.243-2.739,5.325-5.177,8.388-10.122C66.613,57.256,62.969,59.008,59.456,59.885z"/>
</g>
</svg>
