<?xml version="1.0" encoding="utf-8"?>
<!-- Generator: Adobe Illustrator 16.0.4, SVG Export Plug-In . SVG Version: 6.00 Build 0)  -->
<!DOCTYPE svg PUBLIC "-//W3C//DTD SVG 1.1//EN" "http://www.w3.org/Graphics/SVG/1.1/DTD/svg11.dtd">
<svg version="1.1" id="圖層_1" xmlns="http://www.w3.org/2000/svg" xmlns:xlink="http://www.w3.org/1999/xlink" x="0px" y="0px"
	 width="132.139px" height="77.256px" viewBox="0 0 132.139 77.256" enable-background="new 0 0 132.139 77.256"
	 xml:space="preserve">
<g>
	<path fill="#EED266" d="M104.734,38.646c0-18.931-13.632-34.669-31.614-37.967c-0.051-0.009-0.1-0.018-0.148-0.026
		c-0.628-0.113-1.262-0.21-1.899-0.292c-0.143-0.019-0.283-0.037-0.427-0.054c-0.51-0.06-1.021-0.107-1.538-0.147
		c-0.16-0.013-0.32-0.035-0.48-0.046c-0.001,0-0.002,0-0.003,0c-0.117-0.008-0.233-0.011-0.352-0.018
		c-0.12-0.007-0.24-0.013-0.36-0.018c-0.217-0.01-0.434-0.025-0.648-0.032c-0.005,0-0.01,0-0.015,0
		c-0.253-0.008-0.506-0.005-0.758-0.008c-0.11-0.001-0.221-0.002-0.329-0.003c-0.019,0-0.034-0.001-0.053-0.001
		c-0.007,0-0.014,0-0.021,0c-0.017,0-0.032,0-0.048,0c-0.355,0-0.708,0.019-1.062,0.028c-0.054,0.001-0.106,0.003-0.16,0.004
		c-0.239,0.008-0.48,0.007-0.72,0.019c-0.058,0.002-0.116,0.001-0.174,0.005c-0.111,0.006-0.221,0.017-0.332,0.024
		C63.344,0.13,63.097,0.159,62.85,0.18c-0.312,0.026-0.624,0.05-0.934,0.083c-0.058,0.006-0.115,0.009-0.172,0.015
		c-0.086,0.01-0.174,0.013-0.26,0.023c-0.017,0.002-0.032,0.004-0.051,0.006c-0.147,0.018-0.298,0.036-0.446,0.056
		c-0.005,0-0.009,0.001-0.014,0.001c-0.214,0.029-0.427,0.066-0.641,0.099c-0.076,0.011-0.151,0.023-0.229,0.035
		c-0.195,0.031-0.394,0.057-0.589,0.091c-0.054,0.009-0.106,0.019-0.161,0.028C59.28,0.63,59.205,0.642,59.13,0.656
		c-0.003,0-0.005,0.001-0.007,0.001c-0.243,0.045-0.485,0.096-0.728,0.146c-0.042,0.008-0.084,0.016-0.126,0.025
		c-0.11,0.023-0.225,0.043-0.337,0.067c-0.029,0.006-0.059,0.013-0.088,0.02c-0.253,0.055-0.503,0.119-0.755,0.18
		c-0.138,0.033-0.276,0.063-0.414,0.098c-0.018,0.004-0.035,0.01-0.053,0.015c-0.773,0.195-1.536,0.416-2.289,0.657
		c-0.001,0-0.001,0-0.001,0h-0.001c-0.598,0.19-1.188,0.395-1.771,0.613c-0.05,0.019-0.102,0.034-0.149,0.052
		c-0.045,0.017-0.09,0.034-0.134,0.051C52.24,2.598,52.2,2.613,52.16,2.629c-0.084,0.032-0.168,0.063-0.252,0.096
		c-0.201,0.08-0.4,0.166-0.601,0.25c-0.124,0.051-0.248,0.102-0.371,0.154c-0.062,0.027-0.128,0.052-0.189,0.079
		c-0.127,0.055-0.253,0.11-0.379,0.167c-0.059,0.026-0.116,0.05-0.176,0.076c-0.001,0-0.002,0.001-0.003,0.001
		c-0.309,0.14-0.614,0.283-0.92,0.43c-0.128,0.062-0.253,0.126-0.38,0.189c-0.368,0.183-0.735,0.367-1.098,0.562
		c-0.039,0.021-0.077,0.043-0.116,0.064c-0.186,0.101-0.363,0.218-0.549,0.323c-0.44,0.249-0.878,0.503-1.309,0.769
		c-0.143,0.088-0.292,0.165-0.434,0.255c-0.098,0.062-0.196,0.12-0.294,0.182c-0.291,0.188-0.578,0.386-0.864,0.582
		c-0.185,0.126-0.37,0.252-0.552,0.381c-0.264,0.187-0.523,0.379-0.781,0.573c-0.201,0.15-0.399,0.302-0.598,0.457
		c-0.243,0.189-0.484,0.38-0.724,0.576c-0.181,0.147-0.356,0.299-0.532,0.45h-0.001c-0.001,0-0.001,0.001-0.001,0.001
		c-0.033,0.028-0.066,0.056-0.101,0.083c-0.219,0.187-0.438,0.373-0.652,0.564c-0.139,0.123-0.271,0.252-0.405,0.376
		c-0.055,0.051-0.104,0.107-0.158,0.159c-0.246,0.229-0.475,0.477-0.716,0.712c-0.128,0.126-0.257,0.253-0.383,0.381
		c-0.273,0.274-0.558,0.535-0.821,0.818c-0.067,0.072-0.13,0.148-0.196,0.221c-0.559,0.608-1.097,1.238-1.616,1.885
		c-0.065,0.08-0.138,0.153-0.201,0.234c-0.103,0.129-0.198,0.265-0.298,0.396c-0.116,0.15-0.23,0.303-0.345,0.456
		c-0.138,0.185-0.281,0.365-0.417,0.553c-0.002,0.003-0.005,0.007-0.007,0.01c-0.343,0.478-0.676,0.964-0.999,1.46l0,0
		c-0.084,0.129-0.157,0.269-0.24,0.399c-0.11,0.175-0.213,0.358-0.32,0.535c-0.07,0.113-0.138,0.228-0.206,0.342
		c-0.16,0.266-0.327,0.527-0.48,0.798c-0.062,0.111-0.132,0.217-0.193,0.329c-0.251,0.456-0.476,0.933-0.71,1.401
		c-0.102,0.201-0.208,0.398-0.306,0.601c-0.072,0.15-0.155,0.292-0.225,0.444c-0.036,0.078-0.071,0.157-0.107,0.236
		c-0.081,0.177-0.164,0.353-0.242,0.532c-0.084,0.193-0.168,0.386-0.25,0.582c-0.09,0.217-0.173,0.438-0.259,0.657
		c-0.073,0.185-0.148,0.368-0.219,0.555v0.001v0.002v-0.001c-0.062,0.166-0.128,0.33-0.189,0.498
		c-0.209,0.578-0.408,1.163-0.593,1.757c-0.051,0.165-0.091,0.331-0.14,0.496c-0.328,1.112-0.614,2.227-0.838,3.343
		c0.008,0.005,0.018,0.011,0.025,0.017c-0.485,2.447-0.746,4.977-0.746,7.567c0,2.549,0.255,5.038,0.726,7.45
		c-0.008-0.005-0.017-0.009-0.024-0.014c-0.004-0.002-0.008-0.004-0.012-0.006c0.162,0.818,0.354,1.628,0.568,2.431
		c0.022,0.088,0.048,0.175,0.071,0.261c0.115,0.42,0.248,0.836,0.376,1.252c0.017,0.053,0.031,0.104,0.047,0.156
		c0.051,0.158,0.092,0.318,0.144,0.477c0.03,0.094,0.061,0.187,0.092,0.279c0.084,0.252,0.185,0.496,0.273,0.745
		c0.059,0.165,0.119,0.329,0.181,0.493c0.099,0.266,0.187,0.534,0.292,0.797v0.001c0.01,0.005,0.019,0.011,0.029,0.017l0,0
		c-0.011-0.006-0.02-0.01-0.029-0.017c3.061,7.646,8.544,14.261,15.806,18.665c0.03,0.02,0.062,0.037,0.092,0.057
		c0.118,0.07,0.233,0.147,0.354,0.219c0.207,0.121,0.424,0.23,0.634,0.35c0.315,0.18,0.633,0.355,0.954,0.525
		c0.252,0.134,0.507,0.263,0.763,0.391c0.394,0.197,0.789,0.387,1.188,0.57c0.223,0.102,0.444,0.204,0.669,0.303
		c0.48,0.209,0.968,0.406,1.458,0.598c0.157,0.062,0.312,0.127,0.471,0.186c1.302,0.484,2.634,0.904,3.995,1.249
		c0.001,0,0.002,0.001,0.003,0.001c0.025,0.006,0.05,0.012,0.075,0.018c0.601,0.15,1.206,0.288,1.816,0.41
		c0.021,0.004,0.044,0.01,0.065,0.016c0.161,0.031,0.322,0.055,0.484,0.084c0.039,0.009,0.079,0.015,0.118,0.021
		c0.138,0.025,0.274,0.049,0.413,0.073c0.268,0.045,0.532,0.095,0.803,0.135c0.048,0.008,0.096,0.019,0.144,0.024
		c0.203,0.029,0.407,0.05,0.611,0.076c0.049,0.006,0.098,0.012,0.146,0.019c0.15,0.019,0.303,0.039,0.452,0.056
		c0.061,0.008,0.12,0.014,0.181,0.021c0.114,0.012,0.229,0.027,0.346,0.039c0.076,0.008,0.153,0.019,0.229,0.025
		c0.193,0.019,0.387,0.026,0.579,0.043c0.214,0.017,0.43,0.032,0.644,0.047c0.044,0.002,0.088,0.006,0.133,0.01
		c0.084,0.005,0.168,0.009,0.251,0.014c0.016,0.001,0.031,0.002,0.046,0.003c0.104,0.006,0.209,0.013,0.313,0.019
		c0.177,0.006,0.353,0.006,0.528,0.012c0.243,0.008,0.485,0.007,0.729,0.011c0.134,0.001,0.266,0.011,0.398,0.011
		c0.037,0,0.073-0.004,0.11-0.004c0.065,0,0.131,0.004,0.195,0.004c0.156-0.002,0.312-0.01,0.47-0.014
		c0.178-0.004,0.354-0.014,0.533-0.021c0.295-0.01,0.592-0.017,0.886-0.032c0.021-0.001,0.043-0.001,0.064-0.003
		c0.138-0.008,0.273-0.021,0.41-0.029c0.097-0.007,0.191-0.018,0.287-0.025C89.016,75.624,104.734,58.976,104.734,38.646z"/>
	<g>
		<path opacity="0.15" fill="#1D1D1B" enable-background="new    " d="M35.147,15.531c4.483,2.886,9.092,5.497,13.809,7.845
			c0.101-0.36,0.192-0.721,0.305-1.08c0.749-2.42,1.718-4.712,2.872-6.863c-3.772-1.884-7.474-3.944-11.09-6.188h-0.001
			c-0.45,0.382-0.887,0.781-1.317,1.184c-0.66,0.614-1.303,1.25-1.92,1.912c-0.067,0.072-0.13,0.148-0.196,0.221
			c-0.559,0.608-1.097,1.238-1.616,1.885c-0.168,0.208-0.335,0.417-0.5,0.63C35.375,15.226,35.261,15.379,35.147,15.531z"/>
		<path opacity="0.15" fill="#1D1D1B" enable-background="new    " d="M32.476,19.63c-0.062,0.111-0.132,0.217-0.193,0.329
			c-0.439,0.796-0.854,1.611-1.24,2.446l0,0c-0.036,0.078-0.071,0.157-0.107,0.236c-0.265,0.581-0.514,1.172-0.751,1.771
			c-0.073,0.185-0.148,0.368-0.219,0.555c0,0.001,0,0.002-0.001,0.003c-0.28,0.739-0.545,1.488-0.782,2.253
			c-0.051,0.165-0.091,0.331-0.14,0.496c6.038,3.872,12.293,7.272,18.721,10.225c-0.42-3.805-0.281-7.718,0.486-11.626
			c-5.049-2.487-9.981-5.266-14.768-8.362C33.135,18.504,32.797,19.061,32.476,19.63z"/>
		<path opacity="0.15" fill="#1D1D1B" enable-background="new    " d="M67.231,0.063c-0.247-0.007-0.495-0.023-0.741-0.026
			c-0.15-0.001-0.301-0.005-0.449-0.005c-0.708,0-1.414,0.018-2.116,0.057c-0.111,0.006-0.222,0.017-0.332,0.024
			c-0.618,0.04-1.234,0.096-1.848,0.165c-0.149,0.017-0.301,0.032-0.449,0.051c-0.689,0.086-1.375,0.189-2.058,0.312
			c-0.121,0.022-0.242,0.048-0.364,0.072c-0.598,0.114-1.19,0.242-1.78,0.383c-0.138,0.033-0.276,0.063-0.414,0.098
			c-0.673,0.169-1.341,0.356-2.002,0.561c-0.114,0.036-0.227,0.075-0.341,0.111c-0.595,0.19-1.187,0.395-1.771,0.613
			c-0.106,0.04-0.215,0.078-0.32,0.119c-0.662,0.254-1.316,0.526-1.963,0.816c-0.029,0.013-0.059,0.027-0.088,0.041
			c2.576,1.351,5.187,2.621,7.821,3.819C60.721,4.404,63.831,1.975,67.231,0.063z"/>
		<path opacity="0.15" fill="#1D1D1B" enable-background="new    " d="M28.812,48.767c0.173,0.633,0.362,1.262,0.566,1.885
			c0.03,0.095,0.061,0.188,0.092,0.279c0.231,0.687,0.479,1.365,0.746,2.036v0.001c0.929,0.5,1.846,1.03,2.782,1.512
			c1.722,0.888,3.712,0.203,4.426-1.481c0.318-0.75,0.325-1.563,0.104-2.315c-3.282-1.496-6.401-3.035-9.344-4.6
			c0.161,0.814,0.344,1.625,0.557,2.425C28.764,48.595,28.789,48.681,28.812,48.767z"/>
		<path opacity="0.15" fill="#1D1D1B" enable-background="new    " d="M52.204,62.864c5.043,1.828,10.175,3.392,15.374,4.714
			c-4.454-2.437-8.29-5.687-11.384-9.493c-3.047-1.046-6.013-2.143-8.896-3.273C46.808,58.151,48.755,61.616,52.204,62.864z"/>
	</g>
	<path fill="#EE9B2D" d="M132.126,57.582c-0.006-0.146-0.01-0.29-0.023-0.438c-0.011-0.115-0.029-0.232-0.046-0.351
		c-0.02-0.146-0.037-0.289-0.063-0.435c-0.021-0.121-0.052-0.243-0.078-0.364c-0.032-0.146-0.064-0.289-0.104-0.437
		c-0.034-0.125-0.074-0.25-0.111-0.377c-0.046-0.145-0.091-0.291-0.143-0.438c-0.046-0.129-0.096-0.258-0.146-0.387
		c-0.058-0.147-0.114-0.295-0.179-0.442c-0.057-0.132-0.116-0.263-0.179-0.396c-0.069-0.148-0.14-0.297-0.215-0.447
		c-0.067-0.133-0.139-0.268-0.211-0.402c-0.081-0.15-0.164-0.301-0.251-0.452c-0.078-0.136-0.159-0.272-0.242-0.407
		c-0.093-0.151-0.188-0.305-0.286-0.457c-0.089-0.139-0.181-0.276-0.273-0.416c-0.104-0.153-0.211-0.309-0.321-0.463
		c-0.1-0.139-0.2-0.279-0.304-0.42c-0.115-0.154-0.234-0.311-0.355-0.467c-0.11-0.143-0.221-0.283-0.335-0.426
		c-0.126-0.156-0.257-0.312-0.388-0.469c-0.12-0.145-0.24-0.287-0.365-0.433c-0.138-0.157-0.281-0.317-0.424-0.477
		c-0.129-0.144-0.257-0.287-0.392-0.431c-0.149-0.162-0.306-0.324-0.462-0.486c-0.137-0.143-0.271-0.285-0.413-0.428
		c-0.163-0.166-0.332-0.33-0.5-0.496c-0.145-0.144-0.287-0.284-0.437-0.428c-0.175-0.166-0.357-0.336-0.538-0.502
		c-0.152-0.144-0.301-0.283-0.458-0.427c-0.188-0.172-0.386-0.344-0.58-0.517c-0.157-0.139-0.311-0.276-0.472-0.416
		c-0.216-0.188-0.441-0.375-0.664-0.562c-0.148-0.125-0.292-0.249-0.442-0.373c-0.299-0.246-0.605-0.492-0.916-0.74
		c-0.084-0.065-0.163-0.133-0.248-0.199c-0.396-0.312-0.801-0.625-1.214-0.938c-0.145-0.108-0.295-0.219-0.44-0.327
		c-0.276-0.205-0.552-0.412-0.834-0.617c-0.175-0.127-0.354-0.254-0.53-0.381c-0.266-0.188-0.527-0.379-0.798-0.568
		c-0.19-0.133-0.388-0.267-0.58-0.4c-0.265-0.182-0.527-0.364-0.797-0.546c-0.204-0.138-0.413-0.275-0.619-0.413
		c-0.271-0.179-0.538-0.358-0.813-0.537c-0.211-0.138-0.427-0.275-0.642-0.413c-0.277-0.178-0.554-0.355-0.836-0.533
		c-0.222-0.139-0.445-0.277-0.669-0.416c-0.285-0.177-0.571-0.354-0.861-0.53c-0.226-0.137-0.454-0.274-0.683-0.411
		c-0.297-0.178-0.597-0.356-0.897-0.535c-0.229-0.134-0.46-0.269-0.69-0.403c-0.31-0.179-0.618-0.357-0.932-0.536
		c-0.234-0.134-0.473-0.268-0.711-0.402c-0.179-0.1-0.354-0.201-0.533-0.301c0,0.002,0.001,0.003,0.002,0.005
		c-0.823-0.458-1.658-0.916-2.514-1.371c0.1,0.506,0.188,1.016,0.267,1.527c0.052,0.33,0.093,0.661,0.135,0.992
		c0.025,0.2,0.054,0.4,0.074,0.602c0.045,0.388,0.081,0.777,0.112,1.167c0.01,0.122,0.02,0.243,0.027,0.365
		c0.031,0.438,0.059,0.877,0.075,1.318l0,0c0,0.001,0,0.002,0,0.002c0.021,0.585,0.031,1.171,0.027,1.758
		c-0.001,0.015-0.001,0.029-0.001,0.043c-0.005,0.579-0.021,1.159-0.054,1.739v0.001l0,0c-0.045,0.822-0.124,1.648-0.222,2.476
		c-0.021,0.17-0.041,0.339-0.063,0.509c-0.061,0.46-0.146,0.921-0.226,1.381c-0.021,0.12-0.037,0.241-0.06,0.362
		c-0.047,0.256-0.073,0.512-0.126,0.769c0,0.001,0,0.003-0.001,0.004c1.083,0.724,2.021,1.421,2.813,2.083
		c0.25,0.211,0.484,0.417,0.705,0.62c0.014,0.015,0.027,0.026,0.043,0.039c0.452,0.422,0.835,0.828,1.147,1.218
		c0.017,0.02,0.031,0.038,0.046,0.057c0.153,0.193,0.29,0.384,0.407,0.568c0,0.002,0.001,0.002,0.002,0.004
		c0.109,0.172,0.197,0.34,0.273,0.506c0.014,0.028,0.027,0.061,0.041,0.09c0.07,0.166,0.129,0.328,0.165,0.486
		c0.002,0.006,0.002,0.012,0.003,0.018c0.032,0.146,0.044,0.285,0.045,0.423c0.001,0.036,0,0.071-0.002,0.106
		c-0.008,0.141-0.026,0.278-0.069,0.41c-0.04,0.121-0.1,0.236-0.17,0.348c-0.021,0.033-0.044,0.064-0.067,0.098
		c-0.059,0.08-0.126,0.158-0.199,0.232c-0.029,0.029-0.057,0.059-0.087,0.086c-0.104,0.094-0.221,0.183-0.351,0.266
		c-0.039,0.023-0.085,0.047-0.126,0.07c-0.1,0.058-0.204,0.113-0.315,0.164c-0.066,0.031-0.137,0.062-0.207,0.092
		c-0.104,0.041-0.213,0.08-0.324,0.119c-0.078,0.025-0.153,0.055-0.236,0.08c-0.171,0.051-0.354,0.098-0.543,0.143
		c-0.12,0.027-0.248,0.051-0.375,0.075c-0.096,0.019-0.19,0.036-0.29,0.053c-0.146,0.024-0.294,0.048-0.449,0.067
		c-0.067,0.01-0.142,0.018-0.213,0.025c-0.367,0.045-0.754,0.079-1.166,0.104c-0.018,0.002-0.033,0.003-0.05,0.004
		c-0.22,0.012-0.447,0.021-0.679,0.027c-0.051,0.002-0.104,0.004-0.153,0.004c-0.759,0.02-1.578,0.011-2.457-0.027h-0.001
		c-8.47-0.361-22.356-3.309-37.622-8.295c-5.429-1.773-10.562-3.652-15.245-5.55c-8.49-3.44-15.484-6.938-20.026-9.971l0,0
		c-0.002-0.001-0.004-0.003-0.008-0.004c-0.729-0.487-1.393-0.962-1.99-1.423c-0.039-0.03-0.079-0.06-0.117-0.09
		c-0.185-0.144-0.363-0.286-0.534-0.426c-0.013-0.011-0.026-0.022-0.039-0.033c-0.316-0.262-0.607-0.519-0.878-0.77
		c-0.052-0.048-0.105-0.097-0.156-0.145c-0.112-0.108-0.219-0.215-0.322-0.321c-0.069-0.071-0.136-0.141-0.2-0.21
		c-0.089-0.096-0.18-0.191-0.26-0.285c-0.128-0.147-0.246-0.292-0.354-0.434c-0.053-0.07-0.097-0.137-0.145-0.206
		c-0.067-0.096-0.132-0.191-0.189-0.285c-0.041-0.066-0.079-0.132-0.115-0.197c-0.059-0.108-0.11-0.213-0.157-0.318
		c-0.02-0.044-0.043-0.089-0.061-0.133c-0.056-0.143-0.097-0.283-0.126-0.419c-0.009-0.042-0.012-0.081-0.019-0.122
		c-0.017-0.104-0.025-0.206-0.024-0.305c0-0.04,0-0.08,0.002-0.119c0.009-0.131,0.029-0.259,0.069-0.382
		c0.051-0.157,0.135-0.303,0.234-0.442c0.017-0.022,0.029-0.044,0.046-0.066c0.104-0.129,0.229-0.249,0.373-0.361
		c0.03-0.023,0.062-0.046,0.094-0.069c0.151-0.108,0.321-0.21,0.514-0.303c0.035-0.017,0.073-0.032,0.108-0.047
		c0.188-0.084,0.393-0.163,0.614-0.233c0.033-0.011,0.062-0.022,0.097-0.033c0.234-0.071,0.495-0.132,0.767-0.188
		c0.074-0.016,0.147-0.031,0.225-0.045c0.267-0.049,0.55-0.092,0.846-0.128c0.099-0.012,0.199-0.022,0.302-0.033
		c0.303-0.032,0.616-0.059,0.948-0.078c0.104-0.006,0.216-0.009,0.322-0.013c0.273-0.012,0.558-0.02,0.849-0.024
		c0.662-0.009,1.362,0,2.111,0.032h0.001c0.003,0,0.006,0,0.008,0c0.386-0.835,0.801-1.65,1.239-2.446
		c0.062-0.112,0.132-0.218,0.194-0.329c0.322-0.569,0.659-1.126,1.007-1.675c0.083-0.131,0.156-0.27,0.24-0.399l0,0
		c0.323-0.496,0.656-0.983,0.999-1.46c0.002-0.003,0.005-0.007,0.007-0.01c0.135-0.188,0.279-0.368,0.417-0.553
		c0.114-0.152,0.229-0.305,0.344-0.456c0.164-0.212,0.332-0.421,0.5-0.63c0.521-0.647,1.06-1.276,1.617-1.885
		c0.066-0.073,0.129-0.149,0.196-0.221c0.617-0.662,1.26-1.297,1.92-1.912c0.055-0.051,0.104-0.108,0.158-0.159h0.004
		c-1.497-0.215-2.963-0.401-4.403-0.564c0-0.001,0.001-0.002,0.002-0.003c-0.354-0.04-0.704-0.075-1.055-0.112
		c-0.156-0.016-0.313-0.034-0.468-0.049c-0.498-0.051-0.99-0.097-1.48-0.141c-0.113-0.01-0.228-0.021-0.34-0.031
		c-1.814-0.158-3.575-0.271-5.274-0.338c-0.134-0.005-0.266-0.008-0.398-0.013c-0.422-0.015-0.843-0.029-1.258-0.039
		c-0.179-0.004-0.354-0.005-0.53-0.008c-0.362-0.006-0.724-0.012-1.08-0.014c-0.2-0.001-0.396,0-0.595,0
		c-0.329,0-0.656,0.002-0.979,0.006c-0.206,0.003-0.41,0.008-0.613,0.012C21.1,8.983,20.793,8.99,20.49,9
		c-0.208,0.007-0.413,0.016-0.618,0.024c-0.292,0.012-0.583,0.026-0.87,0.042c-0.205,0.011-0.408,0.023-0.611,0.036
		c-0.279,0.018-0.556,0.038-0.83,0.059c-0.202,0.016-0.402,0.032-0.603,0.049c-0.271,0.023-0.535,0.049-0.8,0.076
		c-0.193,0.02-0.387,0.039-0.576,0.06c-0.265,0.03-0.523,0.062-0.781,0.095c-0.183,0.023-0.367,0.046-0.547,0.071
		c-0.26,0.036-0.516,0.076-0.77,0.116c-0.169,0.026-0.341,0.052-0.508,0.08c-0.261,0.044-0.515,0.092-0.769,0.14
		C12.056,9.876,11.9,9.903,11.75,9.933c-0.283,0.057-0.558,0.118-0.831,0.18c-0.112,0.025-0.229,0.048-0.339,0.074
		c-0.381,0.09-0.754,0.184-1.118,0.284c-0.049,0.014-0.095,0.029-0.146,0.042C9.006,10.6,8.7,10.69,8.404,10.784
		c-0.12,0.039-0.235,0.081-0.354,0.12C7.83,10.979,7.611,11.052,7.4,11.129c-0.13,0.048-0.253,0.099-0.38,0.148
		c-0.19,0.074-0.381,0.147-0.564,0.225c-0.13,0.055-0.254,0.112-0.38,0.169c-0.172,0.077-0.343,0.153-0.507,0.233
		c-0.125,0.061-0.245,0.124-0.366,0.187c-0.156,0.081-0.312,0.162-0.46,0.246c-0.118,0.066-0.231,0.134-0.346,0.202
		c-0.143,0.085-0.284,0.172-0.42,0.261c-0.108,0.071-0.215,0.143-0.319,0.215c-0.132,0.091-0.259,0.184-0.384,0.277
		c-0.099,0.075-0.196,0.151-0.292,0.229c-0.119,0.096-0.232,0.195-0.346,0.294c-0.09,0.08-0.18,0.159-0.265,0.241
		c-0.107,0.103-0.209,0.208-0.311,0.314c-0.079,0.083-0.158,0.165-0.232,0.249c-0.098,0.111-0.188,0.226-0.278,0.34
		c-0.066,0.084-0.135,0.167-0.197,0.253c-0.088,0.122-0.167,0.247-0.247,0.372c-0.053,0.083-0.109,0.166-0.16,0.25
		c-0.083,0.142-0.153,0.289-0.226,0.435c-0.036,0.073-0.077,0.144-0.11,0.217c-0.1,0.223-0.188,0.45-0.265,0.682
		c-0.103,0.315-0.174,0.638-0.231,0.964c-0.015,0.084-0.026,0.17-0.038,0.255c-0.041,0.301-0.067,0.605-0.07,0.915
		C0.004,19.335,0,19.366,0,19.397c0,0.335,0.028,0.677,0.073,1.021c0.012,0.094,0.026,0.189,0.042,0.284
		c0.047,0.295,0.107,0.593,0.186,0.895c0.016,0.063,0.027,0.125,0.045,0.188c0.096,0.348,0.216,0.701,0.353,1.058
		c0.04,0.108,0.087,0.217,0.131,0.326c0.116,0.284,0.246,0.57,0.386,0.859c0.047,0.096,0.089,0.191,0.139,0.288
		c0.182,0.354,0.383,0.712,0.601,1.072c0.075,0.126,0.158,0.254,0.238,0.382c0.169,0.267,0.349,0.536,0.535,0.806
		c0.09,0.13,0.177,0.26,0.271,0.391c0.255,0.353,0.525,0.709,0.812,1.067c0.121,0.151,0.25,0.304,0.377,0.457
		c0.201,0.242,0.409,0.484,0.623,0.728c0.146,0.166,0.291,0.332,0.444,0.5c0.314,0.345,0.642,0.691,0.982,1.039
		c0.182,0.184,0.372,0.369,0.561,0.554C7.01,31.52,7.226,31.73,7.447,31.94c0.214,0.202,0.427,0.403,0.647,0.606
		c0.26,0.238,0.53,0.477,0.801,0.716c0.357,0.315,0.725,0.63,1.102,0.946c0.203,0.17,0.406,0.341,0.615,0.512
		c0.287,0.235,0.577,0.47,0.874,0.707c0.179,0.141,0.362,0.282,0.543,0.422c0.563,0.438,1.145,0.877,1.742,1.316
		c0.171,0.126,0.34,0.251,0.515,0.377c0.364,0.264,0.733,0.527,1.11,0.792c0.131,0.092,0.268,0.184,0.399,0.276
		c0.741,0.514,1.505,1.028,2.291,1.542c0.122,0.078,0.241,0.158,0.364,0.238c0.437,0.283,0.88,0.565,1.331,0.848
		c0.111,0.07,0.226,0.142,0.338,0.212c0.902,0.562,1.83,1.124,2.782,1.684c0.062,0.037,0.123,0.073,0.186,0.109
		c0.5,0.293,1.007,0.584,1.521,0.876c0.107,0.062,0.217,0.122,0.324,0.183c1.055,0.597,2.133,1.188,3.241,1.777l0,0
		c0.004,0.002,0.008,0.004,0.012,0.006c2.942,1.563,6.062,3.103,9.344,4.599c3.12,1.42,6.387,2.801,9.771,4.131
		c2.883,1.133,5.849,2.229,8.896,3.273c1.051,0.361,2.107,0.717,3.176,1.064c11.635,3.802,22.863,6.422,32.885,7.863
		c0.001,0,0.002,0,0.003,0c0.013,0.002,0.024,0.004,0.036,0.006c1.215,0.174,2.409,0.33,3.586,0.47
		c0.146,0.018,0.293,0.034,0.438,0.052c0.573,0.066,1.144,0.129,1.707,0.188c0.094,0.01,0.186,0.019,0.277,0.026
		c1.069,0.106,2.119,0.199,3.15,0.276c0.151,0.011,0.305,0.023,0.456,0.033c0.519,0.037,1.032,0.07,1.542,0.1
		c0.167,0.01,0.331,0.018,0.497,0.025c0.902,0.047,1.791,0.082,2.66,0.104c0.186,0.005,0.371,0.011,0.556,0.015
		c0.448,0.01,0.893,0.016,1.332,0.018c0.23,0.002,0.46,0.001,0.688,0c0.713-0.002,1.412-0.014,2.1-0.032
		c0.25-0.008,0.503-0.014,0.749-0.022c0.371-0.015,0.737-0.032,1.102-0.053c0.279-0.016,0.555-0.033,0.829-0.052
		c0.474-0.032,0.938-0.067,1.396-0.11c0.372-0.033,0.743-0.067,1.105-0.107c0.295-0.032,0.582-0.068,0.87-0.105
		c0.309-0.039,0.613-0.082,0.915-0.126c0.254-0.038,0.511-0.073,0.759-0.114c0.484-0.08,0.956-0.166,1.416-0.26
		c0.22-0.045,0.432-0.093,0.646-0.14c0.319-0.07,0.635-0.146,0.941-0.222c0.19-0.049,0.383-0.096,0.568-0.146
		c0.442-0.12,0.873-0.248,1.289-0.383c0.151-0.05,0.297-0.103,0.444-0.153c0.312-0.107,0.616-0.22,0.912-0.337
		c0.14-0.055,0.279-0.108,0.414-0.165c0.39-0.163,0.765-0.333,1.12-0.513c0.097-0.05,0.187-0.101,0.28-0.149
		c0.284-0.15,0.559-0.306,0.819-0.467c0.101-0.061,0.2-0.121,0.298-0.184c0.319-0.209,0.626-0.422,0.908-0.646
		c0.053-0.041,0.099-0.085,0.147-0.126c0.24-0.198,0.466-0.401,0.678-0.612c0.068-0.067,0.137-0.137,0.202-0.205
		c0.238-0.252,0.463-0.511,0.661-0.78c0.019-0.026,0.034-0.054,0.053-0.08c0.18-0.251,0.338-0.513,0.481-0.777
		c0.042-0.075,0.082-0.151,0.12-0.229c0.146-0.297,0.279-0.6,0.383-0.913c0.077-0.235,0.14-0.474,0.189-0.716
		c0.019-0.08,0.025-0.162,0.039-0.242c0.028-0.162,0.059-0.325,0.075-0.491c0.011-0.101,0.012-0.2,0.019-0.302
		c0.009-0.148,0.021-0.299,0.021-0.449C132.139,57.804,132.131,57.692,132.126,57.582z"/>
	<path opacity="0.3" fill="#AD7D49" enable-background="new    " d="M107.737,38.977c-0.001-0.001-0.001-0.001-0.001-0.002
		c-0.991-0.601-2.018-1.2-3.076-1.795c0,0.001,0,0.001,0,0.002c0.021,0.584,0.031,1.17,0.027,1.758c0,0.015-0.001,0.029-0.001,0.043
		c-0.005,0.579-0.021,1.159-0.054,1.739c1.156,0.674,2.242,1.342,3.281,2.002c0-0.002,0-0.006,0-0.009
		c8.746,5.562,13.258,10.577,12.269,13.604c-1.978,6.054-26.404,5.539-58.294-4.877C29.999,41.022,9.98,27.019,11.958,20.964
		c1.012-3.096,7.904-4.469,18.654-3.683c0,0.001,0,0.002-0.001,0.003c1.007,0.073,2.035,0.159,3.107,0.271
		c0.647-0.994,1.334-1.955,2.063-2.875c-1.246-0.149-2.455-0.267-3.646-0.37c0.001-0.001,0.001-0.002,0.002-0.004
		c-12.258-1.058-21.419,0.404-23.146,5.69C5.647,30.235,33.25,45.367,60.92,54.407c27.67,9.037,58.883,13.119,62.228,2.881
		C124.879,51.987,118.308,45.376,107.737,38.977z"/>
	<g>
		<path opacity="0.4" fill="#EE9B2D" enable-background="new    " d="M48.955,23.376c1.024,0.51,2.05,1.023,3.086,1.507
			c1.936,0.905,4.218-0.2,5.072-2.404c0.855-2.206,0.037-4.642-1.805-5.504c-1.064-0.498-2.123-1.016-3.178-1.542
			c-1.154,2.151-2.123,4.443-2.872,6.863C49.148,22.655,49.056,23.016,48.955,23.376z"/>
		<path opacity="0.4" fill="#EE9B2D" enable-background="new    " d="M102.374,51.792c0.206-0.57,0.402-1.146,0.584-1.732
			c0.001-0.002,0.002-0.002,0.002-0.006c0.244-0.787,0.455-1.576,0.644-2.367c0.023-0.098,0.044-0.194,0.066-0.293
			c0.148-0.647,0.276-1.295,0.394-1.943c0.021-0.121,0.038-0.242,0.06-0.362c-6.809-0.328-13.537-1.104-20.152-2.349
			c-2.153-0.404-4.351,1.074-4.926,3.371c-0.574,2.293,0.771,4.556,3.026,4.978c6.457,1.216,13.02,1.998,19.652,2.373
			c0.001-0.002,0.002-0.003,0.002-0.004C101.952,52.908,102.169,52.354,102.374,51.792z"/>
		<path opacity="0.4" fill="#EE9B2D" enable-background="new    " d="M71.653,20.542c-0.728,2.252,0.268,4.599,2.24,5.179
			c9.723,2.858,19.774,4.614,30.028,5.258c-0.144-0.701-0.31-1.396-0.489-2.086c-0.044-0.165-0.092-0.329-0.137-0.494
			c-0.147-0.534-0.307-1.064-0.477-1.591c-0.061-0.186-0.12-0.372-0.184-0.557c-0.184-0.54-0.38-1.075-0.586-1.605
			c-0.055-0.139-0.104-0.28-0.16-0.418c-0.272-0.677-0.562-1.347-0.872-2.007l0,0c-8.404-0.789-16.654-2.359-24.668-4.715
			C74.476,16.955,72.381,18.287,71.653,20.542z"/>
		<path opacity="0.4" fill="#EE9B2D" enable-background="new    " d="M47.763,37.943c5.238,2.406,10.588,4.519,16.046,6.297
			c2.702,0.883,5.592-0.802,6.42-3.65c0.829-2.852-0.591-5.753-3.14-6.586c-6.439-2.099-12.728-4.676-18.84-7.687
			C47.481,30.225,47.343,34.138,47.763,37.943z"/>
		<path opacity="0.4" fill="#EE9B2D" enable-background="new    " d="M58.017,7.273c5.024,2.284,10.152,4.292,15.379,5.996
			c2.702,0.882,5.592-0.802,6.42-3.65c0.829-2.852-0.591-5.754-3.14-6.586c-2.713-0.884-5.393-1.872-8.051-2.919
			c-0.001,0-0.002,0-0.003,0c-0.465-0.031-0.928-0.036-1.392-0.05C63.831,1.975,60.721,4.404,58.017,7.273z"/>
		<path opacity="0.4" fill="#EE9B2D" enable-background="new    " d="M67.578,67.578c6.279,1.598,12.661,2.838,19.127,3.69
			c1.969-1.244,3.827-2.668,5.55-4.256c-10.021-1.441-21.25-4.062-32.885-7.863c-1.067-0.349-2.125-0.703-3.176-1.064
			C59.288,61.894,63.124,65.142,67.578,67.578z"/>
	</g>
	<g>
		<path opacity="0.15" fill="#1D1D1B" enable-background="new    " d="M47.763,37.943c-0.42-3.805-0.281-7.718,0.486-11.626
			c0.192-0.982,0.434-1.962,0.706-2.941c0.101-0.36,0.192-0.721,0.305-1.08c0.749-2.42,1.718-4.712,2.872-6.863
			c1.616-3.012,3.605-5.741,5.885-8.159c2.704-2.869,5.814-5.299,9.215-7.21c-0.247-0.007-0.495-0.023-0.741-0.026
			c-0.15-0.001-0.301-0.005-0.449-0.005c-0.708,0-1.414,0.018-2.116,0.057c-0.111,0.006-0.222,0.017-0.332,0.024
			c-0.618,0.04-1.234,0.096-1.848,0.165c-0.149,0.017-0.301,0.032-0.449,0.051c-0.689,0.086-1.375,0.189-2.057,0.312
			c-0.122,0.022-0.243,0.048-0.365,0.072c-0.598,0.114-1.19,0.242-1.78,0.383C56.956,1.13,56.818,1.16,56.68,1.195
			c-0.673,0.169-1.341,0.356-2.002,0.561c-0.114,0.036-0.227,0.075-0.341,0.111c-0.595,0.19-1.187,0.395-1.771,0.613
			c-0.106,0.04-0.215,0.078-0.32,0.119c-0.662,0.254-1.316,0.526-1.963,0.816c-0.029,0.013-0.059,0.027-0.088,0.041
			c-0.31,0.14-0.618,0.28-0.925,0.428c-0.128,0.062-0.253,0.126-0.38,0.189c-0.368,0.183-0.734,0.367-1.098,0.562
			c-0.039,0.021-0.077,0.043-0.116,0.064c-0.779,0.422-1.541,0.872-2.29,1.347c-0.098,0.062-0.196,0.12-0.294,0.182
			c-0.291,0.188-0.578,0.386-0.864,0.582c-0.185,0.126-0.37,0.252-0.552,0.381c-0.264,0.187-0.523,0.379-0.781,0.573
			c-0.201,0.15-0.399,0.302-0.598,0.457c-0.243,0.189-0.484,0.38-0.724,0.576c-0.181,0.147-0.356,0.299-0.532,0.45h-0.001
			c-0.45,0.382-0.887,0.781-1.317,1.184c-0.66,0.614-1.303,1.25-1.92,1.912c-0.067,0.072-0.13,0.148-0.196,0.221
			c-0.559,0.608-1.097,1.238-1.616,1.885c-0.168,0.208-0.335,0.417-0.5,0.63c-0.116,0.15-0.23,0.303-0.345,0.456
			c-0.138,0.185-0.281,0.365-0.417,0.553c-0.002,0.003-0.005,0.007-0.007,0.01c-0.343,0.478-0.676,0.964-0.999,1.46l0,0
			c-0.084,0.129-0.157,0.269-0.24,0.399c-0.348,0.549-0.685,1.106-1.007,1.675c-0.062,0.111-0.132,0.217-0.193,0.329
			c-0.439,0.796-0.854,1.611-1.24,2.446c-0.036,0.078-0.071,0.157-0.107,0.236c-0.265,0.581-0.514,1.172-0.751,1.771
			c-0.073,0.185-0.148,0.368-0.219,0.555c0,0.001,0,0.002-0.001,0.003c-0.28,0.739-0.545,1.488-0.782,2.253
			c-0.051,0.165-0.091,0.331-0.14,0.496c-0.328,1.112-0.614,2.227-0.838,3.343c4.542,3.035,11.536,6.531,20.026,9.971
			C48.032,40.013,47.878,38.982,47.763,37.943z"/>
		<path opacity="0.15" fill="#1D1D1B" enable-background="new    " d="M74.729,70.603c-2.526-0.781-4.917-1.802-7.15-3.023
			c-4.454-2.438-8.29-5.686-11.384-9.493c-3.047-1.046-6.013-2.142-8.896-3.272c-3.385-1.33-6.651-2.711-9.771-4.131
			c-3.282-1.496-6.401-3.035-9.344-4.6c0.161,0.814,0.344,1.625,0.557,2.425c0.022,0.089,0.048,0.175,0.071,0.261
			c0.173,0.633,0.362,1.262,0.566,1.885c0.03,0.094,0.061,0.187,0.092,0.279c0.231,0.686,0.479,1.364,0.746,2.035v0.001
			c0.929,0.5,1.846,1.03,2.782,1.513c-0.938-0.481-1.854-1.013-2.782-1.513c3.124,7.806,8.765,14.537,16.251,18.939
			c2.528,1.487,5.26,2.717,8.184,3.622c0.034,0.011,0.068,0.019,0.104,0.029c0.013,0.004,0.023,0.006,0.037,0.01
			c0.694,0.213,1.392,0.4,2.089,0.572c0.079,0.02,0.158,0.035,0.237,0.055c0.1,0.022,0.198,0.044,0.299,0.066
			c0.543,0.125,1.086,0.242,1.629,0.344c0.039,0.008,0.079,0.014,0.118,0.021c0.172,0.031,0.344,0.06,0.515,0.089
			c0.524,0.088,1.049,0.167,1.572,0.233c0.204,0.024,0.408,0.05,0.61,0.071c0.542,0.061,1.083,0.107,1.624,0.145
			c0.177,0.012,0.353,0.025,0.527,0.034c0.601,0.032,1.199,0.049,1.797,0.053c0.113,0.001,0.227,0.005,0.339,0.005
			c2.19-0.005,4.359-0.197,6.487-0.566c0.02-0.004,0.038-0.008,0.059-0.012c0.487-0.085,0.976-0.175,1.458-0.279
			c0.07-0.015,0.142-0.03,0.212-0.047c0.562-0.125,1.121-0.26,1.676-0.408c0.052-0.014,0.103-0.028,0.153-0.043
			c0.573-0.156,1.144-0.325,1.707-0.508c0.033-0.011,0.065-0.021,0.099-0.031c0.582-0.19,1.16-0.394,1.73-0.61
			c0.018-0.006,0.033-0.013,0.05-0.019c0.587-0.225,1.168-0.461,1.742-0.713c0.004-0.002,0.007-0.004,0.012-0.004
			c1.169-0.513,2.312-1.082,3.424-1.705C81.563,72.204,78.129,71.655,74.729,70.603z"/>
	</g>
</g>
</svg>
