<?xml version="1.0" encoding="utf-8"?>
<!-- Generator: Adobe Illustrator 16.0.4, SVG Export Plug-In . SVG Version: 6.00 Build 0)  -->
<!DOCTYPE svg PUBLIC "-//W3C//DTD SVG 1.1//EN" "http://www.w3.org/Graphics/SVG/1.1/DTD/svg11.dtd">
<svg version="1.1" id="Layer_6" xmlns="http://www.w3.org/2000/svg" xmlns:xlink="http://www.w3.org/1999/xlink" x="0px" y="0px"
	 width="167px" height="233.484px" viewBox="0 0 167 233.484" enable-background="new 0 0 167 233.484" xml:space="preserve">
<g>
	<path fill="#DADADA" d="M70.984,146.713l0.185-0.674l6.557-15.628l11.488-27.396l0.74,0.198l0,0l0.314,0.084l0.005,0.001l0,0
		l1.106,0.292l0,0l4.842,1.276l-18.535,44.181c-1.762,4.199-5.411,7.014-9.543,7.922l2.23-8.067L70.984,146.713z"/>
	<path fill="#DADADA" d="M104.658,84.563c-0.029-0.048-0.062-0.086-0.09-0.136c-1.215-1.764-3.52-3.529-6.415-4.743
		c-1.358-0.569-2.715-0.968-3.993-1.171c-0.386-0.076-0.77-0.127-1.153-0.153c-0.01,0-0.02,0.001-0.029,0
		c0.441-2.354,0.449-2.385,0.845-3.63l0,0l1.602-3.819l-0.024-0.01c1.315-1.454,2.465-3.08,3.396-4.881l5.062,2.124
		c3.649,1.531,5.367,5.73,3.836,9.38l-2.962,7.06l-0.067-0.019L104.658,84.563z"/>
	<path fill="#DADADA" d="M36.732,80.836l0.286,0.169l0.654,0.386l-11.535,27.512l-2.245,5.35l0,0l-5.118,12.198l-0.494,1.125
		l-0.922,2.083l-1.059,2.406l-0.967,2.188l-0.38,0.861c-2.618-3.67-3.365-8.548-1.493-13.011L31.963,78l3.785,2.253L36.732,80.836z"
		/>
	<path fill="#DADADA" d="M56.212,54.46l-1.603,3.819c-0.61,1.152-0.628,1.184-1.993,3.139l-0.005-0.005
		c-0.288-0.256-0.592-0.494-0.917-0.716c-1.042-0.769-2.275-1.458-3.634-2.028c-2.712-1.138-5.383-1.54-7.447-1.287l2.854-6.802
		c1.531-3.651,5.731-5.368,9.381-3.836l4.492,1.883c-0.633,1.926-0.99,3.886-1.104,5.844L56.212,54.46z"/>
	<polygon fill="#DADADA" points="39.356,142.156 39.406,142.042 45.452,144.579 45.431,144.656 44.797,146.958 44.081,149.548 
		37.342,146.721 38.39,144.343 	"/>
	<path fill="#F6F6F6" d="M47.113,138.567l-1.661,6.012l-6.046-2.538l0.952-2.157l0.918-2.071l0.596-1.36L18.846,126.29l-0.071,0.162
		l5.118-12.198c7.341,5.082,15.174,9.375,23.615,12.917c8.661,3.635,17.95,6.475,27.987,8.559l2.231-5.317l-6.557,15.628
		l0.207-0.759L47.113,138.567z"/>
	<path fill="#F6F6F6" d="M26.138,108.903c14.729,10.431,31.648,17.492,51.588,21.508l11.488-27.396l-0.399-0.107l0,0l-0.004-0.001
		l-0.454-0.118l0.446-1.68c0.004-0.01-0.001-0.024,0.003-0.035l0.005-0.022c0.035-4.845,0.62-9.689,1.706-14.411
		c-0.46-0.341-0.868-0.699-1.247-1.059l-0.091,0.214L72.981,79c-1.169-0.362-2.33-0.766-3.468-1.25
		c-0.005-0.002-0.009-0.004-0.013-0.005c-0.005-0.003-0.009-0.004-0.013-0.005c-1.144-0.473-2.246-1.019-3.323-1.599l-16.198-6.796
		l0.086-0.206c-0.517-0.02-1.049-0.061-1.606-0.147c-2.612,4.088-5.664,7.908-9.103,11.331c-0.004,0.011-0.02,0.016-0.023,0.026
		l-0.886,1.497l-0.402-0.243l-0.361-0.212L26.138,108.903z M59.958,74.2l-0.456,3.362L51.656,76.5l0.456-3.363L59.958,74.2z
		 M55.567,81.282l-0.328,2.652l-0.969-0.121l0.328-2.65L55.567,81.282z M54.706,80.279l0.328-2.651l0.969,0.12l-0.328,2.651
		L54.706,80.279z M55.13,84.816l-0.327,2.652l-0.971-0.121l0.328-2.651L55.13,84.816z M71.213,89.084
		c-1.272,3.031-4.76,4.458-7.791,3.186c-3.032-1.272-4.458-4.76-3.186-7.792c1.271-3.031,4.759-4.458,7.791-3.186
		C71.058,82.564,72.484,86.052,71.213,89.084z M74.549,92.963l0.764,0.608l-1.663,2.09l-0.764-0.608L74.549,92.963z M75.103,92.267
		l1.662-2.091l0.765,0.609l-1.663,2.09L75.103,92.267z M77.319,89.478l1.661-2.09l0.766,0.607l-1.663,2.091L77.319,89.478z
		 M82.917,89.615l-6.256-4.854l2.081-2.682l6.254,4.854L82.917,89.615z M75.818,120.343c0.076-0.312,0.392-0.505,0.704-0.429
		c1.149,0.277,2.302,0.542,3.458,0.794c0.314,0.069,0.513,0.38,0.444,0.695c-0.068,0.313-0.378,0.513-0.693,0.443
		c-1.165-0.254-2.325-0.52-3.482-0.799c-0.031-0.008-0.061-0.018-0.089-0.03C75.901,120.909,75.75,120.626,75.818,120.343z
		 M39.197,110.034l1.763-4.202l0,0l7.425-17.699l5.087,2.134l0.252-2.036l0.97,0.12l-0.285,2.31l16.475,6.912l1.449-1.822
		l0.764,0.607l-1.276,1.606l5.075,2.129l-7.572,18.048c0.108-0.036,0.221-0.073,0.338-0.039c1.136,0.326,2.277,0.641,3.421,0.943
		c0.312,0.077,0.498,0.4,0.416,0.711c-0.083,0.312-0.401,0.498-0.713,0.416c-1.152-0.303-2.3-0.621-3.444-0.948
		c-0.023-0.007-0.044-0.015-0.065-0.023c-0.128-0.054-0.222-0.153-0.284-0.269l-1.284,3.062L39.197,110.034z M36.369,104.374
		c0.164-0.277,0.528-0.367,0.799-0.202c1.018,0.609,2.04,1.201,3.067,1.778c0.28,0.156,0.381,0.512,0.223,0.792
		c-0.146,0.263-0.464,0.367-0.734,0.253c-0.02-0.009-0.04-0.018-0.06-0.03c-1.037-0.582-2.069-1.179-3.094-1.792
		C36.293,105.008,36.203,104.65,36.369,104.374z M30.536,101.334c-0.268-0.182-0.337-0.543-0.157-0.811
		c0.182-0.267,0.546-0.338,0.81-0.155c0.984,0.665,1.971,1.312,2.964,1.945c0.272,0.172,0.352,0.533,0.179,0.804
		c-0.156,0.244-0.46,0.333-0.717,0.225c-0.03-0.012-0.06-0.027-0.089-0.045C32.523,102.658,31.527,102.004,30.536,101.334z"/>
	<path fill="#F6F6F6" d="M92.3,87.794l-2.094,7.963c0.248-2.831,0.687-5.655,1.315-8.437C91.77,87.486,92.033,87.646,92.3,87.794
		L92.3,87.794z"/>
	<path fill="#F6F6F6" d="M46.37,68.526c0.295,0.086,0.594,0.164,0.888,0.225c-1.55,2.408-3.267,4.711-5.123,6.882L46.37,68.526z"/>
	
		<rect x="74.981" y="91.037" transform="matrix(0.6226 -0.7826 0.7826 0.6226 -42.8206 94.2659)" fill="#9D9D9C" width="2.671" height="0.976"/>
	
		<rect x="73.611" y="92.977" transform="matrix(0.7824 0.6228 -0.6228 0.7824 74.8634 -25.625)" fill="#9D9D9C" width="0.976" height="2.671"/>
	
		<rect x="77.197" y="88.248" transform="matrix(0.6224 -0.7827 0.7827 0.6224 -39.8004 94.9716)" fill="#9D9D9C" width="2.672" height="0.977"/>
	<polygon fill="#9D9D9C" points="72.333,95.751 73.097,96.359 71.82,97.965 70.884,97.573 	"/>
	
		<rect x="54.019" y="78.525" transform="matrix(0.1228 -0.9924 0.9924 0.1228 -29.8591 124.2442)" fill="#9D9D9C" width="2.672" height="0.976"/>
	
		<rect x="53.146" y="85.594" transform="matrix(-0.1228 0.9924 -0.9924 -0.1228 146.6034 42.5854)" fill="#9D9D9C" width="2.672" height="0.977"/>
	
		<rect x="53.583" y="82.059" transform="matrix(-0.1229 0.9924 -0.9924 -0.1229 143.5887 38.1894)" fill="#9D9D9C" width="2.67" height="0.976"/>
	<polygon fill="#9D9D9C" points="53.725,88.232 54.694,88.352 54.409,90.662 53.473,90.268 	"/>
	
		<rect x="76.871" y="84.151" transform="matrix(-0.79 -0.6131 0.6131 -0.79 92.0561 203.224)" fill="#3E8DB8" width="7.917" height="3.393"/>
	
		<rect x="54.11" y="71.391" transform="matrix(-0.1344 0.9909 -0.9909 -0.1344 137.9732 30.1756)" fill="#3E8DB8" width="3.394" height="7.918"/>
	<path fill="#3E8DB8" d="M71.213,89.084c1.271-3.032-0.155-6.52-3.186-7.792c-3.032-1.272-6.52,0.154-7.791,3.186
		c-1.272,3.032,0.154,6.52,3.186,7.792C66.453,93.542,69.941,92.115,71.213,89.084z M63.169,85.708
		c-0.308,0.734-1.153,1.081-1.887,0.772c-0.733-0.308-1.079-1.152-0.771-1.886c0.309-0.734,1.152-1.08,1.886-0.771
		C63.132,84.13,63.477,84.975,63.169,85.708z M65.424,91.222c-0.308,0.734-1.153,1.08-1.886,0.771
		c-0.734-0.308-1.08-1.152-0.772-1.886c0.308-0.734,1.152-1.081,1.886-0.772C65.386,89.644,65.732,90.489,65.424,91.222z
		 M68.683,83.454c-0.309,0.734-1.153,1.08-1.888,0.772c-0.732-0.309-1.079-1.153-0.771-1.886c0.308-0.734,1.152-1.081,1.886-0.772
		C68.645,81.876,68.99,82.72,68.683,83.454z M70.938,88.967c-0.308,0.734-1.154,1.08-1.888,0.772
		c-0.732-0.309-1.079-1.154-0.771-1.887c0.309-0.734,1.152-1.08,1.886-0.772C70.899,87.39,71.244,88.233,70.938,88.967z"/>
	<circle fill="#35799E" cx="67.353" cy="82.897" r="1.441"/>
	<circle fill="#35799E" cx="64.095" cy="90.665" r="1.441"/>
	<circle fill="#35799E" cx="69.608" cy="88.41" r="1.442"/>
	<circle fill="#35799E" cx="61.84" cy="85.152" r="1.441"/>
	<path fill="#F6F6F6" d="M51.161,184.605c-4.197,1.357-8.334,2.893-12.389,4.624l7.885,23.349c0.626,1.847-0.097,3.891-1.749,4.931
		l-0.079,0.04c-2.992,1.89-4.429,5.49-3.531,8.913l0.593,2.277l21.288-6.521l-0.516-1.613c-0.095-0.298,0.069-0.617,0.367-0.711
		c0.297-0.094,0.616,0.069,0.712,0.367l0.519,1.618c0,0.002-0.002,0.005-0.001,0.008l10.724-3.285
		c-1.143-4.742-3.108-10.016-3.32-10.682l-8.972-26.532c-3.52,0.822-6.999,1.804-10.446,2.89l0.508,1.589
		c0.095,0.297-0.069,0.616-0.367,0.712c-0.135,0.043-0.272,0.034-0.392-0.017c-0.147-0.062-0.268-0.186-0.321-0.35L51.161,184.605z
		 M60.666,214.351c-0.095-0.298,0.069-0.618,0.368-0.713c0.297-0.096,0.616,0.069,0.713,0.367l1,3.128
		c0.095,0.297-0.071,0.617-0.368,0.712c-0.134,0.042-0.271,0.032-0.393-0.019c-0.146-0.061-0.268-0.185-0.32-0.35L60.666,214.351z
		 M58.667,208.097c-0.095-0.298,0.069-0.618,0.367-0.712c0.298-0.095,0.616,0.068,0.713,0.367l0.999,3.125
		c0.096,0.299-0.069,0.618-0.368,0.713c-0.133,0.042-0.271,0.032-0.391-0.017c-0.147-0.063-0.268-0.186-0.321-0.351L58.667,208.097z
		 M56.669,201.843c-0.096-0.297,0.069-0.616,0.367-0.712c0.297-0.094,0.617,0.069,0.712,0.367l0.999,3.127
		c0.095,0.298-0.069,0.618-0.367,0.712c-0.133,0.043-0.27,0.034-0.392-0.017c-0.147-0.062-0.268-0.186-0.32-0.35L56.669,201.843z
		 M54.671,195.591c-0.096-0.299,0.069-0.618,0.367-0.713c0.298-0.094,0.616,0.07,0.713,0.369l0.998,3.125
		c0.096,0.299-0.069,0.618-0.367,0.713c-0.133,0.042-0.272,0.032-0.392-0.017c-0.147-0.063-0.268-0.187-0.32-0.35L54.671,195.591z
		 M52.672,189.337c-0.096-0.297,0.069-0.618,0.367-0.712c0.298-0.095,0.618,0.068,0.713,0.367l0.999,3.127
		c0.095,0.297-0.069,0.616-0.367,0.712c-0.134,0.042-0.271,0.032-0.392-0.017c-0.148-0.063-0.268-0.186-0.321-0.35L52.672,189.337z"
		/>
	<path fill="#F6F6F6" d="M51.857,172.223c3.7,1.325,7.312,2.893,10.76,4.745l5.526-19.999l2.23-8.067
		c-3.935-0.817-7.903-1.371-11.889-1.707l-0.179,0.677c-0.081,0.303-0.391,0.483-0.692,0.402c-0.026-0.006-0.051-0.015-0.076-0.025
		c-0.256-0.107-0.401-0.391-0.328-0.667l0.13-0.49c-4.165-0.303-8.351-0.354-12.543-0.135l-0.717,2.59l-5.311,19.185
		c4.071,0.708,8.096,1.753,12.018,3.093c0.012-0.044,0.02-0.091,0.031-0.137l0.5-1.884c0.081-0.303,0.391-0.484,0.694-0.402
		c0.302,0.074,0.482,0.389,0.402,0.692l-0.5,1.885C51.894,172.06,51.878,172.142,51.857,172.223z M55.854,154.606
		c-0.257-0.108-0.402-0.392-0.328-0.667l0.84-3.172c0.081-0.303,0.39-0.483,0.693-0.402c0.307,0.077,0.482,0.39,0.402,0.692
		l-0.841,3.173c-0.08,0.302-0.391,0.482-0.692,0.402C55.902,154.625,55.877,154.616,55.854,154.606z M54.17,160.952
		c-0.256-0.108-0.401-0.39-0.328-0.667l0.841-3.172c0.081-0.303,0.391-0.483,0.692-0.402c0.303,0.08,0.483,0.389,0.403,0.692
		l-0.841,3.172c-0.081,0.303-0.391,0.483-0.694,0.402C54.22,160.97,54.195,160.962,54.17,160.952z M52.488,167.297
		c-0.256-0.107-0.401-0.391-0.328-0.667l0.841-3.174c0.08-0.302,0.39-0.482,0.692-0.403c0.307,0.079,0.483,0.391,0.404,0.693
		l-0.841,3.173c-0.081,0.302-0.39,0.482-0.693,0.403C52.537,167.317,52.512,167.308,52.488,167.297z"/>
	<path fill="#F6F6F6" d="M38.108,187.267l0.293,0.884c4.077-1.734,8.234-3.276,12.449-4.638c-0.043-0.16-0.097-0.32-0.136-0.482
		c-0.075-0.303,0.111-0.61,0.416-0.686c0.304-0.075,0.61,0.112,0.686,0.416c0.034,0.142,0.081,0.281,0.119,0.421
		c3.43-1.079,6.891-2.06,10.392-2.884l-0.287-0.844c-0.023-0.06-0.052-0.108-0.066-0.163l0.332-1.201
		c-3.438-1.865-7.044-3.44-10.739-4.767c-0.1,0.25-0.342,0.417-0.614,0.362c-0.038-0.008-0.073-0.018-0.107-0.033
		c-0.244-0.103-0.39-0.366-0.335-0.634c0.006-0.027,0.014-0.055,0.02-0.084c-3.937-1.352-7.978-2.396-12.061-3.099l-1.51,5.473
		C36.212,177.993,37.655,185.885,38.108,187.267z M50.086,176.354c0.016-0.312,0.284-0.552,0.596-0.535
		c0.312,0.016,0.552,0.282,0.535,0.596c-0.056,1.061-0.034,2.136,0.066,3.195c0.03,0.312-0.199,0.589-0.511,0.618
		c-0.096,0.009-0.188-0.007-0.271-0.042c-0.187-0.079-0.325-0.253-0.345-0.469C50.049,178.602,50.027,177.471,50.086,176.354z"/>
	<path fill="#F6F6F6" d="M45.431,144.656l0.021-0.077l1.661-6.012l24.263,6.713l-0.207,0.759l-0.185,0.674
		C62.579,144.957,54.019,144.278,45.431,144.656z"/>
	<path fill="#C6C6C6" d="M63.181,222.223c0.054,0.164,0.174,0.288,0.321,0.35c0.121,0.05,0.257,0.059,0.391,0.017
		c0.296-0.095,0.457-0.41,0.367-0.705l10.724-3.285c0.312,1.249,0.56,2.472,0.708,3.553c0.124,1.023-0.497,1.979-1.477,2.292
		l-28.819,8.946c-1.154,0.352-2.372-0.32-2.679-1.493l-0.824-3.159l21.288-6.521L63.181,222.223z"/>
	<path fill="#C6C6C6" d="M63.894,222.59c-0.134,0.042-0.271,0.033-0.391-0.017c-0.147-0.062-0.268-0.187-0.321-0.35l-0.001-0.006
		l-0.516-1.613c-0.095-0.298,0.069-0.617,0.367-0.711c0.297-0.094,0.616,0.069,0.712,0.367l0.519,1.618
		c0,0.002-0.002,0.005-0.001,0.008C64.351,222.18,64.19,222.495,63.894,222.59z"/>
	<path fill="#C6C6C6" d="M55.038,194.877c0.298-0.094,0.616,0.07,0.713,0.369l0.998,3.125c0.096,0.299-0.069,0.618-0.367,0.713
		c-0.133,0.042-0.272,0.032-0.392-0.017c-0.147-0.063-0.268-0.187-0.32-0.35l-0.999-3.127
		C54.575,195.292,54.74,194.973,55.038,194.877z"/>
	<path fill="#C6C6C6" d="M53.039,188.625c0.298-0.095,0.618,0.068,0.713,0.367l0.999,3.127c0.095,0.297-0.069,0.616-0.367,0.712
		c-0.134,0.042-0.271,0.032-0.392-0.017c-0.148-0.063-0.268-0.186-0.321-0.35l-0.999-3.127
		C52.577,189.04,52.742,188.719,53.039,188.625z"/>
	<path fill="#C6C6C6" d="M53.842,160.284l0.841-3.172c0.081-0.303,0.391-0.483,0.692-0.402c0.303,0.08,0.483,0.389,0.403,0.692
		l-0.841,3.172c-0.081,0.303-0.391,0.483-0.694,0.402c-0.024-0.006-0.049-0.014-0.074-0.025
		C53.915,160.843,53.77,160.562,53.842,160.284z"/>
	<path fill="#C6C6C6" d="M50.952,173.686c-0.038-0.008-0.073-0.018-0.107-0.033c-0.244-0.103-0.39-0.366-0.335-0.634
		c0.006-0.027,0.014-0.055,0.02-0.084c0.35,0.12,0.688,0.264,1.037,0.39C51.466,173.573,51.224,173.74,50.952,173.686z"/>
	<path fill="#C6C6C6" d="M51.319,169.804c0.081-0.303,0.391-0.484,0.694-0.402c0.302,0.074,0.482,0.389,0.402,0.692l-0.5,1.885
		c-0.021,0.081-0.037,0.163-0.057,0.244c-0.358-0.128-0.709-0.273-1.07-0.397c0.012-0.044,0.02-0.091,0.031-0.137L51.319,169.804z"
		/>
	<path fill="#C6C6C6" d="M52.386,186.577c-0.135,0.043-0.272,0.034-0.392-0.017c-0.147-0.062-0.268-0.186-0.321-0.35l-0.512-1.605
		c0.359-0.116,0.723-0.217,1.084-0.329l0.508,1.589C52.849,186.163,52.684,186.481,52.386,186.577z"/>
	<path fill="#C6C6C6" d="M61.033,213.638c0.297-0.096,0.616,0.069,0.713,0.367l1,3.128c0.095,0.297-0.071,0.617-0.368,0.712
		c-0.134,0.042-0.271,0.032-0.393-0.019c-0.146-0.061-0.268-0.185-0.32-0.35l-1-3.125C60.57,214.053,60.735,213.733,61.033,213.638z
		"/>
	<path fill="#C6C6C6" d="M59.035,207.385c0.298-0.095,0.616,0.068,0.713,0.367l0.999,3.125c0.096,0.299-0.069,0.618-0.368,0.713
		c-0.133,0.042-0.271,0.032-0.391-0.017c-0.147-0.063-0.268-0.186-0.321-0.351l-1-3.126
		C58.572,207.799,58.736,207.479,59.035,207.385z"/>
	<path fill="#C6C6C6" d="M57.036,201.131c0.297-0.094,0.617,0.069,0.712,0.367l0.999,3.127c0.095,0.298-0.069,0.618-0.367,0.712
		c-0.133,0.043-0.27,0.034-0.392-0.017c-0.147-0.062-0.268-0.186-0.32-0.35l-1-3.127C56.573,201.546,56.738,201.227,57.036,201.131z
		"/>
	<path fill="#C6C6C6" d="M50.714,183.031c-0.075-0.303,0.111-0.61,0.416-0.686c0.304-0.075,0.61,0.112,0.686,0.416
		c0.034,0.142,0.081,0.281,0.119,0.421c-0.361,0.114-0.726,0.214-1.084,0.331C50.807,183.353,50.753,183.193,50.714,183.031z"/>
	<path fill="#C6C6C6" d="M50.682,175.818c0.312,0.016,0.552,0.282,0.535,0.596c-0.056,1.061-0.034,2.136,0.066,3.195
		c0.03,0.312-0.199,0.589-0.511,0.618c-0.096,0.009-0.188-0.007-0.271-0.042c-0.187-0.079-0.325-0.253-0.345-0.469
		c-0.106-1.114-0.128-2.245-0.069-3.362C50.102,176.042,50.37,175.801,50.682,175.818z"/>
	<path fill="#C6C6C6" d="M52.16,166.631l0.841-3.174c0.08-0.302,0.39-0.482,0.692-0.403c0.307,0.079,0.483,0.391,0.404,0.693
		l-0.841,3.173c-0.081,0.302-0.39,0.482-0.693,0.403c-0.026-0.006-0.051-0.016-0.074-0.026
		C52.232,167.19,52.087,166.906,52.16,166.631z"/>
	<path fill="#C6C6C6" d="M55.526,153.939l0.84-3.172c0.081-0.303,0.39-0.483,0.693-0.402c0.307,0.077,0.482,0.39,0.402,0.692
		l-0.841,3.173c-0.08,0.302-0.391,0.482-0.692,0.402c-0.026-0.006-0.051-0.015-0.075-0.024
		C55.597,154.498,55.452,154.215,55.526,153.939z"/>
	<path fill="#C6C6C6" d="M58.306,147.872c-0.081,0.303-0.391,0.483-0.692,0.402c-0.026-0.006-0.051-0.015-0.076-0.025
		c-0.256-0.107-0.401-0.391-0.328-0.667l0.13-0.49c0.382,0.027,0.763,0.07,1.144,0.103L58.306,147.872z"/>
	<path fill="#3E8DB8" d="M51.935,183.182c3.43-1.079,6.891-2.06,10.392-2.884l0.365,1.088c-3.52,0.822-6.999,1.804-10.446,2.89
		c-0.361,0.112-0.725,0.213-1.084,0.329c-4.197,1.357-8.334,2.893-12.389,4.624l-0.371-1.078c4.077-1.734,8.234-3.276,12.449-4.638
		C51.209,183.396,51.574,183.296,51.935,183.182z"/>
	<path fill="#3E8DB8" d="M50.529,172.934c-3.937-1.352-7.978-2.396-12.061-3.099l0.302-1.103c4.071,0.708,8.096,1.753,12.018,3.093
		c0.36,0.125,0.712,0.27,1.07,0.397c3.7,1.325,7.312,2.893,10.76,4.745l-0.312,1.123c-3.438-1.865-7.044-3.44-10.739-4.767
		C51.217,173.198,50.879,173.054,50.529,172.934z"/>
	<path fill="#3E8DB8" d="M70.984,146.713l-0.611,2.189c-3.935-0.817-7.903-1.371-11.889-1.707c-0.381-0.033-0.762-0.076-1.144-0.103
		c-4.165-0.303-8.351-0.354-12.543-0.135l0.633-2.301C54.019,144.278,62.579,144.957,70.984,146.713z"/>
	<path fill="#F6F6F6" d="M3.24,175.203l-0.072-0.381l0.07,0.384l4.417,24.24c0.35,1.916-0.665,3.837-2.445,4.626l-0.084,0.026
		c-3.236,1.443-5.181,4.792-4.791,8.311l0.263,2.334v0.002l22.004-3.362l-0.277-1.67c-0.051-0.308,0.158-0.6,0.466-0.65
		c0.307-0.051,0.6,0.158,0.651,0.466l0.277,1.677c0.001,0.002-0.001,0.004-0.001,0.006l11.086-1.693
		c0.062,0.616,0.107,1.224,0.139,1.81c-0.031-0.585-0.076-1.189-0.136-1.806c-0.442-4.867-1.625-10.363-1.741-11.052l-5.027-27.556
		c-3.601,0.303-7.185,0.769-10.751,1.341l0.272,1.647c0.051,0.308-0.158,0.601-0.466,0.651c-0.108,0.017-0.217,0.002-0.311-0.037
		c-0.174-0.073-0.309-0.231-0.341-0.43l-0.274-1.664C11.818,173.159,7.501,174.079,3.24,175.203z M21.255,203.237
		c-0.051-0.309,0.158-0.601,0.466-0.651c0.31-0.05,0.601,0.159,0.652,0.466l0.534,3.238c0.052,0.31-0.157,0.601-0.466,0.652
		c-0.109,0.018-0.216,0.004-0.311-0.037c-0.174-0.073-0.307-0.23-0.34-0.43L21.255,203.237z M20.186,196.76
		c-0.051-0.31,0.158-0.601,0.466-0.651c0.31-0.05,0.601,0.158,0.652,0.466l0.535,3.239c0.051,0.308-0.158,0.6-0.466,0.65
		c-0.11,0.019-0.217,0.004-0.312-0.036c-0.173-0.072-0.307-0.23-0.339-0.43L20.186,196.76z M19.116,190.282
		c-0.051-0.309,0.158-0.6,0.466-0.651c0.309-0.051,0.601,0.158,0.652,0.466l0.536,3.238c0.051,0.31-0.158,0.601-0.466,0.652
		c-0.109,0.018-0.217,0.004-0.311-0.037c-0.175-0.073-0.308-0.231-0.341-0.43L19.116,190.282z M18.046,183.804
		c-0.051-0.308,0.158-0.6,0.467-0.65c0.309-0.049,0.6,0.158,0.651,0.466l0.536,3.237c0.051,0.31-0.159,0.602-0.467,0.652
		c-0.11,0.017-0.216,0.004-0.312-0.037c-0.174-0.073-0.307-0.231-0.339-0.43L18.046,183.804z M16.978,177.327
		c-0.053-0.309,0.157-0.6,0.466-0.651c0.308-0.051,0.601,0.158,0.65,0.466l0.536,3.238c0.051,0.309-0.158,0.601-0.466,0.651
		c-0.109,0.019-0.217,0.004-0.311-0.036c-0.175-0.074-0.308-0.23-0.341-0.43L16.978,177.327z"/>
	<path fill="#F6F6F6" d="M34.95,211.442c0-0.014,0-0.027-0.001-0.042C34.95,211.415,34.95,211.428,34.95,211.442z"/>
	<path fill="#F6F6F6" d="M9.264,218.938l-5.874,0.921c-0.598,0.093-1.174-0.073-1.618-0.413c0.443,0.337,1.018,0.501,1.613,0.411
		L9.264,218.938z"/>
	<path fill="#F6F6F6" d="M15.333,134.252l-0.38,0.861l-8.748,19.81l-0.328,0.76l0.334-0.76c3.924,1.291,7.753,2.908,11.438,4.803
		l0.823-1.923c0.123-0.287,0.445-0.405,0.744-0.297c0.288,0.123,0.421,0.456,0.298,0.744l-0.833,1.946
		c-0.012,0.025-0.02,0.052-0.032,0.077c3.471,1.848,6.817,3.925,9.961,6.259l-0.472,1.066c-3.131-2.344-6.471-4.427-9.935-6.276
		c-0.135,0.232-0.397,0.363-0.658,0.269c-0.01-0.002-0.02-0.006-0.029-0.011c-0.275-0.116-0.415-0.428-0.313-0.714
		c0.011-0.026,0.022-0.052,0.031-0.079c-3.698-1.909-7.544-3.528-11.481-4.817l-0.002,0.004l-2.29,5.196
		c-1.131,2.548-0.841,10.558-0.598,11.998l0.167,0.915c4.284-1.126,8.621-2.045,12.987-2.782c-0.02-0.165-0.048-0.331-0.064-0.495
		c-0.032-0.312,0.197-0.589,0.509-0.62c0.311-0.03,0.589,0.199,0.618,0.51c0.014,0.145,0.041,0.29,0.056,0.435
		c3.55-0.569,7.117-1.037,10.7-1.344l-0.16-0.879c-0.009-0.065-0.039-0.114-0.037-0.175l0.499-1.13l0.472-1.067l8.73-19.814
		l1.048-2.378c-3.077-2.731-6.3-5.27-9.646-7.632l-0.175,0.409c-0.123,0.286-0.453,0.419-0.74,0.299c0,0-0.001-0.001-0.003-0.001
		c-0.288-0.124-0.42-0.456-0.298-0.744l0.267-0.624c-3.354-2.314-6.829-4.457-10.435-6.391l-1.059,2.406L15.333,134.252z
		 M17.413,164.33c-0.21,1.045-0.345,2.112-0.398,3.172c-0.017,0.312-0.284,0.552-0.596,0.536c-0.068-0.004-0.132-0.018-0.189-0.043
		c-0.216-0.09-0.359-0.307-0.348-0.553c0.057-1.114,0.2-2.236,0.419-3.335c0.061-0.307,0.36-0.506,0.667-0.444
		C17.279,163.725,17.474,164.022,17.413,164.33z M24.938,142.718l1.292-3.018c0.123-0.286,0.453-0.419,0.742-0.299
		c0,0,0.001,0,0.002,0.001c0.288,0.123,0.421,0.456,0.298,0.743l-1.293,3.019c-0.123,0.286-0.453,0.419-0.739,0.299l-0.004-0.002
		C24.948,143.338,24.814,143.005,24.938,142.718z M22.353,148.752l1.292-3.018c0.123-0.286,0.453-0.419,0.741-0.299
		c0,0,0.002,0.001,0.004,0.001c0.287,0.123,0.42,0.456,0.296,0.744l-1.292,3.016c-0.123,0.287-0.453,0.42-0.742,0.299
		c0,0-0.001,0-0.002-0.001C22.362,149.373,22.229,149.04,22.353,148.752z M19.767,154.787l1.292-3.017
		c0.124-0.287,0.454-0.42,0.741-0.299c0,0,0.001,0,0.002,0.001c0.287,0.123,0.421,0.456,0.298,0.745l-1.293,3.017
		c-0.123,0.286-0.453,0.419-0.74,0.298l-0.002-0.001C19.775,155.407,19.643,155.074,19.767,154.787z"/>
	<path fill="#F6F6F6" d="M41.872,136.454l-0.596,1.36l-0.918,2.071l-0.952,2.157l-0.05,0.115
		c-6.464-5.649-13.508-10.533-21.075-14.581l0.494-1.125l0.071-0.162L41.872,136.454z"/>
	<path fill="#C6C6C6" d="M22.602,211.39c0.034,0.2,0.167,0.357,0.341,0.431c0.096,0.039,0.203,0.053,0.311,0.035
		c0.307-0.05,0.511-0.337,0.465-0.645l11.086-1.693c0.062,0.616,0.107,1.224,0.139,1.81c0.001,0.024,0.005,0.049,0.005,0.072
		c0.001,0.014,0.001,0.027,0.001,0.042c0.03,0.592,0.046,1.163,0.041,1.695c-0.026,1.029-0.781,1.885-1.795,2.054l-23.933,3.747
		l-5.879,0.919c-0.596,0.09-1.17-0.074-1.613-0.411c-0.443-0.338-0.755-0.851-0.821-1.454l-0.356-3.246l0.004-0.001l22.004-3.362
		V211.39z"/>
	<path fill="#C6C6C6" d="M23.254,211.856c-0.108,0.018-0.215,0.004-0.311-0.035c-0.174-0.074-0.307-0.231-0.341-0.431v-0.007
		l-0.277-1.67c-0.051-0.308,0.158-0.6,0.466-0.65c0.307-0.051,0.6,0.158,0.651,0.466l0.277,1.677
		c0.001,0.002-0.001,0.004-0.001,0.006C23.765,211.519,23.561,211.807,23.254,211.856z"/>
	<path fill="#C6C6C6" d="M18.474,157.804c0.123-0.287,0.445-0.405,0.744-0.297c0.288,0.123,0.421,0.456,0.298,0.744l-0.833,1.946
		c-0.012,0.025-0.02,0.052-0.032,0.077c-0.336-0.179-0.662-0.372-1-0.547L18.474,157.804z"/>
	<path fill="#C6C6C6" d="M21.059,151.77c0.124-0.287,0.454-0.42,0.74-0.299c0,0,0.002,0,0.004,0.001
		c0.287,0.123,0.421,0.456,0.298,0.745l-1.293,3.017c-0.123,0.286-0.453,0.419-0.739,0.299l-0.004-0.002
		c-0.289-0.123-0.422-0.456-0.298-0.743L21.059,151.77z"/>
	<path fill="#C6C6C6" d="M17.444,176.676c0.308-0.051,0.601,0.158,0.65,0.466l0.536,3.238c0.051,0.309-0.158,0.601-0.466,0.651
		c-0.109,0.019-0.217,0.004-0.311-0.036c-0.175-0.074-0.308-0.23-0.341-0.43l-0.534-3.239
		C16.925,177.019,17.135,176.728,17.444,176.676z"/>
	<path fill="#C6C6C6" d="M17.547,161.592c-0.01-0.002-0.02-0.006-0.029-0.011c-0.275-0.116-0.415-0.428-0.313-0.714
		c0.011-0.026,0.022-0.052,0.031-0.079c0.33,0.169,0.644,0.361,0.969,0.535C18.071,161.555,17.809,161.686,17.547,161.592z"/>
	<path fill="#C6C6C6" d="M23.645,145.735c0.123-0.286,0.453-0.419,0.741-0.299c0,0,0.002,0.001,0.004,0.001
		c0.287,0.123,0.42,0.456,0.296,0.744l-1.292,3.016c-0.123,0.287-0.453,0.42-0.741,0.3c0,0-0.002-0.001-0.004-0.002
		c-0.287-0.123-0.42-0.456-0.296-0.743L23.645,145.735z"/>
	<path fill="#C6C6C6" d="M21.722,202.585c0.31-0.05,0.601,0.159,0.652,0.466l0.534,3.238c0.052,0.31-0.157,0.601-0.466,0.652
		c-0.109,0.018-0.216,0.004-0.311-0.037c-0.174-0.073-0.307-0.23-0.34-0.43l-0.536-3.238
		C21.205,202.928,21.414,202.636,21.722,202.585z"/>
	<path fill="#C6C6C6" d="M15.955,170.806c-0.032-0.312,0.197-0.589,0.509-0.62c0.311-0.03,0.589,0.199,0.618,0.51
		c0.014,0.145,0.041,0.29,0.056,0.435c-0.373,0.061-0.748,0.107-1.12,0.17C16,171.136,15.971,170.97,15.955,170.806z"/>
	<path fill="#C6C6C6" d="M26.229,139.701c0.123-0.286,0.453-0.419,0.74-0.299c0,0,0.002,0,0.004,0.001
		c0.288,0.123,0.421,0.456,0.298,0.743l-1.293,3.019c-0.123,0.286-0.453,0.419-0.739,0.299l-0.004-0.002
		c-0.287-0.123-0.421-0.456-0.298-0.743L26.229,139.701z"/>
	<path fill="#C6C6C6" d="M19.582,189.631c0.309-0.051,0.601,0.158,0.652,0.466l0.536,3.238c0.051,0.31-0.158,0.601-0.466,0.652
		c-0.109,0.018-0.217,0.004-0.311-0.037c-0.175-0.073-0.308-0.231-0.341-0.43l-0.536-3.239
		C19.065,189.973,19.274,189.682,19.582,189.631z"/>
	<path fill="#C6C6C6" d="M20.652,196.108c0.31-0.05,0.601,0.158,0.652,0.466l0.535,3.239c0.051,0.308-0.158,0.6-0.466,0.65
		c-0.11,0.019-0.217,0.004-0.312-0.036c-0.173-0.072-0.307-0.23-0.339-0.43l-0.535-3.238
		C20.135,196.45,20.344,196.159,20.652,196.108z"/>
	<path fill="#C6C6C6" d="M17.094,174.555c-0.108,0.017-0.217,0.002-0.311-0.037c-0.174-0.073-0.309-0.231-0.341-0.43l-0.274-1.664
		c0.373-0.062,0.747-0.108,1.121-0.169l0.272,1.647C17.611,174.211,17.402,174.504,17.094,174.555z"/>
	<path fill="#C6C6C6" d="M18.514,183.154c0.309-0.049,0.6,0.158,0.651,0.466l0.536,3.237c0.051,0.31-0.159,0.602-0.467,0.652
		c-0.11,0.017-0.216,0.004-0.312-0.037c-0.174-0.073-0.307-0.231-0.339-0.43l-0.536-3.239
		C17.996,183.496,18.204,183.205,18.514,183.154z"/>
	<path fill="#C6C6C6" d="M16.419,168.038c-0.068-0.004-0.132-0.018-0.189-0.043c-0.216-0.09-0.359-0.307-0.348-0.553
		c0.057-1.114,0.2-2.236,0.419-3.335c0.061-0.307,0.36-0.506,0.667-0.444c0.311,0.062,0.505,0.36,0.444,0.667
		c-0.21,1.045-0.345,2.112-0.398,3.172C16.998,167.814,16.731,168.054,16.419,168.038z"/>
	<path fill="#C6C6C6" d="M28.568,137.12c-0.123,0.286-0.453,0.419-0.739,0.299c0,0-0.002-0.001-0.004-0.001
		c-0.288-0.124-0.42-0.456-0.298-0.744l0.267-0.624c0.317,0.22,0.634,0.439,0.949,0.661L28.568,137.12z"/>
	<path fill="#3E8DB8" d="M17.139,171.13c3.55-0.569,7.117-1.037,10.7-1.344l0.001-0.001l0.205,1.129H28.04
		c-3.601,0.303-7.185,0.769-10.751,1.341c-0.374,0.061-0.748,0.107-1.121,0.169c-4.35,0.734-8.667,1.653-12.928,2.778l-0.072-0.381
		l-0.139-0.739h0.001c4.286-1.126,8.622-2.045,12.988-2.782C16.391,171.237,16.766,171.191,17.139,171.13z"/>
	<path fill="#3E8DB8" d="M17.651,159.727c0.338,0.175,0.664,0.368,1,0.547c3.471,1.848,6.817,3.925,9.961,6.259l-0.472,1.066
		c-3.131-2.344-6.471-4.427-9.935-6.276c-0.325-0.174-0.64-0.366-0.969-0.535c-3.698-1.909-7.544-3.528-11.481-4.817H5.753
		l0.125-0.286l0.334-0.76C10.136,156.214,13.966,157.832,17.651,159.727z"/>
	<path fill="#3E8DB8" d="M39.356,142.156l-0.966,2.187c-3.077-2.731-6.3-5.27-9.646-7.632c-0.315-0.222-0.632-0.441-0.949-0.661
		c-3.354-2.314-6.829-4.457-10.435-6.391l0.922-2.083C25.848,131.624,32.892,136.507,39.356,142.156z"/>
	<polygon fill="#DADADA" points="68.991,118.933 67.707,121.995 68.991,118.933 	"/>
	<path fill="#DADADA" d="M69.323,118.143L69.323,118.143l7.572-18.048l-5.075-2.129l-0.937-0.392l-16.475-6.912l-0.937-0.394
		l-5.087-2.134l-7.425,17.699l28.509,11.961L69.323,118.143z M46.438,104.01l11.662,4.892l-0.393,0.935l-11.661-4.893L46.438,104.01
		z M59.493,105.581l-0.392,0.934l-11.661-4.892l0.392-0.935L59.493,105.581z M49.226,97.366l11.661,4.893l-0.392,0.935L48.833,98.3
		L49.226,97.366z M62.28,98.937l-0.392,0.934l-11.661-4.893l0.392-0.934L62.28,98.937z M65.136,109.534
		c0.82,0.375,1.181,1.343,0.806,2.163c-0.376,0.821-1.344,1.181-2.164,0.806c-0.821-0.375-1.181-1.343-0.806-2.164
		C63.346,109.518,64.315,109.158,65.136,109.534z M66.32,106.335c-1.463-0.668-2.105-2.396-1.437-3.859
		c0.669-1.461,2.396-2.105,3.859-1.437c1.463,0.668,2.106,2.396,1.437,3.859C69.511,106.361,67.783,107.004,66.32,106.335z"/>
	<path fill="#C6C6C6" d="M47.508,127.169c-8.441-3.541-16.274-7.834-23.615-12.917l0,0l2.245-5.35
		c14.729,10.431,31.648,17.492,51.588,21.508l-2.231,5.317C65.458,133.644,56.169,130.805,47.508,127.169z"/>
	<path fill="#B2B2B2" d="M37.168,104.172c1.018,0.609,2.04,1.201,3.067,1.778c0.28,0.156,0.381,0.512,0.223,0.792
		c-0.146,0.263-0.464,0.367-0.734,0.253c-0.02-0.009-0.04-0.018-0.06-0.03c-1.037-0.582-2.069-1.179-3.094-1.792
		c-0.277-0.166-0.368-0.524-0.201-0.8C36.533,104.097,36.897,104.006,37.168,104.172z"/>
	<path fill="#B2B2B2" d="M30.379,100.523c0.182-0.267,0.546-0.338,0.81-0.155c0.984,0.665,1.971,1.312,2.964,1.945
		c0.272,0.172,0.352,0.533,0.179,0.804c-0.156,0.244-0.46,0.333-0.717,0.225c-0.03-0.012-0.06-0.027-0.089-0.045
		c-1.002-0.638-1.999-1.292-2.99-1.962C30.268,101.152,30.199,100.791,30.379,100.523z"/>
	<path fill="#B2B2B2" d="M76.522,119.914c1.149,0.277,2.302,0.542,3.458,0.794c0.314,0.069,0.513,0.38,0.444,0.695
		c-0.068,0.313-0.378,0.513-0.693,0.443c-1.165-0.254-2.325-0.52-3.482-0.799c-0.031-0.008-0.061-0.018-0.089-0.03
		c-0.26-0.108-0.41-0.392-0.342-0.674C75.894,120.032,76.21,119.838,76.522,119.914z"/>
	<path fill="#B2B2B2" d="M69.323,118.143L69.323,118.143c0.108-0.036,0.221-0.073,0.338-0.039c1.136,0.326,2.277,0.641,3.421,0.943
		c0.312,0.077,0.498,0.4,0.416,0.711c-0.083,0.312-0.401,0.498-0.713,0.416c-1.152-0.303-2.3-0.621-3.444-0.948
		c-0.023-0.007-0.044-0.015-0.065-0.023c-0.128-0.054-0.222-0.153-0.284-0.269l0,0L69.323,118.143z"/>
	<circle fill="#F6F6F6" cx="67.531" cy="103.687" r="2.912"/>
	<circle fill="#F6F6F6" cx="64.456" cy="111.018" r="1.633"/>
	
		<rect x="55.747" y="90.635" transform="matrix(-0.387 0.9221 -0.9221 -0.387 167.4273 82.6154)" fill="#F6F6F6" width="1.013" height="12.646"/>
	
		<rect x="48.537" y="99.773" transform="matrix(0.9221 0.3869 -0.3869 0.9221 43.0716 -13.4159)" fill="#F6F6F6" width="12.647" height="1.013"/>
	
		<rect x="47.144" y="103.094" transform="matrix(0.9222 0.3868 -0.3868 0.9222 44.2375 -12.6172)" fill="#F6F6F6" width="12.646" height="1.014"/>
	
		<rect x="45.75" y="106.417" transform="matrix(0.9221 0.3869 -0.3869 0.9221 45.4245 -11.8198)" fill="#F6F6F6" width="12.645" height="1.013"/>
	<polygon fill="#C6C6C6" points="40.96,105.833 69.469,117.794 69.323,118.143 68.991,118.933 67.707,121.995 39.197,110.034 
		40.96,105.833 	"/>
	<path fill="#F6F6F6" d="M48.061,58.669c1.358,0.569,2.592,1.259,3.634,2.028c-1.282,2.792-2.768,5.486-4.436,8.054
		c-0.294-0.062-0.593-0.139-0.888-0.225l3.21-5.398l-9.369-5.577c-0.015-0.055-0.023-0.096-0.031-0.136
		c0.134-0.022,0.293-0.016,0.433-0.033C42.677,57.129,45.349,57.531,48.061,58.669z"/>
	<path fill="#F6F6F6" d="M52.611,61.413l0.003,0.004c-0.008,0.017-0.018,0.027-0.028,0.043
		C52.594,61.444,52.603,61.429,52.611,61.413z"/>
	<path fill="#F6F6F6" d="M52.921,62.304l-2.868,6.835c-0.517-0.02-1.049-0.061-1.606-0.147c1.528-2.4,2.904-4.9,4.109-7.472
		C52.663,61.789,52.805,62.039,52.921,62.304z"/>
	<path fill="#F6F6F6" d="M26.57,49.443l0.581,0.342c-0.203,0.161-0.39,0.314-0.572,0.486L26.57,49.443z"/>
	<path fill="#F6F6F6" d="M11.453,65.795l-0.973-0.58c-0.599-0.361-1.152-0.767-1.66-1.225c0.832,0.682,1.756,1.229,2.764,1.64
		C11.537,65.683,11.489,65.738,11.453,65.795z"/>
	<path fill="#F6F6F6" d="M38.435,81.846l-0.402-0.243c0.444-0.416,0.863-0.83,1.288-1.254L38.435,81.846z"/>
	<path fill="#F6F6F6" d="M42.11,75.661c-1.596,1.873-3.294,3.666-5.092,5.345l-0.286-0.169c2.108-4.817,3.333-9.992,3.664-15.234
		c0.178-2.678,0.11-5.386-0.184-8.051l9.369,5.577l-3.21,5.398l-4.234,7.107C42.13,75.644,42.126,75.654,42.11,75.661z"/>
	<path fill="#F6F6F6" d="M39.079,57.701c-0.024-0.292-0.06-0.589-0.12-0.886l-10.786-6.417c-0.541,0.438-1.059,0.883-1.571,1.344
		l0.038,3.775c0.057,5.958-4.719,10.837-10.666,10.897l-0.224,0.004c-1.05,0.015-2.06-0.126-3.013-0.404
		c-0.104,0.129-0.201,0.247-0.3,0.366L31.963,78l3.785,2.253c1.448-3.347,2.43-6.875,3.009-10.466
		c-0.034-0.008-0.07,0.006-0.102-0.007c-0.034-0.014-0.069-0.032-0.101-0.054l-1.403-0.96c-0.258-0.176-0.325-0.529-0.147-0.788
		c0.176-0.259,0.529-0.324,0.787-0.147l1.171,0.8c0.175-1.306,0.295-2.62,0.354-3.936C39.42,62.366,39.346,60.025,39.079,57.701z
		 M29.462,62.815c-0.154,0.226-0.443,0.306-0.686,0.203c-0.034-0.014-0.068-0.032-0.101-0.055l-2.825-1.934
		c-0.259-0.176-0.324-0.529-0.148-0.788c0.178-0.257,0.528-0.324,0.788-0.146l2.826,1.935C29.573,62.205,29.64,62.559,29.462,62.815
		z M35.114,66.685c-0.154,0.225-0.444,0.304-0.686,0.201c-0.035-0.014-0.07-0.033-0.102-0.055l-2.825-1.933
		c-0.257-0.177-0.324-0.53-0.147-0.789c0.177-0.257,0.526-0.323,0.788-0.146l2.825,1.935C35.224,66.072,35.29,66.426,35.114,66.685z
		"/>
	<polygon fill="#F6F6F6" points="4.61,24.147 4.6,22.913 4.61,22.918 4.616,24.147 	"/>
	<path fill="#F6F6F6" d="M23.238,47.456l3.311-0.306l-0.087-8.343l-0.118-11.23L15.55,27.564l0.005,0.175
		c0.007,0.312-0.241,0.572-0.554,0.579c-0.082,0.001-0.161-0.015-0.231-0.044c-0.2-0.083-0.344-0.278-0.349-0.51l-0.004-0.201
		l-9.774-0.01l0.16,21.643l2.968-0.278l0.005-0.01l7.1-0.667l-0.074-3.355c-0.008-0.314,0.241-0.572,0.554-0.581
		c0.315-0.008,0.571,0.242,0.579,0.554l0.072,3.276L23.238,47.456z M15.707,34.591c0.007,0.312-0.241,0.572-0.553,0.578
		c-0.083,0.001-0.161-0.014-0.231-0.044c-0.202-0.084-0.344-0.278-0.348-0.51l-0.077-3.423c-0.006-0.312,0.24-0.572,0.554-0.579
		c0.316-0.008,0.572,0.24,0.579,0.554L15.707,34.591z M15.858,41.437c0.007,0.313-0.241,0.572-0.554,0.579
		c-0.083,0.002-0.161-0.013-0.231-0.043c-0.202-0.083-0.344-0.279-0.348-0.511l-0.077-3.423c-0.006-0.312,0.242-0.572,0.554-0.579
		c0.316-0.007,0.572,0.241,0.58,0.554L15.858,41.437z"/>
	<path fill="#F6F6F6" d="M20.576,57.42l2.448,1.676c0.033,0.022,0.068,0.041,0.102,0.055c0.243,0.103,0.531,0.023,0.687-0.203
		c0.176-0.257,0.11-0.611-0.148-0.787l-2.269-1.553c1.694-1.667,3.418-3.3,5.205-4.867l0.038,3.775
		c0.057,5.958-4.719,10.837-10.666,10.897l-0.224,0.004c-1.05,0.015-2.06-0.126-3.013-0.404
		C15.204,63.027,17.833,60.168,20.576,57.42z"/>
	<path fill="#F6F6F6" d="M26.58,50.271l-0.009-0.828l-0.006-1.157l-1.675,0.157l-0.01-0.004L6.907,50.126l-2.089,0.205l0.04,5.412
		c0.033,3.171,1.425,6.003,3.621,7.945c0.115,0.108,0.222,0.203,0.341,0.301c0.832,0.682,1.756,1.229,2.764,1.64
		C16.131,60.091,21.156,54.937,26.58,50.271z M18.249,54.964c-0.169,0.15-0.403,0.182-0.597,0.1
		c-0.075-0.031-0.145-0.08-0.202-0.145c-0.81-0.909-1.444-1.943-1.883-3.076c-0.113-0.292,0.03-0.621,0.323-0.734
		c0.292-0.112,0.619,0.033,0.733,0.324c0.391,1.006,0.954,1.925,1.673,2.732C18.503,54.399,18.482,54.757,18.249,54.964z"/>
	<path fill="#F6F6F6" d="M23.208,13.174c-4.75,0.047-8.559,3.942-8.512,8.692l0.001,1.082l0.01,1.209l-10.092-0.01L4.61,22.918
		L4.509,9.041c-0.047-4.75,3.762-8.644,8.512-8.691L17.6,0.304c4.646-0.046,8.448,3.605,8.657,8.209l-2.899,4.66L23.208,13.174z"/>
	<path fill="#DADADA" d="M14.708,24.157l-0.01-1.209l-0.001-1.082c-0.047-4.75,3.762-8.646,8.512-8.692l0.149-0.001l-1.814,2.917
		l4.65,2.893l0.124-0.198l0.016,7.386l-0.021-2L14.708,24.157z"/>
	<path fill="#DADADA" d="M21.543,16.09l1.814-2.917l2.899-4.66l0.188-0.302c0.792-1.272,2.463-1.661,3.734-0.869l0.047,0.028
		c1.271,0.792,1.66,2.462,0.869,3.734l-4.778,7.68l-0.124,0.198L21.543,16.09z"/>
	<path fill="#C6C6C6" d="M15.518,26.04c-0.008-0.312-0.268-0.562-0.58-0.554c-0.312,0.006-0.561,0.267-0.553,0.579l0.033,1.498
		l-9.774-0.01l-0.017-1.776l-0.021-1.619l0.004-0.01h0.006l10.092,0.01l11.604,0.014l0.021,2l0.012,1.406L15.55,27.564L15.518,26.04
		z"/>
	<path fill="#3E8DB8" d="M52.551,61.51c0.001,0.004,0.004,0.008,0.005,0.01c-1.206,2.572-2.582,5.072-4.109,7.472
		c-2.612,4.088-5.664,7.908-9.103,11.331c-0.004,0.011-0.02,0.016-0.023,0.026c-0.425,0.424-0.844,0.838-1.288,1.254l-0.361-0.212
		l-0.654-0.386c1.798-1.679,3.497-3.472,5.092-5.345c0.016-0.007,0.02-0.017,0.025-0.027c1.856-2.171,3.572-4.474,5.123-6.882
		c1.668-2.568,3.154-5.263,4.436-8.054c0.325,0.222,0.629,0.46,0.917,0.716c-0.008,0.016-0.017,0.031-0.025,0.047
		C52.573,61.478,52.564,61.491,52.551,61.51z"/>
	<path fill="#C6C6C6" d="M38.554,69.726l-1.403-0.96c-0.258-0.176-0.325-0.529-0.147-0.788c0.176-0.259,0.529-0.324,0.787-0.147
		l1.171,0.8c-0.053,0.389-0.143,0.77-0.205,1.156c-0.034-0.008-0.07,0.006-0.102-0.007C38.621,69.766,38.585,69.748,38.554,69.726z"
		/>
	<path fill="#C6C6C6" d="M28.776,63.018c-0.034-0.014-0.068-0.032-0.101-0.055l-2.825-1.934c-0.259-0.176-0.324-0.529-0.148-0.788
		c0.178-0.257,0.528-0.324,0.788-0.146l2.826,1.935c0.257,0.175,0.324,0.529,0.146,0.786C29.308,63.042,29.019,63.122,28.776,63.018
		z"/>
	<path fill="#C6C6C6" d="M34.428,66.886c-0.035-0.014-0.07-0.033-0.102-0.055l-2.825-1.933c-0.257-0.177-0.324-0.53-0.147-0.789
		c0.177-0.257,0.526-0.323,0.788-0.146l2.825,1.935c0.257,0.175,0.323,0.529,0.147,0.788C34.96,66.909,34.669,66.989,34.428,66.886z
		"/>
	<path fill="#C6C6C6" d="M15.153,35.169c-0.083,0.001-0.161-0.014-0.231-0.044c-0.202-0.084-0.344-0.278-0.348-0.51l-0.077-3.423
		c-0.006-0.312,0.24-0.572,0.554-0.579c0.316-0.008,0.572,0.24,0.579,0.554l0.077,3.424C15.714,34.903,15.465,35.163,15.153,35.169z
		"/>
	<path fill="#C6C6C6" d="M14.802,44.885c-0.008-0.314,0.241-0.572,0.554-0.581c0.315-0.008,0.571,0.242,0.579,0.554l0.072,3.276
		l-1.13,0.105L14.802,44.885z"/>
	<path fill="#C6C6C6" d="M15.305,42.015c-0.083,0.002-0.161-0.013-0.231-0.043c-0.202-0.083-0.344-0.279-0.348-0.511l-0.077-3.423
		c-0.006-0.312,0.242-0.572,0.554-0.579c0.316-0.007,0.572,0.241,0.58,0.554l0.076,3.423C15.865,41.75,15.617,42.009,15.305,42.015z
		"/>
	<path fill="#C6C6C6" d="M23.813,58.948c-0.156,0.226-0.444,0.306-0.687,0.203c-0.034-0.015-0.069-0.033-0.102-0.055l-2.448-1.676
		c0.272-0.272,0.546-0.542,0.82-0.811l2.269,1.553C23.923,58.337,23.989,58.691,23.813,58.948z"/>
	<path fill="#C6C6C6" d="M17.652,55.064c-0.075-0.031-0.145-0.08-0.202-0.145c-0.81-0.909-1.444-1.943-1.883-3.076
		c-0.113-0.292,0.03-0.621,0.323-0.734c0.292-0.112,0.619,0.033,0.733,0.324c0.391,1.006,0.954,1.925,1.673,2.732
		c0.208,0.234,0.187,0.592-0.046,0.799C18.08,55.114,17.846,55.146,17.652,55.064z"/>
	<path fill="#C6C6C6" d="M14.938,25.486c0.312-0.009,0.572,0.242,0.58,0.554l0.033,1.524l0.005,0.175
		c0.007,0.312-0.241,0.572-0.554,0.579c-0.082,0.001-0.161-0.015-0.231-0.044c-0.2-0.083-0.344-0.278-0.349-0.51l-0.004-0.201
		l-0.033-1.498C14.377,25.753,14.625,25.492,14.938,25.486z"/>
	<path fill="#3E8DB8" d="M21.396,56.609c-0.274,0.269-0.548,0.539-0.82,0.811c-2.743,2.749-5.372,5.607-7.839,8.594
		c-0.104,0.129-0.201,0.247-0.3,0.366l-0.984-0.585c0.037-0.057,0.084-0.112,0.131-0.166c4.548-5.539,9.573-10.692,14.996-15.358
		c0.182-0.171,0.369-0.325,0.572-0.486l1.021,0.612c-0.541,0.438-1.059,0.883-1.571,1.344C24.814,53.309,23.09,54.942,21.396,56.609
		z"/>
	<polygon fill="#3E8DB8" points="24.879,48.439 6.907,50.126 4.818,50.332 4.803,49.195 7.771,48.917 7.776,48.907 14.876,48.24 
		16.006,48.135 23.238,47.456 26.549,47.149 26.564,48.286 24.889,48.443 	"/>
	<path fill="#3E8DB8" d="M40.396,65.602c-0.331,5.243-1.555,10.417-3.664,15.234l-0.984-0.584c1.448-3.347,2.43-6.875,3.009-10.466
		c0.062-0.387,0.152-0.768,0.205-1.156c0.175-1.306,0.295-2.62,0.354-3.936c0.105-2.328,0.03-4.669-0.236-6.994
		c-0.024-0.292-0.06-0.589-0.12-0.886l1.051,0.627l0.011,0.004c0.056-0.015,0.106-0.017,0.16-0.031
		c0.008,0.04,0.016,0.081,0.031,0.136C40.505,60.216,40.573,62.924,40.396,65.602z"/>
	<path fill="#F6F6F6" d="M104.445,84.499l-10.543-2.778L92.3,87.794c-0.267-0.149-0.53-0.308-0.778-0.473
		c0.665-2.989,1.544-5.938,2.639-8.808c1.278,0.204,2.635,0.602,3.993,1.171c2.896,1.213,5.2,2.979,6.415,4.743
		c-0.034,0.022-0.068,0.044-0.117,0.073L104.445,84.499z"/>
	<path fill="#F6F6F6" d="M90.517,86.641c-0.46-0.341-0.868-0.699-1.247-1.059l2.863-6.828c0.274-0.104,0.556-0.178,0.826-0.292
		c0.007-0.038,0.012-0.064,0.019-0.102c0.01,0.001,0.02,0,0.029,0C91.999,81.059,91.167,83.831,90.517,86.641z"/>
	<path fill="#F6F6F6" d="M121.801,111.402c-0.668-0.043-1.33-0.15-1.992-0.319l-1.091-0.288c0.016-0.066,0.021-0.137,0.027-0.208
		C119.728,111.011,120.749,111.282,121.801,111.402z"/>
	<path fill="#F6F6F6" d="M91.38,103.591l4.842,1.276l21.384,5.637l0.006,0.001c0.016-0.152,0.031-0.307,0.051-0.47
		c-0.865-0.486-1.675-1.107-2.399-1.867l-0.153-0.162c-4.124-4.287-3.989-11.11,0.302-15.246l2.721-2.619
		c-0.031-0.688-0.076-1.37-0.143-2.062l1.151,0.299c0.027,0.257,0.048,0.5,0.055,0.748l0.598-0.573h0.001l-0.007-0.001l-0.65-0.174
		l-1.153-0.299l-2.667-0.702c-0.034,0.17-0.089,0.331-0.156,0.487c-0.696,1.662-2.661,2.421-4.396,1.694
		c-1.589-0.666-2.427-2.357-2.008-3.913l-2.909-0.767l-1.117-0.294l-0.067-0.019l-0.005-0.002l0,0l0.01,0.005l1.185,0.312
		c-0.255,0.165-0.491,0.348-0.717,0.535c-1.844,1.438-3.566,3.026-5.154,4.73c-0.897,0.965-1.752,1.971-2.561,3.011l1.392,0.274
		c0.307,0.061,0.506,0.357,0.446,0.666c-0.061,0.307-0.358,0.505-0.665,0.445l-1.668-0.328c-0.038-0.008-0.076-0.02-0.111-0.034
		c-0.032-0.014-0.045-0.05-0.074-0.068C94.582,97.041,92.755,100.213,91.38,103.591z M108.226,95.86
		c0.06-0.307,0.358-0.507,0.665-0.447l3.359,0.661c0.308,0.062,0.507,0.357,0.446,0.665c-0.062,0.307-0.359,0.507-0.666,0.447
		l-3.358-0.661c-0.039-0.008-0.075-0.02-0.111-0.034C108.317,96.389,108.172,96.128,108.226,95.86z M101.507,94.538
		c0.06-0.307,0.357-0.507,0.664-0.447l3.359,0.661c0.311,0.061,0.507,0.358,0.447,0.665c-0.061,0.307-0.359,0.507-0.665,0.447
		l-3.359-0.661c-0.039-0.008-0.076-0.02-0.111-0.034C101.6,95.067,101.453,94.806,101.507,94.538z"/>
	<path fill="#F6F6F6" d="M88.809,101.112c-0.007,0.599-0.008,1.188,0.006,1.796l-0.004-0.001l-0.454-0.118l0.446-1.68
		c0.004-0.01-0.001-0.024,0.003-0.035l0.005-0.022c0,0.008,0,0.016,0,0.023C88.806,101.086,88.812,101.102,88.809,101.112z"/>
	<path fill="#F6F6F6" d="M90.199,95.834c-0.007-0.015-0.003-0.025,0.003-0.035c0-0.013,0.002-0.027,0.004-0.041l2.094-7.963l0,0
		l1.603-6.074l10.543,2.778l0.006,0.001h-0.001c-2.108,1.661-4.089,3.507-5.874,5.511c-3.508,3.909-6.342,8.409-8.303,13.288
		l-0.005-0.001l-0.314-0.084C89.891,100.754,89.981,98.286,90.199,95.834z"/>
	<polygon fill="#F6F6F6" points="154.105,85.636 154.116,85.641 153.229,86.498 153.224,86.492 	"/>
	<path fill="#F6F6F6" d="M133.34,101.598l1.881,2.312l15.555-15.049l-6.856-6.967l-0.147,0.137c-0.167,0.158-0.407,0.195-0.607,0.11
		c-0.07-0.03-0.137-0.075-0.192-0.134c-0.214-0.228-0.202-0.587,0.026-0.801l0.126-0.119l-7.571-7.693l-8.095,7.786l-6.015,5.782
		l2.102,2.577l4.583,5.635l2.388-2.241c0.228-0.214,0.588-0.205,0.801,0.025c0.214,0.227,0.204,0.586-0.024,0.801l-2.446,2.297
		l4.499,5.533L133.34,101.598z M138.003,85.898l2.495-2.343c0.228-0.216,0.586-0.205,0.8,0.024c0.215,0.228,0.204,0.587-0.024,0.801
		l-2.496,2.344c-0.169,0.158-0.408,0.193-0.606,0.109c-0.071-0.03-0.138-0.075-0.194-0.134
		C137.763,86.471,137.774,86.112,138.003,85.898z M133.18,91.522c-0.071-0.03-0.138-0.074-0.193-0.134
		c-0.215-0.229-0.204-0.586,0.024-0.801l2.496-2.345c0.229-0.214,0.585-0.205,0.801,0.025c0.214,0.227,0.203,0.586-0.025,0.801
		l-2.496,2.344C133.618,91.571,133.379,91.606,133.18,91.522z"/>
	<path fill="#F6F6F6" d="M118.745,110.587c0.982,0.424,2.004,0.695,3.056,0.815c0.017,0.001,0.033,0.008,0.051,0.009
		c0.152,0.016,0.296,0.026,0.454,0.031c2.924,0.206,5.92-0.785,8.206-2.983l3.888-3.763l-1.317-1.634l-11.387-14.004l-0.011-0.005
		l-1.063-1.305l-0.827,0.806h-0.001l-0.598,0.573C119.666,96.266,119.51,103.462,118.745,110.587z M121.684,98.36
		c-0.016-0.313,0.227-0.579,0.538-0.594c1.08-0.052,2.131-0.295,3.122-0.721c0.285-0.123,0.619,0.009,0.744,0.296
		c0.123,0.289-0.01,0.622-0.296,0.745c-1.117,0.479-2.299,0.752-3.514,0.812c-0.088,0.004-0.171-0.012-0.247-0.043
		C121.837,98.772,121.695,98.584,121.684,98.36z"/>
	<path fill="#F6F6F6" d="M118.305,97.266l-2.697-0.531c-0.306-0.06-0.604,0.14-0.664,0.447c-0.053,0.269,0.094,0.529,0.337,0.631
		c0.033,0.015,0.071,0.026,0.11,0.034l2.91,0.573c-0.038,3.882-0.236,7.761-0.639,11.614c-0.865-0.486-1.675-1.107-2.399-1.867
		l-0.153-0.162c-4.124-4.287-3.989-11.11,0.302-15.246l2.721-2.619C118.266,92.514,118.308,94.89,118.305,97.266z"/>
	<path fill="#F6F6F6" d="M146.146,79.301l0.871-0.84l0.772-0.757c3.422-3.295,3.531-8.741,0.237-12.163l-0.104-0.107l1.293-5.334
		c3.432-3.077,8.7-2.921,11.923,0.426l3.175,3.298c3.296,3.422,3.186,8.868-0.236,12.163l-9.972,9.65l-0.882,0.856L146.146,79.301z"
		/>
	<path fill="#DADADA" d="M147.113,68.771l0.81-3.338l0.104,0.107c3.294,3.422,3.185,8.867-0.237,12.163l-0.772,0.757l-0.871,0.84
		l-8.14-8.27l-1.441,1.386l5.281-5.165l-0.056,0.229L147.113,68.771z"/>
	<path fill="#DADADA" d="M147.113,68.771l-5.323-1.29l0.056-0.229l2.132-8.79c0.353-1.455,1.817-2.349,3.272-1.996l0.055,0.013
		c1.454,0.353,2.348,1.818,1.994,3.273l-0.083,0.346l-1.293,5.334L147.113,68.771z"/>
	<path fill="#C6C6C6" d="M145.012,80.868c0.228-0.214,0.239-0.573,0.025-0.801c-0.213-0.23-0.574-0.239-0.802-0.025l-1.111,1.043
		l-7.571-7.693l1.012-0.976l1.441-1.386l8.14,8.27l7.078,7.191l0.005,0.005l-0.005,0.01l-1.169,1.12l-1.279,1.233l-6.856-6.967
		L145.012,80.868z"/>
	<path fill="#3E8DB8" d="M88.814,102.908c-0.014-0.608-0.013-1.197-0.006-1.796c0.004-0.01-0.003-0.026,0.002-0.037
		c0-0.008,0-0.016,0-0.023c0.035-4.845,0.62-9.689,1.706-14.411c0.65-2.811,1.482-5.583,2.49-8.281
		c0.384,0.026,0.768,0.077,1.153,0.153c-1.095,2.871-1.974,5.819-2.639,8.808c-0.629,2.781-1.067,5.605-1.315,8.437
		c-0.002,0.014-0.004,0.028-0.004,0.041c-0.006,0.01-0.01,0.021-0.003,0.035c-0.218,2.452-0.309,4.92-0.245,7.379l0,0l-0.74-0.198
		L88.814,102.908L88.814,102.908z"/>
	<path fill="#C6C6C6" d="M98.812,93.431c0.307,0.061,0.506,0.357,0.446,0.666c-0.061,0.307-0.358,0.505-0.665,0.445l-1.668-0.328
		c-0.038-0.008-0.076-0.02-0.111-0.034c-0.032-0.014-0.045-0.05-0.074-0.068c0.231-0.315,0.44-0.646,0.681-0.956L98.812,93.431z"/>
	<path fill="#C6C6C6" d="M108.891,95.413l3.359,0.661c0.308,0.062,0.507,0.357,0.446,0.665c-0.062,0.307-0.359,0.507-0.666,0.447
		l-3.358-0.661c-0.039-0.008-0.075-0.02-0.111-0.034c-0.243-0.102-0.389-0.363-0.335-0.631
		C108.285,95.553,108.584,95.353,108.891,95.413z"/>
	<path fill="#C6C6C6" d="M102.171,94.091l3.359,0.661c0.311,0.061,0.507,0.358,0.447,0.665c-0.061,0.307-0.359,0.507-0.665,0.447
		l-3.359-0.661c-0.039-0.008-0.076-0.02-0.111-0.034c-0.242-0.102-0.389-0.363-0.335-0.631
		C101.566,94.231,101.864,94.031,102.171,94.091z"/>
	<path fill="#C6C6C6" d="M130.516,92.932c0.228-0.214,0.588-0.205,0.801,0.025c0.214,0.227,0.204,0.586-0.024,0.801l-2.446,2.297
		l-0.718-0.882L130.516,92.932z"/>
	<path fill="#C6C6C6" d="M132.986,91.388c-0.215-0.229-0.204-0.586,0.024-0.801l2.496-2.345c0.229-0.214,0.585-0.205,0.801,0.025
		c0.214,0.227,0.203,0.586-0.025,0.801l-2.496,2.344c-0.168,0.158-0.407,0.193-0.606,0.109
		C133.108,91.492,133.042,91.448,132.986,91.388z"/>
	<path fill="#C6C6C6" d="M140.498,83.555c0.228-0.216,0.586-0.205,0.8,0.024c0.215,0.228,0.204,0.587-0.024,0.801l-2.496,2.344
		c-0.169,0.158-0.408,0.193-0.606,0.109c-0.071-0.03-0.138-0.075-0.194-0.134c-0.214-0.228-0.202-0.586,0.026-0.801L140.498,83.555z
		"/>
	<path fill="#C6C6C6" d="M115.28,97.812c-0.243-0.102-0.39-0.362-0.337-0.631c0.061-0.307,0.358-0.507,0.664-0.447l2.697,0.531
		c0,0.384,0,0.769-0.004,1.154l-2.91-0.573C115.352,97.839,115.313,97.827,115.28,97.812z"/>
	<path fill="#C6C6C6" d="M122.222,97.766c1.08-0.052,2.131-0.295,3.122-0.721c0.285-0.123,0.619,0.009,0.744,0.296
		c0.123,0.289-0.01,0.622-0.296,0.745c-1.117,0.479-2.299,0.752-3.514,0.812c-0.088,0.004-0.171-0.012-0.247-0.043
		c-0.194-0.083-0.336-0.271-0.348-0.495C121.668,98.046,121.91,97.781,122.222,97.766z"/>
	<path fill="#C6C6C6" d="M145.037,80.067c0.214,0.228,0.202,0.586-0.025,0.801l-1.093,1.025l-0.147,0.137
		c-0.167,0.158-0.407,0.195-0.607,0.11c-0.07-0.03-0.137-0.075-0.192-0.134c-0.214-0.228-0.202-0.587,0.026-0.801l0.126-0.119
		l1.111-1.043C144.463,79.828,144.824,79.837,145.037,80.067z"/>
	<path fill="#3E8DB8" d="M118.301,98.42c0.004-0.385,0.004-0.771,0.004-1.154c0.003-2.376-0.039-4.752-0.173-7.124
		c-0.031-0.688-0.076-1.37-0.143-2.062l1.151,0.299c0.027,0.257,0.048,0.5,0.055,0.748c0.471,7.14,0.314,14.335-0.45,21.46
		c-0.007,0.071-0.012,0.142-0.027,0.208v0.001l-1.106-0.292l0,0c0.016-0.152,0.031-0.307,0.051-0.47
		C118.064,106.181,118.263,102.302,118.301,98.42z"/>
	<polygon fill="#3E8DB8" points="121.695,89.058 121.685,89.052 120.621,87.748 121.443,86.961 123.545,89.538 128.128,95.173 
		128.846,96.055 133.345,101.587 133.34,101.598 135.221,103.91 134.399,104.696 133.082,103.062 	"/>
	<path fill="#3E8DB8" d="M104.45,84.502l0.001-0.002c0.049-0.028,0.083-0.051,0.117-0.073c0.028,0.049,0.061,0.088,0.09,0.136l0,0
		l0.01,0.005l1.185,0.312c-0.255,0.165-0.491,0.348-0.717,0.535c-1.844,1.438-3.566,3.026-5.154,4.73
		c-0.897,0.965-1.752,1.971-2.561,3.011c-0.24,0.31-0.449,0.641-0.681,0.956c-2.158,2.929-3.985,6.101-5.36,9.479l0,0l-1.106-0.292
		l0,0c1.961-4.879,4.795-9.378,8.303-13.288C100.361,88.007,102.342,86.161,104.45,84.502z"/>
	<path fill="#F6F6F6" d="M54.609,58.279L54.609,58.279l1.603-3.819l0.024,0.01c-0.173,2.982,0.232,5.946,1.161,8.759
		C56.232,61.61,55.274,59.937,54.609,58.279z"/>
	<path fill="#F6F6F6" d="M88.337,76.212c2.656-1.311,5.056-3.099,7.062-5.311l0.024,0.01l-1.602,3.819
		C92.173,75.417,90.308,75.906,88.337,76.212z"/>
	<path fill="#F6F6F6" d="M92.133,78.754l-2.863,6.828l-0.091,0.214L72.981,79C79.36,80.975,86.086,81.061,92.133,78.754z"/>
	<path fill="#F6F6F6" d="M66.165,76.141l-16.198-6.796l0.086-0.206l2.868-6.835C55.513,68.235,60.287,72.972,66.165,76.141z"/>
	<path fill="#F6F6F6" d="M88.337,76.212c-0.474,0.073-0.968,0.108-1.453,0.16l-0.062-1.596c6.512-1.723,10.184-6.737,12.24-11.642
		c3.792-9.04,0.845-21.576-12.088-27.002l-0.025-0.01c-12.934-5.427-23.943,1.254-27.736,10.293
		c-2.059,4.905-3.064,11.039,0.27,16.89l-1.183,1.074c-0.303-0.383-0.624-0.759-0.902-1.149c-0.928-2.813-1.334-5.777-1.161-8.759
		c0.114-1.958,0.471-3.917,1.104-5.844c0.191-0.583,0.39-1.165,0.631-1.741c4.814-11.477,17.073-18.654,30.008-13.227
		c0.006,0.002,0.01,0.004,0.014,0.006c0.005,0.001,0.009,0.002,0.013,0.004c12.938,5.429,16.404,19.203,11.59,30.68
		c-0.242,0.575-0.519,1.125-0.801,1.671c-0.931,1.801-2.08,3.427-3.396,4.881C93.393,73.113,90.993,74.901,88.337,76.212z"/>
	<path fill="#F6F6F6" d="M71.231,73.388l0.062,0.033l0.036,0.016l0.067,0.019c4.099,1.409,7.634,1.978,10.7,1.936l0.047,1.174
		c-3.966-0.124-7.937-0.888-11.182-2.268c-0.004-0.002-0.008-0.004-0.012-0.005c-0.005-0.003-0.009-0.004-0.015-0.007
		c-3.257-1.348-6.585-3.645-9.451-6.388l0.87-0.789C64.474,69.325,67.356,71.449,71.231,73.388z"/>
	<path fill="#3C3C3B" d="M86.818,74.713l0.003,0.062c6.512-1.723,10.184-6.737,12.24-11.642c3.792-9.04,0.845-21.576-12.088-27.002
		l-0.025-0.01c-12.934-5.427-23.943,1.254-27.736,10.293c-2.059,4.905-3.064,11.039,0.27,16.89l0.045-0.042l3.19,3.516l-0.364,0.329
		c2.12,2.216,5.002,4.34,8.877,6.279l0.062,0.033l0.036,0.016l0.067,0.019c4.099,1.409,7.634,1.978,10.7,1.936l-0.02-0.49
		L86.818,74.713z M71.764,72.384c-0.004-0.001-0.009-0.004-0.013-0.006c-0.004-0.001-0.008-0.002-0.013-0.004
		c-13.767-6.882-15.342-16.316-11.481-25.52c3.861-9.203,14.516-14.611,26.252-9.689c0.004,0.003,0.008,0.004,0.013,0.007
		c0.004,0.001,0.008,0.002,0.013,0.005C98.27,42.1,101.877,53.494,98.017,62.695C94.155,71.899,86.32,77.386,71.764,72.384z"/>
	<path fill="#575756" d="M98.017,62.695c3.86-9.202,0.253-20.595-11.481-25.518c-0.005-0.002-0.009-0.004-0.013-0.005
		c-0.005-0.003-0.009-0.004-0.013-0.007c-11.736-4.922-22.392,0.486-26.252,9.689c-3.861,9.203-2.286,18.638,11.481,25.52
		c0.005,0.001,0.009,0.002,0.013,0.004c0.004,0.002,0.009,0.005,0.013,0.006C86.32,77.386,94.155,71.899,98.017,62.695z
		 M72.697,70.308l-0.062-0.035l-0.069-0.02c-10.919-5.52-14.261-12.889-10.22-22.521c3.222-7.682,12.206-13.058,23.166-8.525
		l0.126,0.071l0.139,0.04C96.69,43.961,99.15,54.138,95.927,61.819C91.885,71.452,84.286,74.23,72.697,70.308z"/>
	<path fill="#1D1D1B" d="M72.697,70.308c11.589,3.922,19.188,1.145,23.23-8.489c3.224-7.681,0.764-17.857-10.149-22.502l-0.139-0.04
		l-0.126-0.071c-10.96-4.533-19.944,0.843-23.166,8.525c-4.041,9.632-0.7,17.002,10.22,22.521l0.069,0.02L72.697,70.308z
		 M69.128,45.837c-0.8,1.258-1.553,2.687-2.245,4.336c-0.504,1.201-0.89,2.445-1.178,3.696l-3.157-1.324
		c0.21-1.274,0.557-2.539,1.062-3.745c0.707-1.685,1.516-3.085,2.408-4.269L69.128,45.837z M82.272,66.297
		c2.361-1.82,4.293-4.473,5.786-8.032c0.974-2.318,1.469-4.839,1.439-7.368l4.895,2.053c0.44,2.636,0.138,5.271-0.847,7.616
		c-1.562,3.721-3.831,6.241-6.827,7.594L82.272,66.297z"/>
	<path fill="#1D1D1B" d="M65.705,53.87l-3.157-1.324c0.21-1.274,0.557-2.539,1.062-3.745c0.707-1.685,1.516-3.085,2.408-4.269
		l3.11,1.305c-0.8,1.258-1.553,2.687-2.245,4.336C66.379,51.374,65.994,52.618,65.705,53.87z"/>
	<path opacity="0.5" fill="#F6F6F6" d="M65.705,53.87l-3.157-1.324c0.21-1.274,0.557-2.539,1.062-3.745
		c0.707-1.685,1.516-3.085,2.408-4.269l3.11,1.305c-0.8,1.258-1.553,2.687-2.245,4.336C66.379,51.374,65.994,52.618,65.705,53.87z"
		/>
	<path fill="#1D1D1B" d="M88.058,58.265c0.974-2.318,1.469-4.839,1.439-7.368l4.895,2.053c0.44,2.636,0.138,5.271-0.847,7.616
		c-1.562,3.721-3.831,6.241-6.827,7.594l-4.446-1.864C84.633,64.477,86.565,61.824,88.058,58.265z"/>
	<path opacity="0.5" fill="#F6F6F6" d="M88.058,58.265c0.974-2.318,1.469-4.839,1.439-7.368l4.895,2.053
		c0.44,2.636,0.138,5.271-0.847,7.616c-1.562,3.721-3.831,6.241-6.827,7.594l-4.446-1.864
		C84.633,64.477,86.565,61.824,88.058,58.265z"/>
	<path fill="#DADADA" d="M92.133,78.754C86.086,81.061,79.36,80.975,72.981,79c-1.169-0.362-2.33-0.766-3.468-1.25
		c-0.005-0.002-0.009-0.004-0.013-0.005c-0.005-0.003-0.009-0.004-0.013-0.005c-1.144-0.473-2.246-1.019-3.323-1.599
		c-5.878-3.169-10.652-7.906-13.244-13.837c-0.116-0.265-0.258-0.515-0.365-0.784c-0.001-0.002-0.004-0.006-0.005-0.01
		c0.013-0.019,0.022-0.032,0.035-0.05c0.01-0.016,0.02-0.026,0.03-0.042c1.365-1.956,1.383-1.987,1.993-3.139l0,0
		c0.665,1.658,1.623,3.331,2.788,4.951c0.279,0.39,0.599,0.766,0.902,1.149l-1.33,1.205l3.188,3.516l1.326-1.203
		c2.866,2.743,6.194,5.041,9.451,6.388c0.006,0.003,0.01,0.004,0.015,0.007c0.004,0.001,0.008,0.002,0.012,0.005
		c3.246,1.379,7.216,2.144,11.182,2.268l0.07,1.789l4.743-0.188l-0.072-1.793c0.485-0.052,0.979-0.087,1.453-0.16
		c1.971-0.306,3.836-0.794,5.485-1.481l0,0c-0.396,1.245-0.403,1.276-0.845,3.63c-0.007,0.038-0.012,0.064-0.019,0.102
		C92.688,78.577,92.407,78.65,92.133,78.754z"/>
	<polygon fill="#706F6F" points="86.956,78.166 82.213,78.354 82.143,76.565 82.096,75.391 82.076,74.901 86.818,74.713 
		86.821,74.776 86.884,76.372 	"/>
	<polygon fill="#706F6F" points="62.718,66.78 62.354,67.109 61.483,67.898 60.158,69.101 56.97,65.584 58.299,64.379 
		59.482,63.305 59.528,63.264 	"/>
	<path fill="#DF4937" d="M110.765,89.558c-1.589-0.666-2.427-2.357-2.008-3.913l1.195,0.316c-0.28,0.989,0.244,2.081,1.268,2.51
		c1.108,0.465,2.37-0.024,2.813-1.08c0.044-0.105,0.078-0.213,0.1-0.327l1.184,0.312c-0.034,0.17-0.089,0.331-0.156,0.487
		C114.464,89.525,112.499,90.285,110.765,89.558z"/>
	<path fill="#F7C31E" d="M111.22,88.471c-1.023-0.429-1.548-1.521-1.268-2.51l4.181,1.104c-0.021,0.113-0.056,0.222-0.1,0.327
		C113.59,88.446,112.328,88.936,111.22,88.471z"/>
</g>
</svg>
