<?xml version="1.0" encoding="utf-8"?>
<!-- Generator: Adobe Illustrator 16.0.4, SVG Export Plug-In . SVG Version: 6.00 Build 0)  -->
<!DOCTYPE svg PUBLIC "-//W3C//DTD SVG 1.1//EN" "http://www.w3.org/Graphics/SVG/1.1/DTD/svg11.dtd">
<svg version="1.1" id="分離模式" xmlns="http://www.w3.org/2000/svg" xmlns:xlink="http://www.w3.org/1999/xlink" x="0px"
	 y="0px" width="160px" height="154.021px" viewBox="0 0 160 154.021" enable-background="new 0 0 160 154.021"
	 xml:space="preserve">
<g>
	<path fill="#EF494B" d="M159.677,72.592c0,0.815-0.659,1.474-1.474,1.474c0,0-28.563-1.786-44.955-1.786s-42.806,4.73-51.395,4.73
		c-14.46,0-44.354-2.944-44.354-2.944c-0.815,0-1.474-0.659-1.474-1.474V3.33c0-0.814,0.659-1.474,1.474-1.474
		c0,0,29.801,2.944,44.354,2.944c8.528,0,34.286-4.697,51.395-4.697s44.955,1.753,44.955,1.753c0.814,0,1.474,0.659,1.474,1.474
		V72.592z"/>
	<g>
		<defs>
			<path id="SVGID_1_" d="M159.677,72.592c0,0.815-0.659,1.474-1.474,1.474c0,0-28.563-1.786-44.955-1.786s-42.806,4.73-51.395,4.73
				c-14.46,0-44.354-2.944-44.354-2.944c-0.815,0-1.474-0.659-1.474-1.474V3.33c0-0.814,0.659-1.474,1.474-1.474
				c0,0,29.801,2.944,44.354,2.944c8.528,0,34.286-4.697,51.395-4.697s44.955,1.753,44.955,1.753c0.814,0,1.474,0.659,1.474,1.474
				V72.592z"/>
		</defs>
		<clipPath id="SVGID_2_">
			<use xlink:href="#SVGID_1_"  overflow="visible"/>
		</clipPath>
		<path opacity="0.15" clip-path="url(#SVGID_2_)" fill="#FFFFFF" d="M191.352-32.262C197.96,3.969,114.224,6.906,81.195,38.557
			C51.354,67.155-36.353,42.139-42.961,5.906C-49.563-30.327-53.13-63.95,20.56-77.382C94.242-90.813,184.749-68.497,191.352-32.262
			z"/>
	</g>
	<path fill="#779EAF" d="M11.873,4.525c-0.052-2.45-2.044-4.421-4.505-4.421S2.916,2.075,2.864,4.525H2.855v144.983
		c0,2.493,2.021,4.514,4.513,4.514c2.493,0,4.513-2.021,4.513-4.514V4.525H11.873z"/>
	<g>
		<defs>
			<rect id="SVGID_3_" x="7.368" y="-2.015" width="9.671" height="158.051"/>
		</defs>
		<clipPath id="SVGID_4_">
			<use xlink:href="#SVGID_3_"  overflow="visible"/>
		</clipPath>
		<path clip-path="url(#SVGID_4_)" fill="#608699" d="M11.873,4.525c-0.052-2.45-2.044-4.421-4.505-4.421S2.916,2.075,2.864,4.525
			H2.855v144.983c0,2.493,2.021,4.514,4.513,4.514c2.493,0,4.513-2.021,4.513-4.514V4.525H11.873z"/>
	</g>
	<path fill="#476B7B" d="M15.934,5.906H2.303C1.03,5.906,0,6.937,0,8.209c0,1.272,1.03,2.303,2.303,2.303h13.631
		c1.272,0,2.303-1.031,2.303-2.303C18.237,6.937,17.206,5.906,15.934,5.906z"/>
	<path fill="#476B7B" d="M15.934,67.155H2.303C1.03,67.155,0,68.186,0,69.458c0,1.272,1.03,2.303,2.303,2.303h13.631
		c1.272,0,2.303-1.03,2.303-2.303C18.237,68.186,17.206,67.155,15.934,67.155z"/>
</g>
</svg>
