<?xml version="1.0" encoding="utf-8"?>
<!-- Generator: Adobe Illustrator 16.0.4, SVG Export Plug-In . SVG Version: 6.00 Build 0)  -->
<!DOCTYPE svg PUBLIC "-//W3C//DTD SVG 1.1//EN" "http://www.w3.org/Graphics/SVG/1.1/DTD/svg11.dtd">
<svg version="1.1" id="栝鍣_3" xmlns="http://www.w3.org/2000/svg" xmlns:xlink="http://www.w3.org/1999/xlink" x="0px" y="0px"
	 width="1246.416px" height="40.182px" viewBox="0 0 1246.416 40.182" enable-background="new 0 0 1246.416 40.182"
	 xml:space="preserve">
<g>
	<path fill="#C81F25" d="M1164.16,40.182c-21.027,0-32.008-8.527-41.694-16.051c-9.237-7.174-17.961-13.949-35.562-13.949
		c-17.6,0-26.323,6.775-35.559,13.949c-9.688,7.524-20.667,16.051-41.693,16.051s-32.005-8.527-41.692-16.051
		c-9.235-7.173-17.959-13.949-35.558-13.949s-26.323,6.775-35.559,13.949c-9.687,7.524-20.666,16.051-41.693,16.051
		c-21.026,0-32.005-8.527-41.692-16.051c-9.236-7.173-17.959-13.949-35.558-13.949c-17.6,0-26.323,6.775-35.559,13.949
		c-9.687,7.523-20.666,16.051-41.692,16.051c-21.026,0-32.005-8.527-41.691-16.051c-9.236-7.173-17.959-13.949-35.557-13.949
		c-17.599,0-26.322,6.775-35.558,13.949c-9.687,7.524-20.666,16.051-41.692,16.051c-21.026,0-32.005-8.527-41.691-16.051
		c-9.236-7.173-17.959-13.949-35.558-13.949c-17.598,0-26.32,6.775-35.555,13.949c-9.687,7.524-20.665,16.051-41.69,16.051
		c-21.024,0-32.003-8.527-41.689-16.051c-9.234-7.173-17.958-13.949-35.555-13.949c-17.599,0-26.322,6.775-35.558,13.949
		c-9.687,7.524-20.666,16.051-41.692,16.051c-21.025,0-32.004-8.527-41.691-16.051c-9.236-7.173-17.959-13.949-35.558-13.949
		s-26.322,6.775-35.557,13.949c-9.686,7.524-20.665,16.051-41.691,16.051S50.661,31.654,40.974,24.13
		c-9.236-7.173-17.959-13.949-35.558-13.949c-2.762,0-5-2.238-5-5s2.238-5,5-5c21.026,0,32.005,8.527,41.692,16.051
		c9.235,7.173,17.958,13.949,35.557,13.949c17.598,0,26.321-6.775,35.557-13.949c9.687-7.524,20.665-16.051,41.691-16.051
		s32.005,8.527,41.691,16.051c9.236,7.173,17.959,13.949,35.557,13.949c17.599,0,26.322-6.775,35.558-13.949
		c9.687-7.524,20.666-16.051,41.692-16.051c21.025,0,32.003,8.528,41.689,16.051c9.235,7.173,17.958,13.949,35.554,13.949
		c17.598,0,26.32-6.775,35.556-13.949c9.686-7.524,20.665-16.051,41.689-16.051c21.026,0,32.005,8.527,41.691,16.051
		c9.236,7.173,17.959,13.949,35.558,13.949c17.599,0,26.323-6.775,35.559-13.949c9.687-7.524,20.666-16.051,41.692-16.051
		c21.025,0,32.004,8.527,41.691,16.051c9.236,7.173,17.959,13.949,35.558,13.949c17.599,0,26.323-6.775,35.559-13.949
		c9.687-7.524,20.666-16.051,41.693-16.051c21.026,0,32.005,8.527,41.692,16.051c9.236,7.173,17.959,13.949,35.558,13.949
		c17.6,0,26.323-6.775,35.559-13.949c9.687-7.523,20.666-16.051,41.692-16.051c21.027,0,32.005,8.527,41.693,16.051
		c9.235,7.173,17.959,13.949,35.558,13.949c17.6,0,26.323-6.775,35.559-13.949c9.688-7.524,20.667-16.051,41.693-16.051
		c21.027,0,32.008,8.527,41.695,16.051c9.236,7.174,17.96,13.949,35.561,13.949s26.324-6.775,35.561-13.949
		c9.688-7.523,20.668-16.051,41.695-16.051c2.762,0,5,2.238,5,5s-2.238,5-5,5c-17.601,0-26.324,6.775-35.561,13.949
		C1196.168,31.654,1185.188,40.182,1164.16,40.182z"/>
</g>
</svg>
