<?xml version="1.0" encoding="utf-8"?>
<!-- Generator: Adobe Illustrator 16.0.4, SVG Export Plug-In . SVG Version: 6.00 Build 0)  -->
<!DOCTYPE svg PUBLIC "-//W3C//DTD SVG 1.1//EN" "http://www.w3.org/Graphics/SVG/1.1/DTD/svg11.dtd">
<svg version="1.1" id="栝鍣_3" xmlns="http://www.w3.org/2000/svg" xmlns:xlink="http://www.w3.org/1999/xlink" x="0px" y="0px"
	 width="250px" height="10px" viewBox="498.208 -0.984 250 10" enable-background="new 498.208 -0.984 250 10" xml:space="preserve"
	>
<g>
	<path fill="#C81F25" d="M514.925,0.022c4.211,0,6.41,1.708,8.349,3.214c1.85,1.436,3.597,2.793,7.121,2.793
		c3.525,0,5.271-1.357,7.121-2.793c1.94-1.507,4.139-3.214,8.35-3.214c4.21,0,6.409,1.708,8.348,3.214
		c1.85,1.436,3.596,2.793,7.12,2.793s5.271-1.357,7.121-2.793c1.94-1.507,4.139-3.214,8.349-3.214c4.211,0,6.409,1.708,8.349,3.214
		c1.849,1.436,3.596,2.793,7.12,2.793c3.525,0,5.271-1.357,7.122-2.793c1.94-1.507,4.137-3.214,8.348-3.214s6.409,1.708,8.348,3.214
		c1.851,1.436,3.596,2.793,7.121,2.793c3.524,0,5.272-1.357,7.122-2.793c1.938-1.507,4.138-3.214,8.349-3.214
		c4.209,0,6.409,1.708,8.348,3.214c1.85,1.436,3.597,2.793,7.12,2.793s5.272-1.357,7.12-2.793c1.939-1.507,4.139-3.214,8.349-3.214
		s6.408,1.708,8.348,3.214c1.85,1.436,3.596,2.793,7.12,2.793c3.523,0,5.271-1.357,7.12-2.793c1.939-1.507,4.139-3.214,8.35-3.214
		c4.209,0,6.409,1.708,8.348,3.214c1.849,1.436,3.598,2.793,7.121,2.793c3.524,0,5.271-1.357,7.118-2.793
		c1.94-1.507,4.14-3.214,8.349-3.214c4.21,0,6.41,1.708,8.35,3.214c1.851,1.436,3.597,2.793,7.121,2.793
		c0.553,0,1.001,0.448,1.001,1.001c0,0.553-0.448,1.001-1.001,1.001c-4.213,0-6.41-1.708-8.35-3.213
		c-1.848-1.437-3.597-2.794-7.121-2.794c-3.523,0-5.27,1.357-7.12,2.794c-1.94,1.506-4.137,3.213-8.347,3.213
		c-4.212,0-6.408-1.708-8.349-3.213c-1.851-1.437-3.596-2.794-7.12-2.794s-5.271,1.357-7.121,2.794
		c-1.94,1.506-4.139,3.213-8.349,3.213s-6.409-1.708-8.347-3.213c-1.851-1.437-3.596-2.794-7.121-2.794
		c-3.523,0-5.27,1.357-7.12,2.794c-1.94,1.506-4.137,3.213-8.349,3.213c-4.21,0-6.407-1.708-8.348-3.213
		c-1.851-1.437-3.596-2.794-7.12-2.794s-5.27,1.357-7.121,2.794c-1.94,1.506-4.137,3.213-8.349,3.213
		c-4.209,0-6.408-1.708-8.348-3.213c-1.849-1.437-3.595-2.794-7.121-2.794c-3.522,0-5.272,1.357-7.119,2.794
		c-1.94,1.506-4.14,3.213-8.351,3.213c-4.21,0-6.408-1.708-8.348-3.213c-1.85-1.437-3.596-2.794-7.121-2.794
		s-5.271,1.357-7.12,2.794c-1.94,1.506-4.139,3.213-8.35,3.213c-4.21,0-6.409-1.708-8.348-3.213c-1.85-1.437-3.596-2.794-7.12-2.794
		c-3.525,0-5.271,1.357-7.121,2.794c-1.94,1.506-4.139,3.213-8.35,3.213c-4.21,0-6.41-1.708-8.349-3.213
		c-1.85-1.437-3.596-2.794-7.121-2.794c-3.524,0-5.271,1.357-7.121,2.794c-1.94,1.506-4.139,3.213-8.349,3.213
		c-0.553,0-1.001-0.448-1.001-1.001c0-0.554,0.448-1.001,1.001-1.001c3.524,0,5.271-1.357,7.121-2.793
		C508.516,1.729,510.714,0.022,514.925,0.022z"/>
</g>
</svg>
