<?xml version="1.0" encoding="utf-8"?>
<!-- Generator: Adobe Illustrator 16.0.4, SVG Export Plug-In . SVG Version: 6.00 Build 0)  -->
<!DOCTYPE svg PUBLIC "-//W3C//DTD SVG 1.1//EN" "http://www.w3.org/Graphics/SVG/1.1/DTD/svg11.dtd">
<svg version="1.1" id="layout" xmlns="http://www.w3.org/2000/svg" xmlns:xlink="http://www.w3.org/1999/xlink" x="0px" y="0px"
	 width="95px" height="32px" viewBox="0 0 95 32" enable-background="new 0 0 95 32" xml:space="preserve">
<g>
	<path fill-rule="evenodd" clip-rule="evenodd" fill="#FFFFFF" d="M82.477,16.091c-1.138,0.443-1.392,0.508-1.776,0.608
		c0,0-0.183,0.048-0.225,0.061c0.018,0.051,0.699,2.219,0.718,2.271c1.734-0.637,4.028-1.839,5.728-3.003
		c-0.004-0.03-0.183-2.181-0.188-2.276c-0.742,0.565-1.182,0.869-1.861,1.232l-0.041,0.023V7.31l1.753-0.006l0.013,0.1L86.6,7.431
		c0.285,3.059,0.968,6.078,1.875,8.284l0.007,0.012l-0.01,0.015c-0.425,0.539-1.672,1.965-3.212,3.095
		c0.767,0.617,1.596,1.16,1.856,1.397c1.098-0.969,1.895-1.746,2.431-2.37l0.024-0.026l0.021,0.03c0.819,1.2,1.81,1.867,2.718,1.837
		c0.682-0.023,1.12-0.454,1.434-1.389c0.21-0.74,0.317-1.278,0.483-2.802c-0.672-0.249-0.924-0.354-1.796-0.857
		c-0.068,1.796-0.176,2.439-0.411,2.446c-0.202,0.009-0.551-0.213-1.063-1.296l-0.002-0.014l0.006-0.011
		c1.678-2.575,2.385-6.201,2.485-6.561c-0.063-0.014-2.06-0.593-2.117-0.608c-0.007,0.048-0.314,2.51-1.299,4.562L90,13.234
		l-0.207-0.683c-0.472-1.58-0.726-3.04-0.906-5.194l-0.002-0.032V7.307h2.308c0.664,0,2.237,0.064,2.295,0.067V5.08
		C93.43,5.088,91.879,5.13,91.879,5.13s1.185-1.392,1.211-1.429c-0.788-0.903-1.27-1.316-2.407-2.172
		c-0.032,0.027-1.271,1.266-1.315,1.305c0.86,0.694,2.272,2.296,2.272,2.296h-2.999l-0.021-0.597
		c-0.044-1.286-0.026-1.882-0.044-3.267c-0.062,0-2.41,0.086-2.467,0.086c0.101,1.47,0.102,1.741,0.169,3.02l0.02,0.273L86.33,5.13
		h-1.024c-1.037,0-2.058,0.004-2.817-0.023c0.005,0.055,0.005,1.277,0.005,2.221v8.754L82.477,16.091z M22.807,11.368V8.997
		c-0.791,0.064-3.064,0.102-3.064,0.102h-4.205V5.516L15.56,5.51c3.5-0.409,5.82-0.836,6.532-1.246
		c-0.027-0.049-1.277-2.251-1.3-2.291c-2.194,1.148-4.875,1.321-7.399,1.53c0,0-0.254,0.017-0.298,0.021
		c0.003,0.051,0.101,3.542,0.101,3.542c0.021,0.973,0.033,1.885,0.033,2.734c0,6.978-0.216,9.177-3.747,11.709
		c0.761,0.524,1.219,1.07,1.651,1.633c3.109-2.023,4.382-4.951,4.382-11.566c0-0.08,0-0.273,0-0.273h2.25v8.416
		c0,0-0.053,2.745-0.113,3.479h2.607c-0.064-0.798-0.115-3.479-0.115-3.479V11.34C20.143,11.34,22.205,11.321,22.807,11.368z
		 M63.37,6.208c0,0,2.344,0.007,4.233,0.058V3.562c-1.826,0.042-3.862,0.048-4.233,0.048H52.166c-0.367,0-0.75-0.006-2.572-0.048
		v2.704c1.889-0.051,2.572-0.058,2.572-0.058H63.37z M44.068,3.94c-0.047-0.024-2.294-1.376-2.346-1.408
		c-0.742,1.642-1.857,3.224-3.613,5.174c0.039,0.037,1.676,1.515,1.712,1.552C41.276,7.81,42.597,6.498,44.068,3.94z M66.79,21.423
		c0,0,0.683,0.009,2.57,0.058V18.76c-1.822,0.041-2.204,0.047-2.57,0.047H50.316c-0.371,0-0.749-0.006-2.572-0.047v2.721
		c1.887-0.049,2.572-0.058,2.572-0.058H66.79z M53.823,10.689c-0.37,0-0.752-0.005-2.572-0.046v2.768
		c1.888-0.051,2.572-0.057,2.572-0.057h9.547c0,0,0.688,0.006,2.573,0.057v-2.768c-1.82,0.041-2.202,0.046-2.573,0.046H53.823z
		 M5.227,23.196h2.526c-0.055-0.733-0.076-4.555-0.076-4.555l-0.063-1.526l0.067,0.105c0.712,1.093,1.434,1.872,2.482,2.688
		c0.333-0.652,0.803-1.277,1.303-1.915c-1.728-1.209-3.043-2.859-3.043-2.859s1.202-0.025,3.356,0.06v-2.279
		c-0.051,0.002-4.009,0.06-4.009,0.06v-1.859c0,0,2.435-0.047,4.402,0.046V8.95C12.116,8.951,9.24,8.97,9.24,8.97
		c0.207-0.359,0.797-1.229,1.3-3.196l0.004-0.022c0,0,1.385,0.005,1.442,0.006V3.552C9.346,3.625,8.33,3.618,8.33,3.618L7.712,3.608
		v-0.03c0,0.03,0.006-1.275,0.073-2.095H5.233c0.059,0.82,0.079,2.134,0.079,2.134H4.74c0,0-1.259,0.019-3.797-0.031v2.172
		C1,5.757,2.556,5.754,2.556,5.754l0.009,0.02c0.718,1.458,1.193,3.204,1.193,3.204S0.575,8.951,0.529,8.95v2.191
		c1.637-0.076,4.703-0.025,4.703-0.025v1.859c0,0-3.865-0.001-4.443-0.051v2.264c1.219-0.088,3.716-0.054,3.716-0.054
		S3.36,17.662,0,20.056c0.554,0.494,1.054,0.961,1.428,1.795c0.941-0.445,2.855-2.035,3.788-4.174
		c0.083-0.187,0.101-0.309,0.114-0.347l0.005,0.422c-0.02,0.326-0.025,2.241-0.025,2.241S5.303,22.511,5.227,23.196z M4.936,5.742
		L4.919,5.706h3.342L8.25,5.74C8.098,6.321,7.742,7.584,6.976,8.966L6.968,8.978H5.993L5.988,8.957
		C5.781,8.141,5.515,7.25,4.936,5.742z M32.036,8.189c-1.188-2.469-1.775-3.752-3.273-5.652c-0.04,0.025-2.309,1.306-2.368,1.34
		c0.85,0.929,1.667,2.123,3.461,5.384C29.901,9.242,31.987,8.214,32.036,8.189z M81.501,20.793c-1.37-0.118-1.978-0.412-2.82-0.822
		l-0.093-0.049v-4.193h0.829c0,0,0.975,0,1.782,0.051v-2.231c-1.413,0.042-1.782,0.043-1.782,0.043h-0.829v-2.367h1.051
		c0,0,2.03,0.043,2.089,0.046V8.978c-0.059,0-2.127,0.056-2.127,0.056h-1.38V6.944c0,0,1.116-0.017,2.938,0.059V4.695
		c-2.054,0.092-2.938,0.059-2.938,0.059l0.009-1.812c0,0,0.058-1.506,0.061-1.562h-2.522c0.045,0.537,0.049,1.034,0.072,1.61
		l0.006,1.763c0,0-1.956,0.012-3.646-0.059v2.302c2.426-0.091,3.646-0.053,3.646-0.053v2.089h-2.085c0,0-0.04-0.002-2.324-0.063
		v2.312c2.122-0.055,2.309-0.057,2.309-0.057h2.462v7.083c0,0-1.112-0.886-1.641-1.703c0.071-0.689,0.073-0.968,0.077-1.319
		c0,0,0.094-2.02,0.102-2.064c-0.058,0-2.35-0.08-2.416-0.082c0.01,0.048,0.039,0.602,0.039,0.82c0,1.06-0.061,2.656-0.355,4.241
		c-0.28,1.397-0.568,2.652-1.222,3.876c0.648,0.266,1.13,0.496,2.145,1.139c0.653-1.432,0.995-2.626,1.329-4.082l0.014-0.059
		l0.035,0.046c1.184,1.602,2.503,2.618,3.922,3.233c1.47,0.633,3.637,0.893,7.474,0.893c3.719,0,5.837-0.028,7.55-0.093
		c0.117-0.948,0.253-1.369,0.711-2.524c-1.729,0.21-4.395,0.335-7.145,0.335C85.175,20.964,82.646,20.895,81.501,20.793z
		 M43.624,17.437c-0.001,0.075-0.031,1.096-0.031,1.096c-0.03,1.21-0.03,1.511-0.245,1.923l0,0
		c-0.195,0.409-0.594,0.594-2.276,0.594c-1.99,0-2.33-0.039-2.33-0.709v-8.258h4.436c0.213,0,1.161,0,2.577,0.074V9.76
		c-1.987,0.067-2.623,0.067-2.623,0.067h-6.468V3.984c0.002-0.585,0-0.897,0.093-2.463h-2.853c0.103,1.617,0.111,2.259,0.103,2.463
		v5.842h-6.973c0,0-0.745,0-2.485-0.056v2.369c1.653-0.045,2.466-0.057,2.538-0.057h4.337c0,0-0.051,1.266-0.122,1.738
		c-0.267,1.758-0.701,3.36-1.629,4.456c-1.099,1.299-2.75,2.255-5.521,2.993c0.029,0.04,0.9,1.305,1.423,2.274
		c1.63-0.55,2.989-1.009,4.142-1.893c1.802-1.357,2.871-2.854,3.466-4.854c0.48-1.479,0.611-2.749,0.68-4.69l0.002-0.025h2.342
		v8.778c0,2.026,1.584,2.437,4.427,2.437c2.9,0,3.488-0.143,4.144-0.672c0.827-0.663,1.042-1.41,1.261-4.415
		C45.159,18.034,44.751,17.922,43.624,17.437z"/>
	<path fill-rule="evenodd" clip-rule="evenodd" fill="#FFFFFF" d="M11.458,30.648h0.911v-4.581h-0.911V30.648z M9.089,27.92h-2.8
		c0-0.052,0-1.854,0-1.854h-0.89v4.581h0.89c0,0,0-1.931,0-1.981h2.8c0,0.051,0,1.981,0,1.981h0.907v-4.581H9.089
		C9.089,26.067,9.089,27.869,9.089,27.92z M21.084,30.648h0.891v-4.581h-0.891V30.648z M23.252,28.229
		c0.04-0.032,2.26-2.162,2.26-2.162h-1.068l-0.005,0.002c-0.007,0-0.02,0.008-2.26,2.137l-0.037,0.033l2.386,2.404l1.157,0.008
		l-0.046-0.044C25.62,30.582,23.471,28.449,23.252,28.229z M28.373,25.999c-1.773,0-2.562,0.728-2.562,2.365
		c0,1.619,0.813,2.369,2.562,2.369c1.737,0,2.546-0.75,2.546-2.369C30.919,26.726,30.132,25.999,28.373,25.999z M28.373,30.003
		c-1.19,0-1.632-0.445-1.632-1.64c0-0.615,0.116-1.016,0.366-1.264c0.252-0.254,0.653-0.373,1.266-0.373
		c0.609,0,1.007,0.116,1.251,0.365c0.245,0.247,0.359,0.649,0.359,1.271C29.984,29.558,29.547,30.003,28.373,30.003z M2.568,27.923
		c-0.616-0.129-1.152-0.239-1.152-0.613c0-0.372,0.43-0.596,1.152-0.596c0.476,0,0.93,0.075,1.469,0.246l0.055,0.017l0.126-0.699
		l-0.037-0.013C3.734,26.092,3.14,25.99,2.552,25.99c-1.471,0-1.992,0.704-1.992,1.36c0,0.932,0.956,1.143,1.802,1.329
		c0.634,0.142,1.183,0.262,1.183,0.65c0,0.435-0.446,0.691-1.193,0.691c-0.602,0-1.127-0.123-1.649-0.386l-0.059-0.029l-0.132,0.711
		l0.014,0.01c0.518,0.268,1.129,0.406,1.812,0.406c1.276,0,2.066-0.555,2.066-1.451C4.403,28.311,3.43,28.103,2.568,27.923z
		 M17.663,28.945c0,0,0.01,0.341,0.014,0.463c-0.06-0.076-0.166-0.199-0.319-0.366l-2.747-2.967l-0.774-0.008v4.581h0.816v-2.969
		c0,0-0.004-0.351-0.004-0.474c0.055,0.077,0.158,0.202,0.306,0.373l2.818,3.064l0.708,0.008v-4.584h-0.816V28.945z M68.647,28.742
		c0,0.84-0.476,1.25-1.452,1.25c-0.992,0-1.469-0.41-1.469-1.25v-2.675h-0.899v2.675c0,1.321,0.797,1.991,2.368,1.991
		c1.553,0,2.34-0.67,2.34-1.991v-2.675h-0.888V28.742z M75.237,26.067h-1.068l-0.004,0.002c-0.008,0-0.021,0.008-2.265,2.137
		l-0.033,0.033l2.382,2.404l1.161,0.008c0,0-2.395-2.384-2.43-2.422C73.015,28.197,75.237,26.067,75.237,26.067z M70.812,30.648
		h0.885v-4.581h-0.885V30.648z M83.541,27.923c-0.614-0.129-1.15-0.239-1.15-0.613c0-0.372,0.431-0.596,1.146-0.596
		c0.479,0,0.934,0.075,1.475,0.246l0.053,0.017l0.126-0.699l-0.037-0.013c-0.448-0.173-1.042-0.275-1.629-0.275
		c-1.47,0-1.995,0.704-1.995,1.36c0,0.932,0.956,1.143,1.804,1.329c0.635,0.142,1.184,0.262,1.184,0.65
		c0,0.435-0.444,0.691-1.193,0.691c-0.603,0-1.127-0.123-1.65-0.386l-0.057-0.029l-0.134,0.711l0.015,0.01
		c0.52,0.268,1.127,0.406,1.812,0.406c1.274,0,2.069-0.555,2.069-1.451C85.377,28.311,84.402,28.103,83.541,27.923z M78.11,25.999
		c-1.743,0-2.558,0.75-2.558,2.365c0,1.619,0.814,2.369,2.558,2.369c1.735,0,2.543-0.75,2.543-2.369
		C80.653,26.726,79.871,25.999,78.11,25.999z M78.11,30.003c-0.61,0-1.012-0.118-1.262-0.368c-0.252-0.255-0.369-0.659-0.369-1.271
		c0-0.615,0.117-1.016,0.369-1.264c0.25-0.254,0.651-0.373,1.262-0.373c0.612,0,1.011,0.116,1.251,0.365
		c0.247,0.247,0.359,0.649,0.359,1.271C79.72,29.558,79.286,30.003,78.11,30.003z M90.063,27.92h-2.805c0-0.052,0-1.854,0-1.854
		h-0.89v4.581h0.89c0,0,0-1.931,0-1.981h2.805c0,0.051,0,1.981,0,1.981h0.905v-4.581h-0.905
		C90.063,26.067,90.063,27.869,90.063,27.92z M92.373,30.648h0.912v-4.581h-0.912V30.648z M40.792,28.915c0,0,0.859,0,0.91,0v0.859
		c-0.327,0.139-0.809,0.22-1.294,0.222c-0.687,0.002-1.135-0.124-1.416-0.398c-0.266-0.255-0.386-0.652-0.386-1.242
		c0-1.175,0.524-1.633,1.877-1.633c0.58,0,1.329,0.11,1.696,0.362l0.056,0.039l0.179-0.705l-0.016-0.013
		c-0.447-0.293-1.326-0.427-1.954-0.423c-1.885,0.012-2.765,0.771-2.765,2.386c0,1.614,0.876,2.364,2.76,2.364
		c0.396,0,1.39-0.043,2.037-0.427l0.007-0.005l0.004-0.005c0.004-0.007,0.014-0.022,0.014-1.43v-0.062H42.5
		c0.001-0.075,0.001-0.231,0.001-0.547v-0.049h-1.71V28.915z M50.526,26.069c-0.009,0.006-0.024,0.016-1.782,3.155
		c0,0-0.191,0.37-0.233,0.448c-0.034-0.077-0.113-0.225-0.232-0.444h0.001c-0.004-0.007-0.063-0.114-1.73-3.136L46.54,26.08
		l-0.973-0.013v4.581h0.807v-2.887c0,0-0.002-0.272-0.004-0.415c0.064,0.135,0.164,0.325,0.19,0.372c0,0-0.001-0.005-0.004-0.009
		c0.009,0.021,0.117,0.211,1.638,2.916l0.01,0.013l0.581,0.01l0.006-0.002c0.011-0.008,0.024-0.013,1.826-3.283
		c0,0,0.019-0.034,0.033-0.067c-0.01,0.146-0.015,0.357-0.017,0.414v2.938h0.825v-4.581H50.53L50.526,26.069z M52.924,30.648h0.913
		v-4.581h-0.913V30.648z M61.955,27.923L61.955,27.923c-0.619-0.129-1.151-0.239-1.151-0.613c0-0.372,0.43-0.596,1.149-0.596
		c0.478,0,0.933,0.075,1.471,0.246l0.051,0.017l0.129-0.699l-0.035-0.013c-0.445-0.173-1.042-0.275-1.63-0.275
		c-1.473,0-1.994,0.704-1.994,1.36c0,0.932,0.953,1.143,1.8,1.329c0.638,0.142,1.188,0.262,1.188,0.65
		c0,0.435-0.447,0.691-1.195,0.691c-0.603,0-1.126-0.123-1.652-0.386l-0.056-0.029l-0.133,0.711l0.017,0.01
		c0.516,0.268,1.128,0.406,1.811,0.406c1.275,0,2.071-0.555,2.071-1.451C63.793,28.311,62.817,28.103,61.955,27.923z M35.809,28.945
		c0,0,0.01,0.341,0.014,0.463c-0.061-0.076-0.165-0.199-0.318-0.366c-0.016-0.018-2.714-2.929-2.741-2.959l-0.007-0.008
		l-0.774-0.008v4.581h0.816v-2.969c0,0-0.005-0.351-0.005-0.474c0.055,0.077,0.158,0.202,0.308,0.373l-0.005-0.008
		c0.008,0.013,0.149,0.164,2.815,3.062l0.008,0.01l0.707,0.008v-4.584h-0.818V28.945z M54.804,26.804h1.8c0,0.049,0,3.844,0,3.844
		h0.904c0,0,0-3.795,0-3.844h1.809v-0.737h-4.513V26.804z"/>
</g>
</svg>
