<?xml version="1.0" encoding="utf-8"?>
<!-- Generator: Adobe Illustrator 16.0.4, SVG Export Plug-In . SVG Version: 6.00 Build 0)  -->
<!DOCTYPE svg PUBLIC "-//W3C//DTD SVG 1.1//EN" "http://www.w3.org/Graphics/SVG/1.1/DTD/svg11.dtd">
<svg version="1.1" id="分離模式" xmlns="http://www.w3.org/2000/svg" xmlns:xlink="http://www.w3.org/1999/xlink" x="0px"
	 y="0px" width="137px" height="190.128px" viewBox="0 0 137 190.128" enable-background="new 0 0 137 190.128"
	 xml:space="preserve">
<g>
	<path fill="#F0AE34" d="M50.572,167.316c2.85,4.916,1.582,14.173,1.582,14.173s-8.664-3.498-11.515-8.413
		c-1.745-3.008-1.922-5.247-1.178-6.901l-0.735,0.427c-1.556,2.516-1.532,6.078,1.344,11.038
		c4.232,7.298,17.095,12.488,17.095,12.488s1.883-13.742-2.349-21.04c-2.877-4.959-5.957-6.75-8.914-6.648l-0.735,0.427
		C46.972,163.042,48.828,164.309,50.572,167.316z"/>
	<path fill="#F7F41E" d="M40.639,173.077c2.851,4.915,11.515,8.413,11.515,8.413s1.268-9.258-1.582-14.173
		c-1.745-3.007-3.601-4.274-5.406-4.45l-0.83,0.481c0.841,0.287,1.687,1.027,2.492,2.417c1.63,2.81,0.905,8.103,0.905,8.103
		s-4.955-2-6.584-4.81c-0.806-1.388-1.027-2.492-0.861-3.364l-0.829,0.481C38.716,167.83,38.894,170.069,40.639,173.077z"/>
	<path fill="#FFFFFF" d="M41.15,169.058c1.629,2.81,6.584,4.81,6.584,4.81s0.725-5.293-0.905-8.103
		c-0.805-1.39-1.651-2.13-2.492-2.417l-4.047,2.346C40.123,166.566,40.344,167.67,41.15,169.058z"/>
	<path fill="#F0AE34" d="M90.349,144.25c2.85,4.913,1.582,14.171,1.582,14.171s-8.665-3.497-11.515-8.41
		c-1.746-3.01-1.923-5.249-1.179-6.904l-0.734,0.427c-1.558,2.516-1.533,6.078,1.343,11.04c4.231,7.296,17.096,12.486,17.096,12.486
		s1.881-13.742-2.35-21.038c-2.876-4.962-5.957-6.752-8.914-6.651l-0.734,0.427C86.749,139.974,88.604,141.24,90.349,144.25z"/>
	<path fill="#F7F41E" d="M80.416,150.01c2.85,4.913,11.515,8.41,11.515,8.41s1.269-9.258-1.582-14.171
		c-1.746-3.01-3.601-4.276-5.407-4.452l-0.829,0.481c0.839,0.288,1.687,1.03,2.492,2.417c1.63,2.809,0.906,8.103,0.906,8.103
		s-4.956-1.999-6.586-4.81c-0.805-1.387-1.027-2.49-0.859-3.361l-0.83,0.479C78.492,144.761,78.67,147,80.416,150.01z"/>
	<path fill="#FFFFFF" d="M80.925,145.989c1.63,2.812,6.586,4.81,6.586,4.81s0.724-5.293-0.906-8.103
		c-0.805-1.388-1.652-2.13-2.492-2.417l-4.047,2.349C79.898,143.499,80.121,144.602,80.925,145.989z"/>
	<path fill="#F0AE34" d="M125.249,116.421l-0.734,0.427c1.806,0.176,3.661,1.442,5.405,4.452c2.852,4.913,1.583,14.171,1.583,14.171
		s-8.665-3.498-11.515-8.411c-1.746-3.01-1.923-5.249-1.179-6.903l-0.734,0.427c-1.558,2.517-1.533,6.078,1.343,11.04
		c4.231,7.296,17.096,12.486,17.096,12.486s1.881-13.742-2.35-21.038C131.286,118.11,128.206,116.32,125.249,116.421z"/>
	<path fill="#F7F41E" d="M126.177,119.747c1.63,2.81,0.904,8.103,0.904,8.103s-4.954-1.999-6.584-4.81
		c-0.805-1.387-1.027-2.49-0.859-3.364l-0.83,0.481c-0.744,1.655-0.566,3.894,1.179,6.903c2.85,4.913,11.515,8.411,11.515,8.411
		s1.269-9.258-1.583-14.171c-1.744-3.01-3.599-4.276-5.405-4.452l-0.829,0.481C124.524,117.617,125.372,118.357,126.177,119.747z"/>
	<path fill="#FFFFFF" d="M120.497,123.04c1.63,2.812,6.584,4.81,6.584,4.81s0.726-5.293-0.904-8.103
		c-0.805-1.39-1.652-2.13-2.492-2.417l-4.047,2.346C119.47,120.55,119.692,121.652,120.497,123.04z"/>
	<path fill="#0593A1" d="M82.655,96.441l0.512,0.882c-0.125-0.317-0.234-0.637-0.374-0.951c-0.006,0.004-0.012,0.01-0.021,0.014
		C82.734,96.409,82.693,96.419,82.655,96.441z"/>
	<path fill="#0593A1" d="M78.648,117.823l4.082-2.367c1.46-3.258,2.185-6.816,2.061-10.407l-11.076,6.424
		C75.372,113.325,77.039,115.451,78.648,117.823z"/>
	<path fill="#0593A1" d="M42.666,119.647c-0.045,0.026-0.096,0.039-0.143,0.065c0.205,0.281,0.432,0.536,0.648,0.805L42.666,119.647
		L42.666,119.647z"/>
	<path fill="#0593A1" d="M60.214,119.304l-11.144,6.462c3.055,1.889,6.503,3.03,10.056,3.378l4.148-2.405
		C62.014,124.164,60.997,121.662,60.214,119.304z"/>
	<polygon fill="#7BC9D1" points="0,0 16.285,32.126 19.796,30.089 	"/>
	<path fill="#BCF5E9" d="M68.422,71.902l-3.162-5.453l1.354,2.338L26.621,91.981L25,89.188l39.995-23.196l-13.474-23.23
		c-5.64-9.728-17.342-13.726-27.556-10.031l0.012,0.021l-7.46,4.324l-0.012-0.02c-8.28,7.031-10.62,19.173-4.979,28.9l15.833,27.3
		l39.995-23.194L68.422,71.902z M35.663,74.455c-1.525,0.884-2.88,0.463-3.796-1.117l-2.978-5.136
		c-0.917-1.58-0.609-2.965,0.915-3.849c1.523-0.884,2.88-0.463,3.796,1.117l2.979,5.135C37.496,72.186,37.186,73.571,35.663,74.455z
		 M41.252,71.212c-1.524,0.884-2.837,0.439-3.753-1.141l-0.476-0.819l1.468-0.85l0.531,0.917c0.41,0.706,0.875,0.793,1.37,0.508
		c0.493-0.288,0.666-0.706,0.158-1.582l-0.45-0.774c-0.532-0.918-1.039-1.076-1.744-0.667l-0.523,0.303l-0.818-1.41l0.607-0.352
		c0.578-0.336,0.784-0.795,0.325-1.586l-0.318-0.55c-0.516-0.888-0.965-0.949-1.459-0.662c-0.493,0.285-0.648,0.734-0.239,1.44
		l0.367,0.633l-1.466,0.852l-0.311-0.536c-0.916-1.58-0.651-2.941,0.874-3.825c1.523-0.884,2.837-0.439,3.753,1.141l0.147,0.255
		c0.613,1.058,0.66,1.917,0.091,2.662c0.973-0.111,1.708,0.441,2.29,1.444l0.45,0.775C43.042,68.967,42.776,70.329,41.252,71.212z
		 M46.842,67.97c-1.566,0.91-2.951,0.505-3.867-1.074l-0.45-0.776c-0.548-0.945-0.691-1.843-0.236-2.616
		c-0.853,0.022-1.547-0.459-2.113-1.434l-0.18-0.309c-0.917-1.58-0.58-2.981,0.988-3.892c1.566-0.906,2.949-0.503,3.866,1.076
		l0.18,0.312c0.565,0.973,0.625,1.825,0.195,2.544c0.897-0.01,1.605,0.559,2.153,1.505l0.45,0.775
		C48.745,65.66,48.408,67.062,46.842,67.97z M13.881,64.592c-5.579-9.62-2.293-21.982,7.327-27.561l0.399-0.232
		c9.62-5.579,21.983-2.292,27.562,7.328l1.606,2.767l-35.29,20.467L13.881,64.592z"/>
	<path fill="#BCF5E9" d="M45.72,64.022c-0.45-0.777-0.97-0.926-1.52-0.607c-0.55,0.317-0.68,0.846-0.229,1.62l0.532,0.918
		c0.508,0.874,1.029,0.892,1.522,0.607c0.495-0.288,0.721-0.738,0.228-1.623L45.72,64.022z"/>
	<path fill="#BCF5E9" d="M43.65,60.452l-0.319-0.55c-0.515-0.888-1.035-0.908-1.528-0.621c-0.495,0.287-0.736,0.749-0.222,1.636
		l0.32,0.55c0.458,0.789,0.973,0.831,1.48,0.536C43.875,61.718,44.108,61.243,43.65,60.452z"/>
	<path fill="#BCF5E9" d="M31.992,66.271c-0.41-0.706-0.875-0.793-1.369-0.508c-0.494,0.288-0.648,0.736-0.239,1.44l3.092,5.334
		c0.409,0.706,0.875,0.792,1.369,0.505c0.494-0.285,0.648-0.732,0.24-1.44L31.992,66.271z"/>
	<path fill="#BCF5E9" d="M74.062,94.071c-1.744-3.006-0.747-6.839,2.209-8.635l-7.836-13.514L28.44,95.119l-1.029-1.774
		l8.858,15.275l0,0c3.046-1.766,6.946-0.73,8.713,2.316c1.766,3.044,0.728,6.946-2.317,8.711l0.505,0.87l3.762,6.489l2.137-1.24
		l11.144-6.462c-1.374-4.136-1.984-7.789-1.747-10.501c-1.826-0.292-3.517-1.343-4.517-3.069c-1.766-3.046-0.729-6.946,2.316-8.711
		c3.046-1.766,6.946-0.728,8.712,2.316c0.988,1.705,1.071,3.669,0.442,5.384c2.482,1.133,5.367,3.485,8.293,6.752l11.076-6.424
		l2.138-1.238l-3.762-6.489l-0.512-0.882C79.627,98.114,75.805,97.079,74.062,94.071z"/>
	<path fill="#39CCED" d="M22.973,39.151l-0.4,0.233c-8.321,4.826-11.166,15.522-6.339,23.843l0.241,0.417l30.584-17.737
		l-0.241-0.417C41.991,37.169,31.294,34.325,22.973,39.151z M21.788,59.487l-4.364,2.531c-3.289-5.777-2.617-12.786,1.134-18.044
		c1.304-1.489,2.867-2.815,4.689-3.888C19.146,45.434,18.388,53.022,21.788,59.487z"/>
	<path fill="#39CCED" d="M18.558,43.973c-3.751,5.259-4.422,12.268-1.134,18.044l4.364-2.531c-3.4-6.464-2.642-14.053,1.459-19.401
		C21.425,41.158,19.862,42.484,18.558,43.973z"/>
	<path fill="#DF4937" d="M49.169,44.127c-5.579-9.62-17.942-12.907-27.562-7.328l-0.399,0.232
		c-9.62,5.579-12.906,17.941-7.327,27.561l1.605,2.769l35.29-20.467L49.169,44.127z M16.474,63.644l-0.241-0.417
		c-4.826-8.321-1.982-19.017,6.339-23.843l0.4-0.233c8.321-4.826,19.018-1.982,23.844,6.339l0.241,0.417L16.474,63.644z"/>
	<polygon fill="#0593A1" points="23.978,32.751 23.966,32.731 21.77,28.944 19.796,30.089 16.285,32.126 14.311,33.271 
		16.506,37.056 16.518,37.076 	"/>
	<path fill="#DF4937" d="M63.274,126.739l-4.148,2.405l-0.024,0.016l1.839,3.17c1.041,1.796,3.341,2.407,5.137,1.365l0.812-0.472
		c-0.408-0.653-0.818-1.307-1.215-1.988C64.8,129.727,64,128.222,63.274,126.739z"/>
	<path fill="#DF4937" d="M81.358,122.138c0.396,0.684,0.758,1.363,1.125,2.045l0.827-0.479c1.794-1.042,2.407-3.341,1.365-5.138
		l-1.838-3.171l-0.107,0.062l-4.082,2.367C79.576,119.188,80.484,120.631,81.358,122.138z"/>
	<path fill="#DF4937" d="M37.168,167.504l1.557-0.902l0.735-0.427l0.829-0.481l4.047-2.346l0.83-0.481l0.735-0.427l2.029-1.177
		c-0.49-1.408-1.09-2.88-1.792-4.387l-11.89,6.896C35.209,165.127,36.189,166.382,37.168,167.504z"/>
	<path fill="#0593A1" d="M33.98,117.366l-7.5,10.56c1.363,0.71,2.837,1.774,4.361,3.125l7.572-10.661
		C36.623,120.086,34.972,119.051,33.98,117.366z"/>
	<path fill="#7BC9D1" d="M42.666,119.647c3.045-1.766,4.083-5.667,2.317-8.711c-1.767-3.046-5.667-4.082-8.713-2.316l0,0
		c-3.045,1.766-4.082,5.666-2.316,8.711c0.008,0.012,0.019,0.022,0.026,0.035c0.992,1.685,2.643,2.72,4.433,3.024
		c1.366,0.232,2.807,0.036,4.11-0.678C42.569,119.686,42.62,119.674,42.666,119.647L42.666,119.647z"/>
	<path fill="#B0E6DA" d="M21.064,127.338c-4.332,2.512-2.058,14.521,5.077,26.825c2.251,3.881,4.719,7.326,7.176,10.148l0.932-0.54
		l11.89-6.896l0.931-0.54c-1.229-3.534-2.993-7.387-5.245-11.269c-3.428-5.91-7.35-10.795-10.984-14.015
		c-1.524-1.351-2.998-2.415-4.361-3.125C24.326,126.806,22.443,126.539,21.064,127.338z"/>
	<path fill="#7BC9D1" d="M60.598,104.411c1.249-0.726,2.919-0.556,4.824,0.312c0.629-1.715,0.546-3.679-0.442-5.384
		c-1.767-3.044-5.667-4.082-8.712-2.316c-3.045,1.766-4.082,5.666-2.316,8.711c1,1.726,2.691,2.777,4.517,3.069
		C58.654,106.692,59.338,105.141,60.598,104.411z"/>
	<path fill="#DF4937" d="M76.701,144.577l1.801-1.043l0.734-0.427l0.83-0.479l4.047-2.349l0.829-0.481l0.734-0.427l1.788-1.036
		c-0.49-1.408-1.09-2.88-1.792-4.387l-11.891,6.896C74.742,142.201,75.722,143.453,76.701,144.577z"/>
	<path fill="#B0E6DA" d="M78.648,117.823c-1.609-2.373-3.276-4.499-4.934-6.349c-2.926-3.267-5.811-5.619-8.293-6.752
		c-1.904-0.868-3.575-1.038-4.824-0.312c-1.259,0.73-1.944,2.282-2.13,4.392c-0.238,2.712,0.373,6.365,1.747,10.501
		c0.783,2.358,1.8,4.86,3.06,7.436c0.725,1.482,1.525,2.987,2.4,4.496c0.396,0.682,0.807,1.335,1.215,1.988
		c1.912,3.069,3.937,5.835,5.962,8.16l0.931-0.54l11.891-6.896l0.93-0.54c-1.011-2.913-2.407-6.043-4.12-9.225
		c-0.366-0.682-0.728-1.361-1.125-2.045C80.484,120.631,79.576,119.188,78.648,117.823z"/>
	<path fill="#DF4937" d="M119.638,119.676l4.047-2.346l0.829-0.481l0.734-0.427l1.794-1.04c-0.489-1.408-1.09-2.88-1.792-4.387
		l-11.889,6.896c0.958,1.357,1.939,2.609,2.918,3.734l1.794-1.04l0.734-0.427L119.638,119.676z"/>
	<path fill="#0593A1" d="M85.106,87.715c0.969,1.697,1.05,3.645,0.422,5.348l13.014-1.276c-0.415-1.994-0.607-3.8-0.546-5.338
		L85.106,87.715z"/>
	<path fill="#7BC9D1" d="M85.106,87.715c-0.006-0.014-0.01-0.028-0.019-0.04c-1.766-3.044-5.666-4.082-8.71-2.316
		c-0.039,0.022-0.068,0.054-0.106,0.077c-2.956,1.796-3.953,5.629-2.209,8.635c1.744,3.008,5.565,4.043,8.593,2.371
		c0.039-0.022,0.079-0.032,0.117-0.055c0.008-0.004,0.014-0.01,0.021-0.014c1.329-0.777,2.245-1.968,2.736-3.309
		C86.156,91.36,86.075,89.413,85.106,87.715z"/>
	<path fill="#B0E6DA" d="M126.183,110.455c-1.23-3.536-2.994-7.387-5.245-11.271c-7.136-12.302-16.43-20.239-20.763-17.727
		c-1.377,0.799-2.082,2.567-2.178,4.992c-0.061,1.538,0.131,3.344,0.546,5.338c0.991,4.753,3.283,10.585,6.709,16.493
		c2.253,3.883,4.719,7.328,7.178,10.15l0.931-0.54l11.889-6.896L126.183,110.455z"/>
	<path fill="#DF4937" d="M33.601,65.47c-0.916-1.58-2.273-2-3.796-1.117c-1.524,0.884-1.832,2.27-0.915,3.849l2.978,5.136
		c0.916,1.58,2.271,2,3.796,1.117c1.523-0.884,1.833-2.27,0.916-3.85L33.601,65.47z M34.845,73.043
		c-0.495,0.287-0.96,0.2-1.369-0.505l-3.092-5.334c-0.41-0.704-0.255-1.153,0.239-1.44c0.494-0.285,0.959-0.198,1.369,0.508
		l3.093,5.332C35.493,72.311,35.338,72.758,34.845,73.043z"/>
	<path fill="#DF4937" d="M41.676,66.613c-0.582-1.003-1.317-1.555-2.29-1.444c0.568-0.745,0.522-1.604-0.091-2.662l-0.147-0.255
		c-0.916-1.58-2.23-2.024-3.753-1.141c-1.525,0.884-1.79,2.245-0.874,3.825l0.311,0.536l1.466-0.852l-0.367-0.633
		c-0.409-0.706-0.254-1.155,0.239-1.44c0.495-0.287,0.944-0.227,1.459,0.662l0.318,0.55c0.458,0.791,0.253,1.25-0.325,1.586
		l-0.607,0.352l0.818,1.41l0.523-0.303c0.705-0.409,1.212-0.251,1.744,0.667l0.45,0.774c0.508,0.876,0.335,1.294-0.158,1.582
		c-0.495,0.285-0.96,0.198-1.37-0.508l-0.531-0.917l-1.468,0.85l0.476,0.819c0.916,1.58,2.229,2.024,3.753,1.141
		c1.523-0.884,1.79-2.245,0.874-3.825L41.676,66.613z"/>
	<path fill="#DF4937" d="M47.378,63.306c-0.548-0.946-1.256-1.515-2.153-1.505c0.43-0.72,0.37-1.571-0.195-2.544l-0.18-0.312
		c-0.917-1.58-2.3-1.982-3.866-1.076c-1.567,0.911-1.904,2.312-0.988,3.892l0.18,0.309c0.565,0.975,1.26,1.457,2.113,1.434
		c-0.455,0.773-0.312,1.671,0.236,2.616l0.45,0.776c0.916,1.58,2.301,1.984,3.867,1.074c1.565-0.908,1.902-2.31,0.986-3.89
		L47.378,63.306z M43.381,62.003c-0.508,0.295-1.022,0.252-1.48-0.536l-0.32-0.55c-0.515-0.888-0.273-1.349,0.222-1.636
		c0.494-0.287,1.013-0.267,1.528,0.621l0.319,0.55C44.108,61.243,43.875,61.718,43.381,62.003z M46.024,66.561
		c-0.493,0.285-1.014,0.267-1.522-0.607l-0.532-0.918c-0.45-0.774-0.321-1.303,0.229-1.62c0.55-0.319,1.07-0.17,1.52,0.607
		l0.532,0.916C46.745,65.822,46.519,66.273,46.024,66.561z"/>
	<polygon fill="#0593A1" points="26.621,91.981 66.615,68.787 65.261,66.449 64.996,65.992 64.996,65.992 25,89.188 	"/>
	<polygon fill="#7BC9D1" points="68.435,71.922 68.435,71.922 68.422,71.902 67.354,70.062 27.36,93.256 27.36,93.256 
		27.411,93.345 28.44,95.119 	"/>
</g>
</svg>
