<?xml version="1.0" encoding="utf-8"?>
<!-- Generator: Adobe Illustrator 16.0.4, SVG Export Plug-In . SVG Version: 6.00 Build 0)  -->
<!DOCTYPE svg PUBLIC "-//W3C//DTD SVG 1.1//EN" "http://www.w3.org/Graphics/SVG/1.1/DTD/svg11.dtd">
<svg version="1.1" id="分離模式" xmlns="http://www.w3.org/2000/svg" xmlns:xlink="http://www.w3.org/1999/xlink" x="0px"
	 y="0px" width="140px" height="110.495px" viewBox="0 0 140 110.495" enable-background="new 0 0 140 110.495"
	 xml:space="preserve">
<g>
	<polygon fill="#151E36" points="80.745,57.332 78.675,55.923 77.746,57.287 77.746,57.287 71.373,66.647 73.443,68.058 
		71.586,70.782 76.911,74.408 90.37,54.643 85.045,51.018 	"/>
	<polygon fill="#151E36" points="44.016,98.413 38.641,94.752 37.473,102.247 	"/>
	
		<rect x="64.626" y="33.386" transform="matrix(0.5629 -0.8266 0.8266 0.5629 -1.589 70.2099)" fill="#575756" width="1.913" height="6.442"/>
	
		<rect x="87.29" y="48.821" transform="matrix(-0.5622 0.827 -0.827 -0.5622 180.8935 8.3126)" fill="#575756" width="1.913" height="6.439"/>
	
		<rect x="50.09" y="54.732" transform="matrix(0.5628 -0.8266 0.8266 0.5628 -25.586 67.5326)" fill="#575756" width="1.914" height="6.442"/>
	
		<rect x="72.753" y="70.165" transform="matrix(0.5627 -0.8267 0.8267 0.5627 -28.432 93.0264)" fill="#575756" width="1.913" height="6.442"/>
	<path fill="#DADADA" d="M1.259,28.48l45.066,30.688L64.988,31.76L19.922,1.073L1.259,28.48z M14.505,12.014l13.393,9.121
		l-5.051,7.416L9.454,19.431L14.505,12.014z M28.952,21.853l13.395,9.119l-5.051,7.417L23.901,29.27L28.952,21.853z M3.686,27.902
		l5.05-7.417l13.393,9.12l-5.05,7.416L3.686,27.902z M18.134,37.739l5.05-7.416l13.393,9.12l-5.051,7.416L18.134,37.739z
		 M45.974,56.696l-13.393-9.12l5.05-7.416l13.393,9.12L45.974,56.696z M51.742,48.225l-13.393-9.12l5.049-7.416l13.393,9.12
		L51.742,48.225z M62.561,32.339l-5.05,7.417l-13.394-9.12l5.05-7.419L62.561,32.339z M48.113,22.501l-5.051,7.416l-13.394-9.12
		l5.051-7.416L48.113,22.501z M28.616,20.08l-13.393-9.12l5.05-7.416l13.393,9.12L28.616,20.08z"/>
	<path fill="#DADADA" d="M91.446,53.061l-1.076,1.583L76.911,74.408l-1.077,1.583l-1.522,2.234l45.066,30.688l18.663-27.408
		L92.975,50.816L91.446,53.061z M87.558,61.758l13.393,9.121l-5.051,7.416l-13.393-9.122L87.558,61.758z M102.005,71.595
		l13.394,9.12l-5.051,7.417l-13.394-9.119L102.005,71.595z M76.738,77.646l5.051-7.417l13.394,9.12l-5.052,7.416L76.738,77.646z
		 M91.187,87.483l5.049-7.416l13.394,9.122l-5.051,7.414L91.187,87.483z M119.026,106.44l-13.393-9.12l5.05-7.416l13.393,9.119
		L119.026,106.44z M124.795,97.971l-13.394-9.119l5.05-7.418l13.395,9.12L124.795,97.971z M135.613,82.083l-5.05,7.416
		l-13.394-9.119l5.051-7.418L135.613,82.083z M121.167,72.245l-5.051,7.416l-13.393-9.12l5.051-7.418L121.167,72.245z
		 M101.669,69.824l-13.393-9.12l5.051-7.416l13.391,9.119L101.669,69.824z"/>
	<polygon fill="#575756" points="37.473,102.247 38.641,94.752 36.339,93.188 35.086,101.224 39.3,104.094 46.318,99.98 
		44.016,98.413 	"/>
	<polygon fill="#575756" points="34.171,107.097 34.648,106.817 34.256,106.551 	"/>
	<path fill="#DADADA" d="M45.628,86.651c0.583,0.347,1.175,0.67,1.746,1.055c0.565,0.389,1.111,0.79,1.647,1.204l1.455-2.138
		l-3.369-2.297L45.628,86.651z"/>
	<polygon fill="#706F6F" points="45.416,79.819 43.783,82.213 47.106,84.476 50.476,86.772 53.799,89.035 55.432,86.638 	"/>
	<polygon fill="#575756" points="77.746,57.287 78.675,55.923 65.477,46.938 59.864,55.177 64.548,48.301 	"/>
	<polygon fill="#575756" points="43.824,78.734 45.416,79.819 55.432,86.638 57.022,87.721 59.106,84.659 45.909,75.674 	"/>
	<polygon fill="#575756" points="71.373,66.647 77.746,57.287 77.746,57.287 64.548,48.301 59.864,55.177 58.174,57.659 	"/>
	<path fill="#575756" d="M89.669,32.757l-6.668-4.541c-1.688-1.147-3.935-0.797-5.224,0.729l13.13,8.941
		C91.854,36.125,91.357,33.906,89.669,32.757z"/>
	<polygon fill="#DADADA" points="73.443,68.058 71.373,66.647 58.174,57.659 56.104,56.25 54.248,58.978 53.171,60.557 
		43.837,74.264 45.909,75.674 59.106,84.659 61.176,86.069 70.51,72.363 71.586,70.782 	"/>
	<polygon fill="#DADADA" points="80.745,57.332 85.045,51.018 86.123,49.438 93.012,39.32 90.907,37.887 77.777,28.945 
		75.673,27.512 68.783,37.629 67.707,39.21 63.406,45.525 65.477,46.938 78.675,55.923 	"/>
	<path fill="#DADADA" d="M45.628,86.651c-7.685-4.587-16.529-5.819-24.731-3.981l15.442,10.517l2.302,1.564l5.375,3.661l2.302,1.567
		l15.442,10.514c-1.296-8.307-5.651-16.116-12.739-21.584c-0.536-0.414-1.082-0.815-1.647-1.204
		C46.803,87.321,46.211,86.998,45.628,86.651z"/>
	<polygon fill="#706F6F" points="34.956,101.134 32.212,105.161 34.256,106.551 34.648,106.817 36.69,108.208 39.432,104.181 
		39.3,104.094 35.086,101.224 	"/>
	
		<rect x="16.343" y="7.326" transform="matrix(-0.8265 -0.5629 0.5629 -0.8265 38.0002 35.3341)" fill="#0593A1" width="16.203" height="8.972"/>
	
		<rect x="34.405" y="13.547" transform="matrix(-0.5629 0.8265 -0.8265 -0.5629 78.6774 1.6928)" fill="#0593A1" width="8.972" height="16.204"/>
	
		<rect x="48.853" y="23.384" transform="matrix(-0.5628 0.8266 -0.8266 -0.5628 109.3861 5.121)" fill="#0593A1" width="8.973" height="16.205"/>
	
		<rect x="10.574" y="15.796" transform="matrix(0.8265 0.5629 -0.5629 0.8265 14.6568 -6.994)" fill="#0593A1" width="16.204" height="8.974"/>
	
		<rect x="25.022" y="25.634" transform="matrix(0.8266 0.5628 -0.5628 0.8266 22.6942 -13.4185)" fill="#0593A1" width="16.204" height="8.974"/>
	
		<rect x="39.468" y="35.472" transform="matrix(-0.8266 -0.5628 0.5628 -0.8266 64.401 99.7587)" fill="#0593A1" width="16.203" height="8.972"/>
	
		<rect x="8.421" y="20.652" transform="matrix(0.5628 -0.8266 0.8266 0.5628 -18.1245 23.2397)" fill="#0593A1" width="8.972" height="16.202"/>
	
		<rect x="22.869" y="30.49" transform="matrix(0.5629 -0.8266 0.8266 0.5629 -19.9396 39.4799)" fill="#0593A1" width="8.972" height="16.202"/>
	
		<rect x="33.701" y="43.942" transform="matrix(-0.8265 -0.5629 0.5629 -0.8265 49.0954 111.9851)" fill="#0593A1" width="16.203" height="8.972"/>
	
		<rect x="121.906" y="73.127" transform="matrix(-0.5629 0.8266 -0.8266 -0.5629 264.6733 22.4812)" fill="#0593A1" width="8.972" height="16.204"/>
	
		<rect x="107.458" y="63.29" transform="matrix(-0.5629 0.8265 -0.8265 -0.5629 233.9684 19.0614)" fill="#0593A1" width="8.973" height="16.204"/>
	
		<rect x="89.395" y="57.07" transform="matrix(-0.8266 -0.5629 0.5629 -0.8266 143.4368 167.3117)" fill="#0593A1" width="16.203" height="8.972"/>
	
		<rect x="112.522" y="85.215" transform="matrix(-0.8266 -0.5628 0.5628 -0.8266 169.8463 231.7365)" fill="#0593A1" width="16.203" height="8.974"/>
	
		<rect x="98.075" y="75.377" transform="matrix(0.8266 0.5628 -0.5628 0.8266 63.3648 -45.9092)" fill="#0593A1" width="16.204" height="8.974"/>
	
		<rect x="83.627" y="65.54" transform="matrix(0.8265 0.5629 -0.5629 0.8265 55.3294 -39.486)" fill="#0593A1" width="16.204" height="8.972"/>
	
		<rect x="106.754" y="93.686" transform="matrix(-0.8266 -0.5628 0.5628 -0.8266 154.5341 243.963)" fill="#0593A1" width="16.203" height="8.972"/>
	
		<rect x="95.922" y="80.234" transform="matrix(0.5628 -0.8266 0.8266 0.5628 -29.119 121.6165)" fill="#0593A1" width="8.972" height="16.202"/>
	
		<rect x="81.473" y="70.395" transform="matrix(0.5629 -0.8265 0.8265 0.5629 -27.3049 105.3627)" fill="#0593A1" width="8.974" height="16.202"/>
</g>
</svg>
