<?xml version="1.0" encoding="utf-8"?>
<!-- Generator: Adobe Illustrator 16.0.4, SVG Export Plug-In . SVG Version: 6.00 Build 0)  -->
<!DOCTYPE svg PUBLIC "-//W3C//DTD SVG 1.1//EN" "http://www.w3.org/Graphics/SVG/1.1/DTD/svg11.dtd">
<svg version="1.1" id="分離模式" xmlns="http://www.w3.org/2000/svg" xmlns:xlink="http://www.w3.org/1999/xlink" x="0px"
	 y="0px" width="29.273px" height="27.265px" viewBox="0 0 29.273 27.265" enable-background="new 0 0 29.273 27.265"
	 xml:space="preserve">
<g>
	<path fill="#FF833B" d="M27.23,11.274c-0.088-0.159-1.037-1.582-1.521-2.109c-0.138-0.16-0.277-0.306-0.413-0.479
		c-0.437-2.205-1.14-3.68-2.562-4.387c-0.205-0.1-0.427-0.188-0.659-0.255c-1.867,0.099-3.562-2.254-5.617-2.525
		c-0.231-0.032-0.459-0.042-0.684-0.03C13.482,0.246,11.434,0.866,9.163,0C8.98,0.019,8.811,0.09,8.65,0.192
		C8.514,0.277,8.395,0.386,8.273,0.508C6.013,1.021,4.444,2.232,3.469,3.881C3.053,4.556,2.747,5.301,2.523,6.109
		C2.39,6.266,2.259,6.444,2.128,6.623C2.003,6.81,1.878,6.996,1.759,7.191C1.62,7.375,1.487,7.568,1.354,7.761
		C0.838,8.52,0.417,9.309,0.143,10.08C0.071,10.29,0.021,10.497,0,10.708c0.073,0.917,0.221,1.78,0.417,2.61
		c0.051,0.209,0.109,0.413,0.16,0.623c0.064,2.026,0.692,4.07,1.517,5.594c0.04,0.229,0.086,0.466,0.134,0.69
		c0.282,1.382,0.736,2.678,1.657,3.631c0.492,0.521,1.104,1.056,1.768,1.541c0.165,0.128,0.338,0.251,0.505,0.366
		c3.078,2.316,5.121,1.688,7.73-0.079c0.213-0.028,0.435-0.062,0.647-0.091c0.662-0.103,1.331-0.283,2.044-0.506
		c1.668-0.534,3.833,0.063,5.125-1.124c0.754-0.682,1.469-1.508,2.074-2.416c0.173-0.257,0.34-0.523,0.493-0.792
		c0.095-0.177,2.048-2.004,2.161-2.293C28.719,15.895,31.08,13.398,27.23,11.274z"/>
	<g>
		<path opacity="0.2" fill="#1D1D1B" d="M6.032,7.263c0.22,0.114,0.395,0.253,0.534,0.414c1.531,1.769-1.29,6.116,2.976,6.207
			c0.168-0.014,0.336-0.045,0.503-0.092c1.005-0.28,1.989-1.117,2.727-2.085c0.143-0.188,0.275-0.382,0.393-0.599
			c0.008-0.125,0.05-0.276,0.102-0.443c0.054-0.168,0.118-0.352,0.171-0.541c0.223-2.262-2.032-2.192-3.031-3.609
			c-0.143-0.203-0.26-0.436-0.34-0.71c-0.207-1.336-0.048-2.277-1.421-0.577c-0.191,0.048-0.44,0.037-0.797-0.078
			C7.267,5.48,6.326,5.32,5.937,4.77C5.776,5.71,4.676,6.491,6.032,7.263z"/>
		<path opacity="0.2" fill="#1D1D1B" d="M15.44,8.844c-0.109,0.11-0.19,0.266-0.353,0.577c-0.099,0.191-0.177,0.388-0.245,0.59
			c-0.335,1.002-0.396,2.116-1.207,2.959c-0.14,0.104-0.275,0.21-0.403,0.326c-0.256,0.23-0.482,0.494-0.659,0.827
			c0.39,0.55,0.78,1.1,1.479,0.979c0.166,0.097,0.186,0.29,0.177,0.504c-0.008,0.214-0.043,0.451,0.017,0.634
			c0.117,0.368,0.353,0.721,0.71,0.867c0.201,0.083,0.416,0.092,0.639,0.065c1.201,0.57,2.462-1.151,3.878-0.646
			c0.161-0.003,0.31,0.004,0.451,0.021c1.824-2.317,0.973-5.849-1.525-6.17c-0.169-0.12-0.344-0.237-0.524-0.35
			C17.151,9.573,16.338,9.173,15.44,8.844z"/>
		<path opacity="0.2" fill="#1D1D1B" d="M14.748,5.53c0.751,0.202,1.478,0.308,2.029,0.708c0.165,0.12,0.314,0.267,0.433,0.457
			c0.562-0.398,0.332-1.888,0.995-1.991c0.026-0.157,0.012-0.307-0.065-0.448c-0.077-0.141-0.216-0.271-0.438-0.39
			c-0.471-0.08-1.038-0.297-1.629-0.43c-0.197-0.044-0.397-0.079-0.597-0.096c-0.298,0.023-0.447,0.034-0.589,0.039
			c-0.143,0.004-0.277,0.003-0.547-0.004c-0.041,0.045-0.085,0.094-0.13,0.145c-0.431,0.648-0.431,0.648-0.833,1.042
			c-0.016,0.106,0.048,0.268,0.243,0.541C13.99,5.305,14.372,5.429,14.748,5.53z"/>
		<path opacity="0.2" fill="#1D1D1B" d="M21.064,9.566c0.094,0.144,0.173,0.299,0.233,0.466c-0.012,1.215,0.379,1.766,0.77,2.315
			c-0.391-0.55,0.159-0.94,0.515-1.373c0.083-0.22,0.164-0.447,0.242-0.676c1.213-1.004,0.042-2.654,0.849-3.484
			c0.026-0.238,0.046-0.477,0.057-0.717c0.011-0.24,0.014-0.481,0.006-0.725c-0.073,0.139-0.16,0.259-0.258,0.365
			c-0.098,0.109-0.207,0.204-0.326,0.29c-0.676,1.066-3.107,1.138-3.902,1.893c-0.24,0.089-0.368,0.122-0.389,0.125
			C19.744,8.428,20.596,8.848,21.064,9.566z"/>
		<path opacity="0.2" fill="#1D1D1B" d="M22.554,16.323c-0.112,0.151-0.219,0.303-0.313,0.458c-0.094,0.156-0.175,0.315-0.235,0.48
			c-0.038,0.183-0.062,0.361-0.068,0.536c-0.036,0.873,0.337,1.642,1.284,2.004c0.182-0.005,0.354-0.032,0.517-0.077
			c1.684-1.484,6.245-5.548,1.628-6.046c-0.19,0.125-0.387,0.253-0.583,0.382C23.238,13.999,23.859,16.04,22.554,16.323z"/>
		<path opacity="0.2" fill="#1D1D1B" d="M1.759,7.191C1.62,7.375,1.487,7.568,1.354,7.761C0.838,8.52,0.417,9.309,0.143,10.08
			C0.071,10.29,0.021,10.497,0,10.708c0.073,0.917,0.221,1.78,0.417,2.61c0.051,0.209,0.109,0.413,0.16,0.623
			c0.064,2.026,0.692,4.07,1.517,5.594c0.04,0.229,0.086,0.466,0.134,0.69c0.282,1.382,0.736,2.678,1.657,3.631
			c0.492,0.521,1.104,1.056,1.768,1.541c0.165,0.128,0.338,0.251,0.505,0.366c3.078,2.316,5.121,1.688,7.73-0.079
			c0.213-0.028,0.435-0.062,0.647-0.091c0.662-0.103,1.331-0.283,2.044-0.506c1.668-0.534,3.833,0.063,5.125-1.124
			c0.754-0.682,1.469-1.508,2.074-2.416c-0.125-0.107-0.261-0.195-0.398-0.269c-0.854-0.461-1.876-0.484-2.842-0.375
			c-0.135-0.726-0.893-1.206-1.63-1.295c-0.744-0.098-1.487,0.099-2.223,0.204c-0.737,0.119-1.542,0.125-2.169-0.275
			c-0.956-0.621-1.417-2.134-2.56-2.12c-0.502,0-0.953,0.333-1.457,0.348c-0.579,0.031-1.085-0.371-1.54-0.735
			c-1.031-0.85-2.063-1.699-3.096-2.548c-0.705-0.579-1.441-1.185-1.823-2.017c-0.453-0.966-0.377-2.086-0.18-3.122
			C4.053,8.298,4.351,7.266,4.33,6.201C4.309,5.358,4.035,4.472,3.469,3.881C3.053,4.556,2.747,5.301,2.523,6.109
			C2.39,6.266,2.259,6.444,2.128,6.623C2.003,6.81,1.878,6.996,1.759,7.191z"/>
	</g>
</g>
</svg>
