<?xml version="1.0" encoding="utf-8"?>
<!-- Generator: Adobe Illustrator 16.0.4, SVG Export Plug-In . SVG Version: 6.00 Build 0)  -->
<!DOCTYPE svg PUBLIC "-//W3C//DTD SVG 1.1//EN" "http://www.w3.org/Graphics/SVG/1.1/DTD/svg11.dtd">
<svg version="1.1" id="分離模式" xmlns="http://www.w3.org/2000/svg" xmlns:xlink="http://www.w3.org/1999/xlink" x="0px"
	 y="0px" width="14.482px" height="14.498px" viewBox="0 0 14.482 14.498" enable-background="new 0 0 14.482 14.498"
	 xml:space="preserve">
<g>
	<path fill="#FF833B" d="M13.066,5.048c0.071-0.197,0.122-0.381,0.15-0.547c0.193-0.993-0.262-1.444-0.762-2.057
		c-0.085-0.104-0.166-0.21-0.249-0.327C10.95,1.513,9.154,0.7,8.042,0C7.909,0.012,7.78,0.027,7.651,0.037
		C7.502,0.049,7.353,0.061,7.207,0.071C6.09,0.107,5.05,0.312,4.17,0.649C4.022,0.706,3.883,0.765,3.745,0.827
		c-0.13,0.098-0.257,0.2-0.37,0.297c-0.114,0.111-0.223,0.223-0.321,0.34c-1.514,0.857-1.898,1.77-1.8,2.942
		C1.294,4.917,1.429,5.479,1.6,6.107C1.542,6.266,1.481,6.42,1.41,6.576C1.202,7.052,0.942,7.536,0.637,8.04
		c0.032,0.094,0.058,0.188,0.093,0.287C0.761,8.42,0.796,8.519,0.833,8.622C0.797,8.735,0.754,8.848,0.702,8.966
		C0.546,9.324,0.316,9.703,0,10.133c0.05,0.153,0.11,0.304,0.204,0.436c0.402,0.096,0.776,0.194,1.117,0.31
		c0.171,0.06,0.332,0.122,0.484,0.196c1.682,2.213,0.953,4.682,4.169,2.693c0.138-0.086,0.282-0.171,0.429-0.246
		c0.587-0.305,1.229-0.467,2.003-0.161c0.144-0.079,0.287-0.174,0.45-0.267c1.35-0.601,2.553,0.962,3.815,0.13
		c0.148-0.188,0.24-0.364,0.285-0.531c0.049-0.163,0.052-0.324,0.025-0.469c0.024-0.247,0.08-0.474,0.148-0.692
		c0.165-0.51,0.424-0.963,0.707-1.458c0.067-0.119,0.136-0.237,0.205-0.363c0.079-0.12,0.229-0.555,0.223-0.645
		C15.022,7.16,13.597,6.646,13.066,5.048z"/>
	<g>
		<path opacity="0.2" fill="#1D1D1B" d="M6.243,6.168C6.147,6.227,6.072,6.305,6.017,6.406C6.012,6.532,6.016,6.659,6.021,6.787
			C6.027,6.978,6.036,7.17,6.019,7.36C5.778,9.612,7.714,8.703,8.688,8.82c0.102-0.034,0.21-0.055,0.33-0.048
			c0.073-0.023,0.143-0.04,0.21-0.051c0.196-0.491,0.197-1.009,0.06-1.456C9.241,7.116,9.18,6.975,9.104,6.846
			c-0.069-0.12-0.142-0.231-0.216-0.333C8.813,6.412,8.736,6.32,8.657,6.238C7.693,5.641,6.726,6.096,6.243,6.168z"/>
		<path opacity="0.2" fill="#1D1D1B" d="M5.262,4.861C5.396,4.913,5.528,4.941,5.66,4.95C6.448,5,7.199,4.337,8.207,4.219
			C8.196,4.125,8.196,4.018,8.202,3.901C8.208,3.784,8.22,3.658,8.229,3.524c0.49-0.728-0.26-1.32-0.715-2.288
			c-0.296,0.375-0.592,0.751-0.906,1.12C6.498,2.423,6.386,2.49,6.27,2.549C6.037,2.668,5.792,2.758,5.523,2.769
			C5.496,2.867,5.719,3.462,5.531,3.704C5.469,3.785,5.379,3.883,5.259,4.018C5.146,4.239,4.474,4.318,5.262,4.861z"/>
		<path opacity="0.2" fill="#1D1D1B" d="M9.551,6.822c-0.018,0.154,1.104-1.009,1.683-1.799c0.106-0.128,0.207-0.259,0.3-0.394
			c0.278-0.406,0.481-0.849,0.522-1.364c-0.111,0.141-0.233,0.187-0.362,0.174s-0.266-0.084-0.415-0.169
			c-0.27-0.222-0.941-0.143-1.448,0.49C9.747,3.865,9.661,3.972,9.573,4.081s-0.178,0.221-0.27,0.335
			C9.251,4.496,9.213,4.556,9.183,4.611C9.121,4.723,9.091,4.818,9.028,5.007c-0.074,0.09,0.282,0.965,0.54,1.379
			C9.574,6.522,9.568,6.667,9.551,6.822z"/>
		<path opacity="0.2" fill="#1D1D1B" d="M11.265,6.925c-1.102-0.554-0.568,1.086-0.799,1.503c-0.028,0.151-0.042,0.303-0.042,0.451
			c0.001,0.441,0.135,0.851,0.51,1.147c0.251,0.197,0.517,0.204,0.798,0.133c0.141-0.036,0.286-0.09,0.435-0.151
			c1.83-0.002,2.264-2.096,1.81-3.063c-0.376-0.296-1.798-0.81-2.447-0.275C11.444,6.752,11.356,6.838,11.265,6.925z"/>
		<path opacity="0.2" fill="#1D1D1B" d="M0,10.133c0.05,0.153,0.11,0.304,0.204,0.436c0.402,0.096,0.776,0.194,1.117,0.31
			c0.171,0.06,0.332,0.122,0.484,0.196c1.682,2.213,0.953,4.682,4.169,2.693c0.138-0.086,0.282-0.171,0.429-0.246
			c0.587-0.305,1.229-0.467,2.003-0.161c0.144-0.079,0.287-0.174,0.45-0.267c1.35-0.601,2.553,0.962,3.815,0.13
			c0.148-0.188,0.24-0.364,0.285-0.531c0.049-0.163,0.052-0.324,0.025-0.469c0.024-0.247,0.08-0.474,0.148-0.692
			c-0.298-0.047-0.624-0.003-0.927,0.024c-1.168,0.114-2.347-0.035-3.508-0.184c-0.753-0.094-1.527-0.194-2.203-0.542
			C5.627,10.379,5.008,9.564,4.189,9.03C3.747,8.746,3.245,8.534,2.877,8.156C2.446,7.706,2.266,7.071,2.13,6.458
			c-0.14-0.61-0.265-1.249-0.623-1.763c-0.072-0.101-0.158-0.198-0.253-0.29C1.294,4.917,1.429,5.479,1.6,6.107
			C1.542,6.266,1.481,6.42,1.41,6.576C1.202,7.052,0.942,7.536,0.637,8.04c0.032,0.094,0.058,0.188,0.093,0.287
			C0.761,8.42,0.796,8.519,0.833,8.622C0.797,8.735,0.754,8.848,0.702,8.966C0.546,9.324,0.316,9.703,0,10.133z"/>
		<path opacity="0.2" fill="#1D1D1B" d="M2.79,5.519c0.007,0.897,0.46,1.779,1.186,2.307c0.317,0.231,0.751,0.396,1.096,0.208
			C5.39,7.86,5.502,7.437,5.418,7.085c-0.085-0.352-0.322-0.646-0.569-0.91s-0.515-0.52-0.68-0.842
			C3.96,4.928,3.933,4.458,3.848,4.009c-0.085-0.448-0.257-0.92-0.645-1.161C2.816,2.607,2.183,2.759,2.099,3.207
			c-0.092,0.48,0.44,0.833,0.619,1.287C2.845,4.815,2.787,5.174,2.79,5.519z"/>
	</g>
</g>
</svg>
