<?xml version="1.0" encoding="utf-8"?>
<!-- Generator: Adobe Illustrator 16.0.4, SVG Export Plug-In . SVG Version: 6.00 Build 0)  -->
<!DOCTYPE svg PUBLIC "-//W3C//DTD SVG 1.1//EN" "http://www.w3.org/Graphics/SVG/1.1/DTD/svg11.dtd">
<svg version="1.1" id="分離模式" xmlns="http://www.w3.org/2000/svg" xmlns:xlink="http://www.w3.org/1999/xlink" x="0px"
	 y="0px" width="39.124px" height="38.036px" viewBox="0 0 39.124 38.036" enable-background="new 0 0 39.124 38.036"
	 xml:space="preserve">
<g>
	<path fill="#FF833B" d="M36.309,13.807c-0.884-2.497-2.766-4.126-4.654-6.023c-1.824-1.833-2.337-6.748-4.935-7.675
		c-2.443-0.873-5.727,3.82-8.156,4.006c-2.519,0.192-6.252-3.5-8.446-2.319C8.657,2.581,7.081,3.749,5.605,5.13
		C5.577,5.157,5.55,5.184,5.522,5.21c-0.318,0.3-0.63,0.61-0.936,0.93C4.522,6.206,4.459,6.271,4.396,6.337
		c-0.333,0.354-0.66,0.715-0.971,1.087c-0.05,0.06-0.1,0.119-0.148,0.179C2.978,7.966,2.689,8.335,2.417,8.71
		C2.372,8.773,2.33,8.838,2.285,8.901c-0.226,0.318-0.438,0.639-0.64,0.963c-0.059,0.094-0.119,0.188-0.176,0.282
		c-0.217,0.361-0.415,0.725-0.597,1.089c-0.049,0.097-0.094,0.195-0.14,0.292c-0.178,0.375-0.343,0.752-0.478,1.127
		c-0.003,0.009-0.008,0.018-0.012,0.027c0,0.001-0.001,0.003-0.001,0.005c-0.002,0.003-0.003,0.007-0.005,0.011
		c-1.066,2.986,1.776,6.927,2.268,9.847c0.6,3.558,0.766,7.958,3.274,10.566c1.86,1.934,4.699,3.961,7.397,4.924
		c0.078,0.028,1.255-3.095,1.333-3.07c3.779,1.293,6.556,1.103,10.099-0.031c2.463-0.788,5.675,0.092,7.596-1.666
		c1.866-1.708,3.602-3.986,4.63-6.455c0.127-0.29,1.748-0.084,1.855-0.385c0.002-0.005,0.003-0.01,0.005-0.015l0.001-0.001
		c0.003-0.007,0.004-0.014,0.007-0.021l-0.002,0.001C40.116,22.362,37.633,17.546,36.309,13.807z"/>
	<g>
		<path opacity="0.2" fill="#1D1D1B" d="M20.332,10.867c-0.593-0.616-1.459-0.872-2.291-1.07c-0.832-0.198-1.701-0.377-2.384-0.892
			c-0.378-1.131-0.755-2.262-1.133-3.394c-0.658,0.318-1.316,0.637-1.976,0.955c-0.118-0.137-0.237-0.273-0.355-0.41
			c-0.784,0.442-1.595,0.907-2.118,1.639C9.55,8.427,9.397,9.508,9.966,10.205c0.614,0.75,1.828,0.826,2.372,1.628
			c0.4,0.589,0.302,1.387,0.053,2.054c-0.249,0.667-0.632,1.29-0.771,1.988c-0.139,0.698,0.047,1.539,0.674,1.876
			c0.837,0.067,1.695,0.133,2.505-0.091c0.811-0.225,1.575-0.803,1.781-1.618c0.133-0.529,0.029-1.126,0.312-1.594
			c0.683-1.134,2.683-0.335,3.617-1.272C21.113,12.57,20.925,11.483,20.332,10.867z"/>
		<path opacity="0.2" fill="#1D1D1B" d="M2.512,22.529c0.599,3.558,0.764,7.958,3.273,10.566c1.86,1.934,4.699,3.961,7.397,4.924
			c0.078,0.027,1.255-3.096,1.334-3.071c3.778,1.293,6.555,1.103,10.098-0.031c2.463-0.788,5.675,0.092,7.596-1.666
			c1.644-1.503,3.154-3.459,4.201-5.587c-1.165,0.27-2.472,0.261-3.729,0.374c0.053-0.47-0.029-0.935-0.354-1.272
			c-0.757-0.788-2.294-0.451-2.907-1.356c-0.126-0.187-0.213-0.427-0.419-0.519c-0.257-0.115-0.543,0.062-0.769,0.231
			c-0.957,0.717-1.996,1.574-2.111,2.764c-0.046,0.479,0.078,0.951,0.312,1.37c-1.805,0.115-3.612-0.13-5.736-0.856
			c-0.036-0.011-1.214-0.287-2.663-0.763c0.433-0.592,0.866-1.185,1.299-1.777c0.345-0.471,0.707-1.052,0.501-1.598
			c-0.25-0.667-1.123-0.775-1.762-1.09c-0.883-0.436-1.464-1.412-2.417-1.658c-1.021-0.263-2.109,0.488-2.49,1.472
			c-0.264,0.681-0.24,1.427-0.072,2.146c-0.002-0.002-0.005-0.004-0.007-0.007c-2.155-2.239-3.701-4.378-4.158-7.593
			c0.66,0.126,1.439-0.234,1.482-0.9c0.014-0.222-0.053-0.441-0.119-0.654c-0.213-0.684-0.426-1.368-0.638-2.052
			c-0.138-0.441-0.299-0.917-0.68-1.179c-0.396-0.272-0.908-0.196-1.317,0.066c-0.91-2.26-1.945-4.683-1.232-6.68
			c0.347-0.971,0.861-1.948,1.465-2.907c-1.56,1.146-3.125,2.6-4.466,4.197c-0.05,0.06-0.1,0.119-0.148,0.179
			C2.978,7.966,2.689,8.335,2.417,8.71C2.372,8.773,2.33,8.838,2.285,8.901c-0.226,0.318-0.438,0.639-0.64,0.963
			c-0.059,0.094-0.119,0.188-0.176,0.282c-0.217,0.361-0.415,0.725-0.597,1.089c-0.049,0.097-0.094,0.195-0.14,0.292
			c-0.178,0.375-0.343,0.752-0.478,1.127c-0.004,0.011-0.009,0.021-0.013,0.033C-0.819,15.674,2.02,19.611,2.512,22.529z"/>
		<path opacity="0.2" fill="#1D1D1B" d="M22.709,14.328c-0.079-0.025-0.566,1.689-0.646,1.665c-1.353-0.426-0.928,1.416-2.281,0.99
			c-1,1.567-0.744,2.085,1.078,3.152c0.493,0.289,0.111,1.145,0.286,1.689c0.174,0.545,0.522,1.069,1.052,1.286
			c0.599,0.245,1.273,0.054,1.9-0.102c1.598-0.399,3.254-0.559,4.897-0.473c0.546-0.445,1.104-0.905,1.447-1.52
			c0.342-0.615,0.422-1.431,0.008-2c-0.349-0.479-0.952-0.683-1.516-0.861c-1.11-0.349-2.143-3.982-3.252-4.332
			C24.582,13.477,23.811,14.675,22.709,14.328z"/>
		<path opacity="0.2" fill="#1D1D1B" d="M22.971,8.918c0.127-1.06,0.255-2.119,0.382-3.179c-0.926-0.307-1.96-0.275-2.865,0.088
			c0-0.103,0.001-0.206,0.001-0.308c-0.178-0.129-0.355-0.259-0.533-0.388c-0.061,0.074-0.122,0.148-0.183,0.223
			c-0.091-0.033-0.181-0.065-0.271-0.098c-0.146,0.978-0.258,2.087,0.369,2.851C20.576,8.966,21.862,8.979,22.971,8.918z"/>
		<path opacity="0.2" fill="#1D1D1B" d="M33.361,15.782c0.127-1.06-1.503-4.845-1.376-5.905c-0.926-0.307-3.761-0.451-3.851-0.484
			c-0.146,0.978-0.258,2.087,0.369,2.851C29.208,13.104,32.251,15.842,33.361,15.782z"/>
		<path opacity="0.2" fill="#1D1D1B" d="M34.695,26.867c1.138-0.897,2.276-1.794,3.414-2.691c-0.596-1.183-1.621-2.144-2.84-2.663
			c0.099-0.098,0.198-0.196,0.297-0.294c-0.047-0.295-0.094-0.59-0.141-0.885c-0.13,0.013-0.26,0.026-0.39,0.039
			c-0.056-0.118-0.11-0.236-0.166-0.354c-1.077,0.801-2.248,1.76-2.378,3.096C32.346,24.616,33.57,25.861,34.695,26.867z"/>
	</g>
</g>
</svg>
