<?xml version="1.0" encoding="utf-8"?>
<!-- Generator: Adobe Illustrator 16.0.4, SVG Export Plug-In . SVG Version: 6.00 Build 0)  -->
<!DOCTYPE svg PUBLIC "-//W3C//DTD SVG 1.1//EN" "http://www.w3.org/Graphics/SVG/1.1/DTD/svg11.dtd">
<svg version="1.1" id="圖層_1" xmlns="http://www.w3.org/2000/svg" xmlns:xlink="http://www.w3.org/1999/xlink" x="0px" y="0px"
	 width="29.312px" height="17.326px" viewBox="0.219 0 29.312 17.326" enable-background="new 0.219 0 29.312 17.326"
	 xml:space="preserve">
<rect x="0" fill="#FFFFFF" width="469.354" height="17.327"/>
<path fill="#C81F25" d="M396.184,0H396.1h-29.195h-0.156h-29.195h-0.084h-29.195h-0.156h-29.195h-0.084h-29.195h-0.156h-29.195
	h-0.084h-29.273h-0.078h-29.273h-0.084h-29.195h-0.156h-29.195h-0.084H73.6h-0.084H44.248h-0.084H14.969h-0.156h-29.195h-0.084
	h-29.352v10.892c0.009,0,0.017,0,0.024,0c2.921,0,4.294,1.199,6.029,2.719c1.895,1.656,4.247,3.717,8.68,3.717
	c4.435,0,6.787-2.062,8.68-3.717c1.729-1.514,3.098-2.707,5.993-2.717c2.898,0.008,4.27,1.203,6,2.717
	c1.895,1.656,4.246,3.717,8.68,3.717s6.787-2.062,8.68-3.717c1.721-1.507,3.088-2.694,5.956-2.715
	c2.872,0.019,4.241,1.208,5.963,2.715c1.895,1.656,4.247,3.717,8.68,3.717c4.435,0,6.787-2.062,8.68-3.717
	c1.729-1.514,3.098-2.707,5.993-2.717c2.898,0.008,4.27,1.203,6,2.717c1.895,1.656,4.246,3.717,8.68,3.717s6.787-2.062,8.68-3.717
	c1.729-1.513,3.098-2.707,5.992-2.717c2.898,0.009,4.27,1.203,5.999,2.717c1.895,1.656,4.247,3.717,8.68,3.717
	c4.435,0,6.787-2.062,8.68-3.717c1.729-1.514,3.098-2.707,5.993-2.717c2.898,0.008,4.27,1.203,6,2.717
	c1.895,1.656,4.246,3.717,8.68,3.717s6.787-2.062,8.68-3.717c1.721-1.507,3.088-2.694,5.956-2.715
	c2.872,0.019,4.241,1.208,5.963,2.715c1.895,1.656,4.247,3.717,8.68,3.717c4.435,0,6.787-2.062,8.68-3.717
	c1.729-1.514,3.098-2.707,5.993-2.717c2.898,0.008,4.27,1.203,6,2.717c1.895,1.656,4.246,3.717,8.68,3.717s6.787-2.062,8.68-3.717
	c1.729-1.514,3.099-2.708,5.995-2.717c2.9,0.008,4.272,1.202,6.002,2.717c1.895,1.656,4.247,3.717,8.68,3.717
	c4.435,0,6.787-2.062,8.68-3.717c1.729-1.514,3.098-2.707,5.993-2.717c2.898,0.008,4.27,1.203,6,2.717
	c1.895,1.656,4.246,3.717,8.68,3.717s6.787-2.062,8.68-3.717c1.721-1.507,3.088-2.694,5.956-2.715
	c2.872,0.019,4.241,1.208,5.963,2.715c1.895,1.656,4.247,3.717,8.68,3.717c4.435,0,6.787-2.062,8.68-3.717
	c1.729-1.514,3.098-2.707,5.993-2.717c2.898,0.008,4.27,1.203,6,2.717c1.895,1.656,4.246,3.717,8.68,3.717s6.787-2.062,8.68-3.717
	c1.721-1.507,3.088-2.694,5.956-2.715c2.872,0.019,4.241,1.208,5.963,2.715c1.895,1.656,4.247,3.717,8.68,3.717
	c4.435,0,6.787-2.062,8.68-3.717c1.729-1.514,3.098-2.707,5.993-2.717c2.898,0.008,4.27,1.203,6,2.717
	c1.895,1.656,4.246,3.717,8.68,3.717s6.787-2.062,8.68-3.717c1.721-1.507,3.088-2.694,5.956-2.715
	c2.872,0.019,4.241,1.208,5.963,2.715c1.895,1.656,4.247,3.717,8.68,3.717c4.435,0,6.787-2.062,8.68-3.717
	c1.729-1.514,3.098-2.707,5.993-2.717c2.898,0.008,4.27,1.203,6,2.717c1.895,1.656,4.246,3.717,8.68,3.717s6.787-2.062,8.68-3.717
	c1.734-1.519,3.105-2.717,6.021-2.719V0H396.184z"/>
</svg>
